<?xml version="1.0" encoding="UTF-8" standalone="no"?><!DOCTYPE svg PUBLIC "-//W3C//DTD SVG 1.1//EN" "http://www.w3.org/Graphics/SVG/1.1/DTD/svg11.dtd"><svg width="100%" height="100%" viewBox="0 0 125 125" version="1.1" xmlns="http://www.w3.org/2000/svg" xmlns:xlink="http://www.w3.org/1999/xlink" xml:space="preserve" xmlns:serif="http://www.serif.com/" style="fill-rule:evenodd;clip-rule:evenodd;stroke-miterlimit:1.41421;"><g><g><clipPath id="_clip1"><path d="M121.45,62.697c0,32.643 -26.464,59.106 -59.105,59.106c-32.643,0 -59.105,-26.463 -59.105,-59.106c0,-32.641 26.462,-59.104 59.105,-59.104c32.641,0 59.105,26.463 59.105,59.104Z"/></clipPath><g clip-path="url(#_clip1)"><path d="M106.998,62.722c0,24.665 -19.995,44.659 -44.657,44.659c-24.664,0 -44.657,-19.994 -44.657,-44.659c0,-24.662 19.993,-44.654 44.657,-44.654c24.662,0 44.657,19.992 44.657,44.654Z" style="fill:#fff;fill-rule:nonzero;"/><path d="M106.998,62.722c0,24.665 -19.995,44.659 -44.657,44.659c-24.664,0 -44.657,-19.994 -44.657,-44.659c0,-24.662 19.993,-44.654 44.657,-44.654c24.662,0 44.657,19.992 44.657,44.654Z" style="fill:none;stroke:#265e7c;stroke-width:1.57px;"/><path d="M13.862,51.586c0,0 0.554,-2.677 3.973,-3.233c0.924,0.093 1.478,1.848 2.31,1.941c0.832,0.092 1.385,-2.125 2.957,-1.848c1.57,0.277 2.863,2.218 4.158,2.126c1.506,-0.11 3.508,-2.144 5.45,-1.757c1.85,0.369 1.85,0.369 4.067,0.555c2.217,0.185 9.424,-1.664 15.06,-1.109c5.637,0.554 8.408,1.849 9.98,1.663c1.57,-0.184 3.511,-2.033 5.175,-1.663c1.662,0.37 4.436,1.294 5.912,1.387c1.481,0.092 14.784,-2.588 18.758,-1.109c5.912,0.831 13.305,7.298 13.305,7.298l0,4.468l-90.089,0l-1.016,-8.719Z" style="fill:#dbe4e7;fill-rule:nonzero;"/><path d="M46.109,53.99c0,0 8.409,-0.463 10.533,-1.386c2.125,-0.924 12.845,1.663 14.6,0.831c1.756,-0.831 1.662,-1.016 3.143,-1.293c1.476,-0.277 12.842,0.923 14.875,1.479c2.033,0.554 5.082,1.663 7.946,1.109c1.386,-0.278 4.344,-0.924 6.468,-0.924c2.125,0 6.006,2.494 6.006,2.494l1.047,4.005l-64.802,0l0.184,-6.315Z" style="fill:#adc9da;fill-rule:nonzero;"/><path d="M14.416,55.375c0,0 3.511,-1.569 6.098,-0.923c7.484,0.923 8.87,0.184 12.105,-1.756c2.126,-0.831 5.544,2.126 7.761,1.571c2.218,-0.554 2.586,-0.832 4.158,-1.108c5.354,-0.586 19.969,6.182 31.878,4.016c11.907,-2.166 48.985,3.518 48.985,3.518l-8.659,31.396l-101.864,-30.246l-0.462,-6.468Z" style="fill:#5e85a5;fill-rule:nonzero;"/><path d="M12.271,63.94c0,0 10.015,-5.413 20.569,-5.953c10.555,-0.541 14.075,9.745 22.195,10.285c8.117,0.541 13.532,-3.249 22.463,-2.977c17.05,3.518 41.679,16.239 41.679,16.239l-14.074,21.923l-31.123,20.027l-42.764,-13.803l-18.945,-45.741Z" style="fill:#265e7c;fill-rule:nonzero;"/><path d="M106.998,62.317c0,24.663 -19.995,44.659 -44.657,44.659c-24.664,0 -44.657,-19.996 -44.657,-44.659c0,-24.663 19.993,-44.656 44.657,-44.656c24.662,0 44.657,19.993 44.657,44.656Z" style="fill:none;stroke:#265e7c;stroke-width:0.32px;"/><path d="M62.538,3.542l-0.004,0l-0.005,0l-0.025,0c-7.981,0 -15.731,1.566 -23.034,4.654c-7.048,2.98 -13.375,7.242 -18.805,12.669c-5.43,5.427 -9.695,11.751 -12.679,18.797c-3.093,7.302 -4.664,15.051 -4.668,23.031c-0.005,7.984 1.558,15.738 4.644,23.047c2.978,7.052 7.24,13.382 12.668,18.816c5.427,5.433 11.753,9.702 18.801,12.688c7.305,3.094 15.057,4.666 23.04,4.672l0.032,0c7.98,0 15.73,-1.566 23.035,-4.655c7.047,-2.981 13.374,-7.243 18.804,-12.67c5.43,-5.426 9.697,-11.751 12.68,-18.796c3.094,-7.303 4.665,-15.053 4.67,-23.034c0.003,-7.985 -1.559,-15.739 -4.646,-23.047c-2.978,-7.05 -7.24,-13.381 -12.667,-18.814c-5.428,-5.434 -11.753,-9.703 -18.801,-12.689c-7.306,-3.094 -15.058,-4.665 -23.04,-4.669Zm-0.034,15.936c0.008,0 0.016,0 0.025,0c23.887,0.013 43.238,19.388 43.227,43.273c-0.015,23.879 -19.378,43.228 -43.253,43.228c-0.009,0 -0.014,0 -0.022,0c-23.888,-0.015 -43.241,-19.388 -43.227,-43.277c0.014,-23.876 19.373,-43.223 43.25,-43.224Z" style="fill:#265e7c;fill-rule:nonzero;"/><path d="M25.357,115.077l8.052,0l0,-5.274l-2.04,0l5.858,-4.608l5.321,4.416l-2.231,0l0,5.374l6.184,-0.058l0,-13.602l8.252,0l0,12.619l2.582,0l0,-18.615l8.157,0l0,16.649l3.013,0l0,-10.244l6.287,-6.286l2.827,2.831l0,-2.78l1.922,0l0.001,4.7l1.531,1.535l0,7.077l6.345,0l0,-7.674l-3.167,0l7.677,-8.06l7.867,7.868l-3.357,0l0,7.989l8.987,0" style="fill:none;stroke:#fff;stroke-width:0.64px;"/><rect x="47.655" y="102.381" width="2.302" height="2.303" style="fill:none;stroke:#fff;stroke-width:0.47px;"/><rect x="58.871" y="96.576" width="1.919" height="3.6" style="fill:none;stroke:#fff;stroke-width:0.51px;"/><rect x="62.05" y="96.576" width="1.919" height="3.6" style="fill:none;stroke:#fff;stroke-width:0.51px;"/><rect x="58.871" y="101.55" width="1.919" height="3.602" style="fill:none;stroke:#fff;stroke-width:0.51px;"/><rect x="62.05" y="101.55" width="1.919" height="3.602" style="fill:none;stroke:#fff;stroke-width:0.51px;"/><rect x="58.871" y="106.562" width="1.919" height="3.603" style="fill:none;stroke:#fff;stroke-width:0.51px;"/><rect x="62.05" y="106.562" width="1.919" height="3.603" style="fill:none;stroke:#fff;stroke-width:0.51px;"/><rect x="51.203" y="102.381" width="2.304" height="2.303" style="fill:none;stroke:#fff;stroke-width:0.47px;"/><rect x="47.655" y="106.073" width="2.302" height="2.305" style="fill:none;stroke:#fff;stroke-width:0.47px;"/><rect x="51.203" y="106.073" width="2.304" height="2.305" style="fill:none;stroke:#fff;stroke-width:0.47px;"/><rect x="47.655" y="109.828" width="2.302" height="2.304" style="fill:none;stroke:#fff;stroke-width:0.47px;"/><rect x="51.203" y="109.828" width="2.304" height="2.304" style="fill:none;stroke:#fff;stroke-width:0.47px;"/><rect x="90.642" y="103.535" width="3.167" height="5.468" style="fill:none;stroke:#fff;stroke-width:0.47px;"/><rect x="35.957" y="111.481" width="1.892" height="3.722" style="fill:none;stroke:#fff;stroke-width:0.3px;"/><path d="M20.163,37.039c-0.294,-0.178 -0.578,-0.222 -0.851,-0.134c-0.273,0.09 -0.596,0.348 -0.97,0.774l2.108,1.276c0.204,-0.529 0.284,-0.934 0.24,-1.215c-0.045,-0.283 -0.219,-0.514 -0.527,-0.701Zm-3.472,-2.1c-0.705,-0.427 -1.388,-0.26 -2.046,0.503l2.55,1.543c0.37,-0.937 0.202,-1.619 -0.504,-2.046Zm5.084,-0.234c0.334,0.203 0.585,0.453 0.752,0.75c0.168,0.299 0.257,0.635 0.266,1.011c0.01,0.377 -0.06,0.786 -0.207,1.229c-0.147,0.442 -0.368,0.905 -0.66,1.388l-1.761,2.913l-8.082,-4.889l1.763,-2.912c0.272,-0.451 0.577,-0.832 0.912,-1.143c0.335,-0.31 0.683,-0.542 1.044,-0.695c0.36,-0.153 0.725,-0.219 1.098,-0.199c0.372,0.02 0.728,0.133 1.067,0.338c0.936,0.566 1.301,1.452 1.098,2.659c0.983,-0.797 1.886,-0.948 2.71,-0.45Z" style="fill:#fff;fill-rule:nonzero;"/><path d="M20.163,37.039c-0.294,-0.178 -0.578,-0.222 -0.851,-0.134c-0.273,0.09 -0.596,0.348 -0.97,0.774l2.108,1.276c0.204,-0.529 0.284,-0.934 0.24,-1.215c-0.045,-0.283 -0.219,-0.514 -0.527,-0.701Zm-3.472,-2.1c-0.705,-0.427 -1.388,-0.26 -2.046,0.503l2.55,1.543c0.37,-0.937 0.202,-1.619 -0.504,-2.046Zm5.084,-0.234c0.334,0.203 0.585,0.453 0.752,0.75c0.168,0.299 0.257,0.635 0.266,1.011c0.01,0.377 -0.06,0.786 -0.207,1.229c-0.147,0.442 -0.368,0.905 -0.66,1.388l-1.761,2.913l-8.082,-4.889l1.763,-2.912c0.272,-0.451 0.577,-0.832 0.912,-1.143c0.335,-0.31 0.683,-0.542 1.044,-0.695c0.36,-0.153 0.725,-0.219 1.098,-0.199c0.372,0.02 0.728,0.133 1.067,0.338c0.936,0.566 1.301,1.452 1.098,2.659c0.983,-0.797 1.886,-0.948 2.71,-0.45Z" style="fill:none;stroke:#231f20;stroke-width:0.44px;"/><path d="M21.501,29.057c-0.124,-0.102 -0.264,-0.145 -0.42,-0.13c-0.155,0.015 -0.284,0.085 -0.386,0.209c-0.103,0.124 -0.146,0.264 -0.131,0.421c0.016,0.154 0.085,0.284 0.209,0.385l3.586,2.948c0.119,0.098 0.257,0.14 0.415,0.127c0.159,-0.013 0.29,-0.081 0.392,-0.205c0.096,-0.117 0.138,-0.257 0.122,-0.419c-0.016,-0.161 -0.083,-0.29 -0.201,-0.387l-3.586,-2.949Zm4.095,0.399c0.3,0.247 0.536,0.541 0.708,0.879c0.172,0.34 0.275,0.691 0.311,1.057c0.035,0.366 0.002,0.732 -0.101,1.097c-0.102,0.366 -0.277,0.699 -0.525,1c-0.252,0.308 -0.547,0.548 -0.882,0.721c-0.337,0.174 -0.687,0.279 -1.053,0.315c-0.366,0.036 -0.73,0 -1.094,-0.105c-0.362,-0.105 -0.697,-0.286 -1.004,-0.538l-1.7,-1.397c-0.301,-0.248 -0.538,-0.541 -0.709,-0.879c-0.171,-0.339 -0.275,-0.691 -0.31,-1.058c-0.037,-0.365 -0.003,-0.731 0.1,-1.096c0.103,-0.366 0.278,-0.699 0.525,-1.001c0.248,-0.3 0.54,-0.535 0.876,-0.704c0.337,-0.169 0.69,-0.27 1.062,-0.307c0.371,-0.037 0.738,-0.004 1.1,0.097c0.362,0.1 0.695,0.274 0.995,0.522l1.701,1.397Z" style="fill:#fff;fill-rule:nonzero;"/><path d="M21.501,29.057c-0.124,-0.102 -0.264,-0.145 -0.42,-0.13c-0.155,0.015 -0.284,0.085 -0.386,0.209c-0.103,0.124 -0.146,0.264 -0.131,0.421c0.016,0.154 0.085,0.284 0.209,0.385l3.586,2.948c0.119,0.098 0.257,0.14 0.415,0.127c0.159,-0.013 0.29,-0.081 0.392,-0.205c0.096,-0.117 0.138,-0.257 0.122,-0.419c-0.016,-0.161 -0.083,-0.29 -0.201,-0.387l-3.586,-2.949Zm4.095,0.399c0.3,0.247 0.536,0.541 0.708,0.879c0.172,0.34 0.275,0.691 0.311,1.057c0.035,0.366 0.002,0.732 -0.101,1.097c-0.102,0.366 -0.277,0.699 -0.525,1c-0.252,0.308 -0.547,0.548 -0.882,0.721c-0.337,0.174 -0.687,0.279 -1.053,0.315c-0.366,0.036 -0.73,0 -1.094,-0.105c-0.362,-0.105 -0.697,-0.286 -1.004,-0.538l-1.7,-1.397c-0.301,-0.248 -0.538,-0.541 -0.709,-0.879c-0.171,-0.339 -0.275,-0.691 -0.31,-1.058c-0.037,-0.365 -0.003,-0.731 0.1,-1.096c0.103,-0.366 0.278,-0.699 0.525,-1.001c0.248,-0.3 0.54,-0.535 0.876,-0.704c0.337,-0.169 0.69,-0.27 1.062,-0.307c0.371,-0.037 0.738,-0.004 1.1,0.097c0.362,0.1 0.695,0.274 0.995,0.522l1.701,1.397Z" style="fill:none;stroke:#231f20;stroke-width:0.44px;"/><path d="M26.314,24.033c-0.11,-0.116 -0.243,-0.178 -0.399,-0.183c-0.157,-0.005 -0.294,0.046 -0.411,0.157c-0.117,0.109 -0.178,0.242 -0.183,0.398c-0.005,0.158 0.047,0.294 0.157,0.411l3.172,3.388c0.105,0.113 0.237,0.172 0.396,0.18c0.159,0.008 0.297,-0.043 0.414,-0.152c0.112,-0.105 0.17,-0.238 0.176,-0.401c0.005,-0.161 -0.045,-0.298 -0.149,-0.409l-3.173,-3.389Zm4.008,0.926c0.266,0.284 0.463,0.606 0.589,0.964c0.127,0.359 0.182,0.721 0.171,1.088c-0.012,0.367 -0.093,0.726 -0.242,1.074c-0.15,0.35 -0.366,0.658 -0.651,0.924c-0.29,0.273 -0.613,0.472 -0.968,0.602c-0.356,0.128 -0.717,0.187 -1.085,0.175c-0.367,-0.013 -0.723,-0.095 -1.07,-0.246c-0.346,-0.153 -0.655,-0.373 -0.927,-0.663l-1.505,-1.607c-0.265,-0.284 -0.462,-0.605 -0.588,-0.964c-0.126,-0.358 -0.183,-0.721 -0.172,-1.089c0.013,-0.366 0.093,-0.724 0.243,-1.074c0.149,-0.349 0.367,-0.656 0.65,-0.923c0.285,-0.267 0.605,-0.461 0.961,-0.585c0.354,-0.124 0.719,-0.179 1.091,-0.167c0.373,0.012 0.733,0.092 1.079,0.238c0.347,0.147 0.653,0.362 0.92,0.647l1.504,1.606Z" style="fill:#fff;fill-rule:nonzero;"/><path d="M26.314,24.033c-0.11,-0.116 -0.243,-0.178 -0.399,-0.183c-0.157,-0.005 -0.294,0.046 -0.411,0.157c-0.117,0.109 -0.178,0.242 -0.183,0.398c-0.005,0.158 0.047,0.294 0.157,0.411l3.172,3.388c0.105,0.113 0.237,0.172 0.396,0.18c0.159,0.008 0.297,-0.043 0.414,-0.152c0.112,-0.105 0.17,-0.238 0.176,-0.401c0.005,-0.161 -0.045,-0.298 -0.149,-0.409l-3.173,-3.389Zm4.008,0.926c0.266,0.284 0.463,0.606 0.589,0.964c0.127,0.359 0.182,0.721 0.171,1.088c-0.012,0.367 -0.093,0.726 -0.242,1.074c-0.15,0.35 -0.366,0.658 -0.651,0.924c-0.29,0.273 -0.613,0.472 -0.968,0.602c-0.356,0.128 -0.717,0.187 -1.085,0.175c-0.367,-0.013 -0.723,-0.095 -1.07,-0.246c-0.346,-0.153 -0.655,-0.373 -0.927,-0.663l-1.505,-1.607c-0.265,-0.284 -0.462,-0.605 -0.588,-0.964c-0.126,-0.358 -0.183,-0.721 -0.172,-1.089c0.013,-0.366 0.093,-0.724 0.243,-1.074c0.149,-0.349 0.367,-0.656 0.65,-0.923c0.285,-0.267 0.605,-0.461 0.961,-0.585c0.354,-0.124 0.719,-0.179 1.091,-0.167c0.373,0.012 0.733,0.092 1.079,0.238c0.347,0.147 0.653,0.362 0.92,0.647l1.504,1.606Z" style="fill:none;stroke:#231f20;stroke-width:0.44px;"/><path d="M35.34,24.707l-3.608,-5.028c-0.094,-0.13 -0.218,-0.207 -0.372,-0.233c-0.155,-0.026 -0.298,0.008 -0.428,0.103c-0.13,0.092 -0.206,0.215 -0.229,0.368c-0.022,0.152 0.013,0.293 0.107,0.424l3.609,5.028l-1.872,1.343l-4.571,-6.369l1.872,-1.343l0.247,0.345c0.139,-0.449 0.401,-0.81 0.786,-1.087c0.236,-0.169 0.495,-0.284 0.776,-0.344c0.281,-0.061 0.559,-0.068 0.837,-0.024c0.277,0.046 0.539,0.142 0.782,0.286c0.245,0.143 0.453,0.334 0.621,0.57l3.315,4.618l-1.872,1.343Z" style="fill:#fff;fill-rule:nonzero;"/><path d="M35.34,24.707l-3.608,-5.028c-0.094,-0.13 -0.218,-0.207 -0.372,-0.233c-0.155,-0.026 -0.298,0.008 -0.428,0.103c-0.13,0.092 -0.206,0.215 -0.229,0.368c-0.022,0.152 0.013,0.293 0.107,0.424l3.609,5.028l-1.872,1.343l-4.571,-6.369l1.872,-1.343l0.247,0.345c0.139,-0.449 0.401,-0.81 0.786,-1.087c0.236,-0.169 0.495,-0.284 0.776,-0.344c0.281,-0.061 0.559,-0.068 0.837,-0.024c0.277,0.046 0.539,0.142 0.782,0.286c0.245,0.143 0.453,0.334 0.621,0.57l3.315,4.618l-1.872,1.343Z" style="fill:none;stroke:#231f20;stroke-width:0.44px;"/><path d="M37.935,22.93l-1.276,-2.412l-0.375,0.199l-0.59,-1.114l0.375,-0.199l-1.801,-3.403l5.156,-2.73l0.504,0.953l-3.13,1.657l1.298,2.451l0.92,-0.487l0.591,1.113l-0.922,0.489l0.772,1.458l3.13,-1.656l0.504,0.952l-5.156,2.729Z" style="fill:#fff;fill-rule:nonzero;"/><path d="M37.935,22.93l-1.276,-2.412l-0.375,0.199l-0.59,-1.114l0.375,-0.199l-1.801,-3.403l5.156,-2.73l0.504,0.953l-3.13,1.657l1.298,2.451l0.92,-0.487l0.591,1.113l-0.922,0.489l0.772,1.458l3.13,-1.656l0.504,0.952l-5.156,2.729Z" style="fill:none;stroke:#231f20;stroke-width:0.44px;"/><path d="M50.348,17.736l-0.912,-3.161l-1.498,0.432l0.912,3.161l-2.655,0.765l-0.91,-3.161l-0.496,0.144l-0.42,-1.455l0.496,-0.143l-1.286,-4.46l2.654,-0.766l1.286,4.461l1.498,-0.431l-1.286,-4.46l2.654,-0.767l2.616,9.076l-2.653,0.765Z" style="fill:#fff;fill-rule:nonzero;"/><path d="M50.348,17.736l-0.912,-3.161l-1.498,0.432l0.912,3.161l-2.655,0.765l-0.91,-3.161l-0.496,0.144l-0.42,-1.455l0.496,-0.143l-1.286,-4.46l2.654,-0.766l1.286,4.461l1.498,-0.431l-1.286,-4.46l2.654,-0.767l2.616,9.076l-2.653,0.765Z" style="fill:none;stroke:#231f20;stroke-width:0.44px;"/><path d="M53.486,17.013l-1.312,-7.728l2.248,-0.383l1.313,7.73l-2.249,0.381Z" style="fill:#fff;fill-rule:nonzero;"/><path d="M53.486,17.013l-1.312,-7.728l2.248,-0.383l1.313,7.73l-2.249,0.381Z" style="fill:none;stroke:#231f20;stroke-width:0.44px;"/><path d="M60.949,16.136l-0.289,-0.484c-0.485,0.373 -1.014,0.582 -1.586,0.625c-0.396,0.03 -0.773,-0.016 -1.13,-0.139c-0.359,-0.122 -0.677,-0.304 -0.955,-0.542c-0.279,-0.24 -0.505,-0.527 -0.68,-0.863c-0.175,-0.336 -0.277,-0.701 -0.307,-1.098l-0.16,-2.102c-0.028,-0.39 0.02,-0.764 0.147,-1.121c0.126,-0.358 0.309,-0.676 0.549,-0.955c0.238,-0.278 0.526,-0.508 0.86,-0.686c0.337,-0.178 0.699,-0.282 1.087,-0.312c0.381,-0.028 0.747,0.017 1.096,0.137c0.35,0.118 0.664,0.294 0.942,0.526c0.279,0.232 0.509,0.51 0.69,0.833c0.181,0.323 0.294,0.675 0.338,1.054l-2.286,0.174l-0.084,-1.121c-0.013,-0.16 -0.078,-0.291 -0.197,-0.392c-0.119,-0.103 -0.258,-0.148 -0.419,-0.136c-0.158,0.012 -0.291,0.077 -0.392,0.197c-0.102,0.118 -0.148,0.258 -0.135,0.417l0.341,4.526c0.012,0.16 0.077,0.291 0.196,0.394c0.119,0.102 0.258,0.146 0.419,0.135c0.159,-0.012 0.291,-0.077 0.393,-0.197c0.102,-0.119 0.148,-0.258 0.135,-0.418l-0.168,-2.228l2.285,-0.173l0.293,3.874l-0.983,0.075Z" style="fill:#fff;fill-rule:nonzero;"/><path d="M60.949,16.136l-0.289,-0.484c-0.485,0.373 -1.014,0.582 -1.586,0.625c-0.396,0.03 -0.773,-0.016 -1.13,-0.139c-0.359,-0.122 -0.677,-0.304 -0.955,-0.542c-0.279,-0.24 -0.505,-0.527 -0.68,-0.863c-0.175,-0.336 -0.277,-0.701 -0.307,-1.098l-0.16,-2.102c-0.028,-0.39 0.02,-0.764 0.147,-1.121c0.126,-0.358 0.309,-0.676 0.549,-0.955c0.238,-0.278 0.526,-0.508 0.86,-0.686c0.337,-0.178 0.699,-0.282 1.087,-0.312c0.381,-0.028 0.747,0.017 1.096,0.137c0.35,0.118 0.664,0.294 0.942,0.526c0.279,0.232 0.509,0.51 0.69,0.833c0.181,0.323 0.294,0.675 0.338,1.054l-2.286,0.174l-0.084,-1.121c-0.013,-0.16 -0.078,-0.291 -0.197,-0.392c-0.119,-0.103 -0.258,-0.148 -0.419,-0.136c-0.158,0.012 -0.291,0.077 -0.392,0.197c-0.102,0.118 -0.148,0.258 -0.135,0.417l0.341,4.526c0.012,0.16 0.077,0.291 0.196,0.394c0.119,0.102 0.258,0.146 0.419,0.135c0.159,-0.012 0.291,-0.077 0.393,-0.197c0.102,-0.119 0.148,-0.258 0.135,-0.418l-0.168,-2.228l2.285,-0.173l0.293,3.874l-0.983,0.075Z" style="fill:none;stroke:#231f20;stroke-width:0.44px;"/><path d="M66.362,16.275l0.162,-2.722l-1.292,-0.077l-0.163,2.722l-2.287,-0.136l0.161,-2.723l-0.424,-0.025l0.077,-1.259l0.422,0.025l0.229,-3.844l2.289,0.136l-0.229,3.844l1.293,0.078l0.228,-3.845l2.289,0.136l-0.467,7.827l-2.288,-0.137Z" style="fill:#fff;fill-rule:nonzero;"/><path d="M66.362,16.275l0.162,-2.722l-1.292,-0.077l-0.163,2.722l-2.287,-0.136l0.161,-2.723l-0.424,-0.025l0.077,-1.259l0.422,0.025l0.229,-3.844l2.289,0.136l-0.229,3.844l1.293,0.078l0.228,-3.845l2.289,0.136l-0.467,7.827l-2.288,-0.137Z" style="fill:none;stroke:#231f20;stroke-width:0.44px;"/><path d="M78.366,16.554c-0.288,0.341 -0.623,0.619 -1.003,0.83c-0.38,0.212 -0.793,0.349 -1.236,0.413c-0.444,0.064 -0.887,0.037 -1.33,-0.081c-0.459,-0.12 -0.865,-0.323 -1.221,-0.607c-0.354,-0.285 -0.644,-0.618 -0.867,-1.001c-0.222,-0.383 -0.369,-0.8 -0.44,-1.249c-0.07,-0.449 -0.044,-0.904 0.078,-1.361l0.651,-2.459c0.12,-0.451 0.322,-0.856 0.607,-1.216c0.285,-0.359 0.619,-0.649 1.003,-0.872c0.383,-0.222 0.799,-0.369 1.249,-0.44c0.449,-0.07 0.902,-0.045 1.36,0.076c0.444,0.118 0.842,0.315 1.196,0.591c0.353,0.275 0.642,0.601 0.867,0.976c0.225,0.376 0.378,0.783 0.46,1.219c0.081,0.438 0.071,0.879 -0.032,1.326l-2.67,-0.708l0.347,-1.308c0.049,-0.184 0.024,-0.359 -0.074,-0.522c-0.1,-0.166 -0.241,-0.273 -0.426,-0.321c-0.184,-0.049 -0.357,-0.026 -0.516,0.071c-0.16,0.095 -0.264,0.235 -0.313,0.42l-1.405,5.296c-0.048,0.185 -0.027,0.359 0.063,0.52c0.092,0.163 0.23,0.269 0.414,0.318c0.185,0.048 0.361,0.026 0.529,-0.068c0.166,-0.093 0.275,-0.232 0.324,-0.417l0.346,-1.307l2.671,0.707c-0.133,0.439 -0.344,0.83 -0.632,1.174Z" style="fill:#fff;fill-rule:nonzero;"/><path d="M78.366,16.554c-0.288,0.341 -0.623,0.619 -1.003,0.83c-0.38,0.212 -0.793,0.349 -1.236,0.413c-0.444,0.064 -0.887,0.037 -1.33,-0.081c-0.459,-0.12 -0.865,-0.323 -1.221,-0.607c-0.354,-0.285 -0.644,-0.618 -0.867,-1.001c-0.222,-0.383 -0.369,-0.8 -0.44,-1.249c-0.07,-0.449 -0.044,-0.904 0.078,-1.361l0.651,-2.459c0.12,-0.451 0.322,-0.856 0.607,-1.216c0.285,-0.359 0.619,-0.649 1.003,-0.872c0.383,-0.222 0.799,-0.369 1.249,-0.44c0.449,-0.07 0.902,-0.045 1.36,0.076c0.444,0.118 0.842,0.315 1.196,0.591c0.353,0.275 0.642,0.601 0.867,0.976c0.225,0.376 0.378,0.783 0.46,1.219c0.081,0.438 0.071,0.879 -0.032,1.326l-2.67,-0.708l0.347,-1.308c0.049,-0.184 0.024,-0.359 -0.074,-0.522c-0.1,-0.166 -0.241,-0.273 -0.426,-0.321c-0.184,-0.049 -0.357,-0.026 -0.516,0.071c-0.16,0.095 -0.264,0.235 -0.313,0.42l-1.405,5.296c-0.048,0.185 -0.027,0.359 0.063,0.52c0.092,0.163 0.23,0.269 0.414,0.318c0.185,0.048 0.361,0.026 0.529,-0.068c0.166,-0.093 0.275,-0.232 0.324,-0.417l0.346,-1.307l2.671,0.707c-0.133,0.439 -0.344,0.83 -0.632,1.174Z" style="fill:none;stroke:#231f20;stroke-width:0.44px;"/><path d="M84.104,14.425c0.062,-0.149 0.064,-0.294 0.005,-0.44c-0.058,-0.145 -0.161,-0.249 -0.309,-0.311c-0.148,-0.063 -0.295,-0.065 -0.44,-0.007c-0.145,0.06 -0.248,0.162 -0.311,0.311l-1.815,4.272c-0.06,0.14 -0.061,0.285 -0.003,0.434c0.057,0.149 0.159,0.255 0.307,0.317c0.14,0.06 0.285,0.06 0.437,-0.002c0.149,-0.06 0.255,-0.161 0.314,-0.301l1.815,-4.273Zm0.775,4.04c-0.152,0.358 -0.368,0.668 -0.644,0.928c-0.277,0.26 -0.586,0.46 -0.926,0.597c-0.341,0.138 -0.701,0.209 -1.081,0.213c-0.379,0.005 -0.748,-0.069 -1.107,-0.22c-0.366,-0.156 -0.68,-0.37 -0.941,-0.643c-0.262,-0.274 -0.462,-0.581 -0.6,-0.92c-0.137,-0.342 -0.206,-0.7 -0.207,-1.079c-0.002,-0.379 0.075,-0.751 0.231,-1.116l0.859,-2.026c0.153,-0.359 0.367,-0.667 0.644,-0.929c0.276,-0.26 0.585,-0.458 0.927,-0.596c0.34,-0.137 0.7,-0.209 1.08,-0.214c0.379,-0.005 0.749,0.069 1.107,0.222c0.358,0.152 0.666,0.366 0.923,0.641c0.257,0.276 0.456,0.586 0.595,0.931c0.139,0.346 0.212,0.706 0.219,1.082c0.005,0.377 -0.068,0.744 -0.219,1.103l-0.86,2.026Z" style="fill:#fff;fill-rule:nonzero;"/><path d="M84.104,14.425c0.062,-0.149 0.064,-0.294 0.005,-0.44c-0.058,-0.145 -0.161,-0.249 -0.309,-0.311c-0.148,-0.063 -0.295,-0.065 -0.44,-0.007c-0.145,0.06 -0.248,0.162 -0.311,0.311l-1.815,4.272c-0.06,0.14 -0.061,0.285 -0.003,0.434c0.057,0.149 0.159,0.255 0.307,0.317c0.14,0.06 0.285,0.06 0.437,-0.002c0.149,-0.06 0.255,-0.161 0.314,-0.301l1.815,-4.273Zm0.775,4.04c-0.152,0.358 -0.368,0.668 -0.644,0.928c-0.277,0.26 -0.586,0.46 -0.926,0.597c-0.341,0.138 -0.701,0.209 -1.081,0.213c-0.379,0.005 -0.748,-0.069 -1.107,-0.22c-0.366,-0.156 -0.68,-0.37 -0.941,-0.643c-0.262,-0.274 -0.462,-0.581 -0.6,-0.92c-0.137,-0.342 -0.206,-0.7 -0.207,-1.079c-0.002,-0.379 0.075,-0.751 0.231,-1.116l0.859,-2.026c0.153,-0.359 0.367,-0.667 0.644,-0.929c0.276,-0.26 0.585,-0.458 0.927,-0.596c0.34,-0.137 0.7,-0.209 1.08,-0.214c0.379,-0.005 0.749,0.069 1.107,0.222c0.358,0.152 0.666,0.366 0.923,0.641c0.257,0.276 0.456,0.586 0.595,0.931c0.139,0.346 0.212,0.706 0.219,1.082c0.005,0.377 -0.068,0.744 -0.219,1.103l-0.86,2.026Z" style="fill:none;stroke:#231f20;stroke-width:0.44px;"/><path d="M89.755,22.555c-0.309,0.222 -0.64,0.38 -0.996,0.471c-0.356,0.093 -0.722,0.117 -1.098,0.073c-0.377,-0.045 -0.735,-0.165 -1.071,-0.363c-0.342,-0.201 -0.626,-0.454 -0.85,-0.758c-0.224,-0.306 -0.382,-0.636 -0.475,-0.991c-0.092,-0.356 -0.115,-0.721 -0.067,-1.097c0.048,-0.375 0.172,-0.733 0.374,-1.076l2.566,-4.368l1.986,1.168l-3.188,5.425c-0.077,0.132 -0.099,0.273 -0.064,0.426c0.033,0.154 0.12,0.271 0.258,0.351c0.139,0.082 0.284,0.104 0.435,0.064c0.151,-0.04 0.268,-0.128 0.35,-0.266l3.188,-5.426l1.976,1.162l-2.567,4.367c-0.197,0.336 -0.45,0.615 -0.757,0.838Z" style="fill:#fff;fill-rule:nonzero;"/><path d="M89.755,22.555c-0.309,0.222 -0.64,0.38 -0.996,0.471c-0.356,0.093 -0.722,0.117 -1.098,0.073c-0.377,-0.045 -0.735,-0.165 -1.071,-0.363c-0.342,-0.201 -0.626,-0.454 -0.85,-0.758c-0.224,-0.306 -0.382,-0.636 -0.475,-0.991c-0.092,-0.356 -0.115,-0.721 -0.067,-1.097c0.048,-0.375 0.172,-0.733 0.374,-1.076l2.566,-4.368l1.986,1.168l-3.188,5.425c-0.077,0.132 -0.099,0.273 -0.064,0.426c0.033,0.154 0.12,0.271 0.258,0.351c0.139,0.082 0.284,0.104 0.435,0.064c0.151,-0.04 0.268,-0.128 0.35,-0.266l3.188,-5.426l1.976,1.162l-2.567,4.367c-0.197,0.336 -0.45,0.615 -0.757,0.838Z" style="fill:none;stroke:#231f20;stroke-width:0.44px;"/><path d="M92.184,26.467l3.802,-4.883c0.098,-0.127 0.138,-0.267 0.119,-0.423c-0.02,-0.155 -0.092,-0.283 -0.219,-0.382c-0.126,-0.097 -0.266,-0.136 -0.419,-0.114c-0.152,0.022 -0.278,0.095 -0.377,0.222l-3.802,4.883l-1.817,-1.415l4.816,-6.185l1.818,1.415l-0.26,0.335c0.468,0.007 0.89,0.155 1.264,0.447c0.228,0.179 0.412,0.393 0.55,0.646c0.138,0.252 0.223,0.519 0.259,0.797c0.033,0.278 0.016,0.556 -0.052,0.831c-0.07,0.276 -0.194,0.528 -0.372,0.757l-3.493,4.485l-1.817,-1.416Z" style="fill:#fff;fill-rule:nonzero;"/><path d="M92.184,26.467l3.802,-4.883c0.098,-0.127 0.138,-0.267 0.119,-0.423c-0.02,-0.155 -0.092,-0.283 -0.219,-0.382c-0.126,-0.097 -0.266,-0.136 -0.419,-0.114c-0.152,0.022 -0.278,0.095 -0.377,0.222l-3.802,4.883l-1.817,-1.415l4.816,-6.185l1.818,1.415l-0.26,0.335c0.468,0.007 0.89,0.155 1.264,0.447c0.228,0.179 0.412,0.393 0.55,0.646c0.138,0.252 0.223,0.519 0.259,0.797c0.033,0.278 0.016,0.556 -0.052,0.831c-0.07,0.276 -0.194,0.528 -0.372,0.757l-3.493,4.485l-1.817,-1.416Z" style="fill:none;stroke:#231f20;stroke-width:0.44px;"/><path d="M102.116,26.448l-4.836,4.728l-1.61,-1.647l4.835,-4.728l-1.346,-1.377l0.77,-0.752l4.295,4.392l-0.77,0.753l-1.338,-1.369Z" style="fill:#fff;fill-rule:nonzero;"/><path d="M102.116,26.448l-4.836,4.728l-1.61,-1.647l4.835,-4.728l-1.346,-1.377l0.77,-0.752l4.295,4.392l-0.77,0.753l-1.338,-1.369Z" style="fill:none;stroke:#231f20;stroke-width:0.44px;"/><path d="M105.452,32.873c0.285,-0.207 0.469,-0.486 0.553,-0.836c0.084,-0.351 0.051,-0.688 -0.101,-1.014l-2.351,1.719c0.263,0.243 0.575,0.378 0.935,0.403c0.36,0.027 0.68,-0.064 0.964,-0.272Zm-4.272,3.109l1.267,-0.927c0.278,-0.202 0.435,-0.459 0.473,-0.771c0.038,-0.311 -0.047,-0.609 -0.254,-0.893l-2.204,1.61l-1.358,-1.86l2.202,-1.609l-0.217,-0.297l1.018,-0.744l0.217,0.297l3.109,-2.273l1.678,2.294c0.454,0.624 0.679,1.312 0.671,2.065c-0.012,0.813 -0.327,1.445 -0.943,1.896c-0.371,0.271 -0.779,0.414 -1.227,0.428c-0.448,0.016 -0.883,-0.078 -1.305,-0.28c0.004,0.601 -0.127,1.168 -0.392,1.698c-0.266,0.53 -0.639,0.97 -1.12,1.323l-0.121,0.087l-1.494,-2.044Z" style="fill:#fff;fill-rule:nonzero;"/><path d="M105.452,32.873c0.285,-0.207 0.469,-0.486 0.553,-0.836c0.084,-0.351 0.051,-0.688 -0.101,-1.014l-2.351,1.719c0.263,0.243 0.575,0.378 0.935,0.403c0.36,0.027 0.68,-0.064 0.964,-0.272Zm-4.272,3.109l1.267,-0.927c0.278,-0.202 0.435,-0.459 0.473,-0.771c0.038,-0.311 -0.047,-0.609 -0.254,-0.893l-2.204,1.61l-1.358,-1.86l2.202,-1.609l-0.217,-0.297l1.018,-0.744l0.217,0.297l3.109,-2.273l1.678,2.294c0.454,0.624 0.679,1.312 0.671,2.065c-0.012,0.813 -0.327,1.445 -0.943,1.896c-0.371,0.271 -0.779,0.414 -1.227,0.428c-0.448,0.016 -0.883,-0.078 -1.305,-0.28c0.004,0.601 -0.127,1.168 -0.392,1.698c-0.266,0.53 -0.639,0.97 -1.12,1.323l-0.121,0.087l-1.494,-2.044Z" style="fill:none;stroke:#231f20;stroke-width:0.44px;"/><path d="M109.546,41.194c-0.276,0.052 -0.551,0.067 -0.828,0.046c-0.275,-0.023 -0.543,-0.082 -0.804,-0.181c-0.261,-0.099 -0.499,-0.238 -0.716,-0.417l-2.427,1.297l-1.08,-2.022l2.427,-1.296c-0.021,-0.284 -0.004,-0.562 0.054,-0.835c0.058,-0.274 0.152,-0.53 0.284,-0.769c0.132,-0.24 0.297,-0.458 0.495,-0.654c0.198,-0.198 0.421,-0.363 0.672,-0.496l2.173,-1.161l1.08,2.022l-3.245,1.733c-0.141,0.077 -0.236,0.189 -0.28,0.339c-0.046,0.15 -0.031,0.296 0.044,0.437c0.077,0.142 0.189,0.236 0.34,0.28c0.149,0.046 0.294,0.032 0.437,-0.044l3.244,-1.735l1.081,2.023l-2.174,1.161c-0.243,0.13 -0.502,0.22 -0.777,0.272Z" style="fill:#fff;fill-rule:nonzero;"/><path d="M109.546,41.194c-0.276,0.052 -0.551,0.067 -0.828,0.046c-0.275,-0.023 -0.543,-0.082 -0.804,-0.181c-0.261,-0.099 -0.499,-0.238 -0.716,-0.417l-2.427,1.297l-1.08,-2.022l2.427,-1.296c-0.021,-0.284 -0.004,-0.562 0.054,-0.835c0.058,-0.274 0.152,-0.53 0.284,-0.769c0.132,-0.24 0.297,-0.458 0.495,-0.654c0.198,-0.198 0.421,-0.363 0.672,-0.496l2.173,-1.161l1.08,2.022l-3.245,1.733c-0.141,0.077 -0.236,0.189 -0.28,0.339c-0.046,0.15 -0.031,0.296 0.044,0.437c0.077,0.142 0.189,0.236 0.34,0.28c0.149,0.046 0.294,0.032 0.437,-0.044l3.244,-1.735l1.081,2.023l-2.174,1.161c-0.243,0.13 -0.502,0.22 -0.777,0.272Z" style="fill:none;stroke:#231f20;stroke-width:0.44px;"/></g></g><path d="M22.448,79.853c0.167,-0.063 0.33,-0.14 0.488,-0.232c0.31,-0.18 0.58,-0.406 0.803,-0.673c0.222,-0.269 0.402,-0.572 0.531,-0.898c0.129,-0.323 0.194,-0.666 0.194,-1.023c0,-0.348 -0.064,-0.679 -0.195,-1.016c-0.129,-0.331 -0.31,-0.634 -0.539,-0.902c-0.231,-0.271 -0.503,-0.503 -0.813,-0.694c-0.151,-0.094 -0.307,-0.172 -0.469,-0.235l0,5.673Zm1.993,9.984l0,-4.109c0,-0.343 -0.06,-0.659 -0.178,-0.939c-0.117,-0.277 -0.28,-0.51 -0.498,-0.709c-0.217,-0.199 -0.478,-0.358 -0.777,-0.474c-0.172,-0.065 -0.353,-0.111 -0.54,-0.14l0,6.371l-6.261,0l0,-6.402l-0.871,0l0,-3.806l0.871,0l0,-9.036l7.079,0c0.978,0 1.934,0.163 2.843,0.483c0.901,0.318 1.71,0.766 2.403,1.334c0.696,0.568 1.262,1.254 1.681,2.037c0.427,0.8 0.643,1.668 0.643,2.58c0,1.075 -0.317,2.103 -0.942,3.056c-0.504,0.77 -1.162,1.432 -1.964,1.976c0.97,0.789 1.747,1.744 2.311,2.848c0.661,1.288 0.997,2.681 0.997,4.142l0,0.788l-6.797,0Z" style="fill:#fff56c;fill-rule:nonzero;"/><path d="M22.878,79.149l0,-4.242c0.195,0.14 0.37,0.301 0.523,0.48c0.2,0.233 0.355,0.494 0.467,0.78c0.112,0.286 0.166,0.567 0.166,0.86c0,0.302 -0.055,0.591 -0.163,0.859c-0.114,0.29 -0.27,0.553 -0.464,0.789c-0.151,0.181 -0.329,0.339 -0.529,0.474Zm0.388,-8.986l-6.649,0l-0.861,0l0,9.036l-0.009,0l-0.862,0l0,4.667l0.871,0l0,6.402l7.122,0l0,-0.861l0,-5.382c0.226,0.093 0.429,0.219 0.598,0.373c0.169,0.156 0.297,0.34 0.392,0.56c0.094,0.225 0.143,0.485 0.143,0.77l0,4.54l7.657,0l0,-0.861l0,-0.358c0,-1.53 -0.351,-2.99 -1.044,-4.34c-0.507,-0.993 -1.179,-1.871 -2.002,-2.623c0.648,-0.507 1.195,-1.098 1.633,-1.767c0.672,-1.024 1.012,-2.132 1.012,-3.292c0,-0.983 -0.232,-1.919 -0.694,-2.783c-0.446,-0.833 -1.048,-1.563 -1.789,-2.168c-0.73,-0.598 -1.583,-1.071 -2.532,-1.406c-0.955,-0.337 -1.959,-0.507 -2.986,-0.507Zm-1.249,10.253c0.402,-0.074 0.78,-0.215 1.136,-0.423c0.357,-0.206 0.663,-0.465 0.916,-0.769c0.252,-0.304 0.454,-0.643 0.602,-1.017c0.148,-0.37 0.223,-0.765 0.223,-1.18c0,-0.403 -0.075,-0.792 -0.223,-1.172c-0.148,-0.38 -0.354,-0.722 -0.614,-1.026c-0.259,-0.305 -0.565,-0.566 -0.914,-0.781c-0.349,-0.216 -0.724,-0.362 -1.126,-0.436l0,6.804Zm1.249,-9.392c0.937,0 1.836,0.154 2.699,0.458c0.862,0.305 1.62,0.725 2.275,1.261c0.654,0.534 1.18,1.171 1.573,1.906c0.393,0.737 0.592,1.53 0.592,2.378c0,0.995 -0.29,1.935 -0.871,2.821c-0.58,0.885 -1.368,1.61 -2.364,2.175c1.16,0.818 2.057,1.845 2.688,3.08c0.633,1.233 0.949,2.548 0.949,3.946l0,0.358l-5.935,0l0,-3.679c0,-0.403 -0.071,-0.773 -0.211,-1.107c-0.143,-0.333 -0.344,-0.619 -0.604,-0.859c-0.259,-0.237 -0.565,-0.423 -0.914,-0.558c-0.349,-0.132 -0.724,-0.2 -1.126,-0.2l0,6.403l-5.4,0l0,-6.403l-0.87,0l0,-2.944l0.87,0l0,-9.036l6.649,0Z" style="fill:#231f20;fill-rule:nonzero;"/><path d="M32.539,89.837l0,-5.309l-0.825,0l0,-3.315l0.825,0l0,-7.497l12.217,0l0,2.961l-6.892,0l0,4.536l2.028,0l0,3.315l-2.028,0l0,2.351l6.892,0l0,2.958l-12.217,0Z" style="fill:#fff56c;fill-rule:nonzero;"/><path d="M45.187,73.286l-0.862,0l-11.355,0l-0.862,0l0,7.498l-0.824,0l0,4.175l0.824,0l0,5.309l13.079,0l0,-0.861l0,-2.097l0,-0.861l-0.862,0l-6.031,0l0,-1.49l2.028,0l0,-0.861l0,-2.454l0,-0.86l-0.861,0l-1.167,0l0,-3.677l6.893,0l0,-0.861l0,-2.1l0,-0.86Zm-0.862,0.86l0,2.1l-6.892,0l0,5.398l2.028,0l0,2.454l-2.028,0l0,3.212l6.892,0l0,2.097l-11.355,0l0,-5.309l-0.826,0l0,-2.454l0.826,0l0,-7.498l11.355,0Z" style="fill:#231f20;fill-rule:nonzero;"/><path d="M51.926,89.837l0,-12.475c0,-0.199 -0.063,-0.355 -0.196,-0.488c-0.137,-0.134 -0.292,-0.197 -0.489,-0.197c-0.195,0 -0.346,0.061 -0.472,0.192c-0.13,0.134 -0.191,0.291 -0.191,0.493l0,12.475l-5.346,0l0,-16.121l5.346,0l0,0.48c0.627,-0.319 1.312,-0.48 2.046,-0.48c0.617,0 1.218,0.125 1.788,0.37c0.563,0.246 1.062,0.585 1.483,1.007c0.423,0.424 0.762,0.918 1.005,1.468c0.246,0.559 0.371,1.159 0.371,1.781l0,11.495l-5.345,0Z" style="fill:#fff56c;fill-rule:nonzero;"/><path d="M52.624,73.286c-0.566,0 -1.106,0.087 -1.616,0.261l0,-0.261l-0.861,0l-4.484,0l-0.862,0l0,16.982l6.207,0l0,-0.861l0,-12.045c0,-0.102 0.026,-0.148 0.07,-0.193c0.035,-0.037 0.067,-0.062 0.163,-0.062c0.094,0 0.137,0.025 0.187,0.074c0.043,0.043 0.067,0.085 0.067,0.181l0,12.906l6.207,0l0,-0.861l0,-11.065c0,-0.683 -0.137,-1.341 -0.408,-1.955c-0.266,-0.599 -0.633,-1.136 -1.094,-1.598c-0.459,-0.461 -1.003,-0.83 -1.615,-1.097c-0.627,-0.27 -1.285,-0.406 -1.961,-0.406Zm0,0.86c0.565,0 1.104,0.114 1.617,0.337c0.513,0.223 0.962,0.527 1.349,0.914c0.387,0.388 0.693,0.833 0.916,1.339c0.224,0.506 0.334,1.041 0.334,1.606l0,11.065l-4.483,0l0,-12.045c0,-0.313 -0.108,-0.578 -0.323,-0.793c-0.218,-0.216 -0.48,-0.323 -0.793,-0.323c-0.312,0 -0.573,0.107 -0.782,0.323c-0.208,0.215 -0.312,0.48 -0.312,0.793l0,12.045l-4.484,0l0,-15.261l4.484,0l0,0.827c0.729,-0.549 1.554,-0.827 2.477,-0.827Z" style="fill:#231f20;fill-rule:nonzero;"/><path d="M61.497,89.837l0,-13.16l-3.749,0l0,-2.961l12.82,0l0,2.961l-3.728,0l0,13.16l-5.343,0Z" style="fill:#fff56c;fill-rule:nonzero;"/><path d="M70.998,73.286l-0.861,0l-11.958,0l-0.862,0l0,3.821l3.75,0l0,13.161l6.204,0l0,-0.861l0,-12.3l3.727,0l0,-0.861l0,-2.1l0,-0.86Zm-0.861,0.86l0,2.1l-3.726,0l0,13.161l-4.483,0l0,-13.161l-3.749,0l0,-2.1l11.958,0Z" style="fill:#231f20;fill-rule:nonzero;"/><path d="M78.563,81.213l0,-3.851c0,-0.198 -0.063,-0.353 -0.198,-0.487c-0.135,-0.136 -0.283,-0.198 -0.466,-0.198c-0.198,0 -0.351,0.062 -0.483,0.195c-0.139,0.136 -0.201,0.291 -0.201,0.49l0,3.851l1.348,0Zm0,8.624l0,-5.309l-1.348,0l0,5.309l-5.345,0l0,-5.309l-0.826,0l0,-3.315l0.826,0l0,-1.487c0,-1.628 0.597,-3.051 1.775,-4.231c1.18,-1.18 2.611,-1.779 4.254,-1.779c1.628,0 3.052,0.599 4.231,1.779c1.179,1.179 1.778,2.603 1.778,4.231l0,10.111l-5.345,0Z" style="fill:#fff56c;fill-rule:nonzero;"/><path d="M77.646,80.784l0,-3.422c0,-0.095 0.023,-0.134 0.067,-0.179c0.051,-0.051 0.094,-0.076 0.186,-0.076c0.06,0 0.1,0.011 0.158,0.069c0.05,0.05 0.075,0.092 0.075,0.186l0,3.422l-0.486,0Zm0.253,-7.498c-1.761,0 -3.295,0.64 -4.559,1.905c-1.261,1.263 -1.901,2.789 -1.901,4.535l0,1.058l-0.826,0l0,4.175l0.826,0l0,5.309l6.207,0l0,-0.861l0,-4.448l0.486,0l0,5.309l6.206,0l0,-0.861l0,-9.681c0,-1.747 -0.641,-3.274 -1.903,-4.536c-1.263,-1.264 -2.79,-1.904 -4.536,-1.904Zm-1.114,8.358l2.209,0l0,-4.282c0,-0.313 -0.11,-0.578 -0.326,-0.793c-0.214,-0.216 -0.471,-0.323 -0.769,-0.323c-0.311,0 -0.576,0.107 -0.789,0.323c-0.219,0.215 -0.325,0.48 -0.325,0.793l0,4.282Zm1.114,-7.498c1.518,0 2.826,0.551 3.926,1.654c1.102,1.1 1.652,2.407 1.652,3.926l0,9.681l-4.483,0l0,-5.309l-2.209,0l0,5.309l-4.484,0l0,-5.309l-0.826,0l0,-2.454l0.826,0l0,-1.918c0,-1.519 0.55,-2.826 1.649,-3.926c1.102,-1.103 2.417,-1.654 3.949,-1.654Z" style="fill:#231f20;fill-rule:nonzero;"/><path d="M84.386,89.837l0,-16.121l5.322,0l0,13.163l6.893,0l0,2.958l-12.215,0Z" style="fill:#fff56c;fill-rule:nonzero;"/><path d="M90.138,73.286l-0.861,0l-4.46,0l-0.862,0l0,16.982l13.077,0l0,-0.861l0,-2.097l0,-0.861l-0.861,0l-6.033,0l0,-12.303l0,-0.86Zm-0.861,0.86l0,13.164l6.894,0l0,2.097l-11.354,0l0,-15.261l4.46,0Z" style="fill:#231f20;fill-rule:nonzero;"/><path d="M97.079,89.837l0,-2.958l5.784,0c0.124,0 0.218,-0.04 0.309,-0.13c0.092,-0.092 0.131,-0.184 0.131,-0.31c0,-0.115 -0.031,-0.211 -0.097,-0.3l-5.034,-6.576c-0.489,-0.64 -0.736,-1.373 -0.736,-2.18c0,-0.499 0.098,-0.978 0.29,-1.422c0.196,-0.436 0.462,-0.823 0.793,-1.158c0.334,-0.332 0.722,-0.598 1.156,-0.792c0.445,-0.196 0.925,-0.295 1.426,-0.295l8.238,0l0,2.961l-5.786,0c-0.122,0 -0.217,0.039 -0.308,0.131c-0.09,0.087 -0.129,0.183 -0.129,0.308c0,0.15 0.048,0.222 0.088,0.268l0.023,0.027l5.021,6.582c0.237,0.337 0.42,0.677 0.552,1.021c0.137,0.367 0.206,0.755 0.206,1.16c0,0.488 -0.099,0.961 -0.295,1.409c-0.189,0.441 -0.457,0.836 -0.793,1.17c-0.333,0.334 -0.727,0.603 -1.17,0.794c-0.447,0.193 -0.928,0.29 -1.431,0.29l-8.238,0Z" style="fill:#fff56c;fill-rule:nonzero;"/><path d="M109.77,73.286l-0.861,0l-7.808,0c-0.562,0 -1.1,0.11 -1.598,0.33c-0.486,0.216 -0.917,0.512 -1.286,0.88c-0.371,0.376 -0.667,0.807 -0.882,1.283c-0.22,0.511 -0.33,1.046 -0.33,1.604c0,0.904 0.278,1.725 0.824,2.441l5.034,6.574c0.007,0.011 0.01,0.018 0.01,0.041c-0.001,0 -0.002,0.002 -0.003,0.003l-0.008,0.006l-5.353,0.001l-0.861,0l0,3.819l8.669,0c0.562,0 1.101,-0.109 1.602,-0.326c0.494,-0.213 0.934,-0.512 1.307,-0.888c0.371,-0.368 0.669,-0.808 0.883,-1.303c0.216,-0.498 0.327,-1.03 0.327,-1.577c0,-0.456 -0.077,-0.895 -0.232,-1.307c-0.147,-0.385 -0.346,-0.755 -0.593,-1.108l-0.01,-0.014l-0.011,-0.013l-5.021,-6.583l-0.02,-0.026l-0.002,-0.002c0,-0.002 0,-0.003 0,-0.005c0.003,-0.004 0.006,-0.006 0.008,-0.009l6.215,0l0,-0.861l0,-2.1l0,-0.86Zm-0.861,0.86l0,2.1l-5.356,0c-0.237,0 -0.44,0.085 -0.612,0.256c-0.172,0.171 -0.256,0.377 -0.256,0.614c0,0.223 0.066,0.407 0.199,0.557l5.021,6.581c0.209,0.298 0.372,0.602 0.492,0.914c0.117,0.314 0.178,0.648 0.178,1.006c0,0.43 -0.086,0.843 -0.259,1.238c-0.169,0.392 -0.403,0.74 -0.702,1.035c-0.295,0.298 -0.643,0.535 -1.037,0.704c-0.395,0.171 -0.813,0.256 -1.26,0.256l-7.808,0l0,-2.097l5.354,0c0.237,0 0.443,-0.086 0.614,-0.256c0.171,-0.172 0.257,-0.375 0.257,-0.615c0,-0.208 -0.06,-0.392 -0.181,-0.556l-5.04,-6.582c-0.431,-0.564 -0.646,-1.204 -0.646,-1.918c0,-0.446 0.086,-0.863 0.254,-1.25c0.173,-0.385 0.407,-0.726 0.705,-1.027c0.296,-0.296 0.639,-0.53 1.025,-0.702c0.388,-0.171 0.803,-0.258 1.25,-0.258l7.808,0Z" style="fill:#231f20;fill-rule:nonzero;"/></g></svg>