<?xml version="1.0" encoding="UTF-8" standalone="no"?><!DOCTYPE svg PUBLIC "-//W3C//DTD SVG 1.1//EN" "http://www.w3.org/Graphics/SVG/1.1/DTD/svg11.dtd"><svg width="100%" height="100%" viewBox="0 0 30 30" version="1.1" xmlns="http://www.w3.org/2000/svg" xmlns:xlink="http://www.w3.org/1999/xlink" xml:space="preserve" xmlns:serif="http://www.serif.com/" style="fill-rule:evenodd;clip-rule:evenodd;stroke-miterlimit:1.41421;"><g><g><clipPath id="_clip1"><path d="M29.108,15.062c0,7.804 -6.327,14.131 -14.131,14.131c-7.804,0 -14.13,-6.327 -14.13,-14.131c0,-7.804 6.326,-14.13 14.13,-14.13c7.804,0 14.131,6.326 14.131,14.13Z"/></clipPath><g clip-path="url(#_clip1)"><path d="M25.653,15.128c0,5.897 -4.78,10.677 -10.677,10.677c-5.896,0 -10.676,-4.78 -10.676,-10.677c0,-5.896 4.78,-10.676 10.676,-10.676c5.897,0 10.677,4.78 10.677,10.676Z" style="fill:#fff;fill-rule:nonzero;"/><path d="M25.653,15.128c0,5.897 -4.78,10.677 -10.677,10.677c-5.896,0 -10.676,-4.78 -10.676,-10.677c0,-5.896 4.78,-10.676 10.676,-10.676c5.897,0 10.677,4.78 10.677,10.676Z" style="fill:none;stroke:#265e7c;stroke-width:0.37px;"/><path d="M3.387,12.466c0,0 0.132,-0.641 0.949,-0.773c0.221,0.022 0.354,0.441 0.553,0.464c0.199,0.022 0.331,-0.509 0.706,-0.442c0.376,0.066 0.685,0.53 0.994,0.508c0.361,-0.026 0.839,-0.513 1.304,-0.42c0.442,0.088 0.442,0.088 0.972,0.133c0.53,0.044 2.253,-0.398 3.601,-0.265c1.347,0.132 2.009,0.442 2.385,0.397c0.376,-0.044 0.84,-0.486 1.237,-0.397c0.398,0.088 1.061,0.309 1.414,0.331c0.354,0.022 3.534,-0.618 4.484,-0.265c1.414,0.199 3.181,1.745 3.181,1.745l0,1.068l-21.538,0l-0.242,-2.084Z" style="fill:#dbe4e7;fill-rule:nonzero;"/><path d="M11.096,13.04c0,0 2.01,-0.11 2.518,-0.331c0.508,-0.221 3.071,0.397 3.49,0.199c0.42,-0.199 0.398,-0.243 0.752,-0.309c0.353,-0.067 3.07,0.22 3.556,0.353c0.486,0.132 1.215,0.397 1.9,0.265c0.331,-0.066 1.038,-0.221 1.546,-0.221c0.508,0 1.436,0.597 1.436,0.597l0.25,0.957l-15.492,0l0.044,-1.51Z" style="fill:#adc9da;fill-rule:nonzero;"/><path d="M3.519,13.371c0,0 0.839,-0.375 1.458,-0.22c1.789,0.22 2.12,0.044 2.894,-0.42c0.508,-0.199 1.325,0.508 1.855,0.375c0.531,-0.132 0.619,-0.198 0.994,-0.264c1.28,-0.14 4.775,1.478 7.621,0.96c2.847,-0.518 11.712,0.841 11.712,0.841l-2.071,7.506l-24.353,-7.231l-0.11,-1.547Z" style="fill:#5e85a5;fill-rule:nonzero;"/><path d="M3.006,15.419c0,0 2.394,-1.294 4.918,-1.423c2.523,-0.13 3.364,2.329 5.305,2.458c1.941,0.13 3.236,-0.776 5.371,-0.711c4.076,0.841 9.965,3.882 9.965,3.882l-3.365,5.241l-7.441,4.788l-10.223,-3.3l-4.53,-10.935Z" style="fill:#265e7c;fill-rule:nonzero;"/><path d="M15.024,0.979l-0.002,0l0,0l-0.007,0c-1.907,0 -3.76,0.375 -5.506,1.113c-1.685,0.713 -3.198,1.732 -4.496,3.029c-1.298,1.297 -2.318,2.809 -3.031,4.494c-0.74,1.746 -1.115,3.598 -1.116,5.506c-0.001,1.909 0.372,3.763 1.11,5.51c0.712,1.686 1.731,3.199 3.028,4.498c1.298,1.299 2.81,2.32 4.495,3.034c1.747,0.739 3.6,1.115 5.509,1.116l0.007,0c1.908,0 3.761,-0.374 5.507,-1.113c1.685,-0.712 3.198,-1.731 4.496,-3.028c1.298,-1.298 2.318,-2.81 3.032,-4.494c0.739,-1.746 1.114,-3.599 1.116,-5.507c0,-1.909 -0.373,-3.762 -1.111,-5.51c-0.712,-1.685 -1.731,-3.199 -3.028,-4.498c-1.298,-1.299 -2.81,-2.319 -4.495,-3.033c-1.747,-0.74 -3.6,-1.116 -5.508,-1.117Zm-0.009,3.81c0.003,0 0.004,0 0.007,0c5.71,0.003 10.336,4.635 10.334,10.346c-0.004,5.709 -4.632,10.334 -10.341,10.334c-0.002,0 -0.003,0 -0.005,0c-5.711,-0.003 -10.338,-4.635 -10.335,-10.346c0.004,-5.708 4.633,-10.334 10.34,-10.334Z" style="fill:#265e7c;fill-rule:nonzero;"/><path d="M6.135,27.645l1.925,0l0,-1.261l-0.488,0l1.401,-1.102l1.271,1.055l-0.533,0l0,1.285l1.479,-0.013l0,-3.252l1.973,0l0,3.017l0.617,0l0,-4.451l1.95,0l0,3.98l0.72,0l0,-2.448l1.503,-1.503l0.676,0.677l0,-0.665l0.459,0l0.001,1.124l0.366,0.367l0,1.691l1.517,0l0,-1.834l-0.757,0l1.835,-1.927l1.881,1.881l-0.803,0l0,1.91l2.149,0" style="fill:none;stroke:#fff;stroke-width:0.15px;"/><rect x="11.466" y="24.609" width="0.55" height="0.55" style="fill:none;stroke:#fff;stroke-width:0.11px;"/><rect x="14.147" y="23.222" width="0.459" height="0.861" style="fill:none;stroke:#fff;stroke-width:0.12px;"/><rect x="14.907" y="23.222" width="0.459" height="0.861" style="fill:none;stroke:#fff;stroke-width:0.12px;"/><rect x="14.147" y="24.41" width="0.459" height="0.861" style="fill:none;stroke:#fff;stroke-width:0.12px;"/><rect x="14.907" y="24.41" width="0.459" height="0.861" style="fill:none;stroke:#fff;stroke-width:0.12px;"/><rect x="14.147" y="25.609" width="0.459" height="0.861" style="fill:none;stroke:#fff;stroke-width:0.12px;"/><rect x="14.907" y="25.609" width="0.459" height="0.861" style="fill:none;stroke:#fff;stroke-width:0.12px;"/><rect x="12.314" y="24.609" width="0.55" height="0.55" style="fill:none;stroke:#fff;stroke-width:0.11px;"/><rect x="11.466" y="25.492" width="0.55" height="0.551" style="fill:none;stroke:#fff;stroke-width:0.11px;"/><rect x="12.314" y="25.492" width="0.55" height="0.551" style="fill:none;stroke:#fff;stroke-width:0.11px;"/><rect x="11.466" y="26.39" width="0.55" height="0.551" style="fill:none;stroke:#fff;stroke-width:0.11px;"/><rect x="12.314" y="26.39" width="0.55" height="0.551" style="fill:none;stroke:#fff;stroke-width:0.11px;"/><rect x="21.743" y="24.885" width="0.757" height="1.308" style="fill:none;stroke:#fff;stroke-width:0.11px;"/><rect x="8.669" y="26.785" width="0.452" height="0.89" style="fill:none;stroke:#fff;stroke-width:0.07px;"/><path d="M3.717,10.053c0.033,-0.153 -0.01,-0.252 -0.131,-0.311c-0.04,-0.019 -0.079,-0.028 -0.115,-0.028c-0.074,0 -0.143,0.039 -0.209,0.12l0.455,0.219Zm0.689,0.331c0.019,-0.081 0.023,-0.142 0.013,-0.184c-0.012,-0.044 -0.044,-0.078 -0.099,-0.105c-0.03,-0.014 -0.058,-0.021 -0.084,-0.021c-0.02,0 -0.038,0.004 -0.056,0.012c-0.04,0.017 -0.086,0.059 -0.137,0.124l0.363,0.174Zm-1.734,-0.136l0.313,-0.65c0.047,-0.099 0.103,-0.185 0.166,-0.255c0.063,-0.071 0.133,-0.128 0.205,-0.167c0.074,-0.04 0.152,-0.062 0.232,-0.066c0.007,0 0.014,0 0.021,0c0.074,0 0.147,0.017 0.218,0.051c0.187,0.09 0.286,0.244 0.294,0.458c0.108,-0.089 0.217,-0.134 0.325,-0.134c0.062,0 0.124,0.015 0.184,0.044c0.076,0.036 0.137,0.086 0.18,0.148c0.043,0.061 0.069,0.133 0.079,0.214c0.01,0.08 0.003,0.168 -0.018,0.263c-0.021,0.093 -0.058,0.193 -0.108,0.298l-0.312,0.651l-1.779,-0.855Z" style="fill:#fff;fill-rule:nonzero;"/><path d="M4.104,10.197c0.041,-0.047 0.071,-0.068 0.091,-0.076c0.013,-0.006 0.027,-0.009 0.041,-0.009c0.02,0 0.043,0.006 0.068,0.018c0.044,0.021 0.069,0.047 0.078,0.08c0.005,0.02 0.007,0.056 -0.004,0.118l-0.274,-0.131Zm-0.78,-0.375c0.048,-0.047 0.096,-0.07 0.147,-0.07c0.031,0 0.064,0.008 0.098,0.025c0.065,0.031 0.132,0.084 0.118,0.219l-0.363,-0.174Zm0.285,-0.751c-0.007,0 -0.015,0.001 -0.022,0.001c-0.086,0.004 -0.17,0.027 -0.249,0.07c-0.077,0.042 -0.149,0.101 -0.216,0.176c-0.065,0.073 -0.123,0.161 -0.172,0.263l-0.296,0.616l-0.033,0.069l0.069,0.033l1.71,0.821l0.068,0.034l0.033,-0.069l0.296,-0.616c0.052,-0.108 0.089,-0.211 0.111,-0.307c0.023,-0.099 0.029,-0.191 0.019,-0.275c-0.01,-0.088 -0.039,-0.165 -0.086,-0.232c-0.047,-0.067 -0.112,-0.121 -0.194,-0.16c-0.066,-0.032 -0.134,-0.048 -0.201,-0.048c-0.098,0 -0.196,0.034 -0.294,0.1c-0.026,-0.192 -0.131,-0.335 -0.309,-0.421c-0.076,-0.036 -0.155,-0.055 -0.234,-0.055Zm0.822,1.367c0.031,-0.109 0.039,-0.192 0.025,-0.247c-0.015,-0.055 -0.054,-0.099 -0.119,-0.13c-0.035,-0.017 -0.069,-0.025 -0.101,-0.025c-0.025,0 -0.049,0.005 -0.072,0.015c-0.053,0.023 -0.112,0.081 -0.179,0.173l0.446,0.214Zm-0.689,-0.331c0.056,-0.194 0.01,-0.327 -0.14,-0.399c-0.045,-0.022 -0.089,-0.033 -0.131,-0.033c-0.097,0 -0.187,0.058 -0.268,0.173l0.539,0.259Zm-0.133,-0.959c0.068,0 0.135,0.016 0.201,0.047c0.198,0.095 0.288,0.265 0.271,0.511c0.123,-0.122 0.245,-0.183 0.365,-0.183c0.056,0 0.112,0.014 0.168,0.04c0.071,0.034 0.125,0.079 0.165,0.136c0.039,0.056 0.063,0.122 0.072,0.197c0.009,0.075 0.003,0.158 -0.018,0.249c-0.02,0.092 -0.055,0.188 -0.104,0.291l-0.296,0.616l-1.71,-0.821l0.296,-0.617c0.046,-0.095 0.099,-0.177 0.16,-0.246c0.061,-0.068 0.127,-0.121 0.196,-0.159c0.068,-0.037 0.141,-0.057 0.215,-0.061c0.006,0 0.013,0 0.019,0Z" style="fill:#231f20;fill-rule:nonzero;"/><path d="M3.72,8.859l0.29,-0.452l1.143,0.732l0.384,-0.599l0.246,0.158l-0.673,1.051l-1.39,-0.89Z" style="fill:#fff;fill-rule:nonzero;"/><path d="M3.998,8.354l-0.041,0.064l-0.249,0.388l-0.041,0.064l0.064,0.041l1.326,0.85l0.065,0.041l0.041,-0.064l0.632,-0.987l0.041,-0.064l-0.065,-0.041l-0.182,-0.117l-0.064,-0.041l-0.041,0.064l-0.342,0.535l-1.08,-0.692l-0.064,-0.041Zm0.023,0.106l1.144,0.732l0.383,-0.599l0.182,0.117l-0.632,0.986l-1.325,-0.849l0.248,-0.387Z" style="fill:#231f20;fill-rule:nonzero;"/><path d="M5.712,8.453c-0.056,0 -0.113,-0.008 -0.169,-0.023c-0.078,-0.022 -0.151,-0.06 -0.217,-0.113l-0.821,-0.663l0.338,-0.42l1.013,0.818c0.015,0.012 0.031,0.017 0.049,0.017c0.028,-0.001 0.044,-0.01 0.058,-0.027c0.014,-0.017 0.019,-0.035 0.017,-0.056c-0.002,-0.022 -0.011,-0.038 -0.028,-0.052l-1.013,-0.818l0.336,-0.417l0.822,0.663c0.064,0.052 0.116,0.115 0.154,0.187c0.037,0.072 0.06,0.148 0.068,0.225c0.009,0.077 0.002,0.156 -0.019,0.235c-0.021,0.078 -0.059,0.15 -0.111,0.216c-0.053,0.065 -0.116,0.118 -0.188,0.156c-0.071,0.038 -0.147,0.061 -0.224,0.069c-0.022,0.002 -0.044,0.003 -0.065,0.003Z" style="fill:#fff;fill-rule:nonzero;"/><path d="M5.27,6.645l-0.048,0.06l-0.289,0.358l-0.048,0.059l0.059,0.048l0.983,0.794c0.01,0.007 0.014,0.014 0.015,0.026c0.001,0.009 0,0.017 -0.009,0.028c-0.008,0.01 -0.014,0.012 -0.023,0.013l-0.005,0c-0.01,0 -0.017,-0.002 -0.025,-0.009l-0.983,-0.793l-0.059,-0.048l-0.048,0.059l-0.291,0.36l-0.048,0.059l0.059,0.048l0.792,0.639c0.07,0.057 0.148,0.097 0.23,0.12c0.06,0.017 0.12,0.026 0.18,0.026c0.023,0 0.046,-0.002 0.069,-0.004c0.082,-0.009 0.162,-0.034 0.238,-0.073c0.076,-0.041 0.143,-0.097 0.2,-0.166c0.055,-0.07 0.095,-0.147 0.118,-0.23c0.022,-0.084 0.029,-0.167 0.02,-0.249c-0.009,-0.082 -0.033,-0.162 -0.072,-0.238c-0.04,-0.077 -0.095,-0.145 -0.164,-0.2l-0.792,-0.639l-0.059,-0.048Zm0.011,0.107l0.792,0.639c0.061,0.05 0.109,0.108 0.144,0.176c0.035,0.068 0.056,0.138 0.064,0.211c0.008,0.074 0.002,0.147 -0.018,0.221c-0.02,0.073 -0.055,0.141 -0.104,0.202c-0.05,0.062 -0.109,0.11 -0.176,0.146c-0.067,0.036 -0.137,0.057 -0.21,0.065c-0.021,0.002 -0.041,0.003 -0.061,0.003c-0.053,0 -0.106,-0.007 -0.159,-0.022c-0.073,-0.021 -0.141,-0.056 -0.203,-0.106l-0.792,-0.639l0.291,-0.36l0.983,0.794c0.021,0.017 0.046,0.025 0.073,0.025c0.004,0 0.007,0 0.01,0c0.032,-0.002 0.057,-0.016 0.078,-0.041c0.02,-0.025 0.029,-0.053 0.025,-0.084c-0.003,-0.031 -0.017,-0.057 -0.043,-0.078l-0.983,-0.793l0.289,-0.359Z" style="fill:#231f20;fill-rule:nonzero;"/><path d="M6.241,7.276l-0.061,0.06l-0.232,-0.234l0.061,-0.06l-0.543,-0.551l0.888,-0.876l0.206,0.208l-0.506,0.5l0.337,0.342l0.149,-0.147l0.232,0.234l-0.149,0.147l0.179,0.182l0.506,-0.499l0.205,0.208l-0.888,0.876l-0.384,-0.39Z" style="fill:#fff;fill-rule:nonzero;"/><path d="M6.355,5.561l-0.054,0.054l-0.835,0.822l-0.054,0.054l0.054,0.054l0.489,0.496l-0.006,0.007l-0.055,0.053l0.054,0.054l0.178,0.181l0.054,0.054l0.054,-0.054l0.006,-0.006l0.331,0.336l0.054,0.054l0.054,-0.053l0.834,-0.823l0.054,-0.053l-0.053,-0.055l-0.152,-0.154l-0.053,-0.054l-0.055,0.053l-0.452,0.446l-0.126,-0.127l0.095,-0.094l0.055,-0.053l-0.054,-0.055l-0.178,-0.18l-0.053,-0.054l-0.055,0.053l-0.095,0.094l-0.283,-0.288l0.452,-0.446l0.054,-0.054l-0.054,-0.054l-0.152,-0.154l-0.053,-0.054Zm-0.001,0.108l0.152,0.154l-0.506,0.499l0.391,0.397l0.149,-0.147l0.178,0.18l-0.149,0.147l0.232,0.236l0.507,-0.499l0.151,0.154l-0.833,0.822l-0.385,-0.39l-0.061,0.06l-0.178,-0.18l0.061,-0.06l-0.543,-0.551l0.834,-0.822Z" style="fill:#231f20;fill-rule:nonzero;"/><path d="M7.904,5.219c0.013,-0.017 0.024,-0.036 0.033,-0.057c0.016,-0.034 0.026,-0.069 0.03,-0.106c0.003,-0.037 0,-0.074 -0.008,-0.109c-0.008,-0.036 -0.023,-0.07 -0.044,-0.101c-0.021,-0.03 -0.047,-0.055 -0.078,-0.076c-0.031,-0.021 -0.065,-0.037 -0.101,-0.046c-0.03,-0.008 -0.061,-0.012 -0.092,-0.012c-0.006,0 -0.013,0 -0.019,0.001c-0.022,0.001 -0.043,0.004 -0.064,0.01l0.343,0.496Zm-0.319,0.651l-0.074,0.052l-0.217,-0.313l0.074,-0.051l-0.53,-0.767l0.596,-0.412c0.082,-0.057 0.172,-0.099 0.267,-0.125c0.075,-0.02 0.148,-0.03 0.22,-0.03c0.02,0 0.04,0.001 0.06,0.003c0.093,0.007 0.18,0.032 0.26,0.073c0.082,0.042 0.151,0.103 0.204,0.179c0.063,0.091 0.096,0.196 0.098,0.312c0.003,0.097 -0.015,0.193 -0.053,0.288c0.13,0.009 0.254,0.044 0.369,0.106c0.131,0.07 0.24,0.168 0.325,0.291l0.043,0.062l-0.566,0.392l-0.238,-0.344c-0.02,-0.03 -0.045,-0.054 -0.072,-0.071c-0.027,-0.017 -0.055,-0.028 -0.086,-0.032c-0.011,-0.001 -0.022,-0.002 -0.033,-0.002c-0.021,0 -0.042,0.002 -0.063,0.008c-0.022,0.005 -0.042,0.013 -0.062,0.023l0.374,0.542l-0.521,0.36l-0.375,-0.544Z" style="fill:#fff;fill-rule:nonzero;"/><path d="M7.627,4.751c0,0 0,0 0,0c0.006,-0.001 0.012,-0.001 0.018,-0.001c0.027,0 0.055,0.004 0.082,0.011c0.031,0.008 0.061,0.022 0.089,0.04c0.026,0.019 0.049,0.041 0.067,0.067c0.019,0.027 0.032,0.056 0.039,0.087c0.007,0.032 0.01,0.065 0.007,0.098c-0.003,0.032 -0.012,0.063 -0.026,0.093c0,0.001 -0.001,0.002 -0.001,0.003l-0.275,-0.398Zm0.294,-0.565c-0.075,0 -0.152,0.011 -0.229,0.031c-0.1,0.027 -0.194,0.071 -0.28,0.131l-0.564,0.39l-0.063,0.043l0.043,0.063l0.487,0.704l-0.011,0.008l-0.063,0.043l0.044,0.063l0.173,0.25l0.043,0.063l0.063,-0.044l0.011,-0.007l0.332,0.48l0.043,0.063l0.063,-0.043l0.458,-0.317l0.063,-0.044l-0.043,-0.062l-0.326,-0.472c0.004,-0.001 0.008,-0.002 0.013,-0.003c0.018,-0.005 0.036,-0.007 0.054,-0.007c0.009,0 0.019,0.001 0.028,0.002c0.025,0.003 0.048,0.012 0.07,0.026c0.024,0.015 0.044,0.035 0.061,0.06l0.217,0.313l0.043,0.063l0.063,-0.044l0.503,-0.348l0.063,-0.043l-0.043,-0.063l-0.021,-0.03c-0.089,-0.128 -0.203,-0.23 -0.339,-0.304c-0.105,-0.056 -0.217,-0.091 -0.335,-0.105c0.029,-0.085 0.042,-0.17 0.04,-0.256c-0.003,-0.124 -0.039,-0.235 -0.106,-0.332c-0.057,-0.083 -0.13,-0.147 -0.218,-0.192c-0.084,-0.043 -0.176,-0.069 -0.273,-0.077c-0.021,-0.002 -0.043,-0.003 -0.064,-0.003Zm-0.02,1.095c0.03,-0.03 0.053,-0.064 0.071,-0.103c0.018,-0.038 0.029,-0.078 0.033,-0.119c0.003,-0.04 0.001,-0.081 -0.009,-0.121c-0.009,-0.04 -0.026,-0.078 -0.05,-0.114c-0.024,-0.034 -0.053,-0.062 -0.088,-0.086c-0.035,-0.023 -0.072,-0.04 -0.112,-0.051c-0.033,-0.009 -0.067,-0.013 -0.101,-0.013c-0.008,0 -0.015,0 -0.022,0c-0.043,0.003 -0.083,0.012 -0.122,0.03l0.4,0.577Zm0.02,-1.019c0.019,0 0.038,0.001 0.057,0.003c0.087,0.007 0.169,0.03 0.246,0.069c0.077,0.039 0.14,0.095 0.189,0.167c0.059,0.085 0.09,0.182 0.092,0.291c0.003,0.109 -0.021,0.217 -0.073,0.323c0.147,0.001 0.283,0.036 0.409,0.104c0.126,0.067 0.23,0.16 0.312,0.279l0.021,0.03l-0.504,0.349l-0.216,-0.313c-0.023,-0.034 -0.051,-0.061 -0.082,-0.081c-0.032,-0.02 -0.066,-0.033 -0.102,-0.038c-0.012,-0.001 -0.025,-0.002 -0.038,-0.002c-0.024,0 -0.048,0.003 -0.073,0.009c-0.037,0.009 -0.073,0.025 -0.107,0.049l0.376,0.543l-0.458,0.317l-0.376,-0.544l-0.074,0.052l-0.172,-0.251l0.073,-0.05l-0.53,-0.767l0.565,-0.39c0.079,-0.055 0.164,-0.095 0.255,-0.12c0.071,-0.019 0.141,-0.029 0.21,-0.029Z" style="fill:#231f20;fill-rule:nonzero;"/><path d="M8.457,4.107l0.467,-0.26l0.802,1.443l-0.467,0.259l-0.802,-1.442Z" style="fill:#fff;fill-rule:nonzero;"/><path d="M8.938,3.795l-0.066,0.037l-0.4,0.223l-0.067,0.037l0.037,0.067l0.765,1.375l0.037,0.067l0.067,-0.037l0.4,-0.223l0.067,-0.037l-0.037,-0.066l-0.766,-1.376l-0.037,-0.067Zm-0.029,0.104l0.765,1.376l-0.4,0.222l-0.765,-1.375l0.4,-0.223Z" style="fill:#231f20;fill-rule:nonzero;"/><path d="M10.094,4.75c0.007,-0.012 0.012,-0.026 0.016,-0.041c0.011,-0.039 0.016,-0.085 0.015,-0.135c-0.001,-0.051 -0.009,-0.107 -0.024,-0.167c-0.016,-0.06 -0.037,-0.121 -0.065,-0.182c-0.027,-0.061 -0.059,-0.117 -0.095,-0.169c-0.035,-0.05 -0.072,-0.092 -0.11,-0.127c-0.037,-0.033 -0.075,-0.059 -0.112,-0.076c-0.014,-0.006 -0.027,-0.011 -0.041,-0.014l0.416,0.911Zm-1.039,-0.985l0.462,-0.21c0.081,-0.038 0.167,-0.056 0.256,-0.056c0.01,0 0.019,0 0.03,0c0.098,0.005 0.194,0.029 0.284,0.071c0.089,0.041 0.172,0.1 0.247,0.175c0.076,0.074 0.137,0.162 0.182,0.261c0.045,0.098 0.072,0.202 0.079,0.307c0.008,0.106 -0.002,0.208 -0.029,0.302c-0.027,0.095 -0.071,0.183 -0.132,0.26c-0.061,0.077 -0.139,0.139 -0.232,0.181l-0.462,0.211l-0.685,-1.502Z" style="fill:#fff;fill-rule:nonzero;"/><path d="M10.085,4.638l-0.329,-0.72c0.017,0.011 0.033,0.024 0.05,0.039c0.035,0.033 0.07,0.073 0.104,0.121c0.034,0.049 0.065,0.104 0.091,0.162c0.027,0.059 0.048,0.119 0.063,0.176c0.014,0.057 0.022,0.11 0.023,0.158c0.001,0.023 0,0.044 -0.002,0.064Zm-0.312,-1.177c-0.094,0 -0.186,0.019 -0.272,0.059l-0.427,0.195l-0.07,0.032l0.032,0.069l0.653,1.432l0.032,0.07l0.069,-0.032l0.428,-0.195c0.099,-0.045 0.182,-0.11 0.246,-0.193c0.064,-0.081 0.111,-0.173 0.139,-0.273c0.028,-0.098 0.038,-0.204 0.03,-0.315c-0.008,-0.11 -0.036,-0.217 -0.083,-0.32c-0.046,-0.103 -0.11,-0.195 -0.189,-0.273c-0.078,-0.077 -0.165,-0.138 -0.258,-0.182c-0.095,-0.044 -0.195,-0.069 -0.299,-0.074c-0.01,0 -0.021,0 -0.031,0Zm0.312,1.361c0.029,-0.025 0.05,-0.059 0.062,-0.103c0.012,-0.043 0.018,-0.092 0.016,-0.146c-0.001,-0.055 -0.009,-0.113 -0.025,-0.176c-0.016,-0.063 -0.039,-0.125 -0.067,-0.188c-0.03,-0.064 -0.063,-0.123 -0.099,-0.175c-0.037,-0.053 -0.075,-0.097 -0.115,-0.134c-0.041,-0.036 -0.082,-0.063 -0.123,-0.082c-0.034,-0.015 -0.067,-0.023 -0.099,-0.023c-0.006,0 -0.012,0.001 -0.018,0.001l0.468,1.026Zm-0.312,-1.285c0.009,0 0.018,0 0.028,0c0.094,0.005 0.184,0.027 0.27,0.067c0.085,0.04 0.164,0.096 0.237,0.168c0.072,0.071 0.13,0.155 0.173,0.25c0.043,0.094 0.069,0.193 0.076,0.294c0.007,0.101 -0.002,0.197 -0.028,0.288c-0.025,0.091 -0.067,0.174 -0.125,0.247c-0.057,0.074 -0.13,0.13 -0.218,0.171l-0.427,0.195l-0.654,-1.433l0.427,-0.195c0.077,-0.035 0.157,-0.052 0.241,-0.052Z" style="fill:#231f20;fill-rule:nonzero;"/><path d="M11.262,4.59c-0.017,0 -0.033,-0.001 -0.049,-0.002c-0.081,-0.007 -0.157,-0.028 -0.227,-0.063c-0.07,-0.036 -0.132,-0.084 -0.185,-0.144c-0.054,-0.06 -0.094,-0.132 -0.121,-0.212l-0.133,-0.403c-0.027,-0.079 -0.036,-0.16 -0.028,-0.241c0.008,-0.08 0.029,-0.156 0.064,-0.226c0.035,-0.07 0.084,-0.132 0.143,-0.186c0.06,-0.055 0.131,-0.096 0.21,-0.122c0.062,-0.02 0.124,-0.03 0.186,-0.03c0.017,0 0.033,0 0.05,0.002c0.078,0.006 0.153,0.026 0.222,0.06c0.07,0.034 0.133,0.08 0.186,0.137c0.055,0.058 0.097,0.126 0.126,0.202l0.014,0.037l-0.511,0.169l-0.083,-0.25c-0.008,-0.021 -0.02,-0.035 -0.039,-0.045c-0.011,-0.006 -0.022,-0.008 -0.033,-0.008c-0.008,0 -0.017,0.001 -0.026,0.004c-0.02,0.007 -0.035,0.019 -0.045,0.038c-0.009,0.02 -0.011,0.038 -0.004,0.059l0.287,0.865c0.007,0.021 0.019,0.036 0.038,0.045c0.011,0.006 0.022,0.009 0.033,0.009c0.009,0 0.017,-0.002 0.026,-0.005c0.021,-0.007 0.036,-0.019 0.045,-0.038c0.01,-0.019 0.011,-0.038 0.004,-0.059l-0.153,-0.462l0.509,-0.169l0.269,0.813l-0.246,0.082l-0.067,-0.067c-0.076,0.084 -0.166,0.144 -0.269,0.178c-0.064,0.021 -0.129,0.032 -0.193,0.032Z" style="fill:#fff;fill-rule:nonzero;"/><path d="M11.123,2.922c-0.067,0 -0.133,0.011 -0.199,0.033c-0.084,0.028 -0.159,0.071 -0.223,0.129c-0.063,0.057 -0.114,0.124 -0.152,0.198c-0.037,0.074 -0.06,0.154 -0.068,0.24c-0.008,0.085 0.001,0.172 0.029,0.256l0.134,0.403c0.028,0.085 0.071,0.161 0.128,0.225c0.057,0.064 0.123,0.115 0.197,0.153c0.074,0.037 0.155,0.059 0.24,0.067c0.018,0.001 0.035,0.002 0.053,0.002c0.068,0 0.137,-0.011 0.205,-0.034c0.097,-0.032 0.184,-0.085 0.258,-0.16l0.023,0.023l0.033,0.033l0.045,-0.014l0.187,-0.062l0.073,-0.024l-0.024,-0.073l-0.245,-0.74l-0.024,-0.073l-0.073,0.024l-0.437,0.145l-0.072,0.023l0.024,0.073l0.141,0.426c0.004,0.013 0.002,0.021 -0.002,0.029c-0.004,0.01 -0.01,0.016 -0.023,0.02c-0.005,0.002 -0.009,0.003 -0.014,0.003c-0.005,0 -0.01,-0.002 -0.015,-0.004c-0.011,-0.006 -0.016,-0.012 -0.02,-0.023l-0.286,-0.866c-0.004,-0.011 -0.004,-0.02 0.002,-0.03c0.004,-0.009 0.011,-0.015 0.022,-0.019c0.005,-0.001 0.01,-0.002 0.014,-0.002c0.003,0 0.009,0 0.017,0.004c0.009,0.005 0.014,0.011 0.018,0.023l0.071,0.214l0.024,0.072l0.073,-0.024l0.437,-0.144l0.075,-0.025l-0.028,-0.074c-0.03,-0.082 -0.075,-0.154 -0.133,-0.215c-0.057,-0.06 -0.123,-0.109 -0.197,-0.145c-0.074,-0.036 -0.154,-0.057 -0.236,-0.064c-0.018,-0.002 -0.035,-0.003 -0.052,-0.003Zm0,0.077c0.015,0 0.03,0 0.045,0.002c0.075,0.006 0.144,0.025 0.21,0.056c0.065,0.032 0.123,0.075 0.174,0.129c0.052,0.054 0.091,0.117 0.118,0.189l-0.437,0.145l-0.071,-0.214c-0.011,-0.031 -0.03,-0.053 -0.058,-0.067c-0.016,-0.008 -0.033,-0.013 -0.05,-0.013c-0.012,0 -0.025,0.003 -0.038,0.007c-0.03,0.01 -0.053,0.029 -0.067,0.057c-0.014,0.028 -0.016,0.058 -0.006,0.088l0.287,0.865c0.01,0.031 0.029,0.053 0.057,0.067c0.016,0.009 0.033,0.013 0.05,0.013c0.013,0 0.025,-0.002 0.038,-0.006c0.031,-0.011 0.053,-0.029 0.067,-0.058c0.014,-0.028 0.016,-0.057 0.006,-0.088l-0.141,-0.426l0.437,-0.144l0.245,0.74l-0.187,0.062l-0.08,-0.08c-0.077,0.097 -0.17,0.163 -0.279,0.199c-0.06,0.02 -0.121,0.03 -0.181,0.03c-0.015,0 -0.031,-0.001 -0.046,-0.002c-0.076,-0.007 -0.146,-0.026 -0.213,-0.06c-0.065,-0.033 -0.124,-0.078 -0.174,-0.135c-0.05,-0.056 -0.088,-0.123 -0.113,-0.198l-0.133,-0.403c-0.025,-0.074 -0.033,-0.149 -0.026,-0.225c0.007,-0.076 0.027,-0.147 0.06,-0.213c0.034,-0.066 0.078,-0.124 0.135,-0.175c0.056,-0.051 0.122,-0.089 0.196,-0.114c0.058,-0.019 0.116,-0.028 0.175,-0.028Z" style="fill:#231f20;fill-rule:nonzero;"/><path d="M12.017,3.804l-0.084,0.017l-0.067,-0.323l0.084,-0.017l-0.157,-0.757l1.222,-0.253l0.059,0.287l-0.696,0.144l0.097,0.47l0.205,-0.042l0.067,0.323l-0.205,0.042l0.052,0.25l0.696,-0.144l0.059,0.287l-1.221,0.252l-0.111,-0.536Z" style="fill:#fff;fill-rule:nonzero;"/><path d="M13.045,2.426l-0.075,0.015l-1.147,0.238l-0.075,0.015l0.016,0.075l0.141,0.682l-0.009,0.002l-0.075,0.016l0.016,0.074l0.051,0.248l0.016,0.075l0.074,-0.015l0.009,-0.002l0.095,0.462l0.016,0.074l0.075,-0.015l1.147,-0.237l0.074,-0.016l-0.015,-0.074l-0.044,-0.212l-0.015,-0.075l-0.075,0.015l-0.622,0.129l-0.036,-0.175l0.131,-0.027l0.074,-0.016l-0.015,-0.075l-0.052,-0.248l-0.015,-0.074l-0.075,0.015l-0.13,0.027l-0.082,-0.396l0.622,-0.128l0.074,-0.016l-0.015,-0.074l-0.044,-0.212l-0.015,-0.075Zm-0.059,0.09l0.043,0.212l-0.696,0.144l0.113,0.546l0.205,-0.043l0.051,0.248l-0.205,0.043l0.067,0.324l0.696,-0.144l0.044,0.212l-1.147,0.237l-0.111,-0.536l-0.083,0.017l-0.052,-0.248l0.084,-0.017l-0.157,-0.758l1.148,-0.237Z" style="fill:#231f20;fill-rule:nonzero;"/><path d="M14.52,2.969c0.02,-0.008 0.04,-0.018 0.058,-0.03c0.033,-0.02 0.06,-0.045 0.082,-0.074c0.023,-0.03 0.04,-0.062 0.052,-0.097c0.013,-0.034 0.018,-0.069 0.017,-0.108c-0.002,-0.037 -0.01,-0.072 -0.025,-0.106c-0.015,-0.034 -0.035,-0.065 -0.061,-0.093c-0.025,-0.028 -0.055,-0.051 -0.088,-0.069c-0.019,-0.011 -0.039,-0.02 -0.059,-0.026l0.024,0.603Zm-0.617,0.379l-0.089,0.004l-0.015,-0.381l0.089,-0.003l-0.037,-0.931l0.722,-0.029c0.012,0 0.024,-0.001 0.037,-0.001c0.09,0 0.178,0.014 0.261,0.04c0.093,0.03 0.177,0.073 0.251,0.129c0.073,0.056 0.133,0.124 0.179,0.201c0.046,0.08 0.071,0.166 0.074,0.257c0.004,0.092 -0.015,0.18 -0.055,0.262c-0.04,0.081 -0.095,0.153 -0.164,0.214c-0.069,0.061 -0.15,0.111 -0.24,0.147c-0.091,0.037 -0.189,0.058 -0.291,0.062l-0.091,0.004l0.026,0.66l-0.631,0.025l-0.026,-0.66Z" style="fill:#fff;fill-rule:nonzero;"/><path d="M14.556,2.908l-0.02,-0.483c0.03,0.016 0.056,0.037 0.079,0.062c0.023,0.025 0.041,0.052 0.054,0.082c0.013,0.03 0.02,0.06 0.021,0.092c0.002,0.034 -0.003,0.065 -0.014,0.094c-0.011,0.031 -0.026,0.06 -0.046,0.087c-0.02,0.026 -0.043,0.047 -0.072,0.065c-0.001,0 -0.002,0.001 -0.002,0.001Zm0.054,-0.939c-0.013,0 -0.026,0 -0.039,0.001l-0.683,0.027l-0.076,0.003l0.003,0.076l0.034,0.855l-0.014,0.001l-0.076,0.003l0.003,0.076l0.012,0.304l0.003,0.076l0.076,-0.003l0.014,-0.001l0.023,0.584l0.003,0.077l0.076,-0.004l0.554,-0.021l0.076,-0.004l-0.003,-0.076l-0.023,-0.583l0.053,-0.002c0.107,-0.005 0.209,-0.027 0.305,-0.066c0.093,-0.038 0.178,-0.089 0.251,-0.153c0.072,-0.065 0.13,-0.14 0.172,-0.226c0.043,-0.088 0.063,-0.182 0.059,-0.281c-0.004,-0.097 -0.03,-0.189 -0.079,-0.274c-0.048,-0.082 -0.112,-0.153 -0.189,-0.212c-0.077,-0.059 -0.165,-0.104 -0.263,-0.135c-0.086,-0.028 -0.178,-0.042 -0.272,-0.042Zm-0.126,1.05c0.041,-0.009 0.079,-0.025 0.115,-0.048c0.036,-0.023 0.067,-0.05 0.091,-0.083c0.025,-0.032 0.045,-0.068 0.058,-0.107c0.014,-0.039 0.02,-0.08 0.019,-0.123c-0.002,-0.041 -0.011,-0.081 -0.028,-0.12c-0.017,-0.038 -0.04,-0.072 -0.068,-0.103c-0.028,-0.03 -0.06,-0.056 -0.097,-0.077c-0.037,-0.021 -0.076,-0.034 -0.118,-0.04l0.028,0.701Zm0.126,-0.974c0.086,0 0.17,0.013 0.249,0.038c0.09,0.029 0.17,0.07 0.24,0.123c0.069,0.054 0.126,0.117 0.169,0.19c0.042,0.074 0.066,0.154 0.069,0.239c0.003,0.087 -0.014,0.168 -0.052,0.245c-0.037,0.076 -0.089,0.144 -0.154,0.202c-0.066,0.057 -0.142,0.104 -0.229,0.14c-0.088,0.036 -0.181,0.055 -0.279,0.059l-0.129,0.005l0.026,0.66l-0.554,0.022l-0.026,-0.66l-0.09,0.004l-0.012,-0.304l0.09,-0.003l-0.037,-0.932l0.683,-0.027c0.012,0 0.024,-0.001 0.036,-0.001Z" style="fill:#231f20;fill-rule:nonzero;"/><path d="M16.119,3.158c0.044,-0.012 0.082,-0.035 0.116,-0.068c0.045,-0.045 0.07,-0.096 0.075,-0.158c0.006,-0.062 -0.009,-0.117 -0.046,-0.169c-0.027,-0.039 -0.061,-0.068 -0.101,-0.088l-0.044,0.483Zm0.089,0.868l0.033,-0.351c0.005,-0.059 -0.01,-0.106 -0.045,-0.145c-0.027,-0.031 -0.062,-0.052 -0.105,-0.062l-0.049,0.543l-0.537,-0.048l0.049,-0.546l-0.073,-0.007l0.03,-0.328l0.073,0.007l0.07,-0.77l0.607,0.055c0.161,0.014 0.303,0.076 0.422,0.182c0.13,0.118 0.188,0.261 0.173,0.426c-0.009,0.099 -0.045,0.187 -0.107,0.262c-0.049,0.06 -0.108,0.109 -0.178,0.146c0.075,0.074 0.133,0.162 0.173,0.26c0.047,0.115 0.065,0.237 0.053,0.362l-0.006,0.067l-0.583,-0.053Z" style="fill:#fff;fill-rule:nonzero;"/><path d="M16.163,3.098l0.032,-0.356c0.014,0.013 0.027,0.027 0.038,0.043c0.031,0.044 0.044,0.091 0.039,0.143c-0.004,0.053 -0.025,0.097 -0.064,0.134c-0.014,0.015 -0.029,0.026 -0.045,0.036Zm-0.543,-0.821l-0.007,0.076l-0.063,0.695l-0.074,-0.007l-0.007,0.076l-0.023,0.252l-0.007,0.076l0.074,0.006l-0.043,0.47l-0.007,0.076l0.076,0.007l0.461,0.042l0.076,0.007l0.007,-0.076l0.041,-0.456c0.017,0.009 0.031,0.02 0.044,0.034c0.028,0.031 0.039,0.068 0.035,0.116l-0.029,0.314l-0.007,0.076l0.076,0.007l0.507,0.046l0.076,0.007l0.007,-0.076l0.002,-0.03c0.012,-0.131 -0.007,-0.259 -0.056,-0.38c-0.035,-0.087 -0.085,-0.167 -0.147,-0.237c0.056,-0.035 0.105,-0.079 0.147,-0.13c0.067,-0.081 0.106,-0.176 0.115,-0.283c0.016,-0.177 -0.046,-0.331 -0.185,-0.457c-0.125,-0.112 -0.275,-0.177 -0.445,-0.192l-0.568,-0.052l-0.076,-0.007Zm0.456,0.927c0.072,-0.007 0.134,-0.036 0.185,-0.087c0.052,-0.051 0.081,-0.111 0.087,-0.182c0.007,-0.07 -0.011,-0.135 -0.052,-0.194c-0.042,-0.059 -0.097,-0.099 -0.166,-0.119l-0.054,0.582Zm-0.387,-0.844l0.568,0.052c0.155,0.014 0.288,0.072 0.401,0.172c0.121,0.11 0.174,0.241 0.16,0.394c-0.008,0.092 -0.041,0.172 -0.098,0.242c-0.057,0.069 -0.129,0.123 -0.215,0.16c0.091,0.079 0.159,0.173 0.203,0.284c0.045,0.11 0.062,0.225 0.051,0.344l-0.002,0.03l-0.507,-0.046l0.029,-0.314c0.006,-0.069 -0.012,-0.127 -0.054,-0.174c-0.042,-0.046 -0.098,-0.073 -0.168,-0.08l-0.05,0.546l-0.461,-0.042l0.05,-0.546l-0.074,-0.006l0.023,-0.252l0.074,0.006l0.07,-0.77Z" style="fill:#231f20;fill-rule:nonzero;"/><path d="M17.663,2.879c-0.015,0 -0.028,0.004 -0.041,0.013c-0.018,0.011 -0.028,0.027 -0.033,0.049l-0.19,0.912c-0.004,0.021 -0.001,0.039 0.011,0.058c0.012,0.018 0.027,0.029 0.048,0.033c0.006,0.001 0.011,0.002 0.016,0.002c0.014,0 0.028,-0.005 0.042,-0.014c0.019,-0.012 0.029,-0.027 0.034,-0.047l0.19,-0.913c0.005,-0.022 0.001,-0.04 -0.011,-0.058c-0.011,-0.018 -0.027,-0.028 -0.048,-0.033c-0.007,-0.001 -0.013,-0.002 -0.018,-0.002Zm-0.141,1.362c-0.041,0 -0.082,-0.004 -0.123,-0.013c-0.083,-0.017 -0.158,-0.049 -0.224,-0.095c-0.066,-0.046 -0.121,-0.103 -0.164,-0.168c-0.043,-0.066 -0.073,-0.139 -0.089,-0.218c-0.016,-0.079 -0.015,-0.162 0.002,-0.244l0.09,-0.433c0.017,-0.082 0.05,-0.156 0.097,-0.223c0.047,-0.065 0.104,-0.12 0.169,-0.163c0.065,-0.043 0.138,-0.073 0.218,-0.09c0.039,-0.008 0.079,-0.012 0.119,-0.012c0.041,0 0.082,0.004 0.123,0.013c0.082,0.017 0.156,0.049 0.221,0.096c0.066,0.047 0.121,0.104 0.164,0.171c0.043,0.066 0.074,0.139 0.091,0.217c0.016,0.079 0.016,0.16 -0.001,0.242l-0.09,0.432c-0.017,0.082 -0.05,0.157 -0.097,0.223c-0.047,0.066 -0.104,0.121 -0.169,0.163c-0.066,0.043 -0.139,0.073 -0.218,0.09c-0.039,0.008 -0.079,0.012 -0.119,0.012Z" style="fill:#fff;fill-rule:nonzero;"/><path d="M17.474,3.908c-0.002,0 -0.005,-0.001 -0.007,-0.001c-0.012,-0.003 -0.019,-0.007 -0.025,-0.016c-0.007,-0.013 -0.008,-0.021 -0.006,-0.03l0.191,-0.913c0.002,-0.011 0.007,-0.018 0.016,-0.024c0.007,-0.005 0.013,-0.007 0.02,-0.007c0.003,0 0.006,0.001 0.01,0.002c0.011,0.002 0.018,0.007 0.025,0.016c0.006,0.009 0.007,0.018 0.005,0.029l-0.191,0.913c-0.001,0.007 -0.004,0.015 -0.017,0.023c-0.01,0.007 -0.017,0.008 -0.021,0.008Zm0.143,-1.364c-0.043,0 -0.085,0.004 -0.127,0.013c-0.084,0.018 -0.161,0.05 -0.231,0.095c-0.069,0.046 -0.129,0.104 -0.179,0.173c-0.051,0.071 -0.085,0.15 -0.103,0.237l-0.09,0.433c-0.019,0.088 -0.019,0.175 -0.003,0.259c0.018,0.084 0.049,0.162 0.094,0.231c0.047,0.07 0.105,0.13 0.175,0.179c0.07,0.049 0.15,0.083 0.238,0.102c0.044,0.009 0.088,0.013 0.131,0.013c0.042,0 0.085,-0.004 0.127,-0.013c0.083,-0.017 0.161,-0.049 0.231,-0.095c0.069,-0.045 0.129,-0.103 0.179,-0.173c0.051,-0.071 0.085,-0.15 0.103,-0.237l0.091,-0.433c0.018,-0.086 0.018,-0.173 0,-0.257c-0.018,-0.083 -0.051,-0.16 -0.096,-0.23c-0.046,-0.07 -0.104,-0.131 -0.173,-0.181c-0.07,-0.05 -0.149,-0.085 -0.236,-0.103c-0.044,-0.009 -0.088,-0.013 -0.131,-0.013Zm-0.143,1.44c0.022,0 0.043,-0.007 0.063,-0.02c0.027,-0.018 0.044,-0.042 0.05,-0.071l0.19,-0.913c0.007,-0.032 0.002,-0.061 -0.016,-0.087c-0.017,-0.026 -0.041,-0.043 -0.073,-0.049c-0.008,-0.002 -0.017,-0.003 -0.025,-0.003c-0.022,0 -0.043,0.006 -0.062,0.019c-0.026,0.017 -0.042,0.041 -0.049,0.073l-0.19,0.913c-0.007,0.03 -0.001,0.058 0.016,0.085c0.017,0.027 0.041,0.044 0.073,0.051c0.008,0.001 0.015,0.002 0.023,0.002Zm0.143,-1.364c0.038,0 0.077,0.004 0.115,0.012c0.077,0.016 0.146,0.046 0.207,0.09c0.062,0.044 0.113,0.098 0.154,0.16c0.041,0.063 0.069,0.131 0.085,0.205c0.016,0.074 0.016,0.149 0,0.226l-0.09,0.432c-0.016,0.077 -0.046,0.146 -0.091,0.208c-0.044,0.063 -0.097,0.114 -0.159,0.154c-0.062,0.041 -0.129,0.069 -0.204,0.084c-0.037,0.008 -0.075,0.012 -0.112,0.012c-0.038,0 -0.077,-0.004 -0.115,-0.012c-0.078,-0.016 -0.149,-0.046 -0.21,-0.09c-0.063,-0.043 -0.114,-0.096 -0.155,-0.157c-0.04,-0.062 -0.068,-0.13 -0.083,-0.205c-0.015,-0.074 -0.014,-0.151 0.002,-0.229l0.091,-0.432c0.015,-0.077 0.046,-0.146 0.09,-0.208c0.044,-0.062 0.097,-0.114 0.159,-0.154c0.062,-0.04 0.13,-0.068 0.205,-0.084c0.037,-0.008 0.074,-0.012 0.111,-0.012Z" style="fill:#231f20;fill-rule:nonzero;"/><path d="M18.094,4.362l0.172,-0.52l-0.083,-0.028l0.103,-0.312l0.083,0.027l0.242,-0.734l1.183,0.39l-0.092,0.278l-0.675,-0.223l-0.151,0.457l0.199,0.065l-0.103,0.313l-0.199,-0.065l-0.172,0.52l-0.507,-0.168Z" style="fill:#fff;fill-rule:nonzero;"/><path d="M18.587,2.747l-0.024,0.072l-0.218,0.662l-0.011,-0.004l-0.072,-0.024l-0.024,0.073l-0.08,0.24l-0.023,0.073l0.072,0.024l0.011,0.003l-0.148,0.448l-0.024,0.072l0.072,0.024l0.435,0.144l0.072,0.024l0.024,-0.073l0.148,-0.447l0.127,0.042l0.072,0.024l0.024,-0.073l0.079,-0.241l0.024,-0.072l-0.072,-0.024l-0.126,-0.042l0.126,-0.384l0.603,0.199l0.073,0.024l0.024,-0.072l0.067,-0.206l0.024,-0.072l-0.072,-0.024l-1.11,-0.366l-0.073,-0.024Zm0.049,0.096l1.11,0.366l-0.068,0.206l-0.675,-0.223l-0.175,0.529l0.199,0.066l-0.079,0.24l-0.199,-0.066l-0.172,0.52l-0.435,-0.143l0.172,-0.52l-0.083,-0.028l0.079,-0.24l0.083,0.027l0.243,-0.734Z" style="fill:#231f20;fill-rule:nonzero;"/><path d="M19.327,4.778l0.23,-0.498l-0.077,-0.035l0.138,-0.299l0.077,0.036l0.325,-0.702l1.132,0.524l-0.122,0.265l-0.646,-0.298l-0.202,0.436l0.19,0.088l-0.138,0.299l-0.19,-0.088l-0.107,0.231l0.645,0.299l-0.123,0.266l-1.132,-0.524Z" style="fill:#fff;fill-rule:nonzero;"/><path d="M20.001,3.229l-0.032,0.069l-0.292,0.633l-0.009,-0.004l-0.069,-0.032l-0.032,0.069l-0.106,0.23l-0.032,0.069l0.069,0.032l0.008,0.004l-0.198,0.428l-0.032,0.069l0.069,0.032l1.064,0.492l0.069,0.032l0.032,-0.069l0.091,-0.196l0.032,-0.07l-0.069,-0.032l-0.576,-0.266l0.075,-0.162l0.121,0.055l0.069,0.032l0.032,-0.069l0.106,-0.23l0.032,-0.069l-0.069,-0.032l-0.121,-0.056l0.17,-0.367l0.576,0.267l0.069,0.032l0.032,-0.07l0.091,-0.196l0.032,-0.069l-0.069,-0.032l-1.063,-0.492l-0.07,-0.032Zm0.038,0.101l1.063,0.492l-0.091,0.196l-0.646,-0.298l-0.233,0.505l0.19,0.088l-0.106,0.23l-0.191,-0.088l-0.139,0.301l0.646,0.299l-0.091,0.196l-1.064,-0.492l0.231,-0.497l-0.078,-0.036l0.106,-0.23l0.078,0.036l0.325,-0.702Z" style="fill:#231f20;fill-rule:nonzero;"/><path d="M21.381,5.802c-0.018,0 -0.036,-0.001 -0.054,-0.004c-0.049,-0.007 -0.095,-0.024 -0.139,-0.05l-0.72,-0.44l0.152,-0.249l0.504,0.307c0.008,0.005 0.017,0.008 0.026,0.008c0.004,0 0.008,-0.001 0.013,-0.002c0.015,-0.004 0.025,-0.011 0.032,-0.023c0.007,-0.011 0.01,-0.023 0.009,-0.036l-0.091,-0.849c-0.008,-0.082 0.009,-0.158 0.052,-0.228c0.027,-0.044 0.06,-0.08 0.101,-0.108c0.039,-0.027 0.083,-0.047 0.129,-0.058c0.03,-0.008 0.061,-0.011 0.091,-0.011c0.017,0 0.034,0.001 0.051,0.003c0.049,0.007 0.096,0.024 0.139,0.05l0.72,0.439l-0.152,0.25l-0.504,-0.307c-0.009,-0.005 -0.017,-0.008 -0.026,-0.008c-0.004,0 -0.009,0.001 -0.013,0.002c-0.015,0.003 -0.025,0.011 -0.032,0.023c-0.009,0.015 -0.009,0.026 -0.007,0.033l0.089,0.852c0.002,0.042 0,0.081 -0.007,0.118c-0.007,0.039 -0.022,0.077 -0.043,0.111c-0.026,0.043 -0.06,0.079 -0.1,0.107c-0.04,0.028 -0.084,0.048 -0.13,0.059c-0.03,0.007 -0.06,0.011 -0.09,0.011Z" style="fill:#fff;fill-rule:nonzero;"/><path d="M21.486,4.021c-0.034,0 -0.067,0.004 -0.1,0.012c-0.051,0.012 -0.099,0.034 -0.142,0.064c-0.045,0.031 -0.082,0.071 -0.112,0.119c-0.047,0.077 -0.066,0.162 -0.057,0.252l0.091,0.85c0,0.003 -0.001,0.006 -0.003,0.011c-0.002,0.003 -0.003,0.004 -0.009,0.006c-0.002,0 -0.003,0 -0.004,0c-0.001,0 -0.003,0 -0.006,-0.002l-0.472,-0.287l-0.065,-0.04l-0.039,0.065l-0.113,0.185l-0.04,0.065l0.065,0.04l0.688,0.419c0.048,0.03 0.1,0.048 0.154,0.056c0.02,0.003 0.039,0.004 0.059,0.004c0.033,0 0.066,-0.004 0.098,-0.012c0.052,-0.012 0.1,-0.034 0.144,-0.065c0.045,-0.031 0.082,-0.071 0.111,-0.118c0.023,-0.038 0.039,-0.08 0.048,-0.123c0.007,-0.041 0.009,-0.083 0.007,-0.126l-0.089,-0.853l0,-0.003l-0.001,-0.004c0,0 0,-0.001 0.003,-0.005c0.001,-0.003 0.003,-0.005 0.008,-0.006c0.001,-0.001 0.003,-0.001 0.004,-0.001c0.001,0 0.003,0 0.006,0.002l0.471,0.288l0.065,0.04l0.04,-0.066l0.113,-0.184l0.04,-0.065l-0.066,-0.04l-0.687,-0.419c-0.048,-0.03 -0.1,-0.048 -0.154,-0.056c-0.018,-0.002 -0.038,-0.003 -0.056,-0.003Zm0,0.076c0.015,0 0.031,0.001 0.046,0.003c0.043,0.006 0.085,0.021 0.124,0.045l0.688,0.419l-0.113,0.185l-0.471,-0.288c-0.015,-0.009 -0.03,-0.013 -0.046,-0.013c-0.007,0 -0.015,0.001 -0.022,0.003c-0.024,0.006 -0.043,0.019 -0.056,0.04c-0.012,0.02 -0.016,0.04 -0.012,0.06l0.089,0.849c0.002,0.038 0,0.073 -0.006,0.107c-0.007,0.034 -0.019,0.067 -0.039,0.098c-0.023,0.038 -0.052,0.07 -0.089,0.096c-0.036,0.025 -0.075,0.043 -0.117,0.053c-0.027,0.007 -0.054,0.01 -0.081,0.01c-0.016,0 -0.032,-0.001 -0.048,-0.004c-0.044,-0.006 -0.086,-0.021 -0.125,-0.045l-0.688,-0.419l0.113,-0.185l0.471,0.288c0.015,0.008 0.03,0.013 0.046,0.013c0.007,0 0.014,-0.001 0.022,-0.003c0.024,-0.006 0.043,-0.019 0.056,-0.04c0.011,-0.019 0.016,-0.038 0.014,-0.059l-0.091,-0.85c-0.007,-0.074 0.008,-0.141 0.047,-0.204c0.023,-0.039 0.053,-0.071 0.089,-0.097c0.036,-0.024 0.075,-0.042 0.117,-0.052c0.027,-0.007 0.054,-0.01 0.082,-0.01Z" style="fill:#231f20;fill-rule:nonzero;"/><path d="M22.442,6.561c-0.032,0 -0.065,-0.004 -0.096,-0.013c-0.048,-0.012 -0.093,-0.034 -0.133,-0.065l-0.668,-0.516l0.18,-0.232l0.467,0.362c0.009,0.007 0.019,0.01 0.03,0.01c0.003,0 0.005,0 0.008,0c0.014,-0.002 0.025,-0.008 0.034,-0.02c0.008,-0.01 0.012,-0.021 0.013,-0.034l0.004,-0.854c0.001,-0.082 0.026,-0.156 0.076,-0.221c0.032,-0.04 0.069,-0.072 0.113,-0.096c0.042,-0.023 0.087,-0.037 0.135,-0.044c0.016,-0.002 0.033,-0.003 0.049,-0.003c0.031,0 0.062,0.004 0.093,0.012c0.047,0.011 0.092,0.033 0.132,0.065l0.667,0.516l-0.179,0.232l-0.467,-0.362c-0.009,-0.007 -0.019,-0.011 -0.03,-0.011c-0.003,0 -0.005,0 -0.008,0.001c-0.014,0.002 -0.025,0.008 -0.034,0.019c-0.008,0.011 -0.012,0.021 -0.011,0.032l-0.006,0.857c-0.002,0.042 -0.009,0.081 -0.019,0.117c-0.012,0.036 -0.03,0.072 -0.055,0.105c-0.031,0.039 -0.068,0.071 -0.112,0.095c-0.042,0.023 -0.088,0.038 -0.136,0.045c-0.016,0.002 -0.032,0.003 -0.047,0.003Z" style="fill:#fff;fill-rule:nonzero;"/><path d="M22.654,4.797c-0.018,0 -0.036,0.001 -0.054,0.004c-0.052,0.006 -0.103,0.022 -0.149,0.048c-0.047,0.026 -0.089,0.061 -0.124,0.106c-0.055,0.071 -0.083,0.153 -0.084,0.243l-0.004,0.856c-0.001,0.002 -0.001,0.005 -0.005,0.01c-0.002,0.003 -0.004,0.004 -0.009,0.005c-0.001,0 -0.002,0 -0.002,0c-0.004,0 -0.005,-0.001 -0.008,-0.003l-0.437,-0.338l-0.06,-0.046l-0.047,0.06l-0.132,0.171l-0.047,0.06l0.06,0.047l0.637,0.493c0.045,0.035 0.095,0.059 0.147,0.072c0.035,0.009 0.071,0.014 0.105,0.014c0.018,0 0.035,-0.001 0.053,-0.004c0.053,-0.006 0.103,-0.023 0.15,-0.049c0.048,-0.026 0.089,-0.061 0.123,-0.104c0.028,-0.038 0.049,-0.077 0.061,-0.118c0.012,-0.039 0.019,-0.081 0.021,-0.124l0.006,-0.857l0,-0.003l0,-0.003c0,-0.002 0.001,-0.003 0.003,-0.006c0.003,-0.004 0.004,-0.005 0.009,-0.005c0.001,0 0.002,0 0.002,0c0.004,0 0.005,0 0.008,0.002l0.437,0.338l0.06,0.047l0.047,-0.06l0.132,-0.171l0.047,-0.061l-0.06,-0.046l-0.638,-0.494c-0.044,-0.034 -0.094,-0.058 -0.146,-0.071c-0.034,-0.009 -0.068,-0.013 -0.102,-0.013Zm0,0.076c0.028,0 0.056,0.004 0.084,0.011c0.042,0.01 0.081,0.03 0.118,0.058l0.637,0.493l-0.133,0.171l-0.436,-0.338c-0.016,-0.013 -0.034,-0.019 -0.054,-0.019c-0.004,0 -0.008,0 -0.013,0.001c-0.025,0.003 -0.044,0.014 -0.059,0.034c-0.014,0.018 -0.021,0.037 -0.019,0.058l-0.006,0.854c-0.002,0.037 -0.008,0.072 -0.018,0.106c-0.01,0.033 -0.026,0.064 -0.049,0.093c-0.027,0.035 -0.06,0.063 -0.099,0.084c-0.039,0.022 -0.08,0.035 -0.123,0.041c-0.014,0.002 -0.028,0.002 -0.043,0.002c-0.028,0 -0.057,-0.003 -0.086,-0.01c-0.043,-0.011 -0.082,-0.031 -0.119,-0.059l-0.637,-0.493l0.133,-0.171l0.436,0.338c0.016,0.012 0.034,0.018 0.054,0.018c0.004,0 0.008,0 0.013,0c0.024,-0.003 0.044,-0.015 0.059,-0.034c0.013,-0.017 0.02,-0.036 0.021,-0.057l0.004,-0.855c0.001,-0.074 0.024,-0.139 0.069,-0.198c0.028,-0.036 0.061,-0.065 0.1,-0.085c0.038,-0.021 0.078,-0.034 0.122,-0.04c0.015,-0.002 0.029,-0.003 0.044,-0.003Z" style="fill:#231f20;fill-rule:nonzero;"/><path d="M22.544,6.759l1.112,-1.22l0.395,0.361l-1.113,1.219l-0.394,-0.36Z" style="fill:#fff;fill-rule:nonzero;"/><path d="M23.654,5.485l-0.052,0.057l-1.061,1.163l-0.051,0.056l0.056,0.051l0.338,0.309l0.056,0.052l0.052,-0.057l1.061,-1.162l0.052,-0.057l-0.057,-0.051l-0.338,-0.309l-0.056,-0.052Zm0.005,0.108l0.338,0.309l-1.061,1.163l-0.339,-0.309l1.062,-1.163Z" style="fill:#231f20;fill-rule:nonzero;"/><path d="M24.323,6.627c-0.02,0 -0.036,0.007 -0.052,0.021l-0.682,0.635c-0.015,0.015 -0.023,0.032 -0.024,0.054c-0.001,0.021 0.005,0.039 0.02,0.055c0.014,0.015 0.031,0.023 0.054,0.023c0,0 0,0 0,0c0.025,0 0.041,-0.006 0.055,-0.019l0.682,-0.635c0.016,-0.016 0.024,-0.033 0.025,-0.054c0.001,-0.022 -0.006,-0.039 -0.021,-0.055c-0.015,-0.016 -0.032,-0.024 -0.053,-0.025l-0.004,-0.038l0,0.038Zm-0.523,1.155c-0.078,-0.002 -0.155,-0.02 -0.229,-0.052c-0.075,-0.032 -0.142,-0.079 -0.198,-0.14c-0.058,-0.062 -0.101,-0.132 -0.128,-0.208c-0.028,-0.076 -0.04,-0.154 -0.037,-0.232c0.003,-0.078 0.021,-0.155 0.053,-0.229c0.033,-0.074 0.081,-0.141 0.143,-0.198l0.323,-0.301c0.061,-0.057 0.131,-0.1 0.207,-0.126c0.069,-0.024 0.14,-0.037 0.21,-0.037c0.008,0 0.015,0.001 0.023,0.001c0.078,0.003 0.155,0.02 0.229,0.052c0.075,0.032 0.142,0.08 0.198,0.14c0.057,0.062 0.099,0.131 0.125,0.207c0.026,0.075 0.038,0.154 0.035,0.233c-0.003,0.08 -0.02,0.157 -0.051,0.23c-0.032,0.074 -0.079,0.141 -0.14,0.198l-0.323,0.301c-0.061,0.056 -0.131,0.099 -0.207,0.125c-0.069,0.025 -0.14,0.037 -0.211,0.037c-0.007,0 -0.014,0 -0.022,-0.001Z" style="fill:#fff;fill-rule:nonzero;"/><path d="M23.643,7.377l-0.002,0c-0.016,0 -0.023,-0.005 -0.028,-0.011c-0.008,-0.008 -0.011,-0.016 -0.01,-0.027c0.001,-0.013 0.004,-0.02 0.012,-0.028l0.682,-0.635c0.01,-0.009 0.018,-0.011 0.026,-0.011c0.013,0 0.021,0.004 0.029,0.012c0.009,0.011 0.011,0.019 0.011,0.028c-0.001,0.01 -0.003,0.018 -0.013,0.028l-0.682,0.635c-0.007,0.007 -0.014,0.009 -0.025,0.009Zm0.502,-1.156c-0.076,0 -0.151,0.013 -0.224,0.039c-0.081,0.028 -0.155,0.073 -0.22,0.134l-0.324,0.301c-0.065,0.061 -0.116,0.132 -0.151,0.211c-0.034,0.078 -0.053,0.16 -0.056,0.243c-0.003,0.082 0.01,0.165 0.039,0.246c0.029,0.081 0.075,0.156 0.136,0.221c0.06,0.065 0.131,0.115 0.21,0.149c0.079,0.034 0.161,0.053 0.244,0.056c0.007,0 0.015,0 0.023,0c0.075,0 0.15,-0.013 0.223,-0.039c0.082,-0.028 0.156,-0.073 0.221,-0.133l0.323,-0.302c0.065,-0.06 0.115,-0.131 0.149,-0.21c0.033,-0.077 0.051,-0.159 0.054,-0.244c0.003,-0.084 -0.009,-0.167 -0.037,-0.247c-0.028,-0.081 -0.073,-0.155 -0.133,-0.22c-0.06,-0.064 -0.131,-0.115 -0.211,-0.149c-0.079,-0.034 -0.16,-0.052 -0.243,-0.055c-0.008,-0.001 -0.016,-0.001 -0.023,-0.001Zm-0.502,1.233c0.03,0 0.056,-0.011 0.077,-0.03l0.682,-0.636c0.024,-0.022 0.036,-0.048 0.037,-0.08c0.001,-0.031 -0.009,-0.059 -0.031,-0.082c-0.022,-0.024 -0.049,-0.036 -0.08,-0.037c-0.002,0 -0.003,0 -0.005,0c-0.03,0 -0.055,0.01 -0.078,0.031l-0.682,0.635c-0.022,0.021 -0.035,0.048 -0.036,0.08c-0.002,0.032 0.009,0.06 0.03,0.083c0.021,0.023 0.048,0.034 0.081,0.035c0.001,0.001 0.003,0.001 0.005,0.001Zm0.502,-1.157c0.007,0 0.013,0.001 0.02,0.001c0.074,0.002 0.146,0.019 0.216,0.049c0.07,0.03 0.132,0.074 0.185,0.131c0.053,0.058 0.092,0.122 0.117,0.193c0.025,0.072 0.036,0.145 0.033,0.22c-0.003,0.075 -0.019,0.147 -0.049,0.216c-0.029,0.07 -0.073,0.131 -0.13,0.185l-0.323,0.301c-0.057,0.053 -0.122,0.092 -0.194,0.117c-0.065,0.023 -0.131,0.035 -0.198,0.035c-0.007,0 -0.014,0 -0.021,-0.001c-0.073,-0.002 -0.145,-0.019 -0.215,-0.049c-0.07,-0.03 -0.132,-0.074 -0.185,-0.131c-0.055,-0.058 -0.095,-0.123 -0.12,-0.195c-0.026,-0.071 -0.038,-0.144 -0.035,-0.218c0.003,-0.073 0.019,-0.145 0.05,-0.214c0.031,-0.07 0.075,-0.132 0.133,-0.186l0.324,-0.302c0.057,-0.053 0.122,-0.092 0.194,-0.117c0.065,-0.023 0.131,-0.035 0.198,-0.035Z" style="fill:#231f20;fill-rule:nonzero;"/><path d="M24.222,8.587l1.028,-0.764c0.018,-0.013 0.028,-0.029 0.031,-0.05c0.004,-0.021 -0.001,-0.039 -0.014,-0.057c-0.013,-0.018 -0.029,-0.027 -0.05,-0.03c-0.003,-0.001 -0.007,-0.001 -0.01,-0.001c-0.017,0 -0.032,0.006 -0.047,0.017l-1.028,0.764l-0.321,-0.433l1.324,-0.984l0.322,0.432l-0.043,0.032c0.068,0.032 0.126,0.08 0.173,0.143c0.037,0.05 0.064,0.107 0.078,0.168c0.014,0.061 0.017,0.123 0.008,0.183c-0.009,0.059 -0.029,0.117 -0.059,0.171c-0.031,0.054 -0.073,0.101 -0.123,0.138l-0.947,0.704l-0.322,-0.433Z" style="fill:#fff;fill-rule:nonzero;"/><path d="M25.143,6.995l-0.061,0.046l-1.264,0.939l-0.061,0.045l0.046,0.062l0.276,0.371l0.045,0.061l0.061,-0.045l0.998,-0.742c0.011,-0.008 0.018,-0.009 0.024,-0.009c0.002,0 0.004,0.001 0.006,0.001c0.008,0.001 0.015,0.004 0.023,0.015c0.009,0.011 0.009,0.02 0.008,0.028c-0.002,0.011 -0.006,0.018 -0.016,0.026l-0.998,0.741l-0.061,0.046l0.046,0.061l0.276,0.371l0.045,0.061l0.061,-0.045l0.917,-0.681c0.054,-0.041 0.099,-0.091 0.133,-0.15c0.033,-0.059 0.054,-0.121 0.063,-0.185c0.01,-0.064 0.007,-0.13 -0.008,-0.196c-0.015,-0.067 -0.044,-0.128 -0.085,-0.183c-0.038,-0.051 -0.082,-0.093 -0.133,-0.125l0.026,-0.019l-0.045,-0.061l-0.276,-0.371l-0.046,-0.062Zm-0.016,0.107l0.276,0.371l-0.068,0.051c0.09,0.027 0.164,0.078 0.221,0.154c0.035,0.047 0.059,0.099 0.072,0.155c0.013,0.056 0.015,0.112 0.007,0.168c-0.008,0.056 -0.026,0.108 -0.054,0.158c-0.029,0.05 -0.066,0.092 -0.113,0.127l-0.916,0.681l-0.276,-0.372l0.997,-0.741c0.026,-0.019 0.041,-0.044 0.046,-0.076c0.005,-0.031 -0.003,-0.059 -0.022,-0.085c-0.019,-0.026 -0.044,-0.041 -0.075,-0.045c-0.005,-0.001 -0.01,-0.001 -0.015,-0.001c-0.025,0 -0.048,0.008 -0.07,0.024l-0.997,0.742l-0.276,-0.372l1.263,-0.939Z" style="fill:#231f20;fill-rule:nonzero;"/><path d="M25.699,9.26l0.35,-0.202c0.019,-0.011 0.031,-0.025 0.036,-0.046c0.006,-0.021 0.004,-0.039 -0.007,-0.057c-0.01,-0.019 -0.026,-0.03 -0.046,-0.036c-0.007,-0.002 -0.014,-0.003 -0.021,-0.003c-0.013,0 -0.025,0.004 -0.038,0.011l-0.349,0.202l0.075,0.131Zm-0.759,0.439l0.474,-0.274l-0.076,-0.131l-0.474,0.274l-0.269,-0.467l0.474,-0.274l-0.043,-0.074l0.286,-0.164l0.042,0.074l0.138,-0.08c0.094,-0.055 0.194,-0.082 0.297,-0.082c0.055,0 0.111,0.008 0.168,0.023c0.165,0.044 0.291,0.14 0.375,0.285c0.083,0.144 0.103,0.3 0.059,0.465c-0.044,0.165 -0.14,0.29 -0.284,0.373l-0.898,0.519l-0.269,-0.467Z" style="fill:#fff;fill-rule:nonzero;"/><path d="M25.676,9.143l0.316,-0.183c0.009,-0.005 0.015,-0.006 0.019,-0.006c0.004,0 0.007,0.001 0.011,0.002c0.011,0.003 0.018,0.008 0.023,0.018c0.005,0.008 0.007,0.015 0.003,0.028c-0.003,0.011 -0.008,0.018 -0.018,0.024l-0.317,0.182l-0.037,-0.065Zm0.113,-0.68c-0.11,0 -0.216,0.029 -0.316,0.087l-0.105,0.06l-0.004,-0.007l-0.038,-0.067l-0.067,0.039l-0.219,0.126l-0.066,0.039l0.038,0.066l0.004,0.007l-0.408,0.236l-0.066,0.038l0.039,0.066l0.231,0.401l0.038,0.066l0.066,-0.038l0.408,-0.236l0.038,0.065l-0.408,0.236l-0.067,0.038l0.039,0.066l0.231,0.401l0.038,0.066l0.066,-0.038l0.865,-0.5c0.153,-0.088 0.255,-0.221 0.301,-0.396c0.047,-0.175 0.026,-0.341 -0.062,-0.494c-0.089,-0.154 -0.223,-0.256 -0.398,-0.303c-0.06,-0.016 -0.12,-0.024 -0.178,-0.024Zm-0.104,0.85l0.383,-0.221c0.028,-0.017 0.046,-0.04 0.054,-0.07c0.008,-0.031 0.005,-0.059 -0.01,-0.086c-0.017,-0.028 -0.04,-0.046 -0.07,-0.054c-0.01,-0.002 -0.021,-0.004 -0.031,-0.004c-0.019,0 -0.038,0.006 -0.057,0.016l-0.383,0.221l0.114,0.198Zm0.104,-0.774c0.052,0 0.105,0.007 0.159,0.022c0.155,0.041 0.272,0.13 0.351,0.267c0.078,0.136 0.096,0.281 0.055,0.436c-0.042,0.155 -0.13,0.272 -0.266,0.35l-0.865,0.499l-0.231,-0.4l0.474,-0.274l-0.114,-0.197l-0.474,0.274l-0.231,-0.401l0.474,-0.274l-0.043,-0.074l0.22,-0.126l0.042,0.074l0.172,-0.099c0.088,-0.052 0.181,-0.077 0.277,-0.077Z" style="fill:#231f20;fill-rule:nonzero;"/><path d="M25.211,10.174l1.516,-0.653l0.213,0.492l-1.247,0.538l0.281,0.653l-0.269,0.116l-0.494,-1.146Z" style="fill:#fff;fill-rule:nonzero;"/><path d="M26.747,9.471l-0.07,0.03l-1.446,0.623l-0.07,0.03l0.03,0.07l0.464,1.076l0.031,0.07l0.07,-0.03l0.199,-0.086l0.07,-0.03l-0.031,-0.07l-0.251,-0.583l1.177,-0.507l0.07,-0.031l-0.031,-0.07l-0.182,-0.422l-0.03,-0.07Zm-0.04,0.1l0.182,0.423l-1.247,0.537l0.282,0.653l-0.199,0.086l-0.464,-1.076l1.446,-0.623Z" style="fill:#231f20;fill-rule:nonzero;"/><path d="M7.384,16.396c0.024,-0.009 0.047,-0.02 0.07,-0.034c0.05,-0.029 0.092,-0.064 0.128,-0.108c0.036,-0.043 0.065,-0.092 0.086,-0.144c0.021,-0.053 0.031,-0.106 0.031,-0.164c0,-0.056 -0.01,-0.111 -0.031,-0.163c-0.021,-0.054 -0.05,-0.103 -0.087,-0.145c-0.036,-0.043 -0.08,-0.081 -0.131,-0.112c-0.021,-0.014 -0.043,-0.025 -0.066,-0.034l0,0.904Zm-1.028,1.64l0,-1.041l-0.142,0l0,-0.632l0.142,0l0,-1.47l1.154,0c0.166,0 0.325,0.027 0.473,0.081c0.148,0.053 0.28,0.128 0.393,0.221c0.114,0.095 0.205,0.207 0.272,0.334c0.069,0.129 0.104,0.269 0.104,0.417c0,0.147 -0.036,0.287 -0.106,0.417c-0.069,0.127 -0.161,0.239 -0.274,0.331c-0.113,0.092 -0.245,0.166 -0.393,0.22c-0.148,0.053 -0.305,0.081 -0.469,0.081l-0.126,0l0,1.041l-1.028,0Z" style="fill:#fff56c;fill-rule:nonzero;"/><path d="M7.46,16.267l0,-0.641c0.023,0.018 0.044,0.039 0.063,0.061c0.032,0.037 0.056,0.077 0.074,0.123c0.017,0.044 0.026,0.09 0.026,0.135c0,0.049 -0.009,0.093 -0.026,0.136c-0.018,0.046 -0.042,0.087 -0.073,0.125c-0.019,0.022 -0.04,0.043 -0.064,0.061Zm0.05,-1.45l-1.078,0l-0.152,0l0,1.47l-0.142,0l0,0.784l0.142,0l0,1.042l1.18,0l0,-0.153l0,-0.889l0.05,0c0.172,0 0.339,-0.029 0.495,-0.085c0.156,-0.057 0.296,-0.135 0.415,-0.233c0.121,-0.099 0.22,-0.218 0.293,-0.354c0.076,-0.141 0.115,-0.293 0.115,-0.454c0,-0.16 -0.038,-0.312 -0.112,-0.452c-0.072,-0.136 -0.17,-0.256 -0.291,-0.356c-0.12,-0.099 -0.259,-0.178 -0.416,-0.235c-0.156,-0.057 -0.324,-0.085 -0.499,-0.085Zm-0.203,1.68c0.065,-0.012 0.127,-0.035 0.185,-0.069c0.059,-0.034 0.108,-0.075 0.149,-0.125c0.041,-0.05 0.074,-0.104 0.098,-0.165c0.024,-0.061 0.036,-0.125 0.036,-0.193c0,-0.065 -0.012,-0.128 -0.036,-0.19c-0.024,-0.062 -0.057,-0.117 -0.1,-0.167c-0.042,-0.05 -0.092,-0.092 -0.148,-0.127c-0.057,-0.035 -0.119,-0.059 -0.184,-0.071l0,1.107Zm0.203,-1.528c0.158,0 0.307,0.025 0.447,0.076c0.14,0.051 0.264,0.121 0.37,0.209c0.107,0.088 0.191,0.192 0.254,0.31c0.063,0.119 0.094,0.246 0.094,0.381c0,0.136 -0.032,0.263 -0.096,0.382c-0.064,0.118 -0.149,0.221 -0.255,0.308c-0.107,0.087 -0.23,0.156 -0.371,0.207c-0.14,0.051 -0.288,0.076 -0.443,0.076l-0.203,0l0,1.042l-0.875,0l0,-1.042l-0.141,0l0,-0.479l0.141,0l0,-1.47l1.078,0Z" style="fill:#231f20;fill-rule:nonzero;"/><path d="M9.815,16.644c0.055,-0.024 0.102,-0.06 0.144,-0.109c0.062,-0.073 0.092,-0.155 0.092,-0.248c0,-0.094 -0.03,-0.175 -0.093,-0.249c-0.041,-0.048 -0.088,-0.085 -0.143,-0.109l0,0.715Zm0.232,1.392l0,-0.573c0,-0.088 -0.027,-0.156 -0.084,-0.209c-0.041,-0.039 -0.09,-0.063 -0.148,-0.075l0,0.857l-0.882,0l0,-0.863l-0.116,0l0,-0.553l0.116,0l0,-1.219l0.977,0c0.26,0 0.495,0.077 0.699,0.229c0.225,0.17 0.339,0.391 0.339,0.657c0,0.16 -0.045,0.307 -0.133,0.436c-0.066,0.097 -0.148,0.18 -0.246,0.247c0.122,0.105 0.222,0.23 0.296,0.374c0.091,0.178 0.137,0.369 0.137,0.569l0,0.123l-0.955,0Z" style="fill:#fff56c;fill-rule:nonzero;"/><path d="M9.892,16.496l0,-0.418c0.003,0.003 0.006,0.006 0.008,0.01c0.05,0.059 0.075,0.124 0.075,0.199c0,0.075 -0.025,0.14 -0.075,0.199c-0.003,0.003 -0.006,0.006 -0.008,0.01Zm0.018,-1.171l-0.901,0l-0.152,0l0,1.219l-0.116,0l0,0.705l0.116,0l0,0.864l1.035,0l0,-0.153l0,-0.667c0.006,0.005 0.012,0.011 0.019,0.016c0.026,0.025 0.06,0.066 0.06,0.154l0,0.65l1.108,0l0,-0.153l0,-0.047c0,-0.212 -0.049,-0.415 -0.146,-0.604c-0.065,-0.124 -0.147,-0.236 -0.245,-0.334c0.073,-0.06 0.136,-0.13 0.19,-0.209c0.097,-0.142 0.146,-0.304 0.146,-0.479c0,-0.292 -0.124,-0.533 -0.369,-0.718c-0.218,-0.162 -0.468,-0.244 -0.745,-0.244Zm-0.171,1.423c0.111,-0.022 0.204,-0.076 0.278,-0.164c0.074,-0.087 0.11,-0.186 0.11,-0.297c0,-0.112 -0.036,-0.211 -0.11,-0.298c-0.074,-0.087 -0.167,-0.141 -0.278,-0.163l0,0.922Zm0.171,-1.271c0.244,0 0.462,0.072 0.653,0.214c0.206,0.155 0.308,0.354 0.308,0.596c0,0.145 -0.04,0.276 -0.119,0.394c-0.08,0.117 -0.185,0.211 -0.316,0.281c0.155,0.111 0.275,0.25 0.361,0.417c0.086,0.167 0.129,0.345 0.129,0.534l0,0.047l-0.802,0l0,-0.497c0,-0.109 -0.036,-0.198 -0.109,-0.265c-0.073,-0.068 -0.165,-0.102 -0.276,-0.102l0,0.864l-0.73,0l0,-0.864l-0.116,0l0,-0.399l0.116,0l0,-1.22l0.901,0Z" style="fill:#231f20;fill-rule:nonzero;"/><path d="M12.051,15.895c-0.03,0 -0.054,0.01 -0.075,0.03c-0.02,0.021 -0.03,0.044 -0.03,0.075l0,1.47c0,0.029 0.01,0.052 0.031,0.074c0.021,0.021 0.044,0.031 0.074,0.031c0.028,0 0.051,-0.01 0.073,-0.032c0.022,-0.022 0.032,-0.045 0.032,-0.073l0,-1.47c0,-0.031 -0.009,-0.054 -0.03,-0.075c-0.021,-0.02 -0.044,-0.03 -0.075,-0.03Zm0,2.171c-0.135,0 -0.264,-0.026 -0.384,-0.077c-0.118,-0.051 -0.223,-0.122 -0.312,-0.211c-0.089,-0.088 -0.159,-0.193 -0.211,-0.312c-0.051,-0.119 -0.077,-0.249 -0.077,-0.384l0,-0.697c0,-0.134 0.027,-0.262 0.079,-0.381c0.053,-0.119 0.124,-0.224 0.212,-0.312c0.089,-0.089 0.194,-0.16 0.312,-0.212c0.119,-0.052 0.248,-0.079 0.381,-0.079c0.134,0 0.261,0.027 0.38,0.079c0.117,0.052 0.222,0.124 0.311,0.214c0.089,0.089 0.161,0.194 0.214,0.311c0.052,0.119 0.079,0.246 0.079,0.38l0,0.697c0,0.133 -0.027,0.261 -0.079,0.381c-0.053,0.119 -0.124,0.223 -0.212,0.311c-0.089,0.089 -0.194,0.16 -0.312,0.212c-0.12,0.053 -0.248,0.08 -0.381,0.08Z" style="fill:#fff56c;fill-rule:nonzero;"/><path d="M12.051,17.499c-0.009,0 -0.013,-0.002 -0.019,-0.008c-0.009,-0.009 -0.01,-0.014 -0.01,-0.021l0,-1.47c0,-0.013 0.003,-0.016 0.008,-0.021c0.005,-0.005 0.009,-0.008 0.021,-0.008c0.012,0 0.016,0.003 0.021,0.008c0.005,0.005 0.008,0.009 0.008,0.021l0,1.47c0,0.005 0,0.01 -0.01,0.019c-0.009,0.01 -0.014,0.01 -0.019,0.01Zm0,-2.174c-0.144,0 -0.283,0.029 -0.412,0.085c-0.126,0.056 -0.239,0.133 -0.334,0.228c-0.096,0.095 -0.172,0.208 -0.228,0.335c-0.057,0.129 -0.086,0.268 -0.086,0.412l0,0.697c0,0.146 0.028,0.285 0.083,0.414c0.055,0.128 0.132,0.241 0.227,0.336c0.096,0.096 0.209,0.172 0.336,0.227c0.129,0.055 0.268,0.083 0.414,0.083c0.144,0 0.282,-0.029 0.412,-0.086c0.127,-0.056 0.24,-0.132 0.335,-0.228c0.095,-0.094 0.171,-0.207 0.228,-0.334c0.056,-0.13 0.085,-0.268 0.085,-0.412l0,-0.697c0,-0.144 -0.029,-0.283 -0.085,-0.411c-0.057,-0.126 -0.134,-0.238 -0.23,-0.334c-0.096,-0.096 -0.208,-0.173 -0.334,-0.23c-0.129,-0.056 -0.267,-0.085 -0.411,-0.085Zm0,2.327c0.049,0 0.091,-0.019 0.127,-0.055c0.037,-0.036 0.054,-0.079 0.054,-0.127l0,-1.47c0,-0.051 -0.017,-0.094 -0.052,-0.129c-0.035,-0.035 -0.078,-0.052 -0.129,-0.052c-0.051,0 -0.094,0.017 -0.129,0.052c-0.035,0.035 -0.052,0.078 -0.052,0.129l0,1.47c0,0.048 0.017,0.091 0.052,0.127c0.035,0.036 0.078,0.055 0.129,0.055Zm0,-2.175c0.124,0 0.24,0.025 0.349,0.073c0.109,0.048 0.205,0.114 0.288,0.198c0.084,0.083 0.149,0.179 0.198,0.288c0.048,0.109 0.072,0.225 0.072,0.349l0,0.697c0,0.123 -0.024,0.24 -0.072,0.35c-0.049,0.11 -0.114,0.206 -0.196,0.288c-0.082,0.083 -0.179,0.148 -0.289,0.196c-0.11,0.049 -0.226,0.073 -0.35,0.073c-0.126,0 -0.244,-0.024 -0.354,-0.071c-0.11,-0.047 -0.206,-0.112 -0.288,-0.194c-0.082,-0.082 -0.147,-0.178 -0.195,-0.288c-0.047,-0.111 -0.07,-0.229 -0.07,-0.354l0,-0.697c0,-0.124 0.024,-0.24 0.072,-0.351c0.049,-0.11 0.114,-0.206 0.196,-0.288c0.083,-0.082 0.179,-0.148 0.289,-0.196c0.11,-0.048 0.227,-0.073 0.35,-0.073Z" style="fill:#231f20;fill-rule:nonzero;"/><path d="M14.095,16.645c0.055,-0.024 0.102,-0.06 0.143,-0.107c0.063,-0.071 0.093,-0.153 0.093,-0.251c0,-0.094 -0.031,-0.175 -0.093,-0.249c-0.042,-0.048 -0.089,-0.085 -0.143,-0.109l0,0.716Zm-0.879,1.391l0,-0.863l-0.116,0l0,-0.553l0.116,0l0,-1.219l0.973,0c0.137,0 0.269,0.022 0.392,0.066c0.124,0.044 0.235,0.105 0.331,0.183c0.097,0.079 0.175,0.173 0.232,0.28c0.058,0.109 0.087,0.229 0.087,0.357c0,0.128 -0.03,0.249 -0.089,0.357c-0.058,0.106 -0.136,0.2 -0.233,0.279c-0.097,0.078 -0.208,0.14 -0.332,0.183c-0.124,0.044 -0.254,0.067 -0.388,0.067l-0.094,0l0,0.863l-0.879,0Z" style="fill:#fff56c;fill-rule:nonzero;"/><path d="M14.171,16.499l0,-0.421c0.003,0.003 0.006,0.006 0.009,0.01c0.05,0.059 0.074,0.124 0.074,0.199c0,0.078 -0.024,0.144 -0.073,0.201c-0.003,0.003 -0.006,0.007 -0.01,0.011Zm0.018,-1.174l-0.897,0l-0.152,0l0,1.219l-0.116,0l0,0.705l0.116,0l0,0.864l1.031,0l0,-0.153l0,-0.711l0.018,0c0.142,0 0.282,-0.024 0.414,-0.071c0.132,-0.046 0.251,-0.112 0.354,-0.196c0.105,-0.085 0.19,-0.187 0.252,-0.301c0.065,-0.12 0.098,-0.253 0.098,-0.394c0,-0.141 -0.032,-0.273 -0.095,-0.393c-0.063,-0.116 -0.147,-0.218 -0.252,-0.303c-0.103,-0.083 -0.222,-0.149 -0.354,-0.196c-0.131,-0.046 -0.272,-0.07 -0.417,-0.07Zm-0.17,1.423c0.111,-0.022 0.203,-0.075 0.277,-0.16c0.074,-0.085 0.111,-0.185 0.111,-0.301c0,-0.112 -0.037,-0.211 -0.111,-0.298c-0.074,-0.087 -0.166,-0.141 -0.277,-0.163l0,0.922Zm0.17,-1.271c0.128,0 0.25,0.021 0.367,0.062c0.116,0.041 0.219,0.098 0.308,0.171c0.09,0.072 0.16,0.157 0.213,0.256c0.051,0.098 0.078,0.205 0.078,0.321c0,0.116 -0.027,0.223 -0.08,0.321c-0.053,0.098 -0.125,0.183 -0.214,0.256c-0.09,0.072 -0.193,0.13 -0.309,0.17c-0.116,0.042 -0.237,0.062 -0.363,0.062l-0.17,0l0,0.864l-0.727,0l0,-0.864l-0.116,0l0,-0.399l0.116,0l0,-1.22l0.897,0Z" style="fill:#231f20;fill-rule:nonzero;"/><path d="M15.43,18.036l0,-0.863l-0.134,0l0,-0.553l0.134,0l0,-1.219l2,0l0,0.494l-1.121,0l0,0.725l0.33,0l0,0.553l-0.33,0l0,0.37l1.121,0l0,0.493l-2,0Z" style="fill:#fff56c;fill-rule:nonzero;"/><path d="M17.507,15.325l-0.153,0l-1.847,0l-0.153,0l0,1.219l-0.134,0l0,0.705l0.134,0l0,0.864l2.153,0l0,-0.153l0,-0.341l0,-0.153l-0.153,0l-0.969,0l0,-0.217l0.33,0l0,-0.153l0,-0.399l0,-0.153l-0.152,0l-0.178,0l0,-0.573l1.122,0l0,-0.152l0,-0.342l0,-0.152Zm-0.153,0.152l0,0.342l-1.121,0l0,0.878l0.33,0l0,0.399l-0.33,0l0,0.523l1.121,0l0,0.341l-1.847,0l0,-0.864l-0.135,0l0,-0.399l0.135,0l0,-1.22l1.847,0Z" style="fill:#231f20;fill-rule:nonzero;"/><path d="M18.494,16.644c0.054,-0.024 0.102,-0.06 0.143,-0.109c0.062,-0.073 0.092,-0.155 0.092,-0.248c0,-0.094 -0.03,-0.175 -0.092,-0.249c-0.041,-0.048 -0.089,-0.085 -0.143,-0.109l0,0.715Zm0.232,1.392l0,-0.573c0,-0.088 -0.028,-0.156 -0.085,-0.209c-0.041,-0.039 -0.09,-0.063 -0.147,-0.075l0,0.857l-0.882,0l0,-0.863l-0.117,0l0,-0.553l0.117,0l0,-1.219l0.976,0c0.26,0 0.495,0.077 0.699,0.229c0.225,0.17 0.339,0.391 0.339,0.657c0,0.16 -0.044,0.307 -0.133,0.436c-0.065,0.097 -0.148,0.179 -0.245,0.247c0.122,0.105 0.221,0.23 0.295,0.374c0.092,0.178 0.138,0.369 0.138,0.569l0,0.123l-0.955,0Z" style="fill:#fff56c;fill-rule:nonzero;"/><path d="M18.57,16.496l0,-0.418c0.003,0.003 0.006,0.006 0.009,0.01c0.05,0.059 0.074,0.124 0.074,0.199c0,0.075 -0.024,0.14 -0.074,0.199c-0.003,0.003 -0.006,0.006 -0.009,0.01Zm0.018,-1.171l-0.9,0l-0.153,0l0,1.219l-0.116,0l0,0.705l0.116,0l0,0.864l1.035,0l0,-0.153l0,-0.667c0.007,0.005 0.013,0.011 0.019,0.016c0.042,0.039 0.061,0.087 0.061,0.154l0,0.65l1.107,0l0,-0.153l0,-0.047c0,-0.212 -0.049,-0.415 -0.146,-0.604c-0.064,-0.124 -0.146,-0.236 -0.244,-0.334c0.072,-0.06 0.136,-0.13 0.189,-0.209c0.097,-0.142 0.147,-0.304 0.147,-0.479c0,-0.292 -0.125,-0.533 -0.37,-0.718c-0.217,-0.162 -0.468,-0.244 -0.745,-0.244Zm-0.17,1.423c0.111,-0.022 0.203,-0.076 0.277,-0.164c0.074,-0.087 0.111,-0.186 0.111,-0.297c0,-0.112 -0.037,-0.211 -0.111,-0.298c-0.074,-0.087 -0.166,-0.141 -0.277,-0.163l0,0.922Zm0.17,-1.271c0.245,0 0.462,0.072 0.654,0.214c0.205,0.155 0.308,0.354 0.308,0.596c0,0.145 -0.04,0.276 -0.12,0.394c-0.08,0.117 -0.185,0.211 -0.315,0.281c0.154,0.111 0.275,0.25 0.36,0.417c0.086,0.167 0.13,0.345 0.13,0.534l0,0.047l-0.803,0l0,-0.497c0,-0.109 -0.036,-0.198 -0.109,-0.265c-0.072,-0.068 -0.164,-0.102 -0.275,-0.102l0,0.864l-0.73,0l0,-0.864l-0.116,0l0,-0.399l0.116,0l0,-1.22l0.9,0Z" style="fill:#231f20;fill-rule:nonzero;"/><path d="M20.196,18.036l0,-2.141l-0.61,0l0,-0.494l2.099,0l0,0.494l-0.607,0l0,2.141l-0.882,0Z" style="fill:#fff56c;fill-rule:nonzero;"/><path d="M21.761,15.325l-0.153,0l-1.945,0l-0.153,0l0,0.646l0.61,0l0,2.142l1.035,0l0,-0.153l0,-1.989l0.606,0l0,-0.152l0,-0.342l0,-0.152Zm-0.153,0.152l0,0.342l-0.606,0l0,2.141l-0.73,0l0,-2.141l-0.609,0l0,-0.342l1.945,0Z" style="fill:#231f20;fill-rule:nonzero;"/><path d="M22.294,18.036l0,-0.899c-0.071,-0.035 -0.138,-0.079 -0.198,-0.129c-0.073,-0.061 -0.136,-0.132 -0.187,-0.211c-0.051,-0.079 -0.091,-0.165 -0.118,-0.256c-0.028,-0.092 -0.042,-0.187 -0.042,-0.283l0,-0.857l0.879,0l0,1.242c0,0.03 0.01,0.054 0.031,0.075c0.02,0.02 0.044,0.03 0.074,0.03c0.031,0 0.055,-0.01 0.075,-0.03c0.021,-0.022 0.03,-0.045 0.03,-0.075l0,-1.242l0.879,0l0,0.857c0,0.094 -0.015,0.188 -0.043,0.28c-0.029,0.092 -0.069,0.178 -0.12,0.256c-0.051,0.08 -0.113,0.152 -0.184,0.214c-0.06,0.053 -0.126,0.096 -0.197,0.13l0,0.898l-0.879,0Z" style="fill:#fff56c;fill-rule:nonzero;"/><path d="M23.793,15.325l-0.152,0l-0.726,0l-0.153,0l0,1.318c0,0.011 -0.002,0.015 -0.008,0.02c-0.005,0.005 -0.008,0.008 -0.021,0.008c-0.012,0 -0.016,-0.002 -0.02,-0.007c-0.007,-0.007 -0.009,-0.011 -0.009,-0.021l0,-1.166l0,-0.152l-0.152,0l-0.726,0l-0.153,0l0,0.933c0,0.103 0.015,0.206 0.045,0.305c0.029,0.098 0.072,0.191 0.127,0.275c0.056,0.086 0.124,0.162 0.202,0.228c0.053,0.044 0.11,0.084 0.171,0.117l0,0.93l1.031,0l0,-0.153l0,-0.775c0.061,-0.033 0.118,-0.073 0.171,-0.119c0.077,-0.067 0.144,-0.145 0.199,-0.231c0.053,-0.084 0.096,-0.176 0.127,-0.274c0.032,-0.099 0.047,-0.201 0.047,-0.303l0,-0.781l0,-0.152Zm-0.152,0.152l0,0.781c0,0.087 -0.014,0.173 -0.04,0.257c-0.027,0.085 -0.064,0.164 -0.111,0.238c-0.047,0.074 -0.104,0.14 -0.171,0.198c-0.066,0.058 -0.14,0.104 -0.223,0.138l0,0.871l-0.726,0l0,-0.871c-0.082,-0.036 -0.157,-0.083 -0.225,-0.14c-0.067,-0.057 -0.125,-0.121 -0.172,-0.194c-0.047,-0.073 -0.084,-0.151 -0.109,-0.236c-0.025,-0.085 -0.038,-0.172 -0.038,-0.261l0,-0.781l0.726,0l0,1.166c0,0.05 0.017,0.093 0.053,0.128c0.034,0.035 0.077,0.053 0.128,0.053c0.051,0 0.094,-0.018 0.129,-0.053c0.035,-0.035 0.053,-0.078 0.053,-0.128l0,-1.166l0.726,0Z" style="fill:#231f20;fill-rule:nonzero;"/><path d="M6.803,21.58l0,-0.563l1.125,0c0.026,0 0.046,-0.008 0.066,-0.028c0.019,-0.02 0.028,-0.04 0.028,-0.066c0,-0.024 -0.006,-0.044 -0.02,-0.063l-0.988,-1.292c-0.094,-0.121 -0.143,-0.263 -0.143,-0.42c0,-0.097 0.02,-0.19 0.058,-0.277c0.037,-0.085 0.089,-0.162 0.153,-0.227c0.065,-0.064 0.141,-0.115 0.228,-0.152c0.087,-0.037 0.179,-0.055 0.273,-0.055l1.608,0l0,0.562l-1.125,0c-0.026,0 -0.047,0.01 -0.066,0.029c-0.019,0.019 -0.028,0.04 -0.028,0.066c0,0.024 0.006,0.044 0.02,0.062l0.987,1.293c0.095,0.127 0.143,0.268 0.143,0.42c0,0.094 -0.018,0.186 -0.055,0.273c-0.036,0.085 -0.087,0.162 -0.152,0.227c-0.064,0.065 -0.141,0.116 -0.227,0.154c-0.087,0.038 -0.18,0.057 -0.277,0.057l-1.608,0Z" style="fill:#fff56c;fill-rule:nonzero;"/><path d="M9.267,18.36l-0.152,0l-1.532,0c-0.105,0 -0.206,0.021 -0.303,0.062c-0.095,0.04 -0.18,0.097 -0.252,0.168c-0.071,0.072 -0.128,0.156 -0.169,0.251c-0.042,0.096 -0.064,0.2 -0.064,0.307c0,0.175 0.054,0.332 0.159,0.468l0.987,1.291c0.003,0.004 0.005,0.008 0.005,0.016c0,0.004 0,0.006 -0.006,0.012c-0.006,0.006 -0.008,0.006 -0.012,0.006l-1.049,0l-0.153,0l0,0.715l1.685,0c0.107,0 0.211,-0.021 0.307,-0.063c0.095,-0.041 0.18,-0.099 0.251,-0.17c0.072,-0.072 0.129,-0.157 0.169,-0.252c0.04,-0.096 0.061,-0.197 0.061,-0.302c0,-0.168 -0.053,-0.325 -0.158,-0.465l-0.988,-1.294c-0.003,-0.004 -0.005,-0.006 -0.005,-0.016c0,-0.004 0,-0.006 0.006,-0.013c0.006,-0.005 0.008,-0.005 0.012,-0.005l1.201,0l0,-0.153l0,-0.41l0,-0.153Zm-0.152,0.153l0,0.41l-1.049,0c-0.046,0 -0.086,0.017 -0.12,0.051c-0.034,0.034 -0.051,0.074 -0.051,0.12c0,0.041 0.012,0.077 0.037,0.109l0.987,1.292c0.084,0.114 0.127,0.238 0.127,0.374c0,0.085 -0.016,0.166 -0.049,0.243c-0.033,0.077 -0.078,0.145 -0.137,0.203c-0.057,0.058 -0.125,0.104 -0.203,0.138c-0.077,0.034 -0.159,0.051 -0.246,0.051l-1.532,0l0,-0.41l1.049,0c0.046,0 0.086,-0.017 0.12,-0.051c0.034,-0.034 0.051,-0.074 0.051,-0.12c0,-0.041 -0.013,-0.077 -0.037,-0.109l-0.987,-1.292c-0.085,-0.109 -0.127,-0.234 -0.127,-0.374c0,-0.087 0.017,-0.169 0.051,-0.247c0.033,-0.077 0.08,-0.145 0.137,-0.203c0.058,-0.058 0.127,-0.103 0.204,-0.136c0.077,-0.033 0.158,-0.049 0.243,-0.049l1.532,0Z" style="fill:#231f20;fill-rule:nonzero;"/><path d="M9.39,21.58l0,-0.863l-0.134,0l0,-0.553l0.134,0l0,-1.219l2,0l0,0.494l-1.121,0l0,0.725l0.33,0l0,0.553l-0.33,0l0,0.369l1.121,0l0,0.494l-2,0Z" style="fill:#fff56c;fill-rule:nonzero;"/><path d="M11.467,18.869l-0.153,0l-1.847,0l-0.153,0l0,1.219l-0.134,0l0,0.705l0.134,0l0,0.863l2.153,0l0,-0.152l0,-0.341l0,-0.153l-0.153,0l-0.969,0l0,-0.217l0.33,0l0,-0.153l0,-0.399l0,-0.153l-0.152,0l-0.178,0l0,-0.573l1.122,0l0,-0.153l0,-0.341l0,-0.152Zm-0.153,0.152l0,0.341l-1.121,0l0,0.879l0.33,0l0,0.399l-0.33,0l0,0.523l1.121,0l0,0.341l-1.847,0l0,-0.864l-0.134,0l0,-0.399l0.134,0l0,-1.22l1.847,0Z" style="fill:#231f20;fill-rule:nonzero;"/><path d="M12.454,20.188c0.055,-0.024 0.102,-0.06 0.143,-0.109c0.063,-0.074 0.093,-0.155 0.093,-0.248c0,-0.094 -0.03,-0.175 -0.093,-0.249c-0.041,-0.049 -0.088,-0.085 -0.143,-0.109l0,0.715Zm0.232,1.392l0,-0.573c0,-0.088 -0.027,-0.156 -0.084,-0.209c-0.042,-0.039 -0.09,-0.063 -0.148,-0.075l0,0.857l-0.882,0l0,-0.863l-0.116,0l0,-0.553l0.116,0l0,-1.219l0.976,0c0.261,0 0.496,0.077 0.699,0.229c0.226,0.17 0.34,0.39 0.34,0.657c0,0.16 -0.045,0.307 -0.133,0.436c-0.066,0.097 -0.148,0.179 -0.246,0.247c0.123,0.105 0.222,0.23 0.296,0.374c0.091,0.177 0.137,0.368 0.137,0.569l0,0.123l-0.955,0Z" style="fill:#fff56c;fill-rule:nonzero;"/><path d="M12.531,20.039l0,-0.417c0.002,0.003 0.005,0.006 0.008,0.009c0.05,0.06 0.075,0.125 0.075,0.2c0,0.074 -0.025,0.139 -0.075,0.198c-0.003,0.004 -0.006,0.007 -0.008,0.01Zm0.017,-1.17l-0.9,0l-0.152,0l0,1.219l-0.117,0l0,0.705l0.117,0l0,0.863l1.035,0l0,-0.152l0,-0.667c0.006,0.005 0.012,0.011 0.018,0.016c0.042,0.039 0.061,0.088 0.061,0.154l0,0.649l1.107,0l0,-0.152l0,-0.047c0,-0.213 -0.049,-0.416 -0.145,-0.604c-0.064,-0.124 -0.146,-0.236 -0.245,-0.334c0.073,-0.06 0.136,-0.13 0.19,-0.209c0.097,-0.142 0.146,-0.304 0.146,-0.479c0,-0.292 -0.124,-0.533 -0.37,-0.718c-0.217,-0.162 -0.468,-0.244 -0.745,-0.244Zm-0.17,1.423c0.111,-0.022 0.204,-0.077 0.277,-0.164c0.074,-0.087 0.111,-0.186 0.111,-0.297c0,-0.112 -0.037,-0.211 -0.111,-0.298c-0.073,-0.087 -0.166,-0.142 -0.277,-0.163l0,0.922Zm0.17,-1.271c0.245,0 0.463,0.072 0.654,0.214c0.206,0.155 0.308,0.354 0.308,0.596c0,0.145 -0.04,0.276 -0.119,0.394c-0.08,0.117 -0.186,0.211 -0.316,0.281c0.155,0.111 0.275,0.25 0.361,0.417c0.086,0.167 0.129,0.345 0.129,0.534l0,0.047l-0.802,0l0,-0.497c0,-0.109 -0.037,-0.198 -0.109,-0.265c-0.073,-0.068 -0.165,-0.102 -0.276,-0.102l0,0.864l-0.73,0l0,-0.864l-0.116,0l0,-0.399l0.116,0l0,-1.22l0.9,0Z" style="fill:#231f20;fill-rule:nonzero;"/><path d="M14.259,21.58l-0.752,-2.635l0.881,0l0.32,1.107l0.316,-1.107l0.885,0l-0.755,2.635l-0.895,0Z" style="fill:#fff56c;fill-rule:nonzero;"/><path d="M16.01,18.869l-0.202,0l-0.726,0l-0.115,0l-0.032,0.11l-0.227,0.797l-0.231,-0.797l-0.032,-0.11l-0.114,0l-0.722,0l-0.203,0l0.056,0.194l0.708,2.483l0.031,0.11l1.011,0l0.031,-0.11l0.712,-2.483l0.055,-0.194Zm-0.202,0.152l-0.711,2.483l-0.781,0l-0.707,-2.483l0.722,0l0.377,1.307l0.374,-1.307l0.726,0Z" style="fill:#231f20;fill-rule:nonzero;"/><rect x="15.949" y="18.945" width="0.875" height="2.635" style="fill:#fff56c;fill-rule:nonzero;"/><path d="M16.9,18.869l-0.152,0l-0.722,0l-0.153,0l0,2.787l1.027,0l0,-0.152l0,-2.483l0,-0.152Zm-0.152,0.152l0,2.483l-0.722,0l0,-2.483l0.722,0Z" style="fill:#231f20;fill-rule:nonzero;"/><path d="M17.873,21.58c-0.271,0 -0.506,-0.097 -0.696,-0.287c-0.191,-0.191 -0.287,-0.425 -0.287,-0.696l0,-0.668c0,-0.27 0.096,-0.503 0.287,-0.693c0.193,-0.193 0.427,-0.291 0.696,-0.291c0.261,0 0.492,0.094 0.685,0.279c0.19,0.183 0.291,0.409 0.299,0.673l0.002,0.079l-0.881,0l0,-0.432c0,-0.031 -0.009,-0.054 -0.03,-0.075c-0.02,-0.021 -0.044,-0.03 -0.075,-0.03c-0.03,0 -0.052,0.009 -0.072,0.029c-0.02,0.021 -0.029,0.045 -0.029,0.076l0,1.437c0,0.031 0.009,0.056 0.029,0.076c0.019,0.02 0.042,0.029 0.072,0.029c0.031,0 0.055,-0.009 0.075,-0.03c0.021,-0.02 0.03,-0.044 0.03,-0.075l0,-0.432l0.881,0l-0.002,0.079c-0.008,0.266 -0.109,0.494 -0.299,0.677c-0.191,0.183 -0.421,0.275 -0.685,0.275Z" style="fill:#fff56c;fill-rule:nonzero;"/><path d="M17.873,18.869c-0.29,0 -0.542,0.105 -0.75,0.313c-0.206,0.205 -0.31,0.456 -0.31,0.747l0,0.668c0,0.292 0.104,0.544 0.31,0.75c0.205,0.205 0.458,0.309 0.75,0.309c0.284,0 0.532,-0.099 0.737,-0.296c0.206,-0.197 0.315,-0.443 0.323,-0.73l0.005,-0.157l-0.157,0l-0.726,0l-0.153,0l0,0.508c0,0.012 -0.002,0.016 -0.008,0.022c-0.005,0.005 -0.009,0.007 -0.021,0.007c-0.012,0 -0.014,-0.002 -0.017,-0.006c-0.004,-0.004 -0.008,-0.008 -0.008,-0.023l0,-1.437c0,-0.015 0.004,-0.019 0.008,-0.023c0.003,-0.004 0.006,-0.006 0.017,-0.006c0.012,0 0.016,0.003 0.022,0.008c0.004,0.005 0.007,0.009 0.007,0.021l0,0.508l1.036,0l-0.005,-0.157c-0.008,-0.285 -0.117,-0.529 -0.323,-0.726c-0.207,-0.199 -0.455,-0.3 -0.737,-0.3Zm0,0.152c0.242,0 0.453,0.086 0.632,0.258c0.176,0.169 0.268,0.376 0.276,0.621l-0.726,0l0,-0.356c0,-0.051 -0.018,-0.094 -0.053,-0.129c-0.035,-0.035 -0.078,-0.053 -0.129,-0.053c-0.051,0 -0.093,0.018 -0.127,0.053c-0.034,0.035 -0.051,0.078 -0.051,0.129l0,1.437c0,0.051 0.017,0.094 0.051,0.129c0.034,0.035 0.076,0.053 0.127,0.053c0.051,0 0.094,-0.018 0.129,-0.053c0.035,-0.035 0.053,-0.078 0.053,-0.129l0,-0.355l0.726,0c-0.008,0.246 -0.1,0.455 -0.276,0.624c-0.177,0.169 -0.388,0.254 -0.632,0.254c-0.251,0 -0.466,-0.088 -0.642,-0.265c-0.177,-0.177 -0.265,-0.391 -0.265,-0.642l0,-0.668c0,-0.25 0.088,-0.463 0.265,-0.639c0.179,-0.179 0.393,-0.269 0.642,-0.269Z" style="fill:#231f20;fill-rule:nonzero;"/><path d="M19.057,21.58l0,-0.863l-0.135,0l0,-0.553l0.135,0l0,-1.219l2,0l0,0.494l-1.122,0l0,0.725l0.33,0l0,0.553l-0.33,0l0,0.369l1.122,0l0,0.494l-2,0Z" style="fill:#fff56c;fill-rule:nonzero;"/><path d="M21.133,18.869l-0.153,0l-1.847,0l-0.153,0l0,1.219l-0.134,0l0,0.705l0.134,0l0,0.863l2.153,0l0,-0.152l0,-0.341l0,-0.153l-0.153,0l-0.969,0l0,-0.217l0.331,0l0,-0.153l0,-0.399l0,-0.153l-0.153,0l-0.178,0l0,-0.573l1.122,0l0,-0.153l0,-0.341l0,-0.152Zm-0.153,0.152l0,0.341l-1.121,0l0,0.879l0.33,0l0,0.399l-0.33,0l0,0.523l1.121,0l0,0.341l-1.847,0l0,-0.864l-0.135,0l0,-0.399l0.135,0l0,-1.22l1.847,0Z" style="fill:#231f20;fill-rule:nonzero;"/><path d="M21.122,21.58l0,-0.494l0.947,0c0.018,0 0.033,-0.005 0.046,-0.019c0.013,-0.013 0.019,-0.028 0.019,-0.046c0,-0.018 -0.004,-0.032 -0.014,-0.046l-0.819,-1.069c-0.081,-0.105 -0.121,-0.226 -0.121,-0.358c0,-0.083 0.016,-0.162 0.048,-0.234c0.031,-0.072 0.075,-0.136 0.13,-0.191c0.055,-0.055 0.119,-0.098 0.19,-0.13c0.073,-0.032 0.152,-0.048 0.234,-0.048l1.347,0l0,0.494l-0.947,0c-0.019,0 -0.033,0.006 -0.046,0.019c-0.014,0.014 -0.02,0.027 -0.02,0.046c0,0.023 0.008,0.033 0.013,0.039l0.821,1.076c0.039,0.056 0.069,0.111 0.09,0.168c0.023,0.06 0.035,0.124 0.035,0.191c0,0.08 -0.017,0.158 -0.048,0.231c-0.032,0.073 -0.076,0.138 -0.131,0.193c-0.055,0.055 -0.12,0.099 -0.192,0.13c-0.073,0.032 -0.152,0.048 -0.236,0.048l-1.346,0Z" style="fill:#fff56c;fill-rule:nonzero;"/><path d="M23.205,18.869l-0.152,0l-1.271,0c-0.093,0 -0.182,0.018 -0.264,0.054c-0.08,0.036 -0.152,0.085 -0.214,0.146c-0.061,0.062 -0.111,0.134 -0.146,0.214c-0.036,0.082 -0.055,0.171 -0.055,0.265c0,0.149 0.046,0.285 0.137,0.404l0.811,1.058l-0.853,0l-0.153,0l0,0.646l1.423,0c0.094,0 0.184,-0.018 0.266,-0.054c0.082,-0.035 0.155,-0.085 0.216,-0.146c0.062,-0.062 0.111,-0.135 0.147,-0.217c0.036,-0.082 0.054,-0.171 0.054,-0.261c0,-0.076 -0.013,-0.149 -0.039,-0.217c-0.024,-0.064 -0.057,-0.125 -0.097,-0.183l-0.002,-0.003l-0.002,-0.002l-0.807,-1.058l1.001,0l0,-0.153l0,-0.341l0,-0.152Zm-0.152,0.152l0,0.341l-0.871,0c-0.039,0 -0.072,0.014 -0.1,0.042c-0.028,0.028 -0.042,0.061 -0.042,0.1c0,0.036 0.011,0.067 0.032,0.091l0.817,1.07c0.034,0.049 0.061,0.098 0.08,0.149c0.019,0.051 0.029,0.106 0.029,0.164c0,0.07 -0.014,0.137 -0.041,0.201c-0.028,0.064 -0.066,0.12 -0.115,0.169c-0.048,0.048 -0.104,0.086 -0.169,0.114c-0.064,0.028 -0.132,0.042 -0.205,0.042l-1.27,0l0,-0.341l0.871,0c0.039,0 0.072,-0.014 0.1,-0.042c0.028,-0.028 0.042,-0.061 0.042,-0.1c0,-0.034 -0.01,-0.064 -0.029,-0.091l-0.821,-1.07c-0.07,-0.092 -0.105,-0.196 -0.105,-0.312c0,-0.073 0.014,-0.141 0.042,-0.204c0.027,-0.063 0.065,-0.118 0.114,-0.167c0.048,-0.048 0.104,-0.086 0.167,-0.114c0.063,-0.028 0.131,-0.042 0.203,-0.042l1.271,0Z" style="fill:#231f20;fill-rule:nonzero;"/></g></g></g></svg>