<?xml version="1.0" encoding="UTF-8" standalone="no"?><!DOCTYPE svg PUBLIC "-//W3C//DTD SVG 1.1//EN" "http://www.w3.org/Graphics/SVG/1.1/DTD/svg11.dtd"><svg width="100%" height="100%" viewBox="0 0 30 30" version="1.1" xmlns="http://www.w3.org/2000/svg" xmlns:xlink="http://www.w3.org/1999/xlink" xml:space="preserve" xmlns:serif="http://www.serif.com/" style="fill-rule:evenodd;clip-rule:evenodd;stroke-miterlimit:1.41421;"><g><g><clipPath id="_clip1"><path d="M29.529,15.025c0,7.952 -6.447,14.399 -14.399,14.399c-7.953,0 -14.399,-6.447 -14.399,-14.399c0,-7.952 6.446,-14.398 14.399,-14.398c7.952,0 14.399,6.446 14.399,14.398Z"/></clipPath><g clip-path="url(#_clip1)"><path d="M26.008,15.031c0,6.009 -4.871,10.88 -10.879,10.88c-6.009,0 -10.879,-4.871 -10.879,-10.88c0,-6.008 4.87,-10.878 10.879,-10.878c6.008,0 10.879,4.87 10.879,10.878Z" style="fill:#fff;fill-rule:nonzero;"/><path d="M26.008,15.031c0,6.009 -4.871,10.88 -10.879,10.88c-6.009,0 -10.879,-4.871 -10.879,-10.88c0,-6.008 4.87,-10.878 10.879,-10.878c6.008,0 10.879,4.87 10.879,10.878Z" style="fill:none;stroke:#251a54;stroke-width:0.38px;"/><path d="M3.319,12.318c0,0 0.134,-0.652 0.967,-0.787c0.226,0.022 0.361,0.45 0.563,0.472c0.203,0.023 0.338,-0.517 0.72,-0.45c0.383,0.068 0.698,0.541 1.013,0.518c0.368,-0.026 0.855,-0.522 1.328,-0.428c0.451,0.09 0.451,0.09 0.991,0.136c0.54,0.044 2.296,-0.406 3.669,-0.271c1.373,0.135 2.048,0.451 2.431,0.405c0.383,-0.045 0.855,-0.495 1.261,-0.405c0.405,0.091 1.08,0.315 1.44,0.338c0.361,0.022 3.602,-0.63 4.57,-0.27c1.44,0.203 3.241,1.778 3.241,1.778l0,1.088l-21.947,0l-0.247,-2.124Z" style="fill:#9d99c6;fill-rule:nonzero;"/><path d="M11.174,12.904c0,0 2.049,-0.113 2.566,-0.338c0.518,-0.225 3.13,0.405 3.557,0.203c0.428,-0.203 0.405,-0.248 0.766,-0.315c0.359,-0.068 3.128,0.225 3.624,0.36c0.495,0.135 1.238,0.405 1.935,0.27c0.338,-0.067 1.059,-0.225 1.576,-0.225c0.518,0 1.463,0.608 1.463,0.608l0.255,0.975l-15.786,0l0.044,-1.538Z" style="fill:#64609c;fill-rule:nonzero;"/><path d="M3.453,13.241c0,0 0.856,-0.382 1.486,-0.224c1.823,0.224 2.161,0.044 2.949,-0.428c0.518,-0.203 1.35,0.518 1.891,0.382c0.54,-0.135 0.63,-0.202 1.013,-0.27c1.304,-0.142 4.864,1.507 7.765,0.979c2.901,-0.528 11.934,0.857 11.934,0.857l-2.109,7.649l-24.816,-7.369l-0.113,-1.576Z" style="fill:#413978;fill-rule:nonzero;"/><path d="M2.931,15.328c0,0 2.44,-1.319 5.011,-1.45c2.571,-0.132 3.429,2.374 5.407,2.505c1.978,0.132 3.296,-0.791 5.472,-0.725c4.154,0.857 10.154,3.956 10.154,3.956l-3.429,5.341l-7.582,4.879l-10.418,-3.363l-4.615,-11.143Z" style="fill:#251a54;fill-rule:nonzero;"/><path d="M26.008,14.933c0,6.008 -4.871,10.879 -10.879,10.879c-6.009,0 -10.879,-4.871 -10.879,-10.879c0,-6.009 4.87,-10.879 10.879,-10.879c6.008,0 10.879,4.87 10.879,10.879Z" style="fill:none;stroke:#251a54;stroke-width:0.08px;"/><path d="M15.177,0.614l-0.002,0l0,0l-0.007,0c-1.944,0 -3.832,0.382 -5.611,1.134c-1.717,0.726 -3.258,1.764 -4.581,3.086c-1.323,1.322 -2.362,2.863 -3.089,4.579c-0.754,1.779 -1.136,3.667 -1.137,5.611c-0.001,1.945 0.379,3.834 1.131,5.615c0.726,1.718 1.764,3.26 3.086,4.584c1.322,1.323 2.863,2.363 4.58,3.091c1.78,0.754 3.669,1.136 5.613,1.138l0.008,0c1.944,0 3.832,-0.382 5.612,-1.134c1.717,-0.726 3.258,-1.765 4.581,-3.087c1.323,-1.322 2.362,-2.862 3.089,-4.579c0.754,-1.779 1.136,-3.667 1.138,-5.611c0,-1.945 -0.38,-3.834 -1.132,-5.615c-0.726,-1.718 -1.764,-3.26 -3.086,-4.583c-1.322,-1.324 -2.863,-2.364 -4.58,-3.091c-1.78,-0.754 -3.669,-1.137 -5.613,-1.138Zm-0.009,3.882c0.002,0 0.004,0 0.007,0c5.819,0.003 10.533,4.723 10.53,10.542c-0.003,5.818 -4.72,10.531 -10.537,10.531c-0.002,0 -0.003,0 -0.005,0c-5.819,-0.003 -10.534,-4.723 -10.531,-10.543c0.003,-5.816 4.72,-10.53 10.536,-10.53Z" style="fill:#251a54;fill-rule:nonzero;"/><path d="M8.687,5.574l-1.426,-1.805l-0.528,0.417l0.701,0.887l-0.298,0.236l-0.701,-0.888l-0.528,0.417l0.701,0.888l-0.099,0.078l0.229,0.289l0.098,-0.078l0.497,0.629l0.528,-0.417l-0.497,-0.629l0.298,-0.235l0.497,0.629l0.528,-0.418Z" style="fill:#fff;fill-rule:nonzero;"/><path d="M8.687,5.574l-1.426,-1.805l-0.528,0.417l0.701,0.887l-0.298,0.236l-0.701,-0.888l-0.528,0.417l0.701,0.888l-0.099,0.078l0.229,0.289l0.098,-0.078l0.497,0.629l0.528,-0.417l-0.497,-0.629l0.298,-0.235l0.497,0.629l0.528,-0.418Z" style="fill:none;stroke:#231f20;stroke-width:0.11px;"/><path d="M9.271,5.249l-1.005,-1.624l-0.473,0.293l1.005,1.624l0.473,-0.293Z" style="fill:#fff;fill-rule:nonzero;"/><path d="M9.271,5.249l-1.005,-1.624l-0.473,0.293l1.005,1.624l0.473,-0.293Z" style="fill:none;stroke:#231f20;stroke-width:0.11px;"/><path d="M10.619,4.554l-0.419,-0.848l-0.501,0.247l0.241,0.488c0.018,0.035 0.02,0.071 0.009,0.105c-0.013,0.038 -0.037,0.065 -0.072,0.082c-0.035,0.017 -0.071,0.02 -0.106,0.006c-0.036,-0.01 -0.064,-0.034 -0.081,-0.069l-0.49,-0.991c-0.017,-0.035 -0.019,-0.072 -0.007,-0.109c0.012,-0.034 0.035,-0.061 0.07,-0.078c0.035,-0.018 0.072,-0.02 0.108,-0.01c0.035,0.014 0.062,0.038 0.079,0.073l0.122,0.245l0.5,-0.247c-0.043,-0.082 -0.103,-0.152 -0.171,-0.208c-0.071,-0.056 -0.148,-0.098 -0.233,-0.125c-0.085,-0.027 -0.171,-0.037 -0.26,-0.034c-0.091,0.005 -0.178,0.029 -0.261,0.07c-0.085,0.042 -0.156,0.099 -0.215,0.169c-0.062,0.071 -0.105,0.148 -0.134,0.234c-0.029,0.086 -0.042,0.174 -0.037,0.265c0.006,0.093 0.028,0.182 0.07,0.267l0.227,0.461c0.044,0.088 0.101,0.159 0.17,0.218c0.071,0.062 0.146,0.106 0.232,0.135c0.086,0.029 0.172,0.039 0.266,0.033c0.091,-0.004 0.18,-0.026 0.267,-0.07c0.126,-0.061 0.225,-0.157 0.301,-0.285l0.11,0.083l0.215,-0.107Z" style="fill:#fff;fill-rule:nonzero;"/><path d="M10.619,4.554l-0.419,-0.848l-0.501,0.247l0.241,0.488c0.018,0.035 0.02,0.071 0.009,0.105c-0.013,0.038 -0.037,0.065 -0.072,0.082c-0.035,0.017 -0.071,0.02 -0.106,0.006c-0.036,-0.01 -0.064,-0.034 -0.081,-0.069l-0.49,-0.991c-0.017,-0.035 -0.019,-0.072 -0.007,-0.109c0.012,-0.034 0.035,-0.061 0.07,-0.078c0.035,-0.018 0.072,-0.02 0.108,-0.01c0.035,0.014 0.062,0.038 0.079,0.073l0.122,0.245l0.5,-0.247c-0.043,-0.082 -0.103,-0.152 -0.171,-0.208c-0.071,-0.056 -0.148,-0.098 -0.233,-0.125c-0.085,-0.027 -0.171,-0.037 -0.26,-0.034c-0.091,0.005 -0.178,0.029 -0.261,0.07c-0.085,0.042 -0.156,0.099 -0.215,0.169c-0.062,0.071 -0.105,0.148 -0.134,0.234c-0.029,0.086 -0.042,0.174 -0.037,0.265c0.006,0.093 0.028,0.182 0.07,0.267l0.227,0.461c0.044,0.088 0.101,0.159 0.17,0.218c0.071,0.062 0.146,0.106 0.232,0.135c0.086,0.029 0.172,0.039 0.266,0.033c0.091,-0.004 0.18,-0.026 0.267,-0.07c0.126,-0.061 0.225,-0.157 0.301,-0.285l0.11,0.083l0.215,-0.107Z" style="fill:none;stroke:#231f20;stroke-width:0.11px;"/><path d="M12.166,4.023l-0.607,-1.81l-0.529,0.177l0.298,0.89l-0.299,0.1l-0.298,-0.89l-0.53,0.178l0.298,0.889l-0.098,0.033l0.098,0.291l0.098,-0.033l0.211,0.631l0.53,-0.178l-0.211,-0.63l0.299,-0.1l0.211,0.63l0.529,-0.178Z" style="fill:#fff;fill-rule:nonzero;"/><path d="M12.166,4.023l-0.607,-1.81l-0.529,0.177l0.298,0.89l-0.299,0.1l-0.298,-0.89l-0.53,0.178l0.298,0.889l-0.098,0.033l0.098,0.291l0.098,-0.033l0.211,0.631l0.53,-0.178l-0.211,-0.63l0.299,-0.1l0.211,0.63l0.529,-0.178Z" style="fill:none;stroke:#231f20;stroke-width:0.11px;"/><path d="M14.408,2.849l-0.668,0.083l0.041,0.327c0.005,0.047 -0.006,0.088 -0.036,0.123c-0.029,0.037 -0.066,0.058 -0.113,0.064c-0.047,0.006 -0.088,-0.006 -0.122,-0.035c-0.035,-0.027 -0.056,-0.064 -0.062,-0.111l-0.165,-1.324c-0.006,-0.047 0.006,-0.088 0.032,-0.125c0.027,-0.034 0.064,-0.056 0.111,-0.062c0.047,-0.006 0.088,0.006 0.125,0.033c0.037,0.029 0.059,0.065 0.065,0.112l0.04,0.327l0.668,-0.083c-0.016,-0.11 -0.055,-0.212 -0.114,-0.304c-0.059,-0.091 -0.13,-0.166 -0.214,-0.232c-0.084,-0.065 -0.18,-0.112 -0.285,-0.141c-0.105,-0.03 -0.213,-0.039 -0.324,-0.025c-0.114,0.014 -0.219,0.05 -0.313,0.107c-0.097,0.057 -0.178,0.129 -0.244,0.213c-0.065,0.084 -0.115,0.18 -0.147,0.288c-0.031,0.108 -0.04,0.216 -0.026,0.33l0.076,0.615c0.015,0.114 0.05,0.219 0.107,0.313c0.057,0.097 0.129,0.178 0.213,0.244c0.084,0.065 0.18,0.115 0.289,0.147c0.105,0.032 0.216,0.04 0.329,0.026c0.111,-0.014 0.214,-0.049 0.308,-0.103c0.095,-0.054 0.176,-0.123 0.242,-0.207c0.066,-0.081 0.116,-0.175 0.151,-0.278c0.035,-0.103 0.047,-0.211 0.036,-0.322Z" style="fill:#fff;fill-rule:nonzero;"/><path d="M14.408,2.849l-0.668,0.083l0.041,0.327c0.005,0.047 -0.006,0.088 -0.036,0.123c-0.029,0.037 -0.066,0.058 -0.113,0.064c-0.047,0.006 -0.088,-0.006 -0.122,-0.035c-0.035,-0.027 -0.056,-0.064 -0.062,-0.111l-0.165,-1.324c-0.006,-0.047 0.006,-0.088 0.032,-0.125c0.027,-0.034 0.064,-0.056 0.111,-0.062c0.047,-0.006 0.088,0.006 0.125,0.033c0.037,0.029 0.059,0.065 0.065,0.112l0.04,0.327l0.668,-0.083c-0.016,-0.11 -0.055,-0.212 -0.114,-0.304c-0.059,-0.091 -0.13,-0.166 -0.214,-0.232c-0.084,-0.065 -0.18,-0.112 -0.285,-0.141c-0.105,-0.03 -0.213,-0.039 -0.324,-0.025c-0.114,0.014 -0.219,0.05 -0.313,0.107c-0.097,0.057 -0.178,0.129 -0.244,0.213c-0.065,0.084 -0.115,0.18 -0.147,0.288c-0.031,0.108 -0.04,0.216 -0.026,0.33l0.076,0.615c0.015,0.114 0.05,0.219 0.107,0.313c0.057,0.097 0.129,0.178 0.213,0.244c0.084,0.065 0.18,0.115 0.289,0.147c0.105,0.032 0.216,0.04 0.329,0.026c0.111,-0.014 0.214,-0.049 0.308,-0.103c0.095,-0.054 0.176,-0.123 0.242,-0.207c0.066,-0.081 0.116,-0.175 0.151,-0.278c0.035,-0.103 0.047,-0.211 0.036,-0.322Z" style="fill:none;stroke:#231f20;stroke-width:0.11px;"/><path d="M16.025,2.474c0.002,-0.095 -0.016,-0.185 -0.051,-0.269c-0.035,-0.085 -0.084,-0.161 -0.147,-0.226c-0.063,-0.066 -0.137,-0.117 -0.22,-0.155c-0.084,-0.038 -0.173,-0.059 -0.267,-0.061c-0.095,-0.001 -0.185,0.016 -0.269,0.051c-0.088,0.035 -0.161,0.084 -0.227,0.147c-0.065,0.063 -0.117,0.135 -0.154,0.218c-0.038,0.086 -0.059,0.175 -0.061,0.269l-0.01,0.537c-0.002,0.097 0.016,0.187 0.051,0.271c0.035,0.088 0.081,0.161 0.144,0.226c0.063,0.066 0.135,0.115 0.221,0.152c0.083,0.038 0.172,0.059 0.269,0.061c0.095,0.002 0.185,-0.016 0.272,-0.051c0.085,-0.034 0.158,-0.083 0.223,-0.146c0.066,-0.064 0.117,-0.135 0.155,-0.221c0.038,-0.083 0.059,-0.172 0.061,-0.267l0.01,-0.536Zm-0.574,0.824c0,0.037 -0.015,0.07 -0.043,0.097c-0.029,0.028 -0.063,0.041 -0.099,0.041c-0.039,-0.001 -0.072,-0.016 -0.097,-0.044c-0.027,-0.029 -0.041,-0.062 -0.04,-0.099l0.021,-1.13c0,-0.039 0.015,-0.073 0.043,-0.1c0.026,-0.025 0.06,-0.038 0.099,-0.037c0.039,0 0.072,0.015 0.1,0.041c0.024,0.028 0.038,0.062 0.037,0.101l-0.021,1.13Z" style="fill:#fff;fill-rule:nonzero;"/><path d="M16.025,2.474c0.002,-0.095 -0.016,-0.185 -0.051,-0.269c-0.035,-0.085 -0.084,-0.161 -0.147,-0.226c-0.063,-0.066 -0.137,-0.117 -0.22,-0.155c-0.084,-0.038 -0.173,-0.059 -0.267,-0.061c-0.095,-0.001 -0.185,0.016 -0.269,0.051c-0.088,0.035 -0.161,0.084 -0.227,0.147c-0.065,0.063 -0.117,0.135 -0.154,0.218c-0.038,0.086 -0.059,0.175 -0.061,0.269l-0.01,0.537c-0.002,0.097 0.016,0.187 0.051,0.271c0.035,0.088 0.081,0.161 0.144,0.226c0.063,0.066 0.135,0.115 0.221,0.152c0.083,0.038 0.172,0.059 0.269,0.061c0.095,0.002 0.185,-0.016 0.272,-0.051c0.085,-0.034 0.158,-0.083 0.223,-0.146c0.066,-0.064 0.117,-0.135 0.155,-0.221c0.038,-0.083 0.059,-0.172 0.061,-0.267l0.01,-0.536Zm-0.574,0.824c0,0.037 -0.015,0.07 -0.043,0.097c-0.029,0.028 -0.063,0.041 -0.099,0.041c-0.039,-0.001 -0.072,-0.016 -0.097,-0.044c-0.027,-0.029 -0.041,-0.062 -0.04,-0.099l0.021,-1.13c0,-0.039 0.015,-0.073 0.043,-0.1c0.026,-0.025 0.06,-0.038 0.099,-0.037c0.039,0 0.072,0.015 0.1,0.041c0.024,0.028 0.038,0.062 0.037,0.101l-0.021,1.13Z" style="fill:none;stroke:#231f20;stroke-width:0.11px;"/><path d="M17.587,3.231l0.181,-1.221l-0.553,-0.082l-0.225,1.516c-0.005,0.039 -0.024,0.07 -0.053,0.091c-0.031,0.024 -0.067,0.033 -0.105,0.027c-0.039,-0.006 -0.07,-0.024 -0.091,-0.056c-0.021,-0.031 -0.029,-0.066 -0.024,-0.102l0.225,-1.517l-0.556,-0.082l-0.18,1.221c-0.015,0.097 -0.009,0.188 0.015,0.276c0.023,0.091 0.06,0.17 0.114,0.243c0.054,0.073 0.119,0.13 0.199,0.179c0.078,0.048 0.163,0.081 0.26,0.095c0.094,0.014 0.185,0.008 0.276,-0.016c0.088,-0.023 0.167,-0.062 0.24,-0.116c0.073,-0.055 0.133,-0.119 0.182,-0.199c0.048,-0.078 0.081,-0.163 0.095,-0.257Z" style="fill:#fff;fill-rule:nonzero;"/><path d="M17.587,3.231l0.181,-1.221l-0.553,-0.082l-0.225,1.516c-0.005,0.039 -0.024,0.07 -0.053,0.091c-0.031,0.024 -0.067,0.033 -0.105,0.027c-0.039,-0.006 -0.07,-0.024 -0.091,-0.056c-0.021,-0.031 -0.029,-0.066 -0.024,-0.102l0.225,-1.517l-0.556,-0.082l-0.18,1.221c-0.015,0.097 -0.009,0.188 0.015,0.276c0.023,0.091 0.06,0.17 0.114,0.243c0.054,0.073 0.119,0.13 0.199,0.179c0.078,0.048 0.163,0.081 0.26,0.095c0.094,0.014 0.185,0.008 0.276,-0.016c0.088,-0.023 0.167,-0.062 0.24,-0.116c0.073,-0.055 0.133,-0.119 0.182,-0.199c0.048,-0.078 0.081,-0.163 0.095,-0.257Z" style="fill:none;stroke:#231f20;stroke-width:0.11px;"/><path d="M18.935,4.299l0.375,-1.333c0.019,-0.067 0.024,-0.135 0.014,-0.205c-0.009,-0.069 -0.032,-0.133 -0.065,-0.192c-0.033,-0.058 -0.076,-0.111 -0.13,-0.155c-0.054,-0.045 -0.118,-0.077 -0.185,-0.096c-0.11,-0.031 -0.219,-0.027 -0.326,0.016l0.028,-0.1l-0.541,-0.152l-0.517,1.839l0.54,0.152l0.409,-1.452c0.01,-0.038 0.033,-0.066 0.065,-0.086c0.031,-0.017 0.067,-0.022 0.104,-0.011c0.038,0.01 0.066,0.033 0.086,0.065c0.017,0.033 0.021,0.069 0.011,0.107l-0.408,1.451l0.54,0.152Z" style="fill:#fff;fill-rule:nonzero;"/><path d="M18.935,4.299l0.375,-1.333c0.019,-0.067 0.024,-0.135 0.014,-0.205c-0.009,-0.069 -0.032,-0.133 -0.065,-0.192c-0.033,-0.058 -0.076,-0.111 -0.13,-0.155c-0.054,-0.045 -0.118,-0.077 -0.185,-0.096c-0.11,-0.031 -0.219,-0.027 -0.326,0.016l0.028,-0.1l-0.541,-0.152l-0.517,1.839l0.54,0.152l0.409,-1.452c0.01,-0.038 0.033,-0.066 0.065,-0.086c0.031,-0.017 0.067,-0.022 0.104,-0.011c0.038,0.01 0.066,0.033 0.086,0.065c0.017,0.033 0.021,0.069 0.011,0.107l-0.408,1.451l0.54,0.152Z" style="fill:none;stroke:#231f20;stroke-width:0.11px;"/><path d="M21.06,3.411l0.104,-0.241l-1.374,-0.593l-0.104,0.241l0.43,0.186l-0.652,1.512l0.515,0.223l0.653,-1.513l0.428,0.185Z" style="fill:#fff;fill-rule:nonzero;"/><path d="M21.06,3.411l0.104,-0.241l-1.374,-0.593l-0.104,0.241l0.43,0.186l-0.652,1.512l0.515,0.223l0.653,-1.513l0.428,0.185Z" style="fill:none;stroke:#231f20;stroke-width:0.11px;"/><path d="M21.83,5.782l0.019,-0.031c0.076,-0.124 0.118,-0.258 0.13,-0.401c0.01,-0.145 -0.013,-0.283 -0.07,-0.42c0.113,0.007 0.22,-0.012 0.321,-0.059c0.099,-0.044 0.177,-0.114 0.235,-0.209c0.098,-0.16 0.11,-0.329 0.037,-0.515c-0.07,-0.17 -0.184,-0.305 -0.343,-0.402l-0.591,-0.361l-0.489,0.8l-0.077,-0.047l-0.16,0.263l0.076,0.046l-0.346,0.567l0.479,0.293l0.346,-0.567c0.074,0.045 0.121,0.103 0.141,0.177c0.02,0.075 0.009,0.146 -0.035,0.218l-0.2,0.326l0.527,0.322Zm-0.044,-1.267c-0.085,0.027 -0.166,0.026 -0.249,-0.005l0.37,-0.605c0.065,0.059 0.103,0.132 0.118,0.219c0.013,0.087 -0.003,0.165 -0.048,0.239c-0.045,0.074 -0.108,0.124 -0.191,0.152Z" style="fill:#fff;fill-rule:nonzero;"/><path d="M21.83,5.782l0.019,-0.031c0.076,-0.124 0.118,-0.258 0.13,-0.401c0.01,-0.145 -0.013,-0.283 -0.07,-0.42c0.113,0.007 0.22,-0.012 0.321,-0.059c0.099,-0.044 0.177,-0.114 0.235,-0.209c0.098,-0.16 0.11,-0.329 0.037,-0.515c-0.07,-0.17 -0.184,-0.305 -0.343,-0.402l-0.591,-0.361l-0.489,0.8l-0.077,-0.047l-0.16,0.263l0.076,0.046l-0.346,0.567l0.479,0.293l0.346,-0.567c0.074,0.045 0.121,0.103 0.141,0.177c0.02,0.075 0.009,0.146 -0.035,0.218l-0.2,0.326l0.527,0.322Zm-0.044,-1.267c-0.085,0.027 -0.166,0.026 -0.249,-0.005l0.37,-0.605c0.065,0.059 0.103,0.132 0.118,0.219c0.013,0.087 -0.003,0.165 -0.048,0.239c-0.045,0.074 -0.108,0.124 -0.191,0.152Z" style="fill:none;stroke:#231f20;stroke-width:0.11px;"/><path d="M23.818,5.715l0.38,-0.465l-0.432,-0.353l-0.568,0.693c-0.025,0.031 -0.057,0.048 -0.092,0.051c-0.04,0.004 -0.074,-0.006 -0.105,-0.031c-0.03,-0.025 -0.047,-0.057 -0.049,-0.094c-0.005,-0.037 0.005,-0.072 0.03,-0.102l0.567,-0.694l-0.432,-0.354l-0.38,0.465c-0.044,0.054 -0.078,0.113 -0.104,0.175c-0.025,0.062 -0.042,0.127 -0.05,0.193c-0.007,0.067 -0.006,0.132 0.008,0.198c0.013,0.068 0.033,0.132 0.065,0.194l-0.424,0.519l0.432,0.353l0.424,-0.518c0.066,0.021 0.132,0.028 0.202,0.027c0.067,-0.003 0.133,-0.013 0.198,-0.036c0.064,-0.02 0.124,-0.05 0.18,-0.087c0.056,-0.037 0.107,-0.082 0.15,-0.134Z" style="fill:#fff;fill-rule:nonzero;"/><path d="M23.818,5.715l0.38,-0.465l-0.432,-0.353l-0.568,0.693c-0.025,0.031 -0.057,0.048 -0.092,0.051c-0.04,0.004 -0.074,-0.006 -0.105,-0.031c-0.03,-0.025 -0.047,-0.057 -0.049,-0.094c-0.005,-0.037 0.005,-0.072 0.03,-0.102l0.567,-0.694l-0.432,-0.354l-0.38,0.465c-0.044,0.054 -0.078,0.113 -0.104,0.175c-0.025,0.062 -0.042,0.127 -0.05,0.193c-0.007,0.067 -0.006,0.132 0.008,0.198c0.013,0.068 0.033,0.132 0.065,0.194l-0.424,0.519l0.432,0.353l0.424,-0.518c0.066,0.021 0.132,0.028 0.202,0.027c0.067,-0.003 0.133,-0.013 0.198,-0.036c0.064,-0.02 0.124,-0.05 0.18,-0.087c0.056,-0.037 0.107,-0.082 0.15,-0.134Z" style="fill:none;stroke:#231f20;stroke-width:0.11px;"/></g></g><path d="M7.581,17.864c0.029,-0.012 0.058,-0.026 0.086,-0.043c0.07,-0.041 0.131,-0.091 0.18,-0.151c0.05,-0.06 0.091,-0.129 0.12,-0.203c0.029,-0.072 0.043,-0.149 0.043,-0.229c0,-0.077 -0.014,-0.154 -0.043,-0.227c-0.029,-0.075 -0.07,-0.143 -0.122,-0.204c-0.051,-0.06 -0.113,-0.113 -0.183,-0.156c-0.026,-0.016 -0.053,-0.03 -0.081,-0.043l0,1.256Zm0.424,2.347l0,-0.966c0,-0.076 -0.013,-0.147 -0.039,-0.209c-0.027,-0.062 -0.063,-0.113 -0.111,-0.157c-0.049,-0.045 -0.107,-0.081 -0.173,-0.106c-0.033,-0.012 -0.066,-0.022 -0.101,-0.028l0,1.466l-1.48,0l0,-1.477l-0.201,0l0,-0.913l0.201,0l0,-2.084l1.651,0c0.228,0 0.451,0.037 0.662,0.112c0.21,0.074 0.399,0.179 0.56,0.31c0.162,0.133 0.294,0.293 0.392,0.476c0.099,0.186 0.15,0.389 0.15,0.603c0,0.252 -0.074,0.493 -0.22,0.715c-0.114,0.174 -0.261,0.323 -0.439,0.447c0.217,0.181 0.392,0.398 0.52,0.648c0.154,0.3 0.231,0.624 0.231,0.964l0,0.199l-1.603,0Z" style="fill:#fcfad4;fill-rule:nonzero;"/><path d="M7.698,17.655l0,-0.831c0.021,0.018 0.04,0.038 0.058,0.059c0.044,0.051 0.077,0.107 0.102,0.17c0.024,0.061 0.035,0.122 0.035,0.185c0,0.066 -0.011,0.127 -0.035,0.186c-0.025,0.063 -0.059,0.12 -0.101,0.171c-0.018,0.022 -0.038,0.042 -0.059,0.06Zm0.054,-2.036l-1.534,0l-0.234,0l0,2.085l-0.201,0l0,1.148l0.201,0l0,1.477l1.714,0l0,-0.235l0,-1.185c0.029,0.016 0.055,0.035 0.078,0.056c0.036,0.032 0.062,0.07 0.082,0.117c0.02,0.048 0.03,0.102 0.03,0.163l0,1.084l1.838,0l0,-0.235l0,-0.082c0,-0.359 -0.083,-0.701 -0.245,-1.018c-0.113,-0.22 -0.26,-0.417 -0.439,-0.587c0.138,-0.113 0.256,-0.243 0.352,-0.389c0.158,-0.242 0.239,-0.505 0.239,-0.78c0,-0.234 -0.055,-0.455 -0.164,-0.659c-0.105,-0.196 -0.247,-0.368 -0.421,-0.51c-0.171,-0.14 -0.372,-0.252 -0.595,-0.331c-0.224,-0.079 -0.46,-0.119 -0.701,-0.119Zm-0.288,2.401c0.092,-0.017 0.18,-0.049 0.262,-0.098c0.082,-0.047 0.153,-0.107 0.211,-0.177c0.059,-0.07 0.105,-0.148 0.139,-0.234c0.034,-0.086 0.052,-0.177 0.052,-0.273c0,-0.093 -0.018,-0.183 -0.052,-0.27c-0.034,-0.088 -0.081,-0.166 -0.141,-0.237c-0.06,-0.07 -0.131,-0.13 -0.212,-0.18c-0.08,-0.05 -0.167,-0.083 -0.259,-0.1l0,1.569Zm0.288,-2.166c0.216,0 0.423,0.035 0.623,0.105c0.198,0.071 0.373,0.167 0.524,0.291c0.151,0.124 0.272,0.27 0.363,0.44c0.091,0.17 0.136,0.353 0.136,0.548c0,0.23 -0.066,0.447 -0.2,0.651c-0.134,0.204 -0.316,0.371 -0.546,0.502c0.268,0.189 0.475,0.425 0.621,0.71c0.145,0.285 0.218,0.588 0.218,0.911l0,0.082l-1.369,0l0,-0.849c0,-0.093 -0.016,-0.177 -0.048,-0.255c-0.033,-0.077 -0.079,-0.143 -0.139,-0.198c-0.06,-0.055 -0.131,-0.098 -0.212,-0.129c-0.08,-0.03 -0.167,-0.046 -0.259,-0.046l0,1.477l-1.246,0l0,-1.477l-0.2,0l0,-0.679l0.2,0l0,-2.084l1.534,0Z" style="fill:#231f20;fill-rule:nonzero;"/><path d="M9.873,20.211l0,-1.224l-0.19,0l0,-0.801l0.19,0l0,-1.729l2.854,0l0,0.718l-1.59,0l0,1.011l0.468,0l0,0.801l-0.468,0l0,0.506l1.59,0l0,0.718l-2.854,0Z" style="fill:#fcfad4;fill-rule:nonzero;"/><path d="M12.844,16.34l-0.234,0l-2.62,0l-0.234,0l0,1.729l-0.19,0l0,1.035l0.19,0l0,1.225l3.088,0l0,-0.235l0,-0.484l0,-0.234l-0.234,0l-1.356,0l0,-0.272l0.468,0l0,-0.235l0,-0.566l0,-0.234l-0.234,0l-0.234,0l0,-0.777l1.59,0l0,-0.234l0,-0.484l0,-0.234Zm-0.234,0.234l0,0.484l-1.59,0l0,1.245l0.468,0l0,0.566l-0.468,0l0,0.741l1.59,0l0,0.484l-2.62,0l0,-1.225l-0.19,0l0,-0.566l0.19,0l0,-1.729l2.62,0Z" style="fill:#231f20;fill-rule:nonzero;"/><path d="M12.801,20.211l0,-0.718l1.352,0c0.024,0 0.042,-0.007 0.059,-0.025c0.018,-0.017 0.025,-0.035 0.025,-0.058c0,-0.024 -0.006,-0.042 -0.019,-0.06l-1.161,-1.516c-0.115,-0.15 -0.173,-0.323 -0.173,-0.513c0,-0.119 0.023,-0.232 0.069,-0.336c0.045,-0.102 0.108,-0.194 0.186,-0.272c0.079,-0.079 0.171,-0.142 0.273,-0.187c0.103,-0.046 0.216,-0.069 0.335,-0.069l1.918,0l0,0.718l-1.352,0c-0.024,0 -0.041,0.008 -0.059,0.025c-0.017,0.018 -0.024,0.035 -0.024,0.059c0,0.028 0.008,0.041 0.016,0.05l0.006,0.007l1.158,1.518c0.056,0.082 0.099,0.161 0.129,0.241c0.033,0.085 0.049,0.177 0.049,0.273c0,0.115 -0.023,0.227 -0.069,0.332c-0.045,0.104 -0.108,0.197 -0.186,0.276c-0.079,0.078 -0.172,0.141 -0.276,0.186c-0.105,0.046 -0.219,0.069 -0.337,0.069l-1.919,0Z" style="fill:#fcfad4;fill-rule:nonzero;"/><path d="M15.782,16.34l-0.234,0l-1.801,0c-0.135,0 -0.264,0.027 -0.383,0.079c-0.115,0.051 -0.219,0.122 -0.308,0.211c-0.089,0.089 -0.159,0.192 -0.21,0.308c-0.053,0.119 -0.08,0.247 -0.08,0.382c0,0.217 0.067,0.414 0.198,0.585l1.127,1.471l-1.173,0l-0.234,0l0,0.953l2.036,0c0.135,0 0.264,-0.027 0.384,-0.079c0.117,-0.051 0.222,-0.122 0.311,-0.211c0.09,-0.09 0.161,-0.195 0.212,-0.312c0.052,-0.12 0.078,-0.248 0.078,-0.379c0,-0.11 -0.019,-0.216 -0.056,-0.314c-0.034,-0.09 -0.081,-0.178 -0.14,-0.262l-0.003,-0.005l-0.003,-0.004l-1.122,-1.471l1.401,0l0,-0.234l0,-0.484l0,-0.234Zm-0.234,0.234l0,0.484l-1.235,0c-0.055,0 -0.102,0.02 -0.141,0.059c-0.04,0.04 -0.06,0.087 -0.06,0.142c0,0.051 0.016,0.094 0.047,0.128l1.158,1.518c0.048,0.069 0.085,0.139 0.113,0.211c0.027,0.073 0.041,0.15 0.041,0.232c0,0.1 -0.02,0.195 -0.059,0.286c-0.04,0.091 -0.094,0.17 -0.162,0.239c-0.069,0.069 -0.149,0.123 -0.24,0.162c-0.091,0.039 -0.187,0.059 -0.29,0.059l-1.802,0l0,-0.484l1.235,0c0.056,0 0.103,-0.019 0.142,-0.059c0.039,-0.039 0.059,-0.086 0.059,-0.141c0,-0.048 -0.013,-0.091 -0.041,-0.129l-1.163,-1.518c-0.099,-0.13 -0.149,-0.278 -0.149,-0.443c0,-0.102 0.02,-0.198 0.059,-0.288c0.039,-0.089 0.093,-0.168 0.162,-0.237c0.069,-0.068 0.147,-0.122 0.237,-0.162c0.089,-0.039 0.185,-0.059 0.288,-0.059l1.801,0Z" style="fill:#231f20;fill-rule:nonzero;"/><path d="M17.143,17.175c-0.041,0 -0.072,0.013 -0.099,0.04c-0.028,0.028 -0.041,0.059 -0.041,0.1l0,2.084c0,0.039 0.013,0.069 0.042,0.099c0.028,0.029 0.058,0.042 0.098,0.042c0.038,0 0.068,-0.014 0.098,-0.043c0.029,-0.03 0.042,-0.06 0.042,-0.098l0,-2.084c0,-0.041 -0.012,-0.072 -0.04,-0.1c-0.028,-0.027 -0.059,-0.04 -0.1,-0.04Zm0,3.077c-0.193,0 -0.378,-0.037 -0.548,-0.109c-0.169,-0.073 -0.319,-0.174 -0.445,-0.3c-0.127,-0.127 -0.228,-0.277 -0.3,-0.446c-0.073,-0.17 -0.11,-0.355 -0.11,-0.548l0,-0.988c0,-0.191 0.038,-0.374 0.112,-0.544c0.075,-0.169 0.176,-0.318 0.303,-0.445c0.126,-0.126 0.275,-0.228 0.445,-0.302c0.17,-0.075 0.353,-0.113 0.543,-0.113c0.191,0 0.373,0.038 0.542,0.113c0.167,0.074 0.316,0.177 0.444,0.305c0.128,0.128 0.231,0.277 0.305,0.444c0.075,0.169 0.113,0.351 0.113,0.542l0,0.988c0,0.19 -0.038,0.373 -0.113,0.544c-0.074,0.169 -0.176,0.319 -0.302,0.444c-0.127,0.127 -0.276,0.229 -0.445,0.303c-0.17,0.075 -0.353,0.112 -0.544,0.112Z" style="fill:#fcfad4;fill-rule:nonzero;"/><path d="M17.135,19.422c0,0 -0.002,-0.001 -0.005,-0.005c-0.009,-0.009 -0.009,-0.012 -0.009,-0.018l0,-2.084c0,-0.011 0.001,-0.012 0.006,-0.017c0.004,-0.005 0.005,-0.006 0.016,-0.006c0.011,0 0.012,0.001 0.018,0.006c0.004,0.005 0.005,0.006 0.005,0.017l0,2.084c0,0.004 0,0.006 -0.008,0.015c-0.007,0.007 -0.011,0.008 -0.011,0.008c0,0 -0.001,0 -0.004,0c-0.006,0 -0.008,0 -0.008,0Zm0.008,-3.082c-0.206,0 -0.405,0.041 -0.591,0.123c-0.182,0.08 -0.344,0.19 -0.48,0.327c-0.137,0.136 -0.247,0.298 -0.327,0.48c-0.081,0.185 -0.122,0.384 -0.122,0.591l0,0.988c0,0.209 0.04,0.409 0.119,0.594c0.078,0.183 0.188,0.345 0.325,0.482c0.137,0.138 0.299,0.247 0.482,0.325c0.185,0.08 0.385,0.12 0.594,0.12c0.207,0 0.406,-0.042 0.591,-0.123c0.182,-0.08 0.344,-0.19 0.481,-0.327c0.136,-0.136 0.246,-0.298 0.326,-0.48c0.082,-0.186 0.123,-0.384 0.123,-0.591l0,-0.988c0,-0.207 -0.041,-0.406 -0.123,-0.589c-0.08,-0.18 -0.191,-0.342 -0.329,-0.48c-0.138,-0.138 -0.299,-0.249 -0.479,-0.329c-0.184,-0.082 -0.382,-0.123 -0.59,-0.123Zm0,3.317c0.069,0 0.129,-0.026 0.181,-0.077c0.051,-0.052 0.077,-0.112 0.077,-0.181l0,-2.084c0,-0.072 -0.025,-0.133 -0.075,-0.182c-0.05,-0.05 -0.111,-0.075 -0.183,-0.075c-0.072,0 -0.133,0.025 -0.182,0.075c-0.05,0.049 -0.075,0.11 -0.075,0.182l0,2.084c0,0.069 0.025,0.129 0.075,0.181c0.049,0.051 0.11,0.077 0.182,0.077Zm0,-3.083c0.175,0 0.34,0.035 0.495,0.103c0.154,0.069 0.29,0.162 0.409,0.281c0.118,0.118 0.211,0.254 0.28,0.409c0.069,0.154 0.103,0.319 0.103,0.494l0,0.988c0,0.175 -0.034,0.34 -0.103,0.496c-0.069,0.157 -0.161,0.293 -0.278,0.41c-0.117,0.116 -0.253,0.209 -0.409,0.277c-0.156,0.069 -0.322,0.103 -0.497,0.103c-0.178,0 -0.345,-0.033 -0.501,-0.1c-0.156,-0.067 -0.293,-0.159 -0.41,-0.275c-0.116,-0.117 -0.208,-0.253 -0.275,-0.409c-0.067,-0.157 -0.1,-0.324 -0.1,-0.502l0,-0.988c0,-0.175 0.034,-0.341 0.103,-0.497c0.068,-0.156 0.161,-0.292 0.278,-0.409c0.116,-0.117 0.253,-0.209 0.409,-0.278c0.156,-0.068 0.321,-0.103 0.496,-0.103Z" style="fill:#231f20;fill-rule:nonzero;"/><path d="M20.055,18.215c0.071,-0.034 0.133,-0.083 0.187,-0.147c0.087,-0.103 0.129,-0.216 0.129,-0.346c0,-0.131 -0.042,-0.244 -0.129,-0.346c-0.055,-0.065 -0.116,-0.113 -0.187,-0.147l0,0.986Zm0.311,1.996l0,-0.822c0,-0.121 -0.038,-0.216 -0.117,-0.29c-0.055,-0.051 -0.119,-0.084 -0.194,-0.101l0,1.213l-1.269,0l0,-1.224l-0.165,0l0,-0.801l0.165,0l0,-1.729l1.394,0c0.37,0 0.705,0.11 0.996,0.327c0.322,0.242 0.484,0.558 0.484,0.938c0,0.229 -0.064,0.439 -0.19,0.624c-0.091,0.135 -0.206,0.25 -0.341,0.345c0.171,0.148 0.309,0.325 0.413,0.526c0.13,0.253 0.196,0.525 0.196,0.81l0,0.184l-1.372,0Z" style="fill:#fcfad4;fill-rule:nonzero;"/><path d="M20.172,17.968l0,-0.492c0.056,0.074 0.082,0.153 0.082,0.246c0,0.092 -0.026,0.172 -0.082,0.246Zm0.008,-1.628l-1.277,0l-0.234,0l0,1.729l-0.165,0l0,1.035l0.165,0l0,1.225l1.503,0l0,-0.235l0,-0.906c0.053,0.051 0.077,0.113 0.077,0.201l0,0.94l1.606,0l0,-0.235l0,-0.067c0,-0.303 -0.07,-0.594 -0.209,-0.863c-0.088,-0.173 -0.201,-0.328 -0.336,-0.465c0.098,-0.084 0.184,-0.18 0.257,-0.287c0.14,-0.205 0.211,-0.437 0.211,-0.69c0,-0.419 -0.179,-0.766 -0.531,-1.031c-0.312,-0.233 -0.671,-0.351 -1.067,-0.351Zm-0.242,2.035c0.158,-0.03 0.289,-0.108 0.394,-0.231c0.104,-0.124 0.156,-0.264 0.156,-0.422c0,-0.158 -0.052,-0.299 -0.156,-0.422c-0.105,-0.124 -0.236,-0.201 -0.394,-0.232l0,1.307Zm0.242,-1.801c0.346,0 0.655,0.101 0.926,0.304c0.292,0.219 0.437,0.501 0.437,0.844c0,0.206 -0.056,0.392 -0.169,0.558c-0.114,0.167 -0.263,0.3 -0.448,0.399c0.219,0.158 0.39,0.355 0.512,0.592c0.122,0.236 0.183,0.489 0.183,0.756l0,0.067l-1.138,0l0,-0.705c0,-0.154 -0.051,-0.279 -0.154,-0.375c-0.103,-0.096 -0.233,-0.145 -0.391,-0.145l0,1.225l-1.035,0l0,-1.225l-0.164,0l0,-0.566l0.164,0l0,-1.729l1.277,0Z" style="fill:#231f20;fill-rule:nonzero;"/><path d="M22.45,20.211l0,-3.036l-0.864,0l0,-0.718l2.992,0l0,0.718l-0.859,0l0,3.036l-1.269,0Z" style="fill:#fcfad4;fill-rule:nonzero;"/><path d="M24.695,16.34l-0.234,0l-2.758,0l-0.235,0l0,0.952l0.865,0l0,3.037l1.503,0l0,-0.235l0,-2.802l0.859,0l0,-0.234l0,-0.484l0,-0.234Zm-0.234,0.234l0,0.484l-0.859,0l0,3.036l-1.035,0l0,-3.036l-0.864,0l0,-0.484l2.758,0Z" style="fill:#231f20;fill-rule:nonzero;"/><path d="M6.058,22.173c0.029,-0.013 0.058,-0.027 0.086,-0.043c0.07,-0.041 0.13,-0.092 0.18,-0.151c0.05,-0.061 0.09,-0.129 0.12,-0.203c0.029,-0.072 0.043,-0.149 0.043,-0.229c0,-0.078 -0.014,-0.154 -0.043,-0.228c-0.029,-0.074 -0.07,-0.143 -0.122,-0.203c-0.052,-0.061 -0.113,-0.114 -0.183,-0.157c-0.026,-0.016 -0.054,-0.03 -0.081,-0.042l0,1.256Zm0.424,2.347l0,-0.966c0,-0.077 -0.013,-0.147 -0.04,-0.21c-0.026,-0.062 -0.062,-0.113 -0.11,-0.157c-0.049,-0.045 -0.107,-0.08 -0.174,-0.106c-0.032,-0.012 -0.065,-0.021 -0.1,-0.028l0,1.467l-1.48,0l0,-1.477l-0.201,0l0,-0.914l0.201,0l0,-2.084l1.651,0c0.228,0 0.45,0.038 0.661,0.112c0.211,0.075 0.4,0.179 0.56,0.311c0.163,0.132 0.294,0.292 0.392,0.475c0.1,0.186 0.15,0.389 0.15,0.604c0,0.252 -0.074,0.492 -0.219,0.715c-0.114,0.173 -0.261,0.323 -0.439,0.447c0.217,0.18 0.392,0.397 0.52,0.647c0.153,0.3 0.231,0.624 0.231,0.964l0,0.2l-1.603,0Z" style="fill:#fcfad4;fill-rule:nonzero;"/><path d="M6.175,21.964l0,-0.832c0.021,0.019 0.04,0.039 0.058,0.06c0.044,0.051 0.077,0.107 0.102,0.17c0.023,0.061 0.035,0.121 0.035,0.184c0,0.067 -0.011,0.128 -0.035,0.186c-0.025,0.063 -0.059,0.12 -0.101,0.171c-0.018,0.022 -0.038,0.042 -0.059,0.061Zm0.054,-2.036l-1.534,0l-0.234,0l0,2.084l-0.201,0l0,1.148l0.201,0l0,1.477l1.714,0l0,-0.234l0,-1.185c0.029,0.015 0.055,0.034 0.078,0.055c0.035,0.033 0.062,0.071 0.082,0.117c0.02,0.048 0.03,0.102 0.03,0.163l0,1.084l1.837,0l0,-0.234l0,-0.083c0,-0.358 -0.082,-0.701 -0.244,-1.017c-0.113,-0.221 -0.26,-0.418 -0.439,-0.587c0.138,-0.114 0.256,-0.244 0.352,-0.39c0.158,-0.242 0.239,-0.504 0.239,-0.78c0,-0.233 -0.056,-0.455 -0.164,-0.658c-0.106,-0.197 -0.247,-0.368 -0.421,-0.511c-0.172,-0.14 -0.372,-0.251 -0.595,-0.33c-0.224,-0.079 -0.46,-0.119 -0.701,-0.119Zm-0.288,2.401c0.092,-0.017 0.18,-0.05 0.262,-0.098c0.082,-0.048 0.153,-0.107 0.211,-0.178c0.058,-0.07 0.105,-0.148 0.139,-0.234c0.034,-0.086 0.051,-0.177 0.051,-0.273c0,-0.092 -0.017,-0.182 -0.051,-0.27c-0.034,-0.087 -0.082,-0.166 -0.142,-0.236c-0.06,-0.071 -0.13,-0.131 -0.211,-0.181c-0.08,-0.049 -0.167,-0.083 -0.259,-0.1l0,1.57Zm0.288,-2.167c0.216,0 0.423,0.035 0.622,0.106c0.199,0.07 0.374,0.167 0.525,0.29c0.151,0.124 0.272,0.271 0.363,0.44c0.091,0.17 0.136,0.353 0.136,0.548c0,0.23 -0.067,0.447 -0.2,0.651c-0.134,0.205 -0.316,0.372 -0.546,0.502c0.268,0.189 0.475,0.426 0.62,0.71c0.146,0.285 0.219,0.589 0.219,0.911l0,0.083l-1.369,0l0,-0.85c0,-0.092 -0.016,-0.177 -0.049,-0.254c-0.032,-0.077 -0.079,-0.144 -0.139,-0.198c-0.06,-0.055 -0.13,-0.098 -0.211,-0.129c-0.08,-0.031 -0.167,-0.046 -0.259,-0.046l0,1.477l-1.246,0l0,-1.477l-0.201,0l0,-0.68l0.201,0l0,-2.084l1.534,0Z" style="fill:#231f20;fill-rule:nonzero;"/><path d="M8.35,24.52l0,-1.225l-0.19,0l0,-0.8l0.19,0l0,-1.73l2.854,0l0,0.718l-1.59,0l0,1.012l0.468,0l0,0.8l-0.468,0l0,0.507l1.59,0l0,0.718l-2.854,0Z" style="fill:#fcfad4;fill-rule:nonzero;"/><path d="M11.321,20.648l-0.235,0l-2.619,0l-0.234,0l0,1.729l-0.191,0l0,1.035l0.191,0l0,1.225l3.088,0l0,-0.234l0,-0.484l0,-0.235l-0.235,0l-1.355,0l0,-0.272l0.468,0l0,-0.234l0,-0.566l0,-0.235l-0.234,0l-0.234,0l0,-0.776l1.59,0l0,-0.235l0,-0.483l0,-0.235Zm-0.235,0.235l0,0.483l-1.59,0l0,1.246l0.469,0l0,0.566l-0.469,0l0,0.741l1.59,0l0,0.484l-2.619,0l0,-1.225l-0.19,0l0,-0.566l0.19,0l0,-1.729l2.619,0Z" style="fill:#231f20;fill-rule:nonzero;"/><path d="M12.822,24.52l0,-2.896c0,-0.042 -0.013,-0.072 -0.04,-0.1c-0.028,-0.028 -0.059,-0.041 -0.1,-0.041c-0.041,0 -0.07,0.013 -0.096,0.039c-0.027,0.028 -0.039,0.06 -0.039,0.102l0,2.896l-1.269,0l0,-3.755l1.269,0l0,0.1c0.14,-0.066 0.292,-0.1 0.454,-0.1c0.146,0 0.287,0.03 0.42,0.087c0.13,0.057 0.247,0.136 0.347,0.236c0.099,0.099 0.178,0.215 0.235,0.344c0.058,0.131 0.088,0.272 0.088,0.418l0,2.67l-1.269,0Z" style="fill:#fcfad4;fill-rule:nonzero;"/><path d="M13.001,20.648c-0.117,0 -0.23,0.016 -0.337,0.048l0,-0.048l-0.234,0l-1.035,0l-0.234,0l0,3.989l1.503,0l0,-0.234l0,-2.779c0,-0.014 0.002,-0.016 0.006,-0.02c0.002,-0.002 0.003,-0.002 0.003,-0.003l0,0c0,0 0.003,0 0.009,0c0.011,0 0.012,0.001 0.017,0.006c0.005,0.005 0.006,0.006 0.006,0.017l0,3.013l1.503,0l0,-0.234l0,-2.553c0,-0.162 -0.033,-0.319 -0.097,-0.465c-0.063,-0.143 -0.151,-0.27 -0.26,-0.38c-0.11,-0.11 -0.239,-0.197 -0.384,-0.26c-0.147,-0.064 -0.304,-0.097 -0.466,-0.097Zm0,0.235c0.13,0 0.255,0.025 0.373,0.077c0.118,0.051 0.222,0.122 0.311,0.211c0.089,0.089 0.16,0.192 0.211,0.309c0.052,0.116 0.078,0.24 0.078,0.37l0,2.553l-1.035,0l0,-2.779c0,-0.072 -0.025,-0.133 -0.075,-0.183c-0.049,-0.05 -0.11,-0.075 -0.182,-0.075c-0.072,0 -0.132,0.025 -0.18,0.075c-0.048,0.05 -0.072,0.111 -0.072,0.183l0,2.779l-1.035,0l0,-3.52l1.035,0l0,0.19c0.168,-0.127 0.358,-0.19 0.571,-0.19Z" style="fill:#231f20;fill-rule:nonzero;"/><path d="M15.029,24.52l0,-3.037l-0.864,0l0,-0.718l2.993,0l0,0.718l-0.86,0l0,3.037l-1.269,0Z" style="fill:#fcfad4;fill-rule:nonzero;"/><path d="M17.275,20.648l-0.235,0l-2.758,0l-0.234,0l0,0.953l0.864,0l0,3.036l1.503,0l0,-0.234l0,-2.802l0.86,0l0,-0.235l0,-0.483l0,-0.235Zm-0.235,0.235l0,0.483l-0.859,0l0,3.037l-1.034,0l0,-3.037l-0.865,0l0,-0.483l2.758,0Z" style="fill:#231f20;fill-rule:nonzero;"/><path d="M18.966,22.495l0,-0.871c0,-0.041 -0.012,-0.072 -0.04,-0.1c-0.028,-0.028 -0.057,-0.041 -0.095,-0.041c-0.041,0 -0.072,0.013 -0.099,0.041c-0.028,0.028 -0.041,0.058 -0.041,0.1l0,0.871l0.275,0Zm0,2.025l0,-1.225l-0.275,0l0,1.225l-1.269,0l0,-1.225l-0.19,0l0,-0.8l0.19,0l0,-0.326c0,-0.38 0.14,-0.713 0.416,-0.988c0.275,-0.276 0.61,-0.416 0.993,-0.416c0.381,0 0.713,0.14 0.989,0.416c0.275,0.275 0.415,0.608 0.415,0.988l0,2.351l-1.269,0Z" style="fill:#fcfad4;fill-rule:nonzero;"/><path d="M18.808,22.377l0,-0.753c0,-0.011 0.002,-0.012 0.006,-0.017c0.005,-0.005 0.006,-0.006 0.017,-0.006c0.004,0 0.006,0 0.006,0c0,0 0.002,0.001 0.007,0.006c0.004,0.004 0.005,0.006 0.005,0.017l0,0.753l-0.041,0Zm0.023,-1.729c-0.416,0 -0.778,0.152 -1.076,0.45c-0.298,0.298 -0.45,0.658 -0.45,1.071l0,0.208l-0.19,0l0,1.035l0.19,0l0,1.225l1.503,0l0,-0.234l0,-0.991l0.041,0l0,1.225l1.503,0l0,-0.234l0,-2.234c0,-0.413 -0.151,-0.773 -0.449,-1.071c-0.299,-0.298 -0.659,-0.45 -1.072,-0.45Zm-0.257,1.964l0.51,0l0,-0.988c0,-0.072 -0.025,-0.133 -0.075,-0.183c-0.05,-0.05 -0.109,-0.075 -0.178,-0.075c-0.072,0 -0.133,0.025 -0.182,0.075c-0.05,0.05 -0.075,0.111 -0.075,0.183l0,0.988Zm0.257,-1.729c0.35,0 0.652,0.127 0.906,0.38c0.254,0.254 0.381,0.556 0.381,0.906l0,2.234l-1.034,0l0,-1.225l-0.51,0l0,1.225l-1.034,0l0,-1.225l-0.191,0l0,-0.566l0.191,0l0,-0.443c0,-0.35 0.126,-0.652 0.381,-0.906c0.253,-0.253 0.557,-0.38 0.91,-0.38Z" style="fill:#231f20;fill-rule:nonzero;"/><path d="M20.309,24.52l0,-3.755l1.264,0l0,3.037l1.59,0l0,0.718l-2.854,0Z" style="fill:#fcfad4;fill-rule:nonzero;"/><path d="M21.69,20.648l-0.234,0l-1.03,0l-0.234,0l0,3.989l3.088,0l0,-0.234l0,-0.484l0,-0.235l-0.234,0l-1.356,0l0,-2.801l0,-0.235Zm-0.234,0.235l0,3.036l1.59,0l0,0.484l-2.62,0l0,-3.52l1.03,0Z" style="fill:#231f20;fill-rule:nonzero;"/><path d="M23.237,24.52l0,-0.718l1.353,0c0.024,0 0.041,-0.007 0.058,-0.025c0.018,-0.018 0.025,-0.035 0.025,-0.059c0,-0.023 -0.006,-0.042 -0.019,-0.06l-1.161,-1.515c-0.115,-0.151 -0.173,-0.324 -0.173,-0.514c0,-0.119 0.023,-0.232 0.069,-0.336c0.045,-0.102 0.108,-0.193 0.186,-0.272c0.079,-0.079 0.171,-0.141 0.273,-0.186c0.103,-0.046 0.216,-0.07 0.335,-0.07l1.918,0l0,0.718l-1.352,0c-0.023,0 -0.041,0.008 -0.058,0.025c-0.018,0.018 -0.025,0.035 -0.025,0.059c0,0.029 0.008,0.042 0.016,0.05l0.006,0.008l1.158,1.518c0.056,0.081 0.099,0.16 0.129,0.24c0.033,0.086 0.049,0.178 0.049,0.273c0,0.115 -0.023,0.227 -0.068,0.333c-0.046,0.104 -0.108,0.196 -0.187,0.275c-0.079,0.079 -0.172,0.142 -0.276,0.187c-0.105,0.046 -0.218,0.069 -0.337,0.069l-1.919,0Z" style="fill:#fcfad4;fill-rule:nonzero;"/><path d="M26.219,20.648l-0.235,0l-1.801,0c-0.135,0 -0.264,0.027 -0.383,0.08c-0.115,0.05 -0.218,0.121 -0.307,0.21c-0.089,0.089 -0.16,0.193 -0.211,0.308c-0.053,0.119 -0.079,0.248 -0.079,0.383c0,0.216 0.066,0.413 0.197,0.585l1.127,1.47l-1.172,0l-0.235,0l0,0.953l2.036,0c0.135,0 0.264,-0.027 0.384,-0.079c0.117,-0.051 0.222,-0.122 0.312,-0.211c0.089,-0.089 0.16,-0.194 0.211,-0.312c0.052,-0.12 0.078,-0.248 0.078,-0.379c0,-0.11 -0.018,-0.215 -0.056,-0.314c-0.034,-0.09 -0.081,-0.177 -0.14,-0.262l-0.003,-0.004l-0.003,-0.004l-1.122,-1.471l1.402,0l0,-0.235l0,-0.483l0,-0.235Zm-0.235,0.235l0,0.483l-1.235,0c-0.055,0 -0.102,0.02 -0.141,0.06c-0.04,0.039 -0.059,0.086 -0.059,0.141c0,0.051 0.015,0.094 0.046,0.129l1.158,1.518c0.048,0.069 0.085,0.139 0.113,0.211c0.027,0.072 0.041,0.149 0.041,0.231c0,0.1 -0.02,0.195 -0.059,0.286c-0.04,0.091 -0.093,0.171 -0.162,0.239c-0.069,0.069 -0.149,0.123 -0.239,0.162c-0.091,0.04 -0.188,0.06 -0.291,0.06l-1.801,0l0,-0.484l1.235,0c0.055,0 0.102,-0.02 0.141,-0.059c0.039,-0.04 0.059,-0.087 0.059,-0.142c0,-0.048 -0.013,-0.091 -0.041,-0.129l-1.163,-1.518c-0.099,-0.13 -0.149,-0.277 -0.149,-0.442c0,-0.103 0.02,-0.199 0.059,-0.288c0.039,-0.09 0.094,-0.168 0.162,-0.237c0.069,-0.069 0.148,-0.123 0.237,-0.162c0.089,-0.04 0.185,-0.059 0.288,-0.059l1.801,0Z" style="fill:#231f20;fill-rule:nonzero;"/></g></svg>