<?xml version="1.0" encoding="UTF-8" standalone="no"?><!DOCTYPE svg PUBLIC "-//W3C//DTD SVG 1.1//EN" "http://www.w3.org/Graphics/SVG/1.1/DTD/svg11.dtd"><svg width="100%" height="100%" viewBox="0 0 341 102" version="1.1" xmlns="http://www.w3.org/2000/svg" xmlns:xlink="http://www.w3.org/1999/xlink" xml:space="preserve" xmlns:serif="http://www.serif.com/" style="fill-rule:evenodd;clip-rule:evenodd;stroke-miterlimit:1.41421;"><rect id="Artboard1" x="0" y="0" width="340.56" height="101.053" style="fill:none;"/><clipPath id="_clip1"><rect id="Artboard11" serif:id="Artboard1" x="0" y="0" width="340.56" height="101.053"/></clipPath><g clip-path="url(#_clip1)"><g><g><clipPath id="_clip2"><path d="M79.071,50.526c0,21.834 -17.702,39.535 -39.536,39.535c-21.835,0 -39.535,-17.701 -39.535,-39.535c0,-21.834 17.7,-39.535 39.535,-39.535c21.834,0 39.536,17.701 39.536,39.535Z"/></clipPath><g clip-path="url(#_clip2)"><path d="M69.403,50.542c0,16.498 -13.374,29.872 -29.87,29.872c-16.498,0 -29.871,-13.374 -29.871,-29.872c0,-16.497 13.373,-29.869 29.871,-29.869c16.496,0 29.87,13.372 29.87,29.869Z" style="fill:#fff;fill-rule:nonzero;"/><path d="M69.403,50.542c0,16.498 -13.374,29.872 -29.87,29.872c-16.498,0 -29.871,-13.374 -29.871,-29.872c0,-16.497 13.373,-29.869 29.871,-29.869c16.496,0 29.87,13.372 29.87,29.869Z" style="fill:none;stroke:#265e7c;stroke-width:1.26px;"/><path d="M7.105,43.093c0,0 0.37,-1.79 2.658,-2.163c0.618,0.063 0.989,1.237 1.545,1.299c0.556,0.062 0.927,-1.422 1.977,-1.236c1.051,0.185 1.916,1.483 2.782,1.422c1.008,-0.073 2.347,-1.434 3.646,-1.175c1.237,0.247 1.237,0.247 2.72,0.371c1.483,0.123 6.304,-1.113 10.074,-0.742c3.77,0.371 5.624,1.236 6.675,1.112c1.051,-0.123 2.349,-1.359 3.461,-1.112c1.113,0.248 2.968,0.865 3.956,0.928c0.99,0.061 9.888,-1.731 12.546,-0.742c3.955,0.556 8.9,4.882 8.9,4.882l0,2.988l-60.26,0l-0.68,-5.832Z" style="fill:#dbe4e7;fill-rule:nonzero;"/><path d="M28.675,44.701c0,0 5.625,-0.309 7.046,-0.927c1.421,-0.618 8.592,1.113 9.765,0.556c1.175,-0.556 1.113,-0.68 2.103,-0.865c0.987,-0.185 8.589,0.618 9.95,0.989c1.36,0.371 3.399,1.112 5.315,0.742c0.927,-0.185 2.905,-0.618 4.326,-0.618c1.421,0 4.018,1.668 4.018,1.668l0.7,2.679l-43.346,0l0.123,-4.224Z" style="fill:#adc9da;fill-rule:nonzero;"/><path d="M7.475,45.628c0,0 2.349,-1.05 4.08,-0.617c5.006,0.617 5.933,0.122 8.097,-1.175c1.421,-0.556 3.708,1.422 5.191,1.051c1.483,-0.371 1.73,-0.557 2.781,-0.742c3.582,-0.391 13.357,4.135 21.323,2.687c7.965,-1.449 32.767,2.353 32.767,2.353l-5.793,21.001l-68.136,-20.232l-0.31,-4.326Z" style="fill:#5e85a5;fill-rule:nonzero;"/><path d="M6.041,51.357c0,0 6.698,-3.621 13.759,-3.983c7.06,-0.361 9.414,6.519 14.845,6.881c5.431,0.361 9.052,-2.173 15.026,-1.992c11.405,2.353 27.879,10.862 27.879,10.862l-9.414,14.665l-20.818,13.395l-28.605,-9.232l-12.672,-30.596Z" style="fill:#265e7c;fill-rule:nonzero;"/><path d="M69.403,50.271c0,16.497 -13.374,29.872 -29.87,29.872c-16.498,0 -29.871,-13.375 -29.871,-29.872c0,-16.497 13.373,-29.87 29.871,-29.87c16.496,0 29.87,13.373 29.87,29.87Z" style="fill:none;stroke:#265e7c;stroke-width:0.25px;"/><path d="M39.664,10.957l-0.003,0l-0.002,0l-0.017,0c-5.338,0 -10.522,1.047 -15.408,3.113c-4.714,1.993 -8.946,4.844 -12.578,8.474c-3.632,3.63 -6.486,7.86 -8.482,12.573c-2.068,4.885 -3.119,10.068 -3.122,15.405c-0.003,5.341 1.042,10.528 3.107,15.417c1.992,4.716 4.843,8.951 8.473,12.586c3.63,3.634 7.862,6.49 12.576,8.487c4.886,2.07 10.072,3.121 15.411,3.124l0.022,0c5.338,0 10.522,-1.047 15.408,-3.113c4.714,-1.993 8.946,-4.844 12.578,-8.474c3.632,-3.63 6.486,-7.861 8.482,-12.574c2.069,-4.885 3.12,-10.069 3.124,-15.407c0.002,-5.341 -1.044,-10.527 -3.108,-15.416c-1.992,-4.716 -4.843,-8.95 -8.473,-12.585c-3.631,-3.634 -7.862,-6.49 -12.576,-8.487c-4.887,-2.07 -10.072,-3.121 -15.412,-3.123Zm-0.022,10.659c0.005,0 0.011,0 0.017,0c15.977,0.008 28.922,12.968 28.914,28.946c-0.01,15.972 -12.962,28.915 -28.932,28.915c-0.006,0 -0.009,0 -0.015,0c-15.978,-0.01 -28.924,-12.968 -28.914,-28.948c0.009,-15.971 12.959,-28.913 28.93,-28.913Z" style="fill:#265e7c;fill-rule:nonzero;"/><path d="M14.794,85.563l5.386,0l0,-3.528l-1.365,0l3.919,-3.083l3.559,2.954l-1.492,0l0,3.594l4.136,-0.038l0,-9.098l5.52,0l0,8.44l1.727,0l0,-12.451l5.456,0l0,11.136l2.016,0l0,-6.852l4.205,-4.204l1.891,1.893l0,-1.859l1.285,0l0.001,3.143l1.025,1.027l0,4.734l4.244,0l0,-5.133l-2.119,0l5.135,-5.392l5.263,5.263l-2.246,0l0,5.344l6.012,0" style="fill:none;stroke:#fff;stroke-width:0.52px;"/><rect x="29.71" y="77.07" width="1.539" height="1.541" style="fill:none;stroke:#fff;stroke-width:0.38px;"/><rect x="37.212" y="73.187" width="1.283" height="2.408" style="fill:none;stroke:#fff;stroke-width:0.41px;"/><rect x="39.338" y="73.187" width="1.283" height="2.408" style="fill:none;stroke:#fff;stroke-width:0.41px;"/><rect x="37.212" y="76.514" width="1.283" height="2.409" style="fill:none;stroke:#fff;stroke-width:0.41px;"/><rect x="39.338" y="76.514" width="1.283" height="2.409" style="fill:none;stroke:#fff;stroke-width:0.41px;"/><rect x="37.212" y="79.866" width="1.283" height="2.41" style="fill:none;stroke:#fff;stroke-width:0.41px;"/><rect x="39.338" y="79.866" width="1.283" height="2.41" style="fill:none;stroke:#fff;stroke-width:0.41px;"/><rect x="32.083" y="77.07" width="1.541" height="1.541" style="fill:none;stroke:#fff;stroke-width:0.38px;"/><rect x="29.71" y="79.539" width="1.539" height="1.542" style="fill:none;stroke:#fff;stroke-width:0.38px;"/><rect x="32.083" y="79.539" width="1.541" height="1.542" style="fill:none;stroke:#fff;stroke-width:0.38px;"/><rect x="29.71" y="82.051" width="1.539" height="1.541" style="fill:none;stroke:#fff;stroke-width:0.38px;"/><rect x="32.083" y="82.051" width="1.541" height="1.541" style="fill:none;stroke:#fff;stroke-width:0.38px;"/><rect x="58.463" y="77.841" width="2.118" height="3.658" style="fill:none;stroke:#fff;stroke-width:0.38px;"/><rect x="21.885" y="83.157" width="1.266" height="2.49" style="fill:none;stroke:#fff;stroke-width:0.25px;"/><path d="M11.32,33.362c-0.197,-0.118 -0.387,-0.148 -0.569,-0.088c-0.183,0.06 -0.399,0.232 -0.649,0.517l1.41,0.853c0.136,-0.354 0.19,-0.624 0.16,-0.813c-0.029,-0.188 -0.147,-0.344 -0.352,-0.469Zm-2.322,-1.404c-0.473,-0.286 -0.929,-0.174 -1.369,0.336l1.706,1.032c0.247,-0.626 0.135,-1.082 -0.337,-1.368Zm3.4,-0.156c0.223,0.135 0.391,0.302 0.503,0.501c0.113,0.2 0.172,0.425 0.178,0.677c0.006,0.252 -0.04,0.525 -0.138,0.821c-0.099,0.296 -0.246,0.606 -0.442,0.929l-1.178,1.949l-5.406,-3.271l1.179,-1.948c0.182,-0.301 0.386,-0.556 0.611,-0.764c0.224,-0.208 0.456,-0.363 0.697,-0.465c0.242,-0.102 0.486,-0.146 0.735,-0.134c0.249,0.014 0.487,0.089 0.715,0.227c0.625,0.378 0.869,0.971 0.733,1.779c0.658,-0.534 1.262,-0.634 1.813,-0.301Z" style="fill:#fff;fill-rule:nonzero;"/><path d="M11.32,33.362c-0.197,-0.118 -0.387,-0.148 -0.569,-0.088c-0.183,0.06 -0.399,0.232 -0.649,0.517l1.41,0.853c0.136,-0.354 0.19,-0.624 0.16,-0.813c-0.029,-0.188 -0.147,-0.344 -0.352,-0.469Zm-2.322,-1.404c-0.473,-0.286 -0.929,-0.174 -1.369,0.336l1.706,1.032c0.247,-0.626 0.135,-1.082 -0.337,-1.368Zm3.4,-0.156c0.223,0.135 0.391,0.302 0.503,0.501c0.113,0.2 0.172,0.425 0.178,0.677c0.006,0.252 -0.04,0.525 -0.138,0.821c-0.099,0.296 -0.246,0.606 -0.442,0.929l-1.178,1.949l-5.406,-3.271l1.179,-1.948c0.182,-0.301 0.386,-0.556 0.611,-0.764c0.224,-0.208 0.456,-0.363 0.697,-0.465c0.242,-0.102 0.486,-0.146 0.735,-0.134c0.249,0.014 0.487,0.089 0.715,0.227c0.625,0.378 0.869,0.971 0.733,1.779c0.658,-0.534 1.262,-0.634 1.813,-0.301Z" style="fill:none;stroke:#231f20;stroke-width:0.35px;"/><path d="M12.215,28.024c-0.083,-0.068 -0.177,-0.098 -0.281,-0.087c-0.104,0.01 -0.19,0.057 -0.258,0.139c-0.069,0.083 -0.098,0.177 -0.088,0.282c0.011,0.103 0.057,0.19 0.14,0.258l2.399,1.972c0.079,0.065 0.171,0.093 0.278,0.084c0.105,-0.008 0.193,-0.054 0.261,-0.137c0.065,-0.078 0.092,-0.172 0.082,-0.28c-0.011,-0.108 -0.055,-0.194 -0.134,-0.259l-2.399,-1.972Zm2.739,0.266c0.201,0.166 0.359,0.362 0.474,0.589c0.114,0.226 0.184,0.462 0.208,0.707c0.024,0.244 0.001,0.489 -0.068,0.733c-0.068,0.245 -0.186,0.468 -0.351,0.669c-0.169,0.206 -0.366,0.367 -0.59,0.483c-0.225,0.116 -0.46,0.186 -0.704,0.21c-0.245,0.024 -0.489,0 -0.732,-0.07c-0.243,-0.071 -0.467,-0.191 -0.672,-0.36l-1.137,-0.934c-0.201,-0.166 -0.36,-0.362 -0.474,-0.589c-0.115,-0.226 -0.184,-0.462 -0.208,-0.707c-0.024,-0.244 -0.001,-0.489 0.067,-0.733c0.069,-0.245 0.186,-0.468 0.351,-0.669c0.166,-0.201 0.362,-0.359 0.586,-0.471c0.226,-0.113 0.462,-0.181 0.711,-0.206c0.248,-0.024 0.493,-0.003 0.736,0.064c0.242,0.068 0.464,0.184 0.666,0.35l1.137,0.934Z" style="fill:#fff;fill-rule:nonzero;"/><path d="M12.215,28.024c-0.083,-0.068 -0.177,-0.098 -0.281,-0.087c-0.104,0.01 -0.19,0.057 -0.258,0.139c-0.069,0.083 -0.098,0.177 -0.088,0.282c0.011,0.103 0.057,0.19 0.14,0.258l2.399,1.972c0.079,0.065 0.171,0.093 0.278,0.084c0.105,-0.008 0.193,-0.054 0.261,-0.137c0.065,-0.078 0.092,-0.172 0.082,-0.28c-0.011,-0.108 -0.055,-0.194 -0.134,-0.259l-2.399,-1.972Zm2.739,0.266c0.201,0.166 0.359,0.362 0.474,0.589c0.114,0.226 0.184,0.462 0.208,0.707c0.024,0.244 0.001,0.489 -0.068,0.733c-0.068,0.245 -0.186,0.468 -0.351,0.669c-0.169,0.206 -0.366,0.367 -0.59,0.483c-0.225,0.116 -0.46,0.186 -0.704,0.21c-0.245,0.024 -0.489,0 -0.732,-0.07c-0.243,-0.071 -0.467,-0.191 -0.672,-0.36l-1.137,-0.934c-0.201,-0.166 -0.36,-0.362 -0.474,-0.589c-0.115,-0.226 -0.184,-0.462 -0.208,-0.707c-0.024,-0.244 -0.001,-0.489 0.067,-0.733c0.069,-0.245 0.186,-0.468 0.351,-0.669c0.166,-0.201 0.362,-0.359 0.586,-0.471c0.226,-0.113 0.462,-0.181 0.711,-0.206c0.248,-0.024 0.493,-0.003 0.736,0.064c0.242,0.068 0.464,0.184 0.666,0.35l1.137,0.934Z" style="fill:none;stroke:#231f20;stroke-width:0.35px;"/><path d="M15.434,24.663c-0.073,-0.078 -0.162,-0.119 -0.267,-0.123c-0.105,-0.003 -0.196,0.032 -0.274,0.106c-0.079,0.073 -0.12,0.162 -0.123,0.266c-0.003,0.105 0.031,0.196 0.105,0.275l2.122,2.266c0.07,0.075 0.158,0.115 0.265,0.121c0.106,0.005 0.199,-0.029 0.277,-0.103c0.074,-0.07 0.114,-0.159 0.117,-0.267c0.004,-0.108 -0.029,-0.2 -0.099,-0.274l-2.123,-2.267Zm2.681,0.62c0.179,0.19 0.31,0.405 0.394,0.644c0.085,0.24 0.122,0.483 0.115,0.728c-0.008,0.246 -0.063,0.485 -0.162,0.719c-0.1,0.233 -0.245,0.44 -0.436,0.618c-0.193,0.181 -0.41,0.315 -0.647,0.402c-0.239,0.086 -0.48,0.125 -0.726,0.117c-0.245,-0.008 -0.484,-0.063 -0.715,-0.165c-0.232,-0.101 -0.439,-0.249 -0.621,-0.443l-1.006,-1.074c-0.178,-0.191 -0.309,-0.406 -0.394,-0.646c-0.084,-0.239 -0.122,-0.482 -0.115,-0.727c0.009,-0.246 0.063,-0.486 0.163,-0.719c0.099,-0.234 0.245,-0.44 0.435,-0.618c0.19,-0.178 0.404,-0.308 0.642,-0.391c0.237,-0.083 0.481,-0.12 0.73,-0.112c0.25,0.008 0.49,0.062 0.722,0.16c0.232,0.098 0.437,0.242 0.615,0.432l1.006,1.075Z" style="fill:#fff;fill-rule:nonzero;"/><path d="M15.434,24.663c-0.073,-0.078 -0.162,-0.119 -0.267,-0.123c-0.105,-0.003 -0.196,0.032 -0.274,0.106c-0.079,0.073 -0.12,0.162 -0.123,0.266c-0.003,0.105 0.031,0.196 0.105,0.275l2.122,2.266c0.07,0.075 0.158,0.115 0.265,0.121c0.106,0.005 0.199,-0.029 0.277,-0.103c0.074,-0.07 0.114,-0.159 0.117,-0.267c0.004,-0.108 -0.029,-0.2 -0.099,-0.274l-2.123,-2.267Zm2.681,0.62c0.179,0.19 0.31,0.405 0.394,0.644c0.085,0.24 0.122,0.483 0.115,0.728c-0.008,0.246 -0.063,0.485 -0.162,0.719c-0.1,0.233 -0.245,0.44 -0.436,0.618c-0.193,0.181 -0.41,0.315 -0.647,0.402c-0.239,0.086 -0.48,0.125 -0.726,0.117c-0.245,-0.008 -0.484,-0.063 -0.715,-0.165c-0.232,-0.101 -0.439,-0.249 -0.621,-0.443l-1.006,-1.074c-0.178,-0.191 -0.309,-0.406 -0.394,-0.646c-0.084,-0.239 -0.122,-0.482 -0.115,-0.727c0.009,-0.246 0.063,-0.486 0.163,-0.719c0.099,-0.234 0.245,-0.44 0.435,-0.618c0.19,-0.178 0.404,-0.308 0.642,-0.391c0.237,-0.083 0.481,-0.12 0.73,-0.112c0.25,0.008 0.49,0.062 0.722,0.16c0.232,0.098 0.437,0.242 0.615,0.432l1.006,1.075Z" style="fill:none;stroke:#231f20;stroke-width:0.35px;"/><path d="M21.472,25.114l-2.414,-3.363c-0.062,-0.088 -0.145,-0.139 -0.249,-0.156c-0.103,-0.017 -0.199,0.005 -0.286,0.068c-0.087,0.063 -0.138,0.145 -0.153,0.247c-0.015,0.102 0.009,0.196 0.072,0.284l2.414,3.363l-1.252,0.898l-3.058,-4.26l1.252,-0.898l0.165,0.23c0.093,-0.3 0.269,-0.542 0.526,-0.727c0.158,-0.113 0.331,-0.19 0.519,-0.23c0.188,-0.041 0.375,-0.046 0.56,-0.016c0.186,0.031 0.36,0.095 0.524,0.191c0.163,0.096 0.302,0.224 0.415,0.382l2.217,3.089l-1.252,0.898Z" style="fill:#fff;fill-rule:nonzero;"/><path d="M21.472,25.114l-2.414,-3.363c-0.062,-0.088 -0.145,-0.139 -0.249,-0.156c-0.103,-0.017 -0.199,0.005 -0.286,0.068c-0.087,0.063 -0.138,0.145 -0.153,0.247c-0.015,0.102 0.009,0.196 0.072,0.284l2.414,3.363l-1.252,0.898l-3.058,-4.26l1.252,-0.898l0.165,0.23c0.093,-0.3 0.269,-0.542 0.526,-0.727c0.158,-0.113 0.331,-0.19 0.519,-0.23c0.188,-0.041 0.375,-0.046 0.56,-0.016c0.186,0.031 0.36,0.095 0.524,0.191c0.163,0.096 0.302,0.224 0.415,0.382l2.217,3.089l-1.252,0.898Z" style="fill:none;stroke:#231f20;stroke-width:0.35px;"/><path d="M23.207,23.925l-0.853,-1.613l-0.251,0.133l-0.394,-0.745l0.25,-0.133l-1.204,-2.277l3.449,-1.825l0.337,0.637l-2.094,1.108l0.868,1.64l0.616,-0.326l0.395,0.745l-0.617,0.327l0.517,0.975l2.093,-1.108l0.338,0.637l-3.45,1.825Z" style="fill:#fff;fill-rule:nonzero;"/><path d="M23.207,23.925l-0.853,-1.613l-0.251,0.133l-0.394,-0.745l0.25,-0.133l-1.204,-2.277l3.449,-1.825l0.337,0.637l-2.094,1.108l0.868,1.64l0.616,-0.326l0.395,0.745l-0.617,0.327l0.517,0.975l2.093,-1.108l0.338,0.637l-3.45,1.825Z" style="fill:none;stroke:#231f20;stroke-width:0.35px;"/><path d="M31.51,20.451l-0.609,-2.114l-1.002,0.288l0.609,2.115l-1.775,0.512l-0.61,-2.115l-0.331,0.096l-0.281,-0.973l0.332,-0.095l-0.86,-2.984l1.775,-0.512l0.86,2.984l1.002,-0.289l-0.86,-2.983l1.776,-0.512l1.75,6.07l-1.776,0.512Z" style="fill:#fff;fill-rule:nonzero;"/><path d="M31.51,20.451l-0.609,-2.114l-1.002,0.288l0.609,2.115l-1.775,0.512l-0.61,-2.115l-0.331,0.096l-0.281,-0.973l0.332,-0.095l-0.86,-2.984l1.775,-0.512l0.86,2.984l1.002,-0.289l-0.86,-2.983l1.776,-0.512l1.75,6.07l-1.776,0.512Z" style="fill:none;stroke:#231f20;stroke-width:0.35px;"/><path d="M33.609,19.968l-0.877,-5.17l1.504,-0.256l0.877,5.171l-1.504,0.255Z" style="fill:#fff;fill-rule:nonzero;"/><path d="M33.609,19.968l-0.877,-5.17l1.504,-0.256l0.877,5.171l-1.504,0.255Z" style="fill:none;stroke:#231f20;stroke-width:0.35px;"/><path d="M38.602,19.381l-0.194,-0.324c-0.324,0.25 -0.678,0.389 -1.06,0.418c-0.265,0.02 -0.518,-0.011 -0.757,-0.093c-0.239,-0.081 -0.452,-0.203 -0.639,-0.363c-0.186,-0.16 -0.337,-0.352 -0.454,-0.577c-0.117,-0.224 -0.186,-0.469 -0.206,-0.734l-0.106,-1.407c-0.02,-0.26 0.013,-0.51 0.098,-0.749c0.084,-0.239 0.206,-0.452 0.366,-0.639c0.161,-0.186 0.353,-0.339 0.577,-0.459c0.224,-0.119 0.466,-0.188 0.726,-0.208c0.255,-0.019 0.5,0.011 0.734,0.091c0.234,0.08 0.444,0.197 0.63,0.352c0.186,0.155 0.34,0.341 0.461,0.557c0.121,0.217 0.197,0.452 0.226,0.706l-1.529,0.115l-0.056,-0.749c-0.009,-0.107 -0.052,-0.195 -0.132,-0.263c-0.079,-0.068 -0.173,-0.098 -0.28,-0.091c-0.106,0.009 -0.194,0.052 -0.263,0.132c-0.068,0.079 -0.098,0.173 -0.09,0.28l0.229,3.027c0.008,0.107 0.051,0.195 0.131,0.263c0.079,0.068 0.173,0.098 0.28,0.09c0.107,-0.007 0.194,-0.051 0.263,-0.131c0.068,-0.079 0.098,-0.172 0.09,-0.28l-0.112,-1.491l1.529,-0.115l0.195,2.592l-0.657,0.05Z" style="fill:#fff;fill-rule:nonzero;"/><path d="M38.602,19.381l-0.194,-0.324c-0.324,0.25 -0.678,0.389 -1.06,0.418c-0.265,0.02 -0.518,-0.011 -0.757,-0.093c-0.239,-0.081 -0.452,-0.203 -0.639,-0.363c-0.186,-0.16 -0.337,-0.352 -0.454,-0.577c-0.117,-0.224 -0.186,-0.469 -0.206,-0.734l-0.106,-1.407c-0.02,-0.26 0.013,-0.51 0.098,-0.749c0.084,-0.239 0.206,-0.452 0.366,-0.639c0.161,-0.186 0.353,-0.339 0.577,-0.459c0.224,-0.119 0.466,-0.188 0.726,-0.208c0.255,-0.019 0.5,0.011 0.734,0.091c0.234,0.08 0.444,0.197 0.63,0.352c0.186,0.155 0.34,0.341 0.461,0.557c0.121,0.217 0.197,0.452 0.226,0.706l-1.529,0.115l-0.056,-0.749c-0.009,-0.107 -0.052,-0.195 -0.132,-0.263c-0.079,-0.068 -0.173,-0.098 -0.28,-0.091c-0.106,0.009 -0.194,0.052 -0.263,0.132c-0.068,0.079 -0.098,0.173 -0.09,0.28l0.229,3.027c0.008,0.107 0.051,0.195 0.131,0.263c0.079,0.068 0.173,0.098 0.28,0.09c0.107,-0.007 0.194,-0.051 0.263,-0.131c0.068,-0.079 0.098,-0.172 0.09,-0.28l-0.112,-1.491l1.529,-0.115l0.195,2.592l-0.657,0.05Z" style="fill:none;stroke:#231f20;stroke-width:0.35px;"/><path d="M42.222,19.474l0.109,-1.821l-0.865,-0.052l-0.108,1.822l-1.531,-0.092l0.109,-1.821l-0.284,-0.017l0.051,-0.842l0.283,0.017l0.153,-2.572l1.53,0.091l-0.153,2.572l0.865,0.052l0.153,-2.572l1.531,0.091l-0.312,5.235l-1.531,-0.091Z" style="fill:#fff;fill-rule:nonzero;"/><path d="M42.222,19.474l0.109,-1.821l-0.865,-0.052l-0.108,1.822l-1.531,-0.092l0.109,-1.821l-0.284,-0.017l0.051,-0.842l0.283,0.017l0.153,-2.572l1.53,0.091l-0.153,2.572l0.865,0.052l0.153,-2.572l1.531,0.091l-0.312,5.235l-1.531,-0.091Z" style="fill:none;stroke:#231f20;stroke-width:0.35px;"/><path d="M50.252,19.66c-0.193,0.229 -0.417,0.414 -0.671,0.555c-0.255,0.142 -0.53,0.234 -0.827,0.277c-0.297,0.043 -0.593,0.025 -0.89,-0.054c-0.306,-0.081 -0.578,-0.217 -0.816,-0.407c-0.238,-0.19 -0.431,-0.413 -0.58,-0.669c-0.149,-0.256 -0.247,-0.535 -0.294,-0.835c-0.047,-0.301 -0.03,-0.605 0.051,-0.911l0.436,-1.645c0.08,-0.301 0.216,-0.572 0.406,-0.813c0.191,-0.24 0.414,-0.434 0.671,-0.583c0.256,-0.149 0.534,-0.247 0.835,-0.295c0.301,-0.047 0.604,-0.029 0.911,0.052c0.296,0.078 0.562,0.21 0.799,0.394c0.237,0.185 0.43,0.403 0.58,0.654c0.151,0.251 0.253,0.523 0.308,0.815c0.054,0.292 0.047,0.588 -0.021,0.887l-1.787,-0.474l0.233,-0.875c0.032,-0.123 0.016,-0.239 -0.05,-0.349c-0.066,-0.111 -0.161,-0.183 -0.285,-0.215c-0.123,-0.033 -0.239,-0.017 -0.345,0.047c-0.107,0.065 -0.177,0.158 -0.21,0.282l-0.939,3.542c-0.033,0.124 -0.019,0.24 0.042,0.349c0.062,0.108 0.154,0.179 0.277,0.212c0.123,0.032 0.241,0.017 0.354,-0.045c0.111,-0.063 0.183,-0.156 0.216,-0.28l0.232,-0.874l1.786,0.473c-0.089,0.294 -0.229,0.556 -0.422,0.785Z" style="fill:#fff;fill-rule:nonzero;"/><path d="M50.252,19.66c-0.193,0.229 -0.417,0.414 -0.671,0.555c-0.255,0.142 -0.53,0.234 -0.827,0.277c-0.297,0.043 -0.593,0.025 -0.89,-0.054c-0.306,-0.081 -0.578,-0.217 -0.816,-0.407c-0.238,-0.19 -0.431,-0.413 -0.58,-0.669c-0.149,-0.256 -0.247,-0.535 -0.294,-0.835c-0.047,-0.301 -0.03,-0.605 0.051,-0.911l0.436,-1.645c0.08,-0.301 0.216,-0.572 0.406,-0.813c0.191,-0.24 0.414,-0.434 0.671,-0.583c0.256,-0.149 0.534,-0.247 0.835,-0.295c0.301,-0.047 0.604,-0.029 0.911,0.052c0.296,0.078 0.562,0.21 0.799,0.394c0.237,0.185 0.43,0.403 0.58,0.654c0.151,0.251 0.253,0.523 0.308,0.815c0.054,0.292 0.047,0.588 -0.021,0.887l-1.787,-0.474l0.233,-0.875c0.032,-0.123 0.016,-0.239 -0.05,-0.349c-0.066,-0.111 -0.161,-0.183 -0.285,-0.215c-0.123,-0.033 -0.239,-0.017 -0.345,0.047c-0.107,0.065 -0.177,0.158 -0.21,0.282l-0.939,3.542c-0.033,0.124 -0.019,0.24 0.042,0.349c0.062,0.108 0.154,0.179 0.277,0.212c0.123,0.032 0.241,0.017 0.354,-0.045c0.111,-0.063 0.183,-0.156 0.216,-0.28l0.232,-0.874l1.786,0.473c-0.089,0.294 -0.229,0.556 -0.422,0.785Z" style="fill:none;stroke:#231f20;stroke-width:0.35px;"/><path d="M54.09,18.236c0.041,-0.099 0.043,-0.196 0.003,-0.294c-0.039,-0.097 -0.107,-0.166 -0.207,-0.209c-0.098,-0.041 -0.197,-0.043 -0.294,-0.004c-0.097,0.04 -0.166,0.108 -0.208,0.208l-1.214,2.858c-0.04,0.094 -0.04,0.19 -0.002,0.29c0.038,0.1 0.107,0.171 0.205,0.212c0.094,0.04 0.192,0.04 0.292,-0.001c0.101,-0.04 0.171,-0.108 0.211,-0.201l1.214,-2.859Zm0.518,2.703c-0.102,0.239 -0.245,0.447 -0.43,0.62c-0.185,0.175 -0.392,0.308 -0.62,0.4c-0.228,0.092 -0.469,0.139 -0.723,0.143c-0.253,0.003 -0.5,-0.047 -0.741,-0.148c-0.244,-0.104 -0.454,-0.247 -0.629,-0.43c-0.175,-0.183 -0.309,-0.388 -0.401,-0.616c-0.092,-0.228 -0.138,-0.468 -0.139,-0.721c-0.001,-0.253 0.051,-0.502 0.154,-0.747l0.576,-1.355c0.102,-0.24 0.245,-0.446 0.43,-0.621c0.185,-0.174 0.392,-0.307 0.62,-0.399c0.227,-0.092 0.468,-0.14 0.722,-0.143c0.254,-0.003 0.501,0.046 0.741,0.148c0.24,0.102 0.446,0.245 0.618,0.429c0.172,0.184 0.304,0.391 0.398,0.623c0.093,0.231 0.142,0.472 0.146,0.724c0.004,0.252 -0.045,0.498 -0.146,0.738l-0.576,1.355Z" style="fill:#fff;fill-rule:nonzero;"/><path d="M54.09,18.236c0.041,-0.099 0.043,-0.196 0.003,-0.294c-0.039,-0.097 -0.107,-0.166 -0.207,-0.209c-0.098,-0.041 -0.197,-0.043 -0.294,-0.004c-0.097,0.04 -0.166,0.108 -0.208,0.208l-1.214,2.858c-0.04,0.094 -0.04,0.19 -0.002,0.29c0.038,0.1 0.107,0.171 0.205,0.212c0.094,0.04 0.192,0.04 0.292,-0.001c0.101,-0.04 0.171,-0.108 0.211,-0.201l1.214,-2.859Zm0.518,2.703c-0.102,0.239 -0.245,0.447 -0.43,0.62c-0.185,0.175 -0.392,0.308 -0.62,0.4c-0.228,0.092 -0.469,0.139 -0.723,0.143c-0.253,0.003 -0.5,-0.047 -0.741,-0.148c-0.244,-0.104 -0.454,-0.247 -0.629,-0.43c-0.175,-0.183 -0.309,-0.388 -0.401,-0.616c-0.092,-0.228 -0.138,-0.468 -0.139,-0.721c-0.001,-0.253 0.051,-0.502 0.154,-0.747l0.576,-1.355c0.102,-0.24 0.245,-0.446 0.43,-0.621c0.185,-0.174 0.392,-0.307 0.62,-0.399c0.227,-0.092 0.468,-0.14 0.722,-0.143c0.254,-0.003 0.501,0.046 0.741,0.148c0.24,0.102 0.446,0.245 0.618,0.429c0.172,0.184 0.304,0.391 0.398,0.623c0.093,0.231 0.142,0.472 0.146,0.724c0.004,0.252 -0.045,0.498 -0.146,0.738l-0.576,1.355Z" style="fill:none;stroke:#231f20;stroke-width:0.35px;"/><path d="M57.87,23.674c-0.206,0.149 -0.428,0.255 -0.666,0.316c-0.238,0.062 -0.483,0.078 -0.735,0.048c-0.253,-0.03 -0.491,-0.11 -0.716,-0.242c-0.229,-0.135 -0.418,-0.304 -0.569,-0.508c-0.15,-0.204 -0.256,-0.425 -0.318,-0.663c-0.061,-0.237 -0.076,-0.482 -0.044,-0.733c0.031,-0.251 0.115,-0.491 0.25,-0.72l1.716,-2.922l1.329,0.781l-2.133,3.629c-0.051,0.088 -0.066,0.183 -0.043,0.286c0.023,0.102 0.081,0.18 0.173,0.234c0.093,0.055 0.19,0.069 0.291,0.043c0.101,-0.026 0.18,-0.085 0.234,-0.178l2.132,-3.63l1.322,0.777l-1.716,2.922c-0.132,0.225 -0.301,0.412 -0.507,0.56Z" style="fill:#fff;fill-rule:nonzero;"/><path d="M57.87,23.674c-0.206,0.149 -0.428,0.255 -0.666,0.316c-0.238,0.062 -0.483,0.078 -0.735,0.048c-0.253,-0.03 -0.491,-0.11 -0.716,-0.242c-0.229,-0.135 -0.418,-0.304 -0.569,-0.508c-0.15,-0.204 -0.256,-0.425 -0.318,-0.663c-0.061,-0.237 -0.076,-0.482 -0.044,-0.733c0.031,-0.251 0.115,-0.491 0.25,-0.72l1.716,-2.922l1.329,0.781l-2.133,3.629c-0.051,0.088 -0.066,0.183 -0.043,0.286c0.023,0.102 0.081,0.18 0.173,0.234c0.093,0.055 0.19,0.069 0.291,0.043c0.101,-0.026 0.18,-0.085 0.234,-0.178l2.132,-3.63l1.322,0.777l-1.716,2.922c-0.132,0.225 -0.301,0.412 -0.507,0.56Z" style="fill:none;stroke:#231f20;stroke-width:0.35px;"/><path d="M59.494,26.291l2.544,-3.266c0.066,-0.085 0.092,-0.179 0.079,-0.283c-0.013,-0.104 -0.061,-0.189 -0.146,-0.255c-0.084,-0.066 -0.178,-0.091 -0.28,-0.077c-0.102,0.015 -0.186,0.064 -0.252,0.149l-2.544,3.266l-1.216,-0.947l3.222,-4.137l1.216,0.947l-0.174,0.224c0.314,0.004 0.595,0.104 0.846,0.299c0.153,0.119 0.276,0.263 0.368,0.432c0.092,0.169 0.149,0.346 0.173,0.533c0.023,0.187 0.011,0.372 -0.035,0.556c-0.047,0.184 -0.129,0.353 -0.249,0.506l-2.336,3.001l-1.216,-0.948Z" style="fill:#fff;fill-rule:nonzero;"/><path d="M59.494,26.291l2.544,-3.266c0.066,-0.085 0.092,-0.179 0.079,-0.283c-0.013,-0.104 -0.061,-0.189 -0.146,-0.255c-0.084,-0.066 -0.178,-0.091 -0.28,-0.077c-0.102,0.015 -0.186,0.064 -0.252,0.149l-2.544,3.266l-1.216,-0.947l3.222,-4.137l1.216,0.947l-0.174,0.224c0.314,0.004 0.595,0.104 0.846,0.299c0.153,0.119 0.276,0.263 0.368,0.432c0.092,0.169 0.149,0.346 0.173,0.533c0.023,0.187 0.011,0.372 -0.035,0.556c-0.047,0.184 -0.129,0.353 -0.249,0.506l-2.336,3.001l-1.216,-0.948Z" style="fill:none;stroke:#231f20;stroke-width:0.35px;"/><path d="M66.138,26.279l-3.234,3.162l-1.078,-1.102l3.235,-3.162l-0.901,-0.921l0.515,-0.504l2.873,2.939l-0.515,0.503l-0.895,-0.915Z" style="fill:#fff;fill-rule:nonzero;"/><path d="M66.138,26.279l-3.234,3.162l-1.078,-1.102l3.235,-3.162l-0.901,-0.921l0.515,-0.504l2.873,2.939l-0.515,0.503l-0.895,-0.915Z" style="fill:none;stroke:#231f20;stroke-width:0.35px;"/><path d="M68.37,30.576c0.19,-0.138 0.313,-0.325 0.37,-0.56c0.056,-0.234 0.034,-0.46 -0.068,-0.677l-1.572,1.149c0.175,0.163 0.384,0.253 0.625,0.27c0.24,0.018 0.455,-0.043 0.645,-0.182Zm-2.858,2.08l0.848,-0.62c0.186,-0.136 0.291,-0.308 0.316,-0.516c0.025,-0.208 -0.032,-0.407 -0.17,-0.597l-1.474,1.076l-0.909,-1.244l1.473,-1.076l-0.145,-0.199l0.681,-0.497l0.145,0.198l2.08,-1.52l1.122,1.535c0.304,0.417 0.454,0.877 0.449,1.381c-0.008,0.544 -0.218,0.967 -0.631,1.268c-0.247,0.181 -0.521,0.277 -0.821,0.287c-0.299,0.01 -0.59,-0.053 -0.873,-0.188c0.003,0.403 -0.084,0.781 -0.262,1.136c-0.177,0.354 -0.427,0.649 -0.749,0.885l-0.08,0.058l-1,-1.367Z" style="fill:#fff;fill-rule:nonzero;"/><path d="M68.37,30.576c0.19,-0.138 0.313,-0.325 0.37,-0.56c0.056,-0.234 0.034,-0.46 -0.068,-0.677l-1.572,1.149c0.175,0.163 0.384,0.253 0.625,0.27c0.24,0.018 0.455,-0.043 0.645,-0.182Zm-2.858,2.08l0.848,-0.62c0.186,-0.136 0.291,-0.308 0.316,-0.516c0.025,-0.208 -0.032,-0.407 -0.17,-0.597l-1.474,1.076l-0.909,-1.244l1.473,-1.076l-0.145,-0.199l0.681,-0.497l0.145,0.198l2.08,-1.52l1.122,1.535c0.304,0.417 0.454,0.877 0.449,1.381c-0.008,0.544 -0.218,0.967 -0.631,1.268c-0.247,0.181 -0.521,0.277 -0.821,0.287c-0.299,0.01 -0.59,-0.053 -0.873,-0.188c0.003,0.403 -0.084,0.781 -0.262,1.136c-0.177,0.354 -0.427,0.649 -0.749,0.885l-0.08,0.058l-1,-1.367Z" style="fill:none;stroke:#231f20;stroke-width:0.35px;"/><path d="M71.108,36.142c-0.184,0.035 -0.369,0.045 -0.553,0.03c-0.185,-0.014 -0.364,-0.054 -0.539,-0.12c-0.174,-0.066 -0.334,-0.159 -0.479,-0.279l-1.623,0.867l-0.722,-1.353l1.623,-0.866c-0.015,-0.19 -0.002,-0.376 0.036,-0.559c0.038,-0.183 0.102,-0.354 0.19,-0.514c0.089,-0.16 0.199,-0.306 0.332,-0.438c0.132,-0.132 0.281,-0.242 0.448,-0.331l1.454,-0.777l0.723,1.352l-2.17,1.16c-0.095,0.051 -0.158,0.126 -0.188,0.227c-0.031,0.1 -0.021,0.197 0.03,0.292c0.05,0.095 0.126,0.157 0.226,0.188c0.1,0.03 0.198,0.02 0.293,-0.03l2.17,-1.161l0.723,1.353l-1.454,0.777c-0.162,0.087 -0.336,0.147 -0.52,0.182Z" style="fill:#fff;fill-rule:nonzero;"/><path d="M71.108,36.142c-0.184,0.035 -0.369,0.045 -0.553,0.03c-0.185,-0.014 -0.364,-0.054 -0.539,-0.12c-0.174,-0.066 -0.334,-0.159 -0.479,-0.279l-1.623,0.867l-0.722,-1.353l1.623,-0.866c-0.015,-0.19 -0.002,-0.376 0.036,-0.559c0.038,-0.183 0.102,-0.354 0.19,-0.514c0.089,-0.16 0.199,-0.306 0.332,-0.438c0.132,-0.132 0.281,-0.242 0.448,-0.331l1.454,-0.777l0.723,1.352l-2.17,1.16c-0.095,0.051 -0.158,0.126 -0.188,0.227c-0.031,0.1 -0.021,0.197 0.03,0.292c0.05,0.095 0.126,0.157 0.226,0.188c0.1,0.03 0.198,0.02 0.293,-0.03l2.17,-1.161l0.723,1.353l-1.454,0.777c-0.162,0.087 -0.336,0.147 -0.52,0.182Z" style="fill:none;stroke:#231f20;stroke-width:0.35px;"/></g></g><path d="M13.792,62.001c0.112,-0.042 0.221,-0.094 0.327,-0.155c0.207,-0.12 0.387,-0.272 0.536,-0.45c0.149,-0.181 0.269,-0.383 0.356,-0.601c0.086,-0.216 0.13,-0.446 0.13,-0.684c0,-0.233 -0.043,-0.455 -0.131,-0.68c-0.086,-0.221 -0.207,-0.424 -0.361,-0.603c-0.154,-0.181 -0.336,-0.337 -0.544,-0.465c-0.1,-0.062 -0.205,-0.114 -0.313,-0.157l0,3.795Zm1.333,6.678l0,-2.749c0,-0.228 -0.04,-0.44 -0.119,-0.628c-0.078,-0.185 -0.188,-0.34 -0.333,-0.474c-0.145,-0.132 -0.32,-0.24 -0.52,-0.317c-0.115,-0.043 -0.236,-0.074 -0.361,-0.093l0,4.261l-4.188,0l0,-4.282l-0.583,0l0,-2.545l0.583,0l0,-6.045l4.735,0c0.654,0 1.294,0.109 1.901,0.323c0.604,0.213 1.145,0.513 1.608,0.892c0.466,0.38 0.844,0.839 1.125,1.363c0.285,0.535 0.43,1.116 0.43,1.726c0,0.719 -0.212,1.406 -0.63,2.044c-0.337,0.515 -0.778,0.958 -1.315,1.321c0.65,0.528 1.169,1.167 1.547,1.905c0.442,0.862 0.666,1.794 0.666,2.771l0,0.527l-4.546,0Z" style="fill:#fff56c;fill-rule:nonzero;"/><path d="M14.08,61.531l0,-2.839c0.13,0.094 0.247,0.202 0.349,0.322c0.134,0.155 0.238,0.33 0.312,0.521c0.075,0.192 0.111,0.38 0.111,0.576c0,0.202 -0.036,0.395 -0.108,0.574c-0.077,0.194 -0.181,0.37 -0.311,0.528c-0.101,0.121 -0.219,0.227 -0.353,0.318Zm0.259,-6.012l-4.447,0l-0.576,0l0,6.044l-0.006,0l-0.577,0l0,3.122l0.583,0l0,4.283l4.764,0l0,-0.577l0,-3.599c0.151,0.062 0.286,0.146 0.399,0.249c0.114,0.104 0.2,0.228 0.263,0.375c0.063,0.15 0.095,0.324 0.095,0.514l0,3.038l5.122,0l0,-0.577l0,-0.239c0,-1.023 -0.235,-2 -0.698,-2.903c-0.34,-0.664 -0.789,-1.251 -1.339,-1.754c0.433,-0.34 0.799,-0.735 1.092,-1.182c0.449,-0.685 0.677,-1.426 0.677,-2.202c0,-0.658 -0.156,-1.284 -0.464,-1.862c-0.299,-0.558 -0.701,-1.046 -1.197,-1.45c-0.489,-0.4 -1.059,-0.717 -1.694,-0.941c-0.638,-0.225 -1.31,-0.339 -1.997,-0.339Zm-0.835,6.859c0.268,-0.05 0.521,-0.144 0.76,-0.283c0.239,-0.139 0.443,-0.311 0.612,-0.515c0.169,-0.203 0.304,-0.429 0.403,-0.68c0.099,-0.247 0.149,-0.512 0.149,-0.789c0,-0.27 -0.05,-0.53 -0.149,-0.784c-0.099,-0.254 -0.237,-0.483 -0.411,-0.687c-0.173,-0.203 -0.378,-0.378 -0.611,-0.522c-0.234,-0.144 -0.485,-0.242 -0.753,-0.292l0,4.552Zm0.835,-6.282c0.627,0 1.228,0.102 1.805,0.306c0.577,0.203 1.084,0.485 1.522,0.843c0.438,0.358 0.789,0.783 1.052,1.276c0.263,0.492 0.397,1.022 0.397,1.59c0,0.665 -0.195,1.294 -0.583,1.886c-0.388,0.593 -0.916,1.078 -1.582,1.456c0.777,0.547 1.376,1.234 1.798,2.06c0.424,0.825 0.635,1.704 0.635,2.639l0,0.239l-3.97,0l0,-2.461c0,-0.268 -0.047,-0.516 -0.141,-0.739c-0.095,-0.224 -0.23,-0.415 -0.404,-0.575c-0.173,-0.158 -0.378,-0.283 -0.611,-0.374c-0.234,-0.088 -0.485,-0.133 -0.753,-0.133l0,4.282l-3.612,0l0,-4.282l-0.582,0l0,-1.969l0.582,0l0,-6.044l4.447,0Z" style="fill:#231f20;fill-rule:nonzero;"/><path d="M20.542,68.679l0,-3.55l-0.552,0l0,-2.218l0.552,0l0,-5.015l8.172,0l0,1.98l-4.611,0l0,3.035l1.357,0l0,2.218l-1.357,0l0,1.572l4.611,0l0,1.978l-8.172,0Z" style="fill:#fff56c;fill-rule:nonzero;"/><path d="M29.002,57.608l-0.576,0l-7.596,0l-0.576,0l0,5.015l-0.552,0l0,2.794l0.552,0l0,3.551l8.748,0l0,-0.577l0,-1.402l0,-0.576l-0.576,0l-4.035,0l0,-0.996l1.357,0l0,-0.577l0,-1.641l0,-0.576l-0.576,0l-0.781,0l0,-2.459l4.611,0l0,-0.576l0,-1.404l0,-0.576Zm-0.576,0.576l0,1.404l-4.611,0l0,3.611l1.357,0l0,1.641l-1.357,0l0,2.149l4.611,0l0,1.402l-7.596,0l0,-3.551l-0.552,0l0,-1.641l0.552,0l0,-5.015l7.596,0Z" style="fill:#231f20;fill-rule:nonzero;"/><path d="M33.509,68.679l0,-8.345c0,-0.133 -0.041,-0.236 -0.131,-0.326c-0.09,-0.09 -0.195,-0.132 -0.326,-0.132c-0.131,0 -0.231,0.041 -0.316,0.129c-0.087,0.09 -0.128,0.194 -0.128,0.329l0,8.345l-3.576,0l0,-10.783l3.576,0l0,0.321c0.42,-0.213 0.878,-0.321 1.369,-0.321c0.412,0 0.814,0.084 1.195,0.248c0.377,0.164 0.711,0.391 0.993,0.673c0.283,0.284 0.509,0.614 0.672,0.982c0.165,0.374 0.248,0.775 0.248,1.191l0,7.689l-3.576,0Z" style="fill:#fff56c;fill-rule:nonzero;"/><path d="M33.977,57.608c-0.379,0 -0.74,0.058 -1.081,0.175l0,-0.175l-0.576,0l-3,0l-0.576,0l0,11.36l4.152,0l0,-0.577l0,-8.057c0,-0.068 0.017,-0.098 0.047,-0.129c0.023,-0.024 0.044,-0.041 0.109,-0.041c0.063,0 0.091,0.017 0.124,0.05c0.029,0.028 0.046,0.057 0.046,0.12l0,8.634l4.151,0l0,-0.577l0,-7.401c0,-0.457 -0.091,-0.897 -0.273,-1.307c-0.177,-0.401 -0.423,-0.761 -0.731,-1.069c-0.308,-0.309 -0.671,-0.556 -1.08,-0.734c-0.42,-0.181 -0.86,-0.272 -1.312,-0.272Zm0,0.576c0.378,0 0.738,0.076 1.081,0.225c0.343,0.149 0.644,0.352 0.903,0.612c0.258,0.259 0.463,0.557 0.612,0.895c0.15,0.338 0.224,0.697 0.224,1.074l0,7.401l-2.999,0l0,-8.057c0,-0.209 -0.072,-0.386 -0.216,-0.53c-0.146,-0.144 -0.321,-0.216 -0.53,-0.216c-0.21,0 -0.384,0.072 -0.523,0.216c-0.14,0.144 -0.209,0.321 -0.209,0.53l0,8.057l-3,0l0,-10.207l3,0l0,0.553c0.487,-0.368 1.039,-0.553 1.657,-0.553Z" style="fill:#231f20;fill-rule:nonzero;"/><path d="M39.912,68.679l0,-8.803l-2.508,0l0,-1.98l8.575,0l0,1.98l-2.493,0l0,8.803l-3.574,0Z" style="fill:#fff56c;fill-rule:nonzero;"/><path d="M46.267,57.608l-0.576,0l-7.999,0l-0.576,0l0,2.556l2.508,0l0,8.804l4.15,0l0,-0.577l0,-8.227l2.493,0l0,-0.576l0,-1.404l0,-0.576Zm-0.576,0.576l0,1.404l-2.493,0l0,8.803l-2.998,0l0,-8.803l-2.508,0l0,-1.404l7.999,0Z" style="fill:#231f20;fill-rule:nonzero;"/><path d="M51.327,62.911l0,-2.577c0,-0.132 -0.042,-0.235 -0.132,-0.325c-0.091,-0.091 -0.189,-0.133 -0.312,-0.133c-0.132,0 -0.235,0.042 -0.323,0.131c-0.093,0.091 -0.134,0.194 -0.134,0.327l0,2.577l0.901,0Zm0,5.768l0,-3.55l-0.901,0l0,3.55l-3.576,0l0,-3.55l-0.552,0l0,-2.218l0.552,0l0,-0.995c0,-1.089 0.4,-2.041 1.188,-2.83c0.789,-0.789 1.746,-1.19 2.845,-1.19c1.089,0 2.042,0.401 2.83,1.19c0.789,0.788 1.189,1.74 1.189,2.83l0,6.763l-3.575,0Z" style="fill:#fff56c;fill-rule:nonzero;"/><path d="M50.714,62.623l0,-2.289c0,-0.063 0.015,-0.089 0.045,-0.119c0.034,-0.034 0.062,-0.051 0.124,-0.051c0.04,0 0.067,0.007 0.105,0.046c0.034,0.034 0.051,0.062 0.051,0.124l0,2.289l-0.325,0Zm0.169,-5.015c-1.178,0 -2.204,0.429 -3.049,1.274c-0.844,0.845 -1.272,1.866 -1.272,3.034l0,0.707l-0.553,0l0,2.794l0.553,0l0,3.551l4.152,0l0,-0.577l0,-2.974l0.325,0l0,3.551l4.151,0l0,-0.577l0,-6.475c0,-1.169 -0.428,-2.19 -1.273,-3.034c-0.845,-0.845 -1.866,-1.274 -3.034,-1.274Zm-0.746,5.591l1.478,0l0,-2.865c0,-0.209 -0.073,-0.386 -0.218,-0.53c-0.143,-0.144 -0.314,-0.216 -0.514,-0.216c-0.207,0 -0.385,0.072 -0.528,0.216c-0.146,0.144 -0.218,0.321 -0.218,0.53l0,2.865Zm0.746,-5.015c1.015,0 1.89,0.369 2.627,1.106c0.736,0.736 1.104,1.61 1.104,2.626l0,6.475l-2.999,0l0,-3.551l-1.478,0l0,3.551l-2.999,0l0,-3.551l-0.552,0l0,-1.641l0.552,0l0,-1.283c0,-1.016 0.368,-1.89 1.104,-2.626c0.736,-0.737 1.616,-1.106 2.641,-1.106Z" style="fill:#231f20;fill-rule:nonzero;"/><path d="M55.222,68.679l0,-10.783l3.56,0l0,8.805l4.611,0l0,1.978l-8.171,0Z" style="fill:#fff56c;fill-rule:nonzero;"/><path d="M59.07,57.608l-0.576,0l-2.984,0l-0.576,0l0,11.36l8.747,0l0,-0.577l0,-1.402l0,-0.576l-0.576,0l-4.035,0l0,-8.229l0,-0.576Zm-0.576,0.576l0,8.805l4.611,0l0,1.402l-7.595,0l0,-10.207l2.984,0Z" style="fill:#231f20;fill-rule:nonzero;"/><path d="M63.712,68.679l0,-1.978l3.869,0c0.083,0 0.146,-0.027 0.207,-0.087c0.062,-0.062 0.088,-0.123 0.088,-0.207c0,-0.078 -0.021,-0.142 -0.065,-0.201l-3.367,-4.399c-0.327,-0.428 -0.493,-0.918 -0.493,-1.458c0,-0.334 0.065,-0.654 0.194,-0.951c0.131,-0.291 0.309,-0.551 0.531,-0.775c0.223,-0.222 0.483,-0.4 0.773,-0.53c0.298,-0.131 0.618,-0.197 0.954,-0.197l5.511,0l0,1.98l-3.871,0c-0.081,0 -0.145,0.027 -0.206,0.088c-0.06,0.059 -0.086,0.122 -0.086,0.206c0,0.101 0.031,0.149 0.059,0.18l0.015,0.017l3.359,4.403c0.158,0.226 0.28,0.453 0.368,0.683c0.092,0.245 0.138,0.506 0.138,0.776c0,0.326 -0.066,0.643 -0.197,0.943c-0.126,0.295 -0.305,0.559 -0.531,0.782c-0.222,0.224 -0.486,0.403 -0.782,0.531c-0.299,0.129 -0.62,0.194 -0.957,0.194l-5.511,0Z" style="fill:#fff56c;fill-rule:nonzero;"/><path d="M72.202,57.608l-0.577,0l-5.222,0c-0.376,0 -0.736,0.074 -1.069,0.221c-0.325,0.145 -0.613,0.343 -0.86,0.589c-0.249,0.251 -0.447,0.539 -0.59,0.858c-0.148,0.341 -0.221,0.7 -0.221,1.073c0,0.604 0.186,1.154 0.551,1.632l3.367,4.398c0.005,0.007 0.007,0.011 0.007,0.027c-0.001,0.001 -0.001,0.001 -0.002,0.002l-0.005,0.005l-3.581,0l-0.576,0l0,2.555l5.799,0c0.376,0 0.736,-0.074 1.071,-0.218c0.331,-0.143 0.625,-0.343 0.875,-0.594c0.248,-0.247 0.447,-0.541 0.59,-0.872c0.145,-0.333 0.219,-0.69 0.219,-1.055c0,-0.304 -0.052,-0.598 -0.155,-0.874c-0.099,-0.258 -0.232,-0.505 -0.397,-0.741l-0.006,-0.009l-0.008,-0.009l-3.358,-4.403l-0.014,-0.018l-0.001,-0.001c0,-0.002 0,-0.003 0,-0.004c0.002,-0.002 0.004,-0.004 0.005,-0.006l3.581,0l0.577,0l0,-0.576l0,-1.404l0,-0.576Zm-0.577,0.576l0,1.404l-3.582,0c-0.159,0 -0.294,0.058 -0.409,0.171c-0.116,0.115 -0.171,0.252 -0.171,0.411c0,0.15 0.044,0.273 0.133,0.372l3.358,4.403c0.14,0.199 0.249,0.402 0.329,0.611c0.079,0.21 0.119,0.433 0.119,0.673c0,0.287 -0.058,0.564 -0.173,0.828c-0.113,0.262 -0.27,0.495 -0.47,0.693c-0.197,0.199 -0.43,0.357 -0.693,0.471c-0.264,0.114 -0.544,0.17 -0.843,0.17l-5.223,0l0,-1.402l3.581,0c0.159,0 0.297,-0.058 0.411,-0.172c0.115,-0.114 0.172,-0.25 0.172,-0.41c0,-0.14 -0.04,-0.263 -0.121,-0.372l-3.371,-4.403c-0.288,-0.378 -0.432,-0.806 -0.432,-1.283c0,-0.298 0.057,-0.577 0.169,-0.836c0.116,-0.258 0.273,-0.487 0.472,-0.687c0.198,-0.198 0.428,-0.355 0.686,-0.47c0.259,-0.114 0.537,-0.172 0.836,-0.172l5.222,0Z" style="fill:#231f20;fill-rule:nonzero;"/><g transform="matrix(0.828119,0,0,0.820696,34.4865,20.976)"><path d="M85.668,30.355c0,-0.845 -0.216,-1.484 -0.648,-1.916c-0.432,-0.432 -1.218,-0.88 -2.357,-1.346c-2.079,-0.788 -3.575,-1.711 -4.486,-2.77c-0.911,-1.058 -1.367,-2.309 -1.367,-3.752c0,-1.747 0.619,-3.15 1.858,-4.209c1.239,-1.058 2.813,-1.588 4.721,-1.588c1.273,0 2.407,0.269 3.404,0.805c0.997,0.537 1.764,1.294 2.3,2.272c0.537,0.978 0.805,2.088 0.805,3.332l-4.173,0c0,-0.968 -0.206,-1.706 -0.619,-2.214c-0.413,-0.508 -1.009,-0.762 -1.788,-0.762c-0.731,0 -1.301,0.216 -1.709,0.648c-0.408,0.432 -0.612,1.013 -0.612,1.744c0,0.57 0.228,1.085 0.683,1.545c0.456,0.461 1.263,0.938 2.421,1.432c2.023,0.731 3.492,1.628 4.408,2.691c0.916,1.064 1.375,2.417 1.375,4.059c0,1.804 -0.575,3.214 -1.724,4.23c-1.148,1.016 -2.71,1.524 -4.685,1.524c-1.339,0 -2.559,-0.276 -3.66,-0.826c-1.102,-0.551 -1.963,-1.339 -2.585,-2.364c-0.622,-1.026 -0.933,-2.236 -0.933,-3.632l4.201,0c0,1.196 0.233,2.065 0.698,2.606c0.465,0.541 1.225,0.812 2.279,0.812c1.462,0 2.193,-0.774 2.193,-2.321Z" style="fill:#fff;fill-rule:nonzero;"/><path d="M106.147,15.059l0,14.356c-0.019,2.155 -0.612,3.805 -1.78,4.949c-1.168,1.144 -2.843,1.716 -5.027,1.716c-2.222,0 -3.919,-0.579 -5.091,-1.738c-1.173,-1.158 -1.759,-2.834 -1.759,-5.027l0,-14.256l4.215,0l0,14.27c0,1.178 0.19,2.018 0.57,2.521c0.38,0.503 1.068,0.755 2.065,0.755c0.997,0 1.68,-0.249 2.051,-0.748c0.37,-0.498 0.56,-1.317 0.569,-2.456l0,-14.342l4.187,0Z" style="fill:#fff;fill-rule:nonzero;"/><path d="M113.51,28.503l0,7.292l-4.187,0l0,-20.736l7.064,0c2.051,0 3.686,0.636 4.906,1.909c1.22,1.272 1.83,2.924 1.83,4.956c0,2.031 -0.603,3.636 -1.808,4.813c-1.206,1.178 -2.877,1.766 -5.013,1.766l-2.792,0Zm0,-3.489l2.877,0c0.798,0 1.415,-0.261 1.851,-0.783c0.437,-0.522 0.656,-1.282 0.656,-2.279c0,-1.035 -0.224,-1.858 -0.67,-2.471c-0.446,-0.612 -1.044,-0.923 -1.794,-0.933l-2.92,0l0,6.466Z" style="fill:#fff;fill-rule:nonzero;"/><path d="M130.102,28.503l0,7.292l-4.187,0l0,-20.736l7.063,0c2.051,0 3.687,0.636 4.907,1.909c1.22,1.272 1.83,2.924 1.83,4.956c0,2.031 -0.603,3.636 -1.809,4.813c-1.206,1.178 -2.877,1.766 -5.013,1.766l-2.791,0Zm0,-3.489l2.876,0c0.798,0 1.415,-0.261 1.852,-0.783c0.437,-0.522 0.655,-1.282 0.655,-2.279c0,-1.035 -0.223,-1.858 -0.669,-2.471c-0.447,-0.612 -1.045,-0.923 -1.795,-0.933l-2.919,0l0,6.466Z" style="fill:#fff;fill-rule:nonzero;"/><path d="M157.104,27.293c0,2.782 -0.658,4.942 -1.973,6.48c-1.315,1.538 -3.14,2.307 -5.476,2.307c-2.326,0 -4.153,-0.762 -5.483,-2.286c-1.329,-1.524 -2.003,-3.658 -2.022,-6.402l0,-3.546c0,-2.848 0.66,-5.072 1.98,-6.672c1.319,-1.6 3.152,-2.4 5.497,-2.4c2.307,0 4.125,0.786 5.454,2.357c1.33,1.572 2.004,3.777 2.023,6.616l0,3.546Zm-4.202,-3.475c0,-1.871 -0.265,-3.261 -0.797,-4.173c-0.532,-0.911 -1.358,-1.367 -2.478,-1.367c-1.111,0 -1.932,0.439 -2.464,1.317c-0.532,0.878 -0.807,2.215 -0.826,4.009l0,3.689c0,1.813 0.271,3.15 0.812,4.009c0.541,0.859 1.376,1.289 2.506,1.289c1.092,0 1.904,-0.421 2.436,-1.261c0.531,-0.84 0.802,-2.143 0.811,-3.909l0,-3.603Z" style="fill:#fff;fill-rule:nonzero;"/><path d="M166.389,28.218l-2.079,0l0,7.577l-4.187,0l0,-20.736l6.679,0c2.098,0 3.72,0.544 4.864,1.631c1.144,1.087 1.716,2.632 1.716,4.636c0,2.753 -1.002,4.68 -3.005,5.782l3.631,8.488l0,0.199l-4.5,0l-3.119,-7.577Zm-2.079,-3.489l2.378,0c0.836,0 1.462,-0.277 1.88,-0.833c0.418,-0.555 0.627,-1.298 0.627,-2.229c0,-2.079 -0.812,-3.119 -2.436,-3.119l-2.449,0l0,6.181Z" style="fill:#fff;fill-rule:nonzero;"/><path d="M188.976,18.548l-5.127,0l0,17.247l-4.201,0l0,-17.247l-5.042,0l0,-3.489l14.37,0l0,3.489Z" style="fill:#fff;fill-rule:nonzero;"/><path d="M90.767,57.67l0,7.292l-4.187,0l0,-20.736l7.063,0c2.051,0 3.687,0.636 4.907,1.908c1.22,1.273 1.83,2.925 1.83,4.956c0,2.032 -0.603,3.637 -1.809,4.814c-1.206,1.177 -2.877,1.766 -5.013,1.766l-2.791,0Zm0,-3.489l2.876,0c0.798,0 1.415,-0.261 1.852,-0.784c0.436,-0.522 0.655,-1.281 0.655,-2.278c0,-1.035 -0.223,-1.859 -0.67,-2.471c-0.446,-0.612 -1.044,-0.923 -1.794,-0.933l-2.919,0l0,6.466Z" style="fill:#fff;fill-rule:nonzero;"/><path d="M117.768,56.459c0,2.782 -0.657,4.942 -1.972,6.48c-1.315,1.538 -3.14,2.307 -5.476,2.307c-2.326,0 -4.154,-0.761 -5.483,-2.285c-1.329,-1.524 -2.003,-3.658 -2.022,-6.402l0,-3.546c0,-2.848 0.66,-5.072 1.979,-6.672c1.32,-1.6 3.153,-2.4 5.498,-2.4c2.307,0 4.125,0.786 5.454,2.357c1.329,1.571 2.003,3.776 2.022,6.615l0,3.546Zm-4.201,-3.475c0,-1.87 -0.266,-3.261 -0.797,-4.172c-0.532,-0.912 -1.358,-1.367 -2.478,-1.367c-1.111,0 -1.932,0.439 -2.464,1.317c-0.532,0.878 -0.807,2.214 -0.826,4.009l0,3.688c0,1.814 0.27,3.15 0.812,4.009c0.541,0.86 1.376,1.289 2.506,1.289c1.092,0 1.904,-0.42 2.435,-1.26c0.532,-0.84 0.803,-2.143 0.812,-3.909l0,-3.604Z" style="fill:#fff;fill-rule:nonzero;"/><path d="M127.054,57.385l-2.079,0l0,7.577l-4.187,0l0,-20.736l6.679,0c2.098,0 3.719,0.543 4.863,1.631c1.145,1.087 1.717,2.632 1.717,4.635c0,2.754 -1.002,4.681 -3.005,5.782l3.631,8.488l0,0.2l-4.5,0l-3.119,-7.577Zm-2.079,-3.489l2.378,0c0.836,0 1.462,-0.278 1.88,-0.833c0.418,-0.556 0.627,-1.299 0.627,-2.229c0,-2.079 -0.812,-3.119 -2.436,-3.119l-2.449,0l0,6.181Z" style="fill:#fff;fill-rule:nonzero;"/><path d="M149.641,47.715l-5.127,0l0,17.247l-4.201,0l0,-17.247l-5.042,0l0,-3.489l14.37,0l0,3.489Z" style="fill:#fff;fill-rule:nonzero;"/><path d="M160.237,60.718l-5.711,0l-1.111,4.244l-4.429,0l6.48,-20.736l3.831,0l6.522,20.736l-4.471,0l-1.111,-4.244Zm-4.8,-3.49l3.874,0l-1.937,-7.391l-1.937,7.391Z" style="fill:#fff;fill-rule:nonzero;"/><path d="M171.943,61.487l7.349,0l0,3.475l-11.536,0l0,-20.736l4.187,0l0,17.261Z" style="fill:#fff;fill-rule:nonzero;"/></g><rect x="86.955" y="10.991" width="2.831" height="79.07" style="fill:#fff;"/><g transform="matrix(0.828119,0,0,0.820696,142.007,21.1495)"><path d="M99.696,35.795l-4.173,0l0,-8.873l-6.181,0l0,8.873l-4.187,0l0,-20.736l4.187,0l0,8.389l6.181,0l0,-8.389l4.173,0l0,20.736Z" style="fill:#fff;fill-rule:nonzero;"/><path d="M117.655,27.293c0,2.782 -0.658,4.942 -1.973,6.48c-1.315,1.538 -3.14,2.307 -5.476,2.307c-2.326,0 -4.154,-0.762 -5.483,-2.286c-1.329,-1.524 -2.003,-3.658 -2.022,-6.402l0,-3.546c0,-2.848 0.66,-5.072 1.98,-6.672c1.319,-1.6 3.152,-2.4 5.497,-2.4c2.307,0 4.125,0.786 5.454,2.357c1.329,1.572 2.004,3.777 2.023,6.616l0,3.546Zm-4.202,-3.475c0,-1.871 -0.266,-3.261 -0.797,-4.173c-0.532,-0.911 -1.358,-1.367 -2.478,-1.367c-1.111,0 -1.932,0.439 -2.464,1.317c-0.532,0.878 -0.807,2.215 -0.826,4.009l0,3.689c0,1.813 0.271,3.15 0.812,4.009c0.541,0.859 1.376,1.289 2.506,1.289c1.092,0 1.904,-0.421 2.436,-1.261c0.531,-0.84 0.802,-2.143 0.811,-3.909l0,-3.603Z" style="fill:#fff;fill-rule:nonzero;"/><path d="M134.146,15.059l0,14.356c-0.019,2.155 -0.612,3.805 -1.78,4.949c-1.168,1.144 -2.843,1.716 -5.027,1.716c-2.222,0 -3.919,-0.579 -5.092,-1.738c-1.172,-1.158 -1.758,-2.834 -1.758,-5.027l0,-14.256l4.215,0l0,14.27c0,1.178 0.19,2.018 0.57,2.521c0.38,0.503 1.068,0.755 2.065,0.755c0.997,0 1.68,-0.249 2.051,-0.748c0.37,-0.498 0.56,-1.317 0.569,-2.456l0,-14.342l4.187,0Z" style="fill:#fff;fill-rule:nonzero;"/><path d="M146.081,30.355c0,-0.845 -0.216,-1.484 -0.648,-1.916c-0.432,-0.432 -1.218,-0.88 -2.357,-1.346c-2.08,-0.788 -3.575,-1.711 -4.486,-2.77c-0.912,-1.058 -1.368,-2.309 -1.368,-3.752c0,-1.747 0.62,-3.15 1.859,-4.209c1.239,-1.058 2.813,-1.588 4.721,-1.588c1.272,0 2.407,0.269 3.404,0.805c0.997,0.537 1.763,1.294 2.3,2.272c0.536,0.978 0.804,2.088 0.804,3.332l-4.172,0c0,-0.968 -0.207,-1.706 -0.62,-2.214c-0.413,-0.508 -1.009,-0.762 -1.787,-0.762c-0.731,0 -1.301,0.216 -1.709,0.648c-0.408,0.432 -0.613,1.013 -0.613,1.744c0,0.57 0.228,1.085 0.684,1.545c0.456,0.461 1.263,0.938 2.421,1.432c2.022,0.731 3.492,1.628 4.408,2.691c0.916,1.064 1.374,2.417 1.374,4.059c0,1.804 -0.574,3.214 -1.723,4.23c-1.149,1.016 -2.711,1.524 -4.686,1.524c-1.338,0 -2.558,-0.276 -3.66,-0.826c-1.101,-0.551 -1.963,-1.339 -2.584,-2.364c-0.622,-1.026 -0.933,-2.236 -0.933,-3.632l4.201,0c0,1.196 0.233,2.065 0.698,2.606c0.465,0.541 1.225,0.812 2.278,0.812c1.463,0 2.194,-0.774 2.194,-2.321Z" style="fill:#fff;fill-rule:nonzero;"/><path d="M163.783,26.823l-6.523,0l0,5.497l7.719,0l0,3.475l-11.906,0l0,-20.736l11.878,0l0,3.489l-7.691,0l0,4.9l6.523,0l0,3.375Z" style="fill:#fff;fill-rule:nonzero;"/><path d="M176.145,30.355c0,-0.845 -0.216,-1.484 -0.648,-1.916c-0.432,-0.432 -1.218,-0.88 -2.357,-1.346c-2.08,-0.788 -3.575,-1.711 -4.487,-2.77c-0.911,-1.058 -1.367,-2.309 -1.367,-3.752c0,-1.747 0.62,-3.15 1.859,-4.209c1.239,-1.058 2.813,-1.588 4.721,-1.588c1.272,0 2.407,0.269 3.404,0.805c0.997,0.537 1.763,1.294 2.3,2.272c0.536,0.978 0.804,2.088 0.804,3.332l-4.172,0c0,-0.968 -0.207,-1.706 -0.62,-2.214c-0.413,-0.508 -1.009,-0.762 -1.787,-0.762c-0.731,0 -1.301,0.216 -1.709,0.648c-0.409,0.432 -0.613,1.013 -0.613,1.744c0,0.57 0.228,1.085 0.684,1.545c0.456,0.461 1.263,0.938 2.421,1.432c2.022,0.731 3.492,1.628 4.408,2.691c0.916,1.064 1.374,2.417 1.374,4.059c0,1.804 -0.574,3.214 -1.723,4.23c-1.149,1.016 -2.711,1.524 -4.686,1.524c-1.338,0 -2.558,-0.276 -3.66,-0.826c-1.101,-0.551 -1.963,-1.339 -2.585,-2.364c-0.621,-1.026 -0.932,-2.236 -0.932,-3.632l4.201,0c0,1.196 0.232,2.065 0.698,2.606c0.465,0.541 1.224,0.812 2.278,0.812c1.462,0 2.194,-0.774 2.194,-2.321Z" style="fill:#fff;fill-rule:nonzero;"/><path d="M81.403,59.379c0,-0.978 0.22,-1.863 0.662,-2.656c0.441,-0.793 1.27,-1.688 2.485,-2.685c-0.522,-0.826 -0.935,-1.607 -1.239,-2.342c-0.304,-0.736 -0.456,-1.498 -0.456,-2.286c0,-1.624 0.451,-2.941 1.353,-3.952c0.902,-1.011 2.108,-1.517 3.618,-1.517c1.357,0 2.475,0.468 3.354,1.403c0.878,0.935 1.317,2.082 1.317,3.439c0,1.804 -0.755,3.309 -2.265,4.515l-1.139,0.926l2.663,3.717c0.333,-0.978 0.499,-2.032 0.499,-3.162l3.404,0c0,2.668 -0.523,4.814 -1.567,6.437l2.677,3.746l-4.571,0l-0.769,-1.083c-1.225,0.912 -2.64,1.367 -4.244,1.367c-1.747,0 -3.148,-0.536 -4.201,-1.609c-1.054,-1.073 -1.581,-2.492 -1.581,-4.258Zm5.995,2.535c0.75,0 1.458,-0.247 2.122,-0.741l-3.275,-4.628l-0.086,0.071c-0.474,0.731 -0.712,1.571 -0.712,2.521c0,0.797 0.188,1.46 0.563,1.987c0.375,0.526 0.838,0.79 1.388,0.79Zm-0.954,-12.575c0,0.674 0.323,1.5 0.969,2.478l0.669,-0.513c0.399,-0.304 0.684,-0.62 0.854,-0.947c0.171,-0.328 0.257,-0.767 0.257,-1.317c0,-0.494 -0.135,-0.909 -0.406,-1.247c-0.271,-0.337 -0.596,-0.505 -0.976,-0.505c-0.417,0 -0.75,0.187 -0.996,0.562c-0.247,0.375 -0.371,0.872 -0.371,1.489Z" style="fill:#fff;fill-rule:nonzero;"/><path d="M120.254,56.459c0,2.782 -0.658,4.942 -1.973,6.48c-1.315,1.538 -3.14,2.307 -5.476,2.307c-2.326,0 -4.153,-0.761 -5.483,-2.285c-1.329,-1.524 -2.003,-3.658 -2.022,-6.402l0,-3.546c0,-2.848 0.66,-5.072 1.98,-6.672c1.319,-1.6 3.152,-2.4 5.497,-2.4c2.307,0 4.125,0.786 5.454,2.357c1.33,1.571 2.004,3.776 2.023,6.615l0,3.546Zm-4.202,-3.475c0,-1.87 -0.265,-3.261 -0.797,-4.172c-0.532,-0.912 -1.358,-1.367 -2.478,-1.367c-1.111,0 -1.932,0.439 -2.464,1.317c-0.532,0.878 -0.807,2.214 -0.826,4.009l0,3.688c0,1.814 0.271,3.15 0.812,4.009c0.541,0.86 1.376,1.289 2.506,1.289c1.092,0 1.904,-0.42 2.436,-1.26c0.531,-0.84 0.802,-2.143 0.811,-3.909l0,-3.604Z" style="fill:#fff;fill-rule:nonzero;"/><path d="M135.478,47.715l-5.127,0l0,17.247l-4.201,0l0,-17.247l-5.042,0l0,-3.489l14.37,0l0,3.489Z" style="fill:#fff;fill-rule:nonzero;"/><path d="M152.425,64.962l-4.173,0l0,-8.873l-6.18,0l0,8.873l-4.187,0l0,-20.736l4.187,0l0,8.388l6.18,0l0,-8.388l4.173,0l0,20.736Z" style="fill:#fff;fill-rule:nonzero;"/><path d="M166.496,55.989l-6.523,0l0,5.498l7.719,0l0,3.475l-11.906,0l0,-20.736l11.878,0l0,3.489l-7.691,0l0,4.899l6.523,0l0,3.375Z" style="fill:#fff;fill-rule:nonzero;"/><path d="M176.38,57.385l-2.08,0l0,7.577l-4.187,0l0,-20.736l6.68,0c2.098,0 3.719,0.543 4.863,1.631c1.144,1.087 1.716,2.632 1.716,4.635c0,2.754 -1.002,4.681 -3.005,5.782l3.632,8.488l0,0.2l-4.501,0l-3.118,-7.577Zm-2.08,-3.489l2.379,0c0.835,0 1.462,-0.278 1.879,-0.833c0.418,-0.556 0.627,-1.299 0.627,-2.229c0,-2.079 -0.812,-3.119 -2.435,-3.119l-2.45,0l0,6.181Z" style="fill:#fff;fill-rule:nonzero;"/></g><rect x="198.865" y="10.991" width="2.831" height="79.07" style="fill:#fff;"/></g></g></svg>