<?xml version="1.0" encoding="UTF-8" standalone="no"?>
<!DOCTYPE svg PUBLIC "-//W3C//DTD SVG 1.1//EN" "http://www.w3.org/Graphics/SVG/1.1/DTD/svg11.dtd">
<svg width="100%" height="100%" viewBox="0 0 512 512" version="1.1" xmlns="http://www.w3.org/2000/svg" xmlns:xlink="http://www.w3.org/1999/xlink" xml:space="preserve" xmlns:serif="http://www.serif.com/" style="fill-rule:evenodd;clip-rule:evenodd;stroke-miterlimit:1.41421;">
    <g transform="matrix(1.23971,0,0,1.23971,0,0)">
        <g>
            <clipPath id="_clip1">
                <path d="M401.664,207.355C401.664,315.311 314.141,402.83 206.186,402.83C98.231,402.83 10.715,315.311 10.715,207.355C10.715,99.401 98.231,11.886 206.186,11.886C314.141,11.886 401.664,99.401 401.664,207.355Z"/>
            </clipPath>
            <g clip-path="url(#_clip1)">
                <path d="M353.865,207.435C353.865,289.008 287.74,355.133 206.176,355.133C124.607,355.133 58.486,289.008 58.486,207.435C58.486,125.872 124.607,59.754 206.176,59.754C287.74,59.754 353.865,125.872 353.865,207.435Z" style="fill:white;fill-rule:nonzero;"/>
                <path d="M353.865,207.435C353.865,289.008 287.74,355.133 206.176,355.133C124.607,355.133 58.486,289.008 58.486,207.435C58.486,125.872 124.607,59.754 206.176,59.754C287.74,59.754 353.865,125.872 353.865,207.435Z" style="fill:none;stroke:rgb(38,94,124);stroke-width:5.17px;"/>
                <path d="M45.844,170.607C45.844,170.607 47.675,161.753 58.985,159.913C62.041,160.224 63.874,166.028 66.624,166.333C69.375,166.639 71.206,159.304 76.402,160.224C81.595,161.137 85.874,167.557 90.154,167.254C95.138,166.891 101.759,160.162 108.182,161.444C114.298,162.664 114.298,162.664 121.631,163.278C128.961,163.888 152.799,157.774 171.438,159.61C190.079,161.444 199.244,165.723 204.443,165.109C209.637,164.5 216.056,158.388 221.556,159.61C227.057,160.835 236.227,163.888 241.113,164.198C246.007,164.5 290.004,155.637 303.147,160.527C322.7,163.278 347.15,184.667 347.15,184.667L347.15,199.441L49.204,199.441L45.844,170.607Z" style="fill:rgb(219,228,231);fill-rule:nonzero;"/>
                <path d="M152.491,178.557C152.491,178.557 180.303,177.029 187.328,173.973C194.357,170.918 229.809,179.474 235.612,176.723C241.422,173.973 241.113,173.362 246.007,172.447C250.89,171.529 288.477,175.498 295.204,177.335C301.927,179.168 312.012,182.834 321.482,181.003C326.066,180.087 335.848,177.948 342.872,177.948C349.9,177.948 362.736,186.196 362.736,186.196L366.199,199.441L151.885,199.441L152.491,178.557Z" style="fill:rgb(173,201,218);fill-rule:nonzero;"/>
                <path d="M47.675,183.138C47.675,183.138 59.289,177.948 67.844,180.087C92.597,183.138 97.179,180.693 107.878,174.278C114.908,171.529 126.211,181.308 133.547,179.474C140.88,177.641 142.101,176.723 147.295,175.808C165.005,173.873 213.338,196.254 252.723,189.09C292.104,181.928 414.731,200.726 414.731,200.726L386.091,304.56L49.204,204.53L47.675,183.138Z" style="fill:rgb(94,133,165);fill-rule:nonzero;"/>
                <path d="M40.584,211.465C40.584,211.465 73.702,193.563 108.611,191.774C143.518,189.987 155.158,224.003 182.011,225.792C208.86,227.581 226.766,215.048 256.303,215.946C312.69,227.581 394.145,269.651 394.145,269.651L347.599,342.158L244.667,408.388L103.239,362.741L40.584,211.465Z" style="fill:rgb(38,94,124);fill-rule:nonzero;"/>
                <path d="M353.865,206.097C353.865,287.662 287.74,353.792 206.176,353.792C124.607,353.792 58.486,287.662 58.486,206.097C58.486,124.531 124.607,58.409 206.176,58.409C287.74,58.409 353.865,124.531 353.865,206.097Z" style="fill:none;stroke:rgb(38,94,124);stroke-width:1.03px;"/>
                <path d="M206.825,11.714L206.811,11.714L206.798,11.714L206.714,11.714C180.322,11.714 154.691,16.894 130.534,27.107C107.226,36.961 86.302,51.058 68.344,69.005C50.386,86.952 36.278,107.867 26.41,131.169C16.182,155.321 10.988,180.948 10.972,207.339C10.957,233.744 16.125,259.388 26.332,283.561C36.181,306.882 50.277,327.82 68.227,345.79C86.176,363.759 107.097,377.878 130.407,387.753C154.566,397.987 180.203,403.184 206.604,403.201L206.712,403.201C233.102,403.201 258.733,398.022 282.891,387.808C306.2,377.953 327.124,363.856 345.083,345.908C363.042,327.96 377.152,307.044 387.021,283.741C397.251,259.589 402.446,233.959 402.463,207.566C402.475,181.158 397.306,155.515 387.098,131.345C377.248,108.025 363.153,87.09 345.205,69.121C327.255,51.151 306.335,37.033 283.025,27.158C258.864,16.924 233.227,11.728 206.825,11.714ZM206.714,64.418C206.742,64.418 206.769,64.418 206.798,64.418C285.795,64.459 349.797,128.537 349.759,207.533C349.709,286.505 285.673,350.497 206.712,350.497C206.683,350.497 206.666,350.497 206.638,350.497C127.638,350.448 63.63,286.379 63.676,207.37C63.723,128.407 127.75,64.419 206.714,64.418Z" style="fill:rgb(38,94,124);fill-rule:nonzero;"/>
                <path d="M83.861,380.587L110.491,380.587L110.491,363.144L103.743,363.144L123.118,347.905L140.714,362.506L133.339,362.506L133.339,380.279L153.788,380.09L153.788,335.106L181.081,335.106L181.081,376.838L189.62,376.838L189.62,315.274L216.597,315.274L216.597,370.335L226.562,370.335L226.562,336.455L247.352,315.669L256.703,325.031L256.703,315.837L263.058,315.837L263.062,331.38L268.128,336.455L268.128,359.861L289.111,359.861L289.111,334.482L278.638,334.482L304.026,307.826L330.045,333.847L318.944,333.847L318.944,360.268L348.665,360.268" style="fill:none;stroke:white;stroke-width:2.11px;"/>
                <rect x="157.608" y="338.598" width="7.611" height="7.617" style="fill:none;stroke:white;stroke-width:1.56px;"/>
                <rect x="194.701" y="319.4" width="6.345" height="11.906" style="fill:none;stroke:white;stroke-width:1.69px;"/>
                <rect x="205.214" y="319.4" width="6.344" height="11.906" style="fill:none;stroke:white;stroke-width:1.69px;"/>
                <rect x="194.701" y="335.847" width="6.345" height="11.91" style="fill:none;stroke:white;stroke-width:1.69px;"/>
                <rect x="205.214" y="335.847" width="6.344" height="11.91" style="fill:none;stroke:white;stroke-width:1.69px;"/>
                <rect x="194.701" y="352.424" width="6.345" height="11.915" style="fill:none;stroke:white;stroke-width:1.69px;"/>
                <rect x="205.214" y="352.424" width="6.344" height="11.915" style="fill:none;stroke:white;stroke-width:1.69px;"/>
                <rect x="169.34" y="338.598" width="7.619" height="7.617" style="fill:none;stroke:white;stroke-width:1.56px;"/>
                <rect x="157.608" y="350.807" width="7.611" height="7.622" style="fill:none;stroke:white;stroke-width:1.56px;"/>
                <rect x="169.34" y="350.807" width="7.619" height="7.622" style="fill:none;stroke:white;stroke-width:1.56px;"/>
                <rect x="157.608" y="363.226" width="7.611" height="7.619" style="fill:none;stroke:white;stroke-width:1.56px;"/>
                <rect x="169.34" y="363.226" width="7.619" height="7.619" style="fill:none;stroke:white;stroke-width:1.56px;"/>
                <rect x="299.774" y="342.411" width="10.474" height="18.087" style="fill:none;stroke:white;stroke-width:1.56px;"/>
                <rect x="118.919" y="368.693" width="6.258" height="12.309" style="fill:none;stroke:white;stroke-width:1.01px;"/>
                <path d="M66.683,122.495C65.71,121.907 64.772,121.761 63.87,122.056C62.966,122.352 61.898,123.204 60.662,124.613L67.635,128.833C68.308,127.083 68.571,125.745 68.426,124.814C68.28,123.881 67.699,123.113 66.683,122.495ZM55.202,115.55C52.867,114.138 50.611,114.692 48.435,117.214L56.868,122.316C58.091,119.218 57.537,116.963 55.202,115.55ZM72.016,114.779C73.118,115.447 73.948,116.274 74.502,117.259C75.058,118.246 75.352,119.36 75.381,120.603C75.413,121.849 75.183,123.201 74.697,124.665C74.21,126.129 73.483,127.659 72.515,129.258L66.688,138.891L39.962,122.721L45.79,113.09C46.692,111.599 47.698,110.338 48.809,109.31C49.916,108.284 51.067,107.517 52.259,107.012C53.451,106.508 54.661,106.288 55.892,106.352C57.122,106.42 58.3,106.791 59.424,107.471C62.517,109.342 63.725,112.273 63.052,116.267C66.303,113.628 69.291,113.131 72.016,114.779Z" style="fill:white;fill-rule:nonzero;"/>
                <path d="M66.683,122.495C65.71,121.907 64.772,121.761 63.87,122.056C62.966,122.352 61.898,123.204 60.662,124.613L67.635,128.833C68.308,127.083 68.571,125.745 68.426,124.814C68.28,123.881 67.699,123.113 66.683,122.495ZM55.202,115.55C52.867,114.138 50.611,114.692 48.435,117.214L56.868,122.316C58.091,119.218 57.537,116.963 55.202,115.55ZM72.016,114.779C73.118,115.447 73.948,116.274 74.502,117.259C75.058,118.246 75.352,119.36 75.381,120.603C75.413,121.849 75.183,123.201 74.697,124.665C74.21,126.129 73.483,127.659 72.515,129.258L66.688,138.891L39.962,122.721L45.79,113.09C46.692,111.599 47.698,110.338 48.809,109.31C49.916,108.284 51.067,107.517 52.259,107.012C53.451,106.508 54.661,106.288 55.892,106.352C57.122,106.42 58.3,106.791 59.424,107.471C62.517,109.342 63.725,112.273 63.052,116.267C66.303,113.628 69.291,113.131 72.016,114.779Z" style="fill:none;stroke:rgb(35,31,32);stroke-width:1.44px;"/>
                <path d="M71.108,96.099C70.7,95.763 70.236,95.618 69.721,95.669C69.205,95.719 68.779,95.951 68.442,96.359C68.105,96.77 67.961,97.233 68.011,97.75C68.062,98.263 68.292,98.691 68.703,99.026L80.561,108.776C80.953,109.097 81.409,109.238 81.935,109.195C82.459,109.153 82.891,108.927 83.229,108.516C83.549,108.129 83.684,107.665 83.632,107.131C83.58,106.597 83.359,106.172 82.969,105.85L71.108,96.099ZM84.65,97.417C85.646,98.236 86.426,99.207 86.994,100.327C87.561,101.447 87.904,102.612 88.022,103.821C88.14,105.03 88.029,106.24 87.689,107.449C87.349,108.658 86.77,109.76 85.952,110.756C85.117,111.772 84.144,112.568 83.033,113.142C81.921,113.716 80.76,114.062 79.552,114.182C78.343,114.3 77.137,114.183 75.936,113.834C74.736,113.486 73.628,112.891 72.613,112.057L66.992,107.436C65.995,106.616 65.213,105.648 64.647,104.526C64.08,103.407 63.738,102.241 63.62,101.03C63.5,99.823 63.612,98.613 63.952,97.404C64.291,96.194 64.871,95.092 65.688,94.096C66.508,93.102 67.474,92.324 68.585,91.767C69.7,91.209 70.868,90.872 72.096,90.751C73.323,90.631 74.536,90.737 75.736,91.069C76.935,91.402 78.032,91.976 79.028,92.796L84.65,97.417Z" style="fill:white;fill-rule:nonzero;"/>
                <path d="M71.108,96.099C70.7,95.763 70.236,95.618 69.721,95.669C69.205,95.719 68.779,95.951 68.442,96.359C68.105,96.77 67.961,97.233 68.011,97.75C68.062,98.263 68.292,98.691 68.703,99.026L80.561,108.776C80.953,109.097 81.409,109.238 81.935,109.195C82.459,109.153 82.891,108.927 83.229,108.516C83.549,108.129 83.684,107.665 83.632,107.131C83.58,106.597 83.359,106.172 82.969,105.85L71.108,96.099ZM84.65,97.417C85.646,98.236 86.426,99.207 86.994,100.327C87.561,101.447 87.904,102.612 88.022,103.821C88.14,105.03 88.029,106.24 87.689,107.449C87.349,108.658 86.77,109.76 85.952,110.756C85.117,111.772 84.144,112.568 83.033,113.142C81.921,113.716 80.76,114.062 79.552,114.182C78.343,114.3 77.137,114.183 75.936,113.834C74.736,113.486 73.628,112.891 72.613,112.057L66.992,107.436C65.995,106.616 65.213,105.648 64.647,104.526C64.08,103.407 63.738,102.241 63.62,101.03C63.5,99.823 63.612,98.613 63.952,97.404C64.291,96.194 64.871,95.092 65.688,94.096C66.508,93.102 67.474,92.324 68.585,91.767C69.7,91.209 70.868,90.872 72.096,90.751C73.323,90.631 74.536,90.737 75.736,91.069C76.935,91.402 78.032,91.976 79.028,92.796L84.65,97.417Z" style="fill:none;stroke:rgb(35,31,32);stroke-width:1.44px;"/>
                <path d="M87.027,79.482C86.664,79.097 86.223,78.894 85.705,78.875C85.188,78.859 84.734,79.031 84.348,79.396C83.96,79.758 83.758,80.197 83.742,80.716C83.725,81.235 83.896,81.685 84.259,82.072L94.753,93.278C95.1,93.65 95.535,93.846 96.062,93.873C96.588,93.899 97.045,93.73 97.433,93.367C97.801,93.022 97.995,92.581 98.013,92.045C98.03,91.511 97.866,91.057 97.52,90.689L87.027,79.482ZM100.282,82.547C101.164,83.485 101.812,84.549 102.229,85.734C102.647,86.919 102.834,88.119 102.796,89.331C102.756,90.546 102.488,91.731 101.995,92.886C101.5,94.04 100.783,95.06 99.842,95.941C98.884,96.839 97.815,97.499 96.64,97.928C95.462,98.354 94.268,98.547 93.054,98.508C91.839,98.467 90.659,98.196 89.515,97.693C88.369,97.191 87.346,96.46 86.449,95.503L81.472,90.19C80.592,89.247 79.943,88.185 79.526,87C79.109,85.817 78.92,84.617 78.958,83.401C78.999,82.188 79.266,81.002 79.76,79.848C80.253,78.692 80.972,77.675 81.912,76.793C82.852,75.913 83.91,75.269 85.086,74.859C86.261,74.45 87.466,74.267 88.697,74.307C89.931,74.347 91.119,74.611 92.265,75.095C93.412,75.58 94.425,76.291 95.308,77.234L100.282,82.547Z" style="fill:white;fill-rule:nonzero;"/>
                <path d="M87.027,79.482C86.664,79.097 86.223,78.894 85.705,78.875C85.188,78.859 84.734,79.031 84.348,79.396C83.96,79.758 83.758,80.197 83.742,80.716C83.725,81.235 83.896,81.685 84.259,82.072L94.753,93.278C95.1,93.65 95.535,93.846 96.062,93.873C96.588,93.899 97.045,93.73 97.433,93.367C97.801,93.022 97.995,92.581 98.013,92.045C98.03,91.511 97.866,91.057 97.52,90.689L87.027,79.482ZM100.282,82.547C101.164,83.485 101.812,84.549 102.229,85.734C102.647,86.919 102.834,88.119 102.796,89.331C102.756,90.546 102.488,91.731 101.995,92.886C101.5,94.04 100.783,95.06 99.842,95.941C98.884,96.839 97.815,97.499 96.64,97.928C95.462,98.354 94.268,98.547 93.054,98.508C91.839,98.467 90.659,98.196 89.515,97.693C88.369,97.191 87.346,96.46 86.449,95.503L81.472,90.19C80.592,89.247 79.943,88.185 79.526,87C79.109,85.817 78.92,84.617 78.958,83.401C78.999,82.188 79.266,81.002 79.76,79.848C80.253,78.692 80.972,77.675 81.912,76.793C82.852,75.913 83.91,75.269 85.086,74.859C86.261,74.45 87.466,74.267 88.697,74.307C89.931,74.347 91.119,74.611 92.265,75.095C93.412,75.58 94.425,76.291 95.308,77.234L100.282,82.547Z" style="fill:none;stroke:rgb(35,31,32);stroke-width:1.44px;"/>
                <path d="M116.88,81.714L104.944,65.084C104.635,64.652 104.224,64.396 103.713,64.312C103.202,64.227 102.73,64.34 102.3,64.651C101.869,64.959 101.616,65.365 101.541,65.869C101.468,66.374 101.586,66.841 101.896,67.273L113.831,83.901L107.641,88.345L92.522,67.28L98.712,62.838L99.53,63.977C99.991,62.494 100.857,61.299 102.132,60.384C102.911,59.825 103.766,59.443 104.696,59.245C105.625,59.042 106.548,59.018 107.465,59.168C108.382,59.32 109.245,59.634 110.054,60.11C110.863,60.587 111.547,61.217 112.106,61.997L123.07,77.271L116.88,81.714Z" style="fill:white;fill-rule:nonzero;"/>
                <path d="M116.88,81.714L104.944,65.084C104.635,64.652 104.224,64.396 103.713,64.312C103.202,64.227 102.73,64.34 102.3,64.651C101.869,64.959 101.616,65.365 101.541,65.869C101.468,66.374 101.586,66.841 101.896,67.273L113.831,83.901L107.641,88.345L92.522,67.28L98.712,62.838L99.53,63.977C99.991,62.494 100.857,61.299 102.132,60.384C102.911,59.825 103.766,59.443 104.696,59.245C105.625,59.042 106.548,59.018 107.465,59.168C108.382,59.32 109.245,59.634 110.054,60.11C110.863,60.587 111.547,61.217 112.106,61.997L123.07,77.271L116.88,81.714Z" style="fill:none;stroke:rgb(35,31,32);stroke-width:1.44px;"/>
                <path d="M125.459,75.835L121.238,67.86L119.999,68.517L118.049,64.831L119.288,64.175L113.332,52.919L130.384,43.893L132.052,47.042L121.699,52.522L125.99,60.63L129.037,59.016L130.989,62.701L127.94,64.316L130.493,69.138L140.846,63.66L142.513,66.81L125.459,75.835Z" style="fill:white;fill-rule:nonzero;"/>
                <path d="M125.459,75.835L121.238,67.86L119.999,68.517L118.049,64.831L119.288,64.175L113.332,52.919L130.384,43.893L132.052,47.042L121.699,52.522L125.99,60.63L129.037,59.016L130.989,62.701L127.94,64.316L130.493,69.138L140.846,63.66L142.513,66.81L125.459,75.835Z" style="fill:none;stroke:rgb(35,31,32);stroke-width:1.44px;"/>
                <path d="M166.51,58.655L163.496,48.205L158.543,49.631L161.557,60.086L152.778,62.616L149.765,52.162L148.125,52.635L146.739,47.826L148.379,47.354L144.125,32.603L152.903,30.071L157.156,44.822L162.11,43.396L157.857,28.646L166.636,26.112L175.288,56.126L166.51,58.655Z" style="fill:white;fill-rule:nonzero;"/>
                <path d="M166.51,58.655L163.496,48.205L158.543,49.631L161.557,60.086L152.778,62.616L149.765,52.162L148.125,52.635L146.739,47.826L148.379,47.354L144.125,32.603L152.903,30.071L157.156,44.822L162.11,43.396L157.857,28.646L166.636,26.112L175.288,56.126L166.51,58.655Z" style="fill:none;stroke:rgb(35,31,32);stroke-width:1.44px;"/>
                <path d="M176.889,56.267L172.55,30.705L179.985,29.443L184.326,55.007L176.889,56.267Z" style="fill:white;fill-rule:nonzero;"/>
                <path d="M176.889,56.267L172.55,30.705L179.985,29.443L184.326,55.007L176.889,56.267Z" style="fill:none;stroke:rgb(35,31,32);stroke-width:1.44px;"/>
                <path d="M201.573,53.365L200.615,51.765C199.011,53 197.264,53.689 195.373,53.832C194.062,53.931 192.815,53.778 191.633,53.374C190.448,52.97 189.396,52.369 188.474,51.577C187.553,50.786 186.804,49.836 186.225,48.725C185.647,47.616 185.308,46.405 185.211,45.095L184.685,38.14C184.588,36.854 184.749,35.618 185.167,34.434C185.584,33.252 186.188,32.198 186.981,31.276C187.773,30.357 188.723,29.598 189.831,29.008C190.941,28.419 192.137,28.075 193.423,27.976C194.682,27.883 195.891,28.03 197.049,28.426C198.206,28.821 199.244,29.401 200.165,30.167C201.084,30.936 201.844,31.854 202.445,32.923C203.045,33.993 203.417,35.155 203.563,36.411L196.004,36.983L195.724,33.278C195.682,32.748 195.466,32.315 195.074,31.979C194.68,31.64 194.219,31.491 193.689,31.53C193.162,31.57 192.727,31.786 192.39,32.181C192.053,32.573 191.904,33.034 191.944,33.563L193.073,48.531C193.113,49.062 193.329,49.495 193.723,49.832C194.115,50.17 194.576,50.318 195.105,50.279C195.635,50.24 196.068,50.024 196.406,49.63C196.743,49.237 196.893,48.776 196.853,48.246L196.297,40.875L203.856,40.305L204.824,53.118L201.573,53.365Z" style="fill:white;fill-rule:nonzero;"/>
                <path d="M201.573,53.365L200.615,51.765C199.011,53 197.264,53.689 195.373,53.832C194.062,53.931 192.815,53.778 191.633,53.374C190.448,52.97 189.396,52.369 188.474,51.577C187.553,50.786 186.804,49.836 186.225,48.725C185.647,47.616 185.308,46.405 185.211,45.095L184.685,38.14C184.588,36.854 184.749,35.618 185.167,34.434C185.584,33.252 186.188,32.198 186.981,31.276C187.773,30.357 188.723,29.598 189.831,29.008C190.941,28.419 192.137,28.075 193.423,27.976C194.682,27.883 195.891,28.03 197.049,28.426C198.206,28.821 199.244,29.401 200.165,30.167C201.084,30.936 201.844,31.854 202.445,32.923C203.045,33.993 203.417,35.155 203.563,36.411L196.004,36.983L195.724,33.278C195.682,32.748 195.466,32.315 195.074,31.979C194.68,31.64 194.219,31.491 193.689,31.53C193.162,31.57 192.727,31.786 192.39,32.181C192.053,32.573 191.904,33.034 191.944,33.563L193.073,48.531C193.113,49.062 193.329,49.495 193.723,49.832C194.115,50.17 194.576,50.318 195.105,50.279C195.635,50.24 196.068,50.024 196.406,49.63C196.743,49.237 196.893,48.776 196.853,48.246L196.297,40.875L203.856,40.305L204.824,53.118L201.573,53.365Z" style="fill:none;stroke:rgb(35,31,32);stroke-width:1.44px;"/>
                <path d="M219.474,53.826L220.011,44.821L215.736,44.568L215.199,53.572L207.632,53.121L208.168,44.115L206.766,44.031L207.016,39.868L208.416,39.952L209.172,27.238L216.74,27.688L215.984,40.402L220.261,40.658L221.016,27.944L228.584,28.395L227.044,54.277L219.474,53.826Z" style="fill:white;fill-rule:nonzero;"/>
                <path d="M219.474,53.826L220.011,44.821L215.736,44.568L215.199,53.572L207.632,53.121L208.168,44.115L206.766,44.031L207.016,39.868L208.416,39.952L209.172,27.238L216.74,27.688L215.984,40.402L220.261,40.658L221.016,27.944L228.584,28.395L227.044,54.277L219.474,53.826Z" style="fill:none;stroke:rgb(35,31,32);stroke-width:1.44px;"/>
                <path d="M259.174,54.746C258.221,55.877 257.114,56.794 255.857,57.492C254.599,58.191 253.236,58.647 251.77,58.859C250.302,59.071 248.836,58.982 247.37,58.594C245.854,58.192 244.51,57.522 243.334,56.582C242.159,55.643 241.202,54.539 240.465,53.273C239.729,52.005 239.245,50.628 239.012,49.142C238.78,47.655 238.864,46.154 239.266,44.64L241.421,36.506C241.817,35.017 242.487,33.677 243.429,32.487C244.371,31.301 245.475,30.34 246.744,29.605C248.011,28.867 249.387,28.383 250.875,28.148C252.36,27.916 253.86,28.001 255.376,28.402C256.841,28.79 258.159,29.442 259.329,30.353C260.499,31.265 261.454,32.342 262.198,33.584C262.941,34.826 263.447,36.171 263.718,37.613C263.987,39.06 263.952,40.52 263.613,41.999L254.782,39.656L255.931,35.332C256.091,34.723 256.009,34.146 255.684,33.602C255.357,33.057 254.889,32.702 254.277,32.543C253.667,32.38 253.096,32.458 252.57,32.776C252.041,33.093 251.694,33.557 251.533,34.167L246.888,51.681C246.727,52.293 246.797,52.867 247.098,53.404C247.401,53.941 247.857,54.291 248.467,54.454C249.076,54.614 249.659,54.539 250.214,54.23C250.765,53.921 251.123,53.459 251.285,52.849L252.432,48.525L261.263,50.867C260.824,52.318 260.129,53.612 259.174,54.746Z" style="fill:white;fill-rule:nonzero;"/>
                <path d="M259.174,54.746C258.221,55.877 257.114,56.794 255.857,57.492C254.599,58.191 253.236,58.647 251.77,58.859C250.302,59.071 248.836,58.982 247.37,58.594C245.854,58.192 244.51,57.522 243.334,56.582C242.159,55.643 241.202,54.539 240.465,53.273C239.729,52.005 239.245,50.628 239.012,49.142C238.78,47.655 238.864,46.154 239.266,44.64L241.421,36.506C241.817,35.017 242.487,33.677 243.429,32.487C244.371,31.301 245.475,30.34 246.744,29.605C248.011,28.867 249.387,28.383 250.875,28.148C252.36,27.916 253.86,28.001 255.376,28.402C256.841,28.79 258.159,29.442 259.329,30.353C260.499,31.265 261.454,32.342 262.198,33.584C262.941,34.826 263.447,36.171 263.718,37.613C263.987,39.06 263.952,40.52 263.613,41.999L254.782,39.656L255.931,35.332C256.091,34.723 256.009,34.146 255.684,33.602C255.357,33.057 254.889,32.702 254.277,32.543C253.667,32.38 253.096,32.458 252.57,32.776C252.041,33.093 251.694,33.557 251.533,34.167L246.888,51.681C246.727,52.293 246.797,52.867 247.098,53.404C247.401,53.941 247.857,54.291 248.467,54.454C249.076,54.614 249.659,54.539 250.214,54.23C250.765,53.921 251.123,53.459 251.285,52.849L252.432,48.525L261.263,50.867C260.824,52.318 260.129,53.612 259.174,54.746Z" style="fill:none;stroke:rgb(35,31,32);stroke-width:1.44px;"/>
                <path d="M278.149,47.706C278.356,47.216 278.363,46.734 278.168,46.251C277.974,45.773 277.635,45.429 277.145,45.221C276.656,45.014 276.171,45.007 275.691,45.199C275.211,45.396 274.868,45.735 274.66,46.226L268.66,60.357C268.461,60.821 268.458,61.299 268.647,61.792C268.835,62.285 269.175,62.635 269.664,62.841C270.128,63.039 270.609,63.038 271.107,62.835C271.604,62.635 271.951,62.303 272.148,61.839L278.149,47.706ZM280.713,61.068C280.209,62.254 279.499,63.278 278.584,64.137C277.67,64.999 276.649,65.656 275.523,66.112C274.395,66.568 273.203,66.802 271.947,66.818C270.693,66.834 269.473,66.589 268.284,66.086C267.076,65.572 266.037,64.865 265.172,63.962C264.307,63.057 263.646,62.042 263.191,60.918C262.735,59.79 262.507,58.602 262.503,57.351C262.498,56.099 262.753,54.868 263.266,53.659L266.112,46.959C266.615,45.774 267.324,44.752 268.238,43.889C269.153,43.029 270.174,42.371 271.302,41.915C272.428,41.462 273.619,41.226 274.875,41.208C276.131,41.193 277.352,41.437 278.538,41.942C279.723,42.446 280.741,43.151 281.592,44.062C282.441,44.972 283.097,45.997 283.558,47.141C284.019,48.284 284.261,49.478 284.283,50.722C284.301,51.967 284.059,53.182 283.558,54.368L280.713,61.068Z" style="fill:white;fill-rule:nonzero;"/>
                <path d="M278.149,47.706C278.356,47.216 278.363,46.734 278.168,46.251C277.974,45.773 277.635,45.429 277.145,45.221C276.656,45.014 276.171,45.007 275.691,45.199C275.211,45.396 274.868,45.735 274.66,46.226L268.66,60.357C268.461,60.821 268.458,61.299 268.647,61.792C268.835,62.285 269.175,62.635 269.664,62.841C270.128,63.039 270.609,63.038 271.107,62.835C271.604,62.635 271.951,62.303 272.148,61.839L278.149,47.706ZM280.713,61.068C280.209,62.254 279.499,63.278 278.584,64.137C277.67,64.999 276.649,65.656 275.523,66.112C274.395,66.568 273.203,66.802 271.947,66.818C270.693,66.834 269.473,66.589 268.284,66.086C267.076,65.572 266.037,64.865 265.172,63.962C264.307,63.057 263.646,62.042 263.191,60.918C262.735,59.79 262.507,58.602 262.503,57.351C262.498,56.099 262.753,54.868 263.266,53.659L266.112,46.959C266.615,45.774 267.324,44.752 268.238,43.889C269.153,43.029 270.174,42.371 271.302,41.915C272.428,41.462 273.619,41.226 274.875,41.208C276.131,41.193 277.352,41.437 278.538,41.942C279.723,42.446 280.741,43.151 281.592,44.062C282.441,44.972 283.097,45.997 283.558,47.141C284.019,48.284 284.261,49.478 284.283,50.722C284.301,51.967 284.059,53.182 283.558,54.368L280.713,61.068Z" style="fill:none;stroke:rgb(35,31,32);stroke-width:1.44px;"/>
                <path d="M296.839,74.594C295.82,75.329 294.724,75.851 293.546,76.153C292.37,76.459 291.158,76.54 289.912,76.392C288.665,76.246 287.484,75.847 286.374,75.194C285.241,74.528 284.305,73.691 283.561,72.684C282.82,71.675 282.297,70.584 281.99,69.407C281.685,68.233 281.612,67.025 281.769,65.783C281.926,64.541 282.339,63.356 283.005,62.222L291.492,47.776L298.061,51.637L287.518,69.58C287.262,70.015 287.19,70.484 287.304,70.992C287.417,71.498 287.703,71.885 288.16,72.152C288.618,72.423 289.096,72.493 289.598,72.362C290.099,72.232 290.485,71.94 290.755,71.482L301.296,53.536L307.833,57.378L299.345,71.824C298.693,72.935 297.857,73.859 296.839,74.594Z" style="fill:white;fill-rule:nonzero;"/>
                <path d="M296.839,74.594C295.82,75.329 294.724,75.851 293.546,76.153C292.37,76.459 291.158,76.54 289.912,76.392C288.665,76.246 287.484,75.847 286.374,75.194C285.241,74.528 284.305,73.691 283.561,72.684C282.82,71.675 282.297,70.584 281.99,69.407C281.685,68.233 281.612,67.025 281.769,65.783C281.926,64.541 282.339,63.356 283.005,62.222L291.492,47.776L298.061,51.637L287.518,69.58C287.262,70.015 287.19,70.484 287.304,70.992C287.417,71.498 287.703,71.885 288.16,72.152C288.618,72.423 289.096,72.493 289.598,72.362C290.099,72.232 290.485,71.94 290.755,71.482L301.296,53.536L307.833,57.378L299.345,71.824C298.693,72.935 297.857,73.859 296.839,74.594Z" style="fill:none;stroke:rgb(35,31,32);stroke-width:1.44px;"/>
                <path d="M304.872,87.534L317.448,71.385C317.773,70.964 317.904,70.5 317.841,69.984C317.776,69.471 317.536,69.05 317.116,68.724C316.7,68.399 316.236,68.272 315.732,68.342C315.228,68.415 314.812,68.66 314.487,69.079L301.909,85.229L295.898,80.547L311.828,60.091L317.841,64.773L316.979,65.879C318.53,65.901 319.923,66.394 321.161,67.357C321.918,67.948 322.524,68.66 322.98,69.494C323.435,70.33 323.72,71.208 323.835,72.129C323.948,73.053 323.891,73.968 323.663,74.88C323.433,75.79 323.024,76.624 322.434,77.383L310.883,92.217L304.872,87.534Z" style="fill:white;fill-rule:nonzero;"/>
                <path d="M304.872,87.534L317.448,71.385C317.773,70.964 317.904,70.5 317.841,69.984C317.776,69.471 317.536,69.05 317.116,68.724C316.7,68.399 316.236,68.272 315.732,68.342C315.228,68.415 314.812,68.66 314.487,69.079L301.909,85.229L295.898,80.547L311.828,60.091L317.841,64.773L316.979,65.879C318.53,65.901 319.923,66.394 321.161,67.357C321.918,67.948 322.524,68.66 322.98,69.494C323.435,70.33 323.72,71.208 323.835,72.129C323.948,73.053 323.891,73.968 323.663,74.88C323.433,75.79 323.024,76.624 322.434,77.383L310.883,92.217L304.872,87.534Z" style="fill:none;stroke:rgb(35,31,32);stroke-width:1.44px;"/>
                <path d="M337.72,87.471L321.728,103.106L316.402,97.66L332.393,82.023L327.94,77.469L330.488,74.98L344.692,89.508L342.146,91.997L337.72,87.471Z" style="fill:white;fill-rule:nonzero;"/>
                <path d="M337.72,87.471L321.728,103.106L316.402,97.66L332.393,82.023L327.94,77.469L330.488,74.98L344.692,89.508L342.146,91.997L337.72,87.471Z" style="fill:none;stroke:rgb(35,31,32);stroke-width:1.44px;"/>
                <path d="M348.756,108.719C349.694,108.034 350.304,107.111 350.583,105.951C350.862,104.793 350.751,103.677 350.249,102.602L342.474,108.285C343.344,109.088 344.375,109.534 345.565,109.619C346.753,109.705 347.815,109.406 348.756,108.719ZM334.624,119L338.816,115.936C339.735,115.264 340.255,114.416 340.38,113.385C340.506,112.356 340.223,111.371 339.538,110.432L332.253,115.756L327.758,109.604L335.042,104.282L334.325,103.301L337.69,100.84L338.408,101.82L348.691,94.306L354.239,101.893C355.743,103.955 356.484,106.232 356.458,108.722C356.42,111.412 355.38,113.502 353.341,114.992C352.116,115.887 350.764,116.36 349.281,116.409C347.799,116.462 346.361,116.15 344.965,115.481C344.979,117.472 344.548,119.345 343.67,121.097C342.792,122.851 341.557,124.308 339.965,125.473L339.567,125.762L334.624,119Z" style="fill:white;fill-rule:nonzero;"/>
                <path d="M348.756,108.719C349.694,108.034 350.304,107.111 350.583,105.951C350.862,104.793 350.751,103.677 350.249,102.602L342.474,108.285C343.344,109.088 344.375,109.534 345.565,109.619C346.753,109.705 347.815,109.406 348.756,108.719ZM334.624,119L338.816,115.936C339.735,115.264 340.255,114.416 340.38,113.385C340.506,112.356 340.223,111.371 339.538,110.432L332.253,115.756L327.758,109.604L335.042,104.282L334.325,103.301L337.69,100.84L338.408,101.82L348.691,94.306L354.239,101.893C355.743,103.955 356.484,106.232 356.458,108.722C356.42,111.412 355.38,113.502 353.341,114.992C352.116,115.887 350.764,116.36 349.281,116.409C347.799,116.462 346.361,116.15 344.965,115.481C344.979,117.472 344.548,119.345 343.67,121.097C342.792,122.851 341.557,124.308 339.965,125.473L339.567,125.762L334.624,119Z" style="fill:none;stroke:rgb(35,31,32);stroke-width:1.44px;"/>
                <path d="M362.292,136.239C361.381,136.41 360.471,136.461 359.557,136.388C358.646,136.317 357.76,136.118 356.896,135.792C356.035,135.465 355.244,135.005 354.527,134.413L346.503,138.701L342.931,132.012L350.955,127.727C350.884,126.789 350.944,125.869 351.134,124.965C351.324,124.062 351.638,123.214 352.074,122.423C352.512,121.631 353.056,120.91 353.713,120.259C354.366,119.606 355.105,119.061 355.932,118.621L363.119,114.78L366.692,121.465L355.962,127.202C355.493,127.452 355.182,127.825 355.033,128.321C354.882,128.816 354.932,129.298 355.181,129.765C355.432,130.234 355.805,130.544 356.302,130.694C356.796,130.845 357.278,130.796 357.747,130.546L368.477,124.809L372.054,131.498L364.864,135.337C364.062,135.767 363.205,136.067 362.292,136.239Z" style="fill:white;fill-rule:nonzero;"/>
                <path d="M362.292,136.239C361.381,136.41 360.471,136.461 359.557,136.388C358.646,136.317 357.76,136.118 356.896,135.792C356.035,135.465 355.244,135.005 354.527,134.413L346.503,138.701L342.931,132.012L350.955,127.727C350.884,126.789 350.944,125.869 351.134,124.965C351.324,124.062 351.638,123.214 352.074,122.423C352.512,121.631 353.056,120.91 353.713,120.259C354.366,119.606 355.105,119.061 355.932,118.621L363.119,114.78L366.692,121.465L355.962,127.202C355.493,127.452 355.182,127.825 355.033,128.321C354.882,128.816 354.932,129.298 355.181,129.765C355.432,130.234 355.805,130.544 356.302,130.694C356.796,130.845 357.278,130.796 357.747,130.546L368.477,124.809L372.054,131.498L364.864,135.337C364.062,135.767 363.205,136.067 362.292,136.239Z" style="fill:none;stroke:rgb(35,31,32);stroke-width:1.44px;"/>
            </g>
        </g>
        <path d="M74.24,264.09C74.794,263.884 75.334,263.629 75.856,263.325C76.881,262.731 77.773,261.983 78.509,261.1C79.247,260.208 79.84,259.206 80.266,258.128C80.694,257.061 80.909,255.926 80.909,254.746C80.909,253.596 80.698,252.498 80.264,251.386C79.837,250.291 79.238,249.288 78.48,248.403C77.718,247.509 76.815,246.737 75.791,246.105C75.292,245.798 74.774,245.539 74.24,245.331L74.24,264.09ZM80.833,297.112L80.833,283.52C80.833,282.389 80.635,281.344 80.245,280.414C79.856,279.5 79.316,278.732 78.597,278.071C77.879,277.415 77.013,276.885 76.025,276.503C75.458,276.289 74.861,276.135 74.24,276.043L74.24,297.112L53.533,297.112L53.533,275.939L50.654,275.939L50.654,263.353L53.533,263.353L53.533,233.469L76.946,233.469C80.179,233.469 83.342,234.006 86.347,235.064C89.33,236.116 92.004,237.6 94.296,239.475C96.599,241.355 98.47,243.622 99.855,246.213C101.268,248.858 101.984,251.729 101.984,254.746C101.984,258.3 100.935,261.701 98.867,264.854C97.201,267.399 95.021,269.59 92.369,271.386C95.58,273.994 98.147,277.155 100.015,280.805C102.2,285.066 103.309,289.676 103.309,294.506L103.309,297.112L80.833,297.112Z" style="fill:rgb(255,245,108);fill-rule:nonzero;"/>
        <path d="M75.663,261.766L75.663,247.732C76.307,248.196 76.886,248.73 77.393,249.324C78.051,250.091 78.568,250.957 78.935,251.901C79.305,252.847 79.484,253.776 79.484,254.746C79.484,255.745 79.303,256.701 78.948,257.586C78.569,258.546 78.054,259.417 77.409,260.195C76.913,260.792 76.326,261.318 75.663,261.766ZM76.946,232.045L54.957,232.045L52.108,232.045L52.108,261.928L52.079,261.928L49.23,261.928L49.23,277.363L52.108,277.363L52.108,298.537L75.663,298.537L75.663,295.687L75.663,277.892C76.41,278.197 77.08,278.615 77.639,279.125C78.2,279.639 78.625,280.248 78.936,280.977C79.248,281.72 79.409,282.58 79.409,283.52L79.409,298.537L104.733,298.537L104.733,295.687L104.733,294.506C104.733,289.447 103.571,284.617 101.28,280.153C99.602,276.87 97.382,273.965 94.66,271.479C96.804,269.8 98.612,267.844 100.059,265.633C102.281,262.246 103.409,258.582 103.409,254.746C103.409,251.494 102.637,248.397 101.113,245.543C99.637,242.784 97.647,240.371 95.195,238.371C92.779,236.394 89.96,234.829 86.821,233.72C83.663,232.608 80.341,232.045 76.946,232.045ZM72.815,265.954C74.144,265.711 75.394,265.243 76.574,264.555C77.755,263.871 78.764,263.018 79.603,262.012C80.436,261.007 81.103,259.887 81.591,258.649C82.081,257.427 82.332,256.119 82.332,254.746C82.332,253.414 82.081,252.125 81.591,250.869C81.103,249.613 80.423,248.481 79.561,247.476C78.705,246.47 77.693,245.605 76.54,244.893C75.384,244.181 74.144,243.696 72.815,243.451L72.815,265.954ZM76.946,234.894C80.044,234.894 83.017,235.402 85.872,236.407C88.723,237.413 91.23,238.807 93.394,240.578C95.56,242.345 97.296,244.448 98.599,246.884C99.899,249.319 100.559,251.94 100.559,254.746C100.559,258.037 99.595,261.145 97.675,264.073C95.758,267.003 93.149,269.401 89.856,271.27C93.695,273.977 96.658,277.371 98.745,281.454C100.839,285.533 101.884,289.882 101.884,294.506L101.884,295.687L82.258,295.687L82.258,283.52C82.258,282.191 82.023,280.968 81.558,279.862C81.088,278.757 80.423,277.814 79.561,277.022C78.705,276.239 77.693,275.622 76.54,275.174C75.384,274.739 74.144,274.513 72.815,274.513L72.815,295.687L54.957,295.687L54.957,274.513L52.079,274.513L52.079,264.778L54.957,264.778L54.957,234.894L76.946,234.894Z" style="fill:rgb(35,31,32);fill-rule:nonzero;"/>
        <path d="M107.613,297.112L107.613,279.556L104.886,279.556L104.886,268.591L107.613,268.591L107.613,243.796L148.019,243.796L148.019,253.587L125.223,253.587L125.223,268.591L131.932,268.591L131.932,279.556L125.223,279.556L125.223,287.33L148.019,287.33L148.019,297.112L107.613,297.112Z" style="fill:rgb(255,245,108);fill-rule:nonzero;"/>
        <path d="M149.443,242.371L146.595,242.371L109.038,242.371L106.189,242.371L106.189,267.168L103.461,267.168L103.461,280.981L106.189,280.981L106.189,298.537L149.443,298.537L149.443,295.687L149.443,288.755L149.443,285.906L146.595,285.906L126.646,285.906L126.646,280.981L133.356,280.981L133.356,278.131L133.356,270.016L133.356,267.168L130.507,267.168L126.646,267.168L126.646,255.01L149.443,255.01L149.443,252.162L149.443,245.219L149.443,242.371ZM146.595,245.219L146.595,252.162L123.798,252.162L123.798,270.016L130.507,270.016L130.507,278.131L123.798,278.131L123.798,288.755L146.595,288.755L146.595,295.687L109.038,295.687L109.038,278.131L106.31,278.131L106.31,270.016L109.038,270.016L109.038,245.219L146.595,245.219Z" style="fill:rgb(35,31,32);fill-rule:nonzero;"/>
        <path d="M171.729,297.112L171.729,255.852C171.729,255.193 171.523,254.681 171.081,254.239C170.633,253.795 170.118,253.587 169.466,253.587C168.82,253.587 168.324,253.789 167.904,254.222C167.474,254.667 167.273,255.184 167.273,255.852L167.273,297.112L149.593,297.112L149.593,243.796L167.273,243.796L167.273,245.385C169.349,244.329 171.614,243.796 174.039,243.796C176.079,243.796 178.068,244.209 179.952,245.022C181.815,245.834 183.464,246.953 184.858,248.35C186.257,249.752 187.375,251.385 188.181,253.204C188.996,255.052 189.41,257.035 189.41,259.095L189.41,297.112L171.729,297.112Z" style="fill:rgb(255,245,108);fill-rule:nonzero;"/>
        <path d="M174.039,242.371C172.168,242.371 170.384,242.661 168.697,243.237L168.697,242.371L165.849,242.371L151.017,242.371L148.168,242.371L148.168,298.537L168.697,298.537L168.697,295.687L168.697,255.852C168.697,255.516 168.781,255.364 168.927,255.214C169.042,255.094 169.148,255.01 169.466,255.01C169.778,255.01 169.919,255.092 170.082,255.255C170.224,255.396 170.306,255.538 170.306,255.852L170.306,298.537L190.834,298.537L190.834,295.687L190.834,259.095C190.834,256.836 190.38,254.66 189.484,252.631C188.605,250.648 187.39,248.871 185.867,247.344C184.346,245.82 182.549,244.599 180.526,243.717C178.454,242.823 176.274,242.371 174.039,242.371ZM174.039,245.219C175.909,245.219 177.689,245.596 179.388,246.33C181.083,247.069 182.571,248.075 183.849,249.356C185.127,250.637 186.138,252.11 186.878,253.781C187.617,255.456 187.984,257.227 187.984,259.095L187.984,295.687L173.154,295.687L173.154,255.852C173.154,254.817 172.799,253.941 172.088,253.231C171.367,252.517 170.499,252.162 169.466,252.162C168.432,252.162 167.571,252.517 166.881,253.231C166.192,253.941 165.849,254.817 165.849,255.852L165.849,295.687L151.017,295.687L151.017,245.219L165.849,245.219L165.849,247.952C168.258,246.136 170.987,245.219 174.039,245.219Z" style="fill:rgb(35,31,32);fill-rule:nonzero;"/>
        <path d="M203.386,297.112L203.386,253.587L190.985,253.587L190.985,243.796L233.385,243.796L233.385,253.587L221.058,253.587L221.058,297.112L203.386,297.112Z" style="fill:rgb(255,245,108);fill-rule:nonzero;"/>
        <path d="M234.808,242.371L231.96,242.371L192.41,242.371L189.561,242.371L189.561,255.01L201.961,255.01L201.961,298.537L222.482,298.537L222.482,295.687L222.482,255.01L234.808,255.01L234.808,252.162L234.808,245.219L234.808,242.371ZM231.96,245.219L231.96,252.162L219.634,252.162L219.634,295.687L204.81,295.687L204.81,252.162L192.41,252.162L192.41,245.219L231.96,245.219Z" style="fill:rgb(35,31,32);fill-rule:nonzero;"/>
        <path d="M259.825,268.591L259.825,255.852C259.825,255.198 259.617,254.686 259.17,254.242C258.724,253.793 258.236,253.587 257.631,253.587C256.975,253.587 256.467,253.792 256.032,254.232C255.574,254.683 255.368,255.193 255.368,255.852L255.368,268.591L259.825,268.591ZM259.825,297.112L259.825,279.556L255.368,279.556L255.368,297.112L237.69,297.112L237.69,279.556L234.958,279.556L234.958,268.591L237.69,268.591L237.69,263.672C237.69,258.288 239.667,253.581 243.563,249.68C247.463,245.776 252.196,243.796 257.631,243.796C263.016,243.796 267.724,245.776 271.624,249.68C275.523,253.577 277.502,258.285 277.502,263.672L277.502,297.112L259.825,297.112Z" style="fill:rgb(255,245,108);fill-rule:nonzero;"/>
        <path d="M256.793,267.168L256.793,255.852C256.793,255.54 256.868,255.408 257.017,255.26C257.183,255.092 257.325,255.01 257.631,255.01C257.829,255.01 257.959,255.045 258.151,255.238C258.318,255.404 258.401,255.545 258.401,255.852L258.401,267.168L256.793,267.168ZM257.631,242.371C251.805,242.371 246.732,244.491 242.555,248.673C238.382,252.85 236.266,257.897 236.266,263.672L236.266,267.168L233.533,267.168L233.533,280.981L236.266,280.981L236.266,298.537L256.793,298.537L256.793,295.687L256.793,280.981L258.401,280.981L258.401,298.537L278.926,298.537L278.926,295.687L278.926,263.672C278.926,257.892 276.807,252.845 272.63,248.671C268.453,244.491 263.406,242.371 257.631,242.371ZM253.943,270.016L261.25,270.016L261.25,255.852C261.25,254.817 260.889,253.941 260.173,253.231C259.465,252.517 258.616,252.162 257.631,252.162C256.604,252.162 255.724,252.517 255.018,253.231C254.298,253.941 253.943,254.817 253.943,255.852L253.943,270.016ZM257.631,245.219C262.648,245.219 266.974,247.042 270.616,250.686C274.259,254.326 276.077,258.649 276.077,263.672L276.077,295.687L261.25,295.687L261.25,278.131L253.943,278.131L253.943,295.687L239.115,295.687L239.115,278.131L236.383,278.131L236.383,270.016L239.115,270.016L239.115,263.672C239.115,258.649 240.934,254.326 244.57,250.686C248.212,247.042 252.561,245.219 257.631,245.219Z" style="fill:rgb(35,31,32);fill-rule:nonzero;"/>
        <path d="M279.084,297.112L279.084,243.796L296.685,243.796L296.685,287.33L319.481,287.33L319.481,297.112L279.084,297.112Z" style="fill:rgb(255,245,108);fill-rule:nonzero;"/>
        <path d="M298.109,242.371L295.261,242.371L280.509,242.371L277.659,242.371L277.659,298.537L320.906,298.537L320.906,295.687L320.906,288.755L320.906,285.906L318.057,285.906L298.109,285.906L298.109,245.219L298.109,242.371ZM295.261,245.219L295.261,288.755L318.057,288.755L318.057,295.687L280.509,295.687L280.509,245.219L295.261,245.219Z" style="fill:rgb(35,31,32);fill-rule:nonzero;"/>
        <path d="M321.062,297.112L321.062,287.33L340.19,287.33C340.599,287.33 340.913,287.197 341.212,286.899C341.518,286.594 341.647,286.29 341.647,285.875C341.647,285.493 341.546,285.176 341.327,284.881L324.677,263.132C323.061,261.017 322.243,258.593 322.243,255.923C322.243,254.273 322.565,252.691 323.2,251.223C323.849,249.781 324.73,248.498 325.827,247.39C326.928,246.292 328.212,245.413 329.648,244.771C331.119,244.123 332.704,243.796 334.364,243.796L361.611,243.796L361.611,253.587L342.474,253.587C342.071,253.587 341.757,253.72 341.453,254.021C341.16,254.311 341.029,254.625 341.029,255.038C341.029,255.538 341.185,255.776 341.321,255.927L341.394,256.015L358.001,277.784C358.785,278.901 359.388,280.021 359.824,281.16C360.278,282.373 360.507,283.66 360.507,284.995C360.507,286.609 360.179,288.177 359.533,289.658C358.907,291.117 358.022,292.422 356.907,293.527C355.808,294.633 354.505,295.519 353.04,296.152C351.562,296.789 349.972,297.112 348.309,297.112L321.062,297.112Z" style="fill:rgb(255,245,108);fill-rule:nonzero;"/>
        <path d="M363.035,242.371L360.186,242.371L334.364,242.371C332.505,242.371 330.727,242.739 329.08,243.465C327.474,244.181 326.046,245.159 324.827,246.376C323.598,247.617 322.619,249.042 321.909,250.62C321.18,252.306 320.818,254.078 320.818,255.923C320.818,258.912 321.735,261.628 323.542,263.995L340.191,285.74C340.214,285.772 340.223,285.795 340.224,285.872C340.221,285.875 340.217,285.879 340.213,285.882L340.188,285.905L322.486,285.906L319.638,285.906L319.638,298.537L348.309,298.537C350.167,298.537 351.948,298.174 353.603,297.46C355.238,296.754 356.692,295.765 357.927,294.522C359.154,293.305 360.141,291.85 360.846,290.214C361.564,288.564 361.931,286.803 361.931,284.995C361.931,283.492 361.673,282.038 361.164,280.673C360.675,279.401 360.017,278.177 359.2,277.012L359.168,276.965L359.133,276.921L342.526,255.152L342.459,255.062L342.454,255.057C342.453,255.051 342.453,255.045 342.453,255.038C342.464,255.027 342.473,255.018 342.479,255.011L360.186,255.01L363.035,255.01L363.035,252.162L363.035,245.219L363.035,242.371ZM360.186,245.219L360.186,252.162L342.474,252.162C341.688,252.162 341.019,252.446 340.451,253.008C339.88,253.574 339.604,254.255 339.604,255.038C339.604,255.779 339.821,256.388 340.262,256.88L356.868,278.648C357.557,279.631 358.099,280.637 358.494,281.669C358.881,282.706 359.082,283.812 359.082,284.995C359.082,286.417 358.796,287.786 358.227,289.089C357.669,290.388 356.89,291.539 355.904,292.515C354.928,293.499 353.776,294.282 352.474,294.844C351.168,295.408 349.786,295.687 348.309,295.687L322.486,295.687L322.486,288.755L340.19,288.755C340.975,288.755 341.656,288.468 342.219,287.906C342.789,287.34 343.072,286.667 343.072,285.875C343.072,285.186 342.872,284.575 342.474,284.035L325.807,262.266C324.382,260.4 323.668,258.283 323.668,255.923C323.668,254.449 323.954,253.069 324.508,251.789C325.08,250.515 325.856,249.385 326.84,248.392C327.82,247.414 328.956,246.64 330.229,246.072C331.513,245.506 332.888,245.219 334.364,245.219L360.186,245.219Z" style="fill:rgb(35,31,32);fill-rule:nonzero;"/>
    </g>
</svg>
