<svg viewBox="0 0 983 279" xmlns="http://www.w3.org/2000/svg" fill-rule="evenodd" clip-rule="evenodd" stroke-linejoin="round" stroke-miterlimit="1.41421"><path d="M864.783,243.353c-65.31,0 -118.256,-52.95 -118.256,-118.259c0,-65.31 52.946,-118.26 118.256,-118.26c11.075,0 21.775,1.557 31.94,4.403c-16.84,-7.225 -35.387,-11.237 -54.875,-11.237c-76.959,0 -139.346,62.391 -139.346,139.347c0,76.959 62.387,139.35 139.346,139.35c74.385,0 135.144,-58.281 139.132,-131.669c-10.291,54.825 -58.382,96.325 -116.197,96.325" fill="#231f20" fill-rule="nonzero"/><path d="M882.014,237.639c55.694,0 100.841,-45.147 100.841,-100.841c0,-55.69 -45.147,-100.84 -100.841,-100.84c-55.691,0 -100.841,45.15 -100.841,100.84c0,55.694 45.15,100.841 100.841,100.841" fill="#ed1b2d" fill-rule="nonzero"/><path d="M100.598,277.344l49.313,0l0,-14.785l-13.138,0l0,4.975l-13.49,0l0,-10.512l18.306,0l0,-9.81l-18.306,0l0,-10.159l12.437,0l0,4.975l13.138,0l0,-14.784l-48.26,0l0,9.109l7.007,0l0,31.881l-7.007,0l0,9.11Zm81.369,0l30.044,0l0,-9.11l-7.359,0l0,-16.815c0,-2.244 -0.525,-5.607 -0.525,-5.607l0.35,0c0,0 1.137,3.085 2.628,5.116l19.706,26.416l15.766,0l0,-40.991l7.009,0l0,-9.109l-30.044,0l0,9.109l7.356,0l0,16.956c0,2.244 0.525,5.607 0.525,5.607l-0.35,0c0,0 -1.137,-3.085 -2.628,-5.116l-19.618,-26.556l-22.86,0l0,9.109l7.006,0l0,31.881l-7.006,0l0,9.11Zm98.885,0l49.312,0l0,-14.785l-13.137,0l0,4.975l-13.488,0l0,-10.512l18.303,0l0,-9.81l-18.303,0l0,-10.159l12.438,0l0,4.975l13.137,0l0,-14.784l-48.262,0l0,9.109l7.009,0l0,31.881l-7.009,0l0,9.11Zm80.493,0l29.253,0l0,-9.11l-6.568,0l0,-8.478l3.153,0c3.24,0 4.381,0.56 5.431,2.172l7.619,11.703c1.753,2.731 3.769,3.713 8.847,3.713l10.337,0l0,-9.11l-2.19,0c-2.016,0 -3.241,-0.418 -4.029,-1.612l-4.818,-7.425c-1.4,-2.175 -3.853,-3.016 -3.853,-3.016l0,-0.137c6.218,-2.663 10.159,-7.147 10.159,-13.735c0,-7.359 -4.994,-12.262 -12.525,-14.084c-3.591,-0.841 -7.794,-0.981 -12.525,-0.981l-28.291,0l0,9.109l7.007,0l0,31.881l-7.007,0l0,9.11Zm22.685,-27.397l0,-12.894l5.606,0c2.628,0 4.644,0.281 6.044,0.841c2.715,1.053 3.415,3.225 3.415,5.537c0,4.553 -3.065,6.516 -7.972,6.516l-7.093,0Zm57.897,2.031c0,15.066 14.1,26.206 33.368,26.206c9.11,0 26.803,-2.522 26.803,-10.018l0,-16.679l-24.087,0l0,9.11l10.072,0l0,3.434c0,2.872 -6.656,3.644 -10.86,3.644c-12.35,0 -19.093,-6.869 -19.093,-16.256c0,-9.391 6.831,-14.507 18.218,-14.507c5.694,0 10.335,1.263 10.335,3.785l0,3.644l14.015,0l0,-8.129c0,-6.306 -13.84,-9.809 -25.228,-9.809c-19.618,0 -33.543,10.509 -33.543,25.575m94.156,25.366l29.69,0l0,-9.11l-7.006,0l0,-11.422l15.328,-20.459l5.344,0l0,-9.109l-25.841,0l0,9.109l5.257,0l-6.394,9.25c-0.963,1.4 -1.4,2.45 -1.4,2.45l-0.175,0c0,0 -0.441,-1.05 -1.403,-2.45l-6.394,-9.25l5.256,0l0,-9.109l-25.928,0l0,9.109l5.344,0l15.328,20.459l0,11.422l-7.006,0l0,9.11Z" fill="#8a8c8e" fill-rule="nonzero"/><path d="M90.887,150.999l0,-0.309c0,-14.51 -7.637,-21.766 -20.009,-26.553c7.638,-4.322 14.053,-11.113 14.053,-23.31l0,-0.309c0,-16.981 -13.444,-27.941 -35.287,-27.941l-49.644,0l0,108.063l50.866,0c24.134,0 40.021,-9.882 40.021,-29.641m-29.328,-46.159c0,8.028 -6.568,11.425 -16.956,11.425l-21.691,0l0,-22.847l23.219,0c9.928,0 15.428,4.012 15.428,11.115l0,0.307Zm5.957,43.225c0,8.028 -6.263,11.734 -16.65,11.734l-27.953,0l0,-23.775l27.19,0c12.069,0 17.413,4.478 17.413,11.734l0,0.307Zm52.39,-80.119l-23.219,0l0,112.694l23.219,0l0,-112.694Zm83.247,112.694l0,-82.747l-23.215,0l0,46.159c0,11.116 -5.654,16.828 -14.513,16.828c-8.859,0 -14.053,-5.712 -14.053,-16.828l0,-46.159l-23.219,0l0,53.569c0,18.987 10.235,30.721 27.8,30.721c11.763,0 18.638,-6.331 23.984,-13.278l0,11.735l23.216,0Zm86.456,-39.057l0,-0.309c0,-23.466 -12.525,-44.925 -39.868,-44.925c-23.828,0 -40.479,19.453 -40.479,43.072l0,0.309c0,25.316 18.179,42.763 42.769,42.763c14.819,0 25.816,-5.869 33.453,-15.438l-13.29,-11.887c-6.416,6.019 -12.066,8.49 -19.857,8.49c-10.387,0 -17.718,-5.559 -20.009,-16.209l56.975,0c0.153,-2.162 0.306,-3.55 0.306,-5.866m-22.606,-8.8l-34.981,0c1.834,-10.653 8.097,-17.6 17.719,-17.6c9.775,0 15.887,7.104 17.262,17.6m120.975,47.857l-26.119,-38.594c13.594,-5.094 22.913,-16.056 22.913,-33.5l0,-0.309c0,-22.229 -15.125,-35.66 -40.328,-35.66l-48.878,0l0,108.063l23.521,0l0,-34.582l18.485,0l22.912,34.582l27.494,0Zm-27.037,-70.86c0,9.11 -6.569,15.285 -18.025,15.285l-23.829,0l0,-31.032l23.372,0c11.457,0 18.482,5.25 18.482,15.438l0,0.309Zm55.293,-41.834l-24.44,0l0,20.841l24.44,0l0,-20.841Zm-0.609,29.947l-23.219,0l0,82.744l23.219,0l0,-82.744Zm91.953,82.747l0,-112.694l-23.219,0l0,40.753c-5.497,-6.637 -13.134,-12.35 -25.509,-12.35c-19.397,0 -37.269,15.131 -37.269,42.763l0,0.309c0,27.634 18.175,42.762 37.269,42.762c12.069,0 19.859,-5.712 25.509,-13.431l0,11.888l23.219,0Zm-22.912,-41.219c0,13.741 -9.013,22.847 -19.857,22.847c-10.847,0 -20.012,-9.106 -20.012,-22.847l0,-0.309c0,-13.894 9.165,-22.847 20.012,-22.847c10.844,0 19.857,9.109 19.857,22.847l0,0.309Zm113.796,22.537l0,-64.065l-23.218,0l0,10.806c-6.263,-6.947 -13.747,-12.35 -26.425,-12.35c-18.788,0 -36.353,13.894 -36.353,38.594l0,0.309c0,24.547 17.259,38.594 36.353,38.594c12.372,0 19.856,-5.094 26.731,-13.431l0,4.015c0,14.819 -7.484,22.538 -23.372,22.538c-10.844,0 -19.244,-2.778 -27.647,-7.563l-7.944,17.597c10.388,5.56 22.913,8.647 36.204,8.647c30.396,0 45.671,-12.506 45.671,-43.691m-22.912,-26.706c0,11.269 -8.706,19.144 -20.009,19.144c-11.304,0 -19.86,-7.719 -19.86,-19.144l0,-0.309c0,-11.269 8.556,-19.141 19.86,-19.141c11.303,0 20.009,7.872 20.009,19.141l0,0.309Zm109.369,6.331l0,-0.309c0,-23.466 -12.528,-44.925 -39.869,-44.925c-23.828,0 -40.478,19.453 -40.478,43.072l0,0.309c0,25.316 18.175,42.763 42.769,42.763c14.815,0 25.815,-5.869 33.453,-15.438l-13.291,-11.887c-6.416,6.019 -12.066,8.49 -19.856,8.49c-10.388,0 -17.719,-5.559 -20.01,-16.209l56.975,0c0.154,-2.162 0.307,-3.55 0.307,-5.866m-22.61,-8.8l-34.978,0c1.831,-10.653 8.094,-17.6 17.719,-17.6c9.775,0 15.884,7.104 17.259,17.6" fill="#231f20" fill-rule="nonzero"/><path d="M955.078,262.218l6.244,0l0,-3.203l-15.972,0l0,3.203l6.244,0l0,16.481l3.484,0l0,-16.481Zm24.388,2.363l0,14.118l3.456,0l0,-19.684l-3.681,0l-5.991,9.309l-5.993,-9.309l-3.682,0l0,19.684l3.4,0l0,-14.062l6.163,9.228l0.112,0l6.216,-9.284Z" fill="#231f20" fill-rule="nonzero"/></svg>