<?xml version="1.0" encoding="UTF-8" standalone="no"?><!DOCTYPE svg PUBLIC "-//W3C//DTD SVG 1.1//EN" "http://www.w3.org/Graphics/SVG/1.1/DTD/svg11.dtd"><svg width="100%" height="100%" viewBox="0 0 1058 361" version="1.1" xmlns="http://www.w3.org/2000/svg" xmlns:xlink="http://www.w3.org/1999/xlink" xml:space="preserve" xmlns:serif="http://www.serif.com/" style="fill-rule:evenodd;clip-rule:evenodd;stroke-linejoin:round;stroke-miterlimit:1.41421;"><path d="M29.77,0c21.237,18.035 42.302,36.277 63.677,54.145c9.089,7.721 18.047,15.603 27.205,23.244c12.447,-4.329 24.865,-8.768 37.271,-13.235c9.343,-3.236 18.662,-6.571 27.947,-9.98c-0.069,-13.401 -0.023,-26.797 -0.029,-40.198c25.716,0.006 51.432,0.017 77.148,-0.006c0.069,0.38 0.207,1.144 0.276,1.524c0.275,3.737 0.051,7.485 0.137,11.228c11.568,-4.249 23.233,-8.233 34.817,-12.447c10.418,-3.553 20.703,-7.503 31.155,-10.969c-3.197,4.266 -6.462,8.48 -9.676,12.734c32.534,-0.011 65.063,-0.046 97.597,0.017c23.054,0.598 46.51,3.68 67.736,13.149c15.839,7.123 30.338,18.328 39.008,33.603c1.063,1.782 1.811,3.743 2.955,5.485c11.487,-1.466 22.887,-3.645 34.385,-5.065c0.075,-15.724 0.017,-31.448 0.029,-47.172c25.785,-0.023 51.575,-0.109 77.354,0.046c-0.115,1.3 -0.224,2.599 -0.241,3.904c0.052,3.455 0.006,6.91 0.023,10.366c0.431,6.979 -0.431,13.981 0.213,20.961c8.744,-1.409 17.506,-2.708 26.262,-4.076c-8.36,7.445 -16.851,14.746 -25.256,22.145c-0.495,0.46 -1.139,0.897 -1.156,1.65c-0.27,2.915 0.345,5.836 -0.075,8.745c0.029,4.404 0.006,8.807 0.012,13.217c0.057,4.214 -0.155,8.44 0.195,12.642c-0.005,8.055 -0.373,16.109 -0.143,24.164c0.327,3.024 -0.167,6.042 -0.064,9.072c11.74,-1.437 23.388,-3.68 35.093,-5.439c30.746,-4.818 61.47,-9.767 92.21,-14.602c-0.029,-34.271 0.017,-68.547 -0.017,-102.818c34.063,-0.017 68.133,-0.005 102.202,-0.011c13.976,-0.144 27.987,0.414 41.836,2.403c11.602,1.65 23.14,4.151 34.087,8.417c11.762,4.455 22.875,11.032 31.683,20.099c9.618,9.721 16.259,22.214 19.536,35.46c17.517,-2.69 35.018,-5.49 52.518,-8.313c0.529,1.414 0.828,2.903 1.207,4.369c-10.297,3.444 -20.547,7.008 -30.855,10.412c-0.754,0.259 -1.478,0.506 -2.202,0.77c-6.066,1.984 -12.079,4.111 -18.122,6.152c1.84,15.35 1.242,31.177 -3.305,46.033c-5.439,18.271 -17.932,34.012 -33.799,44.412c-9.348,6.157 -19.72,10.699 -30.476,13.758c-14.373,4.179 -29.332,6.122 -44.269,6.628c-14.309,0.19 -28.624,0.064 -42.934,0.092c-0.075,23.721 -0.029,47.448 -0.023,71.174c-25.699,-0.017 -51.397,-0.017 -77.09,0c0.04,-35.092 0,-70.179 0.023,-105.272c-24.583,7.71 -49.207,15.276 -73.79,22.985c-16.954,5.146 -33.793,10.682 -50.793,15.649c37.156,-0.103 74.313,-0.028 111.469,-0.034c0.029,22.214 -0.017,44.429 0.029,66.644c-63.786,0.028 -127.567,0.023 -191.348,0.005c0.017,-13.89 0.012,-27.779 0.006,-41.669c-8.175,2.685 -16.442,5.053 -24.623,7.704c0.293,0.253 0.891,0.753 1.184,1c-21.059,14.528 -42.204,28.935 -63.246,43.498c-15.598,-14.81 -31.178,-29.631 -46.752,-44.464c-3.128,-3.248 -7.238,-5.358 -10.061,-8.923c-10.233,1.742 -20.386,3.939 -30.62,5.681c-3.535,0.764 -7.123,1.27 -10.647,2.069c0.052,11.7 -0.017,23.405 0.034,35.11c-25.715,0.017 -51.431,0 -77.147,0.012c0.034,-5.313 0,-10.625 0.017,-15.931l-0.373,-0.518c-0.012,-1.477 -0.018,-2.949 -0.081,-4.421c-0.172,0.133 -0.517,0.397 -0.69,0.529c-11.722,2.024 -23.393,4.347 -35.069,6.6c0.051,9.814 0,19.622 0.023,29.436c-8.923,-7.762 -17.84,-15.523 -26.728,-23.324c-0.592,-0.512 -1.276,-1.116 -2.116,-0.754c-18.592,3.617 -37.243,6.94 -55.835,10.556c11.418,-10.124 22.875,-20.203 34.339,-30.269c-10.469,-9.159 -20.904,-18.363 -31.465,-27.406c-9.969,2.972 -19.857,6.209 -29.78,9.33c-14.844,4.605 -29.66,9.308 -44.481,13.977c0.167,10.658 -0.247,21.335 0.282,31.988c-0.817,0.138 -1.639,0.253 -2.467,0.258c-25.118,-0.011 -50.235,-0.005 -75.353,-0.005c-0.018,-2.622 0.005,-5.244 -0.018,-7.865c-7.014,2.271 -14.068,4.409 -21.087,6.646c0.092,-16.012 -0.133,-32.011 -0.006,-48.017c0.046,-1.914 -0.063,-3.823 -0.207,-5.726c-0.081,-35.185 -0.058,-70.375 -0.161,-105.56c7.129,-2.61 14.327,-5.042 21.467,-7.623c0.023,-36.599 -0.029,-73.192 0.029,-109.785m233.236,31.712c0.034,17.155 -0.138,34.311 -0.092,51.466c17.862,-23.542 35.811,-47.016 53.662,-70.57c-17.868,6.335 -35.765,12.608 -53.57,19.104m0.971,57.543c-0.523,0.54 -0.678,1.265 -0.626,1.989c-0.017,5.813 0.034,11.625 -0.023,17.437c11.935,-1.931 23.916,-3.558 35.851,-5.496c0.109,-7.968 -0.373,-15.971 0.374,-23.916c-0.029,-12.257 0.029,-24.52 -0.035,-36.783c-11.785,15.638 -23.715,31.166 -35.541,46.769m264.742,-16.54c4.191,10.808 5.128,22.594 5.151,34.098c0.23,9.641 -1.294,19.369 -4.916,28.331c-2.903,6.813 -7.313,12.838 -11.665,18.777c-4.444,4.553 -8.968,9.032 -13.384,13.614c-9.043,6.502 -18.161,12.901 -27.239,19.357c9.273,9.049 18.587,18.058 27.785,27.182c19.214,-3.725 38.456,-7.25 57.681,-10.9c0.558,1.368 1.133,2.731 1.668,4.116c-19.547,13.637 -38.997,27.412 -58.572,41.009c-0.409,0.316 -0.805,0.632 -1.202,0.96c9.118,-2.616 18.11,-5.669 27.199,-8.394c78.297,-24.353 156.589,-48.707 234.886,-73.06c0.012,-14.763 0.017,-29.527 -0.006,-44.291c-7.87,0.897 -15.649,2.432 -23.479,3.599c-71.525,11.343 -143.05,22.697 -214.574,34.046c40.715,-35.702 81.499,-71.329 122.249,-106.997c-40.543,6.094 -81.057,12.373 -121.582,18.553m-404.284,8.152c20.472,17.518 40.951,35.024 61.406,52.564c-0.006,-24.79 0.012,-49.574 -0.006,-74.359c-20.472,7.25 -40.91,14.597 -61.4,21.795m718.444,-8.296c0.023,11.337 0.006,22.669 0.012,34.006c0.546,-0.069 1.638,-0.207 2.184,-0.276c21.801,-3.495 43.607,-6.979 65.414,-10.423c3.84,-0.535 7.657,-1.202 11.492,-1.817c-2.834,-6.427 -7.951,-11.722 -14.2,-14.89c-11.136,-5.818 -24.026,-6.675 -36.358,-6.588c-9.514,-0.012 -19.029,0.005 -28.544,-0.012m-466.196,0.178c-0.224,6.181 0.42,12.338 0.161,18.518c22.238,-3.288 44.469,-6.646 66.667,-10.222c-2.035,-0.994 -4.002,-2.11 -6.008,-3.15c-9.17,-4.237 -19.426,-5.002 -29.384,-5.14c-10.475,0.006 -20.955,0.012 -31.436,-0.006m465.098,38.617c0.04,10.768 -0.017,21.542 0.029,32.31c59.923,-20.398 119.972,-40.433 179.884,-60.883c-59.963,9.584 -119.944,19.041 -179.913,28.573m-424.469,-21.657c-13.516,1.978 -26.986,4.312 -40.525,6.14c-0.19,17.909 -0.138,35.817 -0.374,53.72c14.591,-0.172 29.182,-0.04 43.774,-0.092c4.622,-0.207 9.187,-1.11 13.66,-2.248c5.496,-1.523 10.739,-4.444 14.344,-8.94c6.456,-7.962 9.486,-18.408 9.1,-28.59c-0.109,-8.946 -3.558,-17.587 -8.939,-24.652c-10.355,1.483 -20.686,3.15 -31.04,4.662m-154.53,23.71c-0.069,6.991 0.212,13.999 -0.219,20.967c-0.098,19.265 -0.098,38.524 -0.184,57.784c8.463,-2.714 16.949,-5.352 25.428,-8.009c0.696,1.294 1.415,2.582 2.168,3.852c-31.948,28.108 -63.861,56.25 -95.775,84.397c9.055,-1.437 18.024,-3.42 27.056,-5.007c25.968,-4.858 51.92,-9.808 77.889,-14.655c0.046,-48.338 0.029,-96.677 0.011,-145.015c-12.113,1.966 -24.267,3.714 -36.374,5.686m-249.897,7.151c0.08,49.995 0.178,99.989 0.178,149.983c5.674,-1.816 11.383,-3.518 17.04,-5.375c-0.08,-50.23 -0.092,-100.466 -0.138,-150.696c-5.703,2.001 -11.377,4.094 -17.08,6.088m907.975,1.133c-25.992,8.802 -52.006,17.541 -77.987,26.377c-0.005,0.857 -0.005,1.708 0,2.564c10.872,-0.017 21.749,-0.006 32.627,-0.006c11.946,0.351 24.485,-1.805 34.586,-8.537c7.382,-4.818 12.108,-12.895 13.948,-21.404c-1.081,0.322 -2.122,0.673 -3.174,1.006m-377.976,32.557c6.175,-1.017 12.355,-1.989 18.535,-2.995c-0.017,-4.438 0,-8.877 -0.005,-13.315c-6.158,5.456 -12.447,10.768 -18.53,16.31m-435.869,2.754c0.092,27.947 0.213,55.887 0.287,83.828c23.537,-7.186 46.954,-14.804 70.479,-22.042c-23.594,-20.588 -47.166,-41.204 -70.766,-61.786m156.37,39.548c-0.051,2.967 -0.046,5.928 0,8.894c5.117,-4.72 10.458,-9.187 15.603,-13.878c-5.174,1.759 -10.394,3.369 -15.603,4.984m112.781,-3.179c-0.041,14.971 -0.207,29.936 -0.196,44.906c12.746,-2.454 25.498,-4.921 38.278,-7.18c-5.289,-5.623 -10.521,-11.297 -15.879,-16.851c-7.348,-7.02 -14.856,-13.861 -22.203,-20.875m176.475,16.103c-14.758,3.013 -29.608,5.571 -44.395,8.463c4.674,4.323 9.457,8.537 14.131,12.872c10.044,-7.175 20.249,-14.12 30.264,-21.335Z" style="fill-rule:nonzero;"/><path d="M28.448,298.695c8.928,7.474 17.724,15.092 26.606,22.612c-0.023,-6.658 -0.011,-13.315 -0.005,-19.973c4.358,0.012 8.715,0 13.073,0.006c-0.023,15.741 0.035,31.482 -0.029,47.223c-8.767,-7.813 -17.724,-15.402 -26.491,-23.215c-0.064,6.859 0.005,13.723 -0.035,20.582c-4.369,-0.052 -8.744,-0.006 -13.119,-0.029c0.005,-15.735 0,-31.47 0,-47.206Z" style="fill-rule:nonzero;"/><path d="M577.161,300.529c6.479,-1.293 13.401,-0.747 19.472,1.932c-1.058,3.72 -2.369,7.37 -3.363,11.113c-3.134,-2.53 -7.216,-4.979 -11.366,-3.501c-0.357,1.5 0.069,3.001 1.08,4.162c3.404,4.226 6.957,8.457 11.366,11.677c3.157,-3.191 5.64,-6.985 7.773,-10.912c2.817,2.041 5.571,4.168 8.354,6.261c-1.88,3.967 -4.548,7.462 -7.129,10.992c2.156,1.351 4.576,2.208 7.025,2.88c-1.684,3.582 -3.409,7.158 -5.3,10.636c-4.295,0.276 -8.509,-1.357 -11.821,-4.024c-6.065,3.478 -13.136,5.559 -20.168,5.025c-5.088,-0.391 -10.279,-2.818 -13.01,-7.273c-2.104,-3.329 -2.133,-7.531 -1.334,-11.268c1.3,-5.336 5.744,-9.297 10.654,-11.372c-1.754,-2.329 -2.68,-5.433 -1.742,-8.279c0.902,-4.478 5.323,-7.175 9.509,-8.049m-5.485,32.04c2.323,4.433 8.687,4.801 12.43,2.007c-3.404,-2.99 -6.141,-6.629 -9.337,-9.808c-2.898,1.161 -4.847,4.921 -3.093,7.801Z" style="fill-rule:nonzero;"/><path d="M482.864,300.621c1.483,-0.333 3.006,-0.396 4.53,-0.5c-0.029,5.427 -0.006,10.86 -0.006,16.293c2.248,-1.529 4.76,-2.886 7.554,-2.938c3.916,-0.166 8.302,1.351 10.372,4.881c1.489,2.398 1.753,5.307 1.799,8.066c-0.023,6.491 -0.017,12.988 -0.005,19.478c-3.657,0.236 -7.325,0.069 -10.987,0.127c-0.023,-5.571 -0.011,-11.136 0.006,-16.707c-0.04,-1.909 -0.236,-3.95 -1.392,-5.536c-1.201,-1.909 -3.874,-2.162 -5.835,-1.495c-1.403,0.58 -1.564,2.23 -1.529,3.553c0.023,6.726 -0.006,13.453 0.023,20.179c-3.674,-0.034 -7.348,0.104 -11.01,-0.121c-0.005,-14.809 0.023,-29.625 -0.017,-44.435c2.144,-0.425 4.318,-0.655 6.497,-0.845Z" style="fill-rule:nonzero;"/><path d="M187.112,301.351c6.41,-0.023 12.814,-0.017 19.225,0c5.45,-0.005 11.216,0.897 15.701,4.215c5.174,3.823 6.519,11.596 3.518,17.166c-1.886,3.507 -5.255,5.899 -8.698,7.727c3.65,3.26 7.267,6.566 10.9,9.854c-3.628,2.421 -7.204,4.916 -10.797,7.388c-5.554,-5.255 -11.101,-10.521 -16.626,-15.804c-0.035,4.668 0,9.336 -0.018,14.01c-4.398,-0.011 -8.79,0.017 -13.188,-0.023c-0.006,-14.844 0.023,-29.688 -0.017,-44.533m13.223,9.682c-0.012,4.427 -0.029,8.859 0.005,13.292c3.3,-0.115 6.727,0.368 9.906,-0.759c4.392,-1.592 5.358,-8.641 1.322,-11.136c-3.357,-2.116 -7.496,-1.144 -11.233,-1.397Z" style="fill-rule:nonzero;"/><path d="M232.415,301.346c5.26,0.011 10.521,-0.058 15.781,0.034c-2.656,3.381 -5.163,6.882 -7.796,10.285c-2.627,-3.466 -5.323,-6.881 -7.985,-10.319Z" style="fill-rule:nonzero;"/><path d="M376.511,301.351c4.449,0.006 8.905,-0.074 13.355,0.052c-0.046,0.518 -0.132,1.552 -0.178,2.07c-0.236,10.4 -0.029,20.806 -0.104,31.212c6.485,0.04 12.97,-0.012 19.455,0.023c-0.017,3.766 0.006,7.537 -0.011,11.308c-10.837,0.023 -21.669,0 -32.506,0.012c0,-14.896 0.029,-29.786 -0.011,-44.677Z" style="fill-rule:nonzero;"/><path d="M411.954,301.346c5.278,-0.006 10.555,-0.029 15.839,0.011c-2.656,3.392 -5.203,6.865 -7.767,10.314c-2.72,-3.421 -5.318,-6.939 -8.072,-10.325Z" style="fill-rule:nonzero;"/><path d="M638.711,301.351c7.278,0.035 14.568,-0.143 21.846,0.11c5.445,0.448 11.55,1.839 14.954,6.513c2.886,3.743 2.966,8.733 2.472,13.229c-0.937,5.485 -5.514,9.751 -10.728,11.28c-4.398,1.541 -9.112,1.259 -13.694,1.248c-0.598,0.132 -1.622,-0.351 -1.748,0.534c-0.173,3.915 -0.017,7.842 -0.069,11.763c-4.329,-0.017 -8.658,-0.006 -12.982,0c-0.063,-14.89 0.035,-29.781 -0.051,-44.677m13.044,9.688c-0.017,4.421 -0.017,8.842 0,13.269c3.588,-0.161 7.434,0.615 10.768,-1.093c4.1,-2.006 4.422,-9.026 0.236,-11.118c-3.398,-1.725 -7.353,-0.903 -11.004,-1.058Z" style="fill-rule:nonzero;"/><path d="M516.438,306.077c3.622,-1.311 7.233,-2.662 10.883,-3.915c0.023,3.898 -0.034,7.802 0.029,11.705c1.604,-0.011 3.22,-0.011 4.835,-0.011c-0.281,2.38 -0.609,4.754 -0.891,7.134c-1.328,0.006 -2.65,0 -3.967,-0.005c-0.006,4.323 -0.006,8.652 -0.006,12.975c0.058,1.001 -0.155,2.254 0.794,2.938c0.989,0.753 2.288,0.799 3.478,0.995c-0.023,2.696 0.052,5.387 -0.029,8.077c-3.455,0.058 -7.042,0.34 -10.371,-0.741c-2.03,-0.604 -3.294,-2.375 -4.03,-4.255c-1.346,-6.565 -0.477,-13.326 -0.713,-19.978c-1.38,-0.006 -2.754,-0.006 -4.122,-0.006c0.31,-2.38 0.638,-4.748 0.954,-7.123c1.041,-0.005 2.081,-0.011 3.139,-0.005c0.035,-2.593 0.017,-5.192 0.017,-7.785Z" style="fill-rule:nonzero;"/><path d="M80.362,318.357c5.433,-6.174 15.603,-7.514 22.341,-2.725c3.312,2.254 5.37,5.841 6.623,9.573c0.115,0.902 0.259,1.811 0.305,2.73c-7.031,2.093 -14.062,4.209 -21.151,6.112c0.299,2.466 3.07,3.317 5.203,3.374c2.788,-0.207 4.979,-2.288 6.232,-4.656c3.225,1.086 6.496,2.035 9.693,3.213c-1.869,3.507 -4.404,6.865 -8.049,8.659c-5.243,2.753 -11.843,2.437 -17.023,-0.299c-4.691,-2.438 -8.003,-7.359 -8.377,-12.648c-0.281,-4.738 0.989,-9.739 4.203,-13.333m10.578,2.582c-2.684,0.994 -3.828,3.886 -4.012,6.542c4.018,-1.023 7.991,-2.23 12.004,-3.3c-0.995,-3.311 -4.979,-4.708 -7.992,-3.242Z" style="fill-rule:nonzero;"/><path d="M293.66,318.357c5.065,-5.76 14.246,-7.336 20.938,-3.587c4.772,2.627 7.951,7.83 8.354,13.24c-7.083,1.897 -14.062,4.185 -21.157,6.037c0.236,2.483 3.099,3.323 5.209,3.369c2.782,-0.207 4.927,-2.294 6.203,-4.634c3.237,1.035 6.497,2.035 9.693,3.191c-1.811,3.397 -4.231,6.617 -7.681,8.48c-5.617,3.081 -12.866,2.679 -18.288,-0.633c-4.403,-2.656 -7.364,-7.583 -7.508,-12.74c-0.155,-4.542 1.161,-9.29 4.237,-12.723m10.573,2.587c-2.674,0.978 -3.835,3.875 -4.007,6.526c1.903,-0.426 3.754,-1.035 5.645,-1.518c2.104,-0.615 4.214,-1.207 6.336,-1.759c-0.978,-3.318 -4.962,-4.703 -7.974,-3.249Z" style="fill-rule:nonzero;"/><path d="M776.172,320.772c4.467,-7.779 15.638,-10.377 23.221,-5.709c3.524,2.11 5.927,5.663 7.261,9.492c0.218,1.104 0.512,2.202 0.787,3.306c-7.174,2.265 -14.493,4.07 -21.622,6.467c1.414,3.007 5.554,3.939 8.273,2.174c1.524,-0.8 2.472,-2.271 3.352,-3.691c0.684,0.195 1.391,0.396 2.092,0.615c2.542,0.822 5.1,1.592 7.601,2.552c-1.69,3.203 -3.869,6.301 -7.077,8.135c-4.703,2.904 -10.734,3.065 -15.845,1.208c-5.007,-1.84 -9.049,-6.227 -10.159,-11.481c-0.569,-4.427 -0.287,-9.176 2.116,-13.068m12.648,0.04c-2.84,0.897 -4.18,3.892 -4.323,6.675c4.03,-1.035 8.014,-2.242 12.033,-3.329c-1.047,-3.133 -4.709,-4.622 -7.71,-3.346Z" style="fill-rule:nonzero;"/><path d="M130.132,325.343c2.369,-4.094 4.536,-8.302 6.98,-12.35c2.271,4.111 4.507,8.245 6.927,12.275c1.564,-3.818 3.208,-7.601 4.812,-11.401c4.099,-0.023 8.199,-0.005 12.303,0c-5.226,11.24 -10.302,22.554 -15.511,33.811c-2.863,-5.376 -5.714,-10.751 -8.549,-16.138c-2.955,5.347 -5.737,10.78 -8.6,16.172c-5.22,-11.256 -10.297,-22.576 -15.517,-33.833c4.11,-0.029 8.221,-0.052 12.332,0.011c1.552,3.841 3.167,7.658 4.823,11.453Z" style="fill-rule:nonzero;"/><path d="M341.108,317.052c2.259,-2.271 5.134,-4.116 8.468,-3.938c0.035,3.133 0.012,6.278 0.012,9.417c-2.191,-0.454 -4.629,-0.368 -6.474,1.029c-1.23,0.943 -1.374,2.628 -1.46,4.059c-0.029,6.135 0,12.269 -0.006,18.409c-3.639,-0.006 -7.273,0 -10.906,-0.006c-0.023,-10.728 -0.012,-21.456 -0.006,-32.183c3.478,0.034 6.962,0.005 10.446,0.023c-0.028,1.057 -0.051,2.121 -0.074,3.19Z" style="fill-rule:nonzero;"/><path d="M695.213,313.603c5.473,-1.501 11.676,-0.828 16.442,2.368c4.036,2.651 6.382,7.382 6.664,12.143c0.552,5.076 -0.863,10.544 -4.617,14.148c-6.238,5.87 -16.621,6.284 -23.692,1.69c-7.405,-4.973 -8.71,-16.017 -4.358,-23.404c2.081,-3.49 5.64,-5.962 9.561,-6.945m3.346,8.928c-2.403,0.535 -4.128,2.708 -4.473,5.088c-0.345,2.421 -0.356,5.123 1.092,7.215c2.231,3.536 7.957,3.881 10.636,0.684c2.409,-3.052 2.484,-7.755 0.202,-10.9c-1.685,-2.276 -4.847,-2.897 -7.457,-2.087Z" style="fill-rule:nonzero;"/><path d="M739.188,325.383c2.202,-4.209 4.599,-8.313 6.951,-12.447c2.225,4.18 4.524,8.325 6.916,12.412c1.569,-3.834 3.191,-7.646 4.789,-11.469c4.099,-0.046 8.198,-0.029 12.303,0c-5.128,11.285 -10.423,22.49 -15.39,33.845c-2.978,-5.358 -5.865,-10.774 -8.613,-16.253c-2.92,5.404 -5.898,10.785 -8.606,16.299c-5.209,-11.274 -10.354,-22.583 -15.5,-33.891c4.082,-0.046 8.164,-0.023 12.246,-0.012c1.638,3.841 3.225,7.698 4.904,11.516Z" style="fill-rule:nonzero;"/><path d="M825.407,316.972c2.312,-2.173 5.111,-4.053 8.446,-3.852c0.006,3.081 -0.006,6.163 -0.006,9.25c-2.345,-0.207 -5.013,-0.201 -6.836,1.501c-1.558,2.236 -1.04,5.162 -1.149,7.738c0.011,4.801 0.011,9.607 0,14.413c-3.64,0.012 -7.273,-0.011 -10.906,0.012c-0.018,-10.717 0.005,-21.439 -0.012,-32.155c3.484,-0.058 6.968,0 10.452,-0.035c-0.006,1.041 -0.006,2.081 0.011,3.128Z" style="fill-rule:nonzero;"/><path d="M234.887,313.839c3.622,0.028 7.238,0.034 10.86,-0.006c-0.017,10.733 0,21.467 -0.012,32.201c-3.616,-0.018 -7.232,-0.006 -10.848,-0.018c-0.012,-10.727 -0.006,-21.45 0,-32.177Z" style="fill-rule:nonzero;"/><path d="M250.151,313.862c4.162,0.023 8.325,-0.081 12.487,0.057c1.753,3.95 3.679,7.83 5.651,11.677c1.8,-3.921 3.697,-7.796 5.514,-11.706c4.197,-0.057 8.393,-0.057 12.59,0c-6.094,11.234 -12.113,22.508 -18.115,33.788c-6.146,-11.211 -12.073,-22.548 -18.127,-33.816Z" style="fill-rule:nonzero;"/><path d="M414.547,313.844c3.633,0.029 7.267,-0.011 10.9,0.041c0.012,10.676 0.012,21.358 0.006,32.039c-3.628,0.19 -7.261,0.075 -10.889,0.092c-0.029,-10.722 -0.029,-21.45 -0.017,-32.172Z" style="fill-rule:nonzero;"/><path d="M435.422,321.525c2.437,-4.174 6.853,-7.232 11.711,-7.686c3.392,-0.466 6.698,0.816 9.555,2.541c-0.017,-0.886 -0.023,-1.771 -0.023,-2.651c3.467,0.012 6.928,0.006 10.394,0.012c0,11.055 0.023,22.111 -0.011,33.166c0.092,4.761 -2.656,9.429 -6.905,11.596c-5.329,2.806 -11.59,2.427 -17.403,2.001c0.035,-3.191 0,-6.387 0.029,-9.578c3.225,0.765 6.836,1.15 9.992,-0.086c2.593,-1.029 3.519,-3.961 3.415,-6.537c-2.397,1.386 -4.996,2.645 -7.836,2.564c-7.359,0.15 -14.039,-5.795 -15.04,-13.039c-0.258,-4.168 -0.051,-8.618 2.122,-12.303m14.12,0.868c-2.915,0.207 -4.858,2.95 -5.106,5.686c-0.23,2.685 -0.23,5.841 1.863,7.859c2.765,2.972 8.572,1.788 9.883,-2.081c0.862,-2.765 0.816,-5.893 -0.385,-8.549c-1.07,-2.305 -3.852,-3.323 -6.255,-2.915Z" style="fill-rule:nonzero;"/><path d="M263.006,31.712c17.805,-6.496 35.702,-12.769 53.57,-19.104c-17.851,23.554 -35.8,47.028 -53.662,70.57c-0.046,-17.155 0.126,-34.311 0.092,-51.466Z" style="fill:#fff100;fill-rule:nonzero;"/><path d="M528.719,72.715c40.525,-6.18 81.039,-12.459 121.582,-18.553c-40.75,35.668 -81.534,71.295 -122.249,106.997c71.524,-11.349 143.049,-22.703 214.574,-34.046c7.83,-1.167 15.609,-2.702 23.479,-3.599c0.023,14.764 0.018,29.528 0.006,44.291c-78.297,24.353 -156.589,48.707 -234.886,73.06c-9.089,2.725 -18.081,5.778 -27.199,8.394c0.397,-0.328 0.793,-0.644 1.202,-0.96c19.575,-13.597 39.025,-27.372 58.572,-41.009c-0.535,-1.385 -1.11,-2.748 -1.668,-4.116c-19.225,3.65 -38.467,7.175 -57.681,10.9c-9.198,-9.124 -18.512,-18.133 -27.785,-27.182c9.078,-6.456 18.196,-12.855 27.239,-19.357c4.416,-4.582 8.94,-9.061 13.384,-13.614c4.352,-5.939 8.762,-11.964 11.665,-18.777c3.622,-8.962 5.146,-18.69 4.916,-28.331c-0.023,-11.504 -0.96,-23.29 -5.151,-34.098Z" style="fill:#fff100;fill-rule:nonzero;"/><path d="M124.435,80.867c20.49,-7.198 40.928,-14.545 61.4,-21.795c0.018,24.785 0,49.569 0.006,74.359c-20.455,-17.54 -40.934,-35.046 -61.406,-52.564Z" style="fill:#fff100;fill-rule:nonzero;"/><path d="M841.781,111.366c59.969,-9.532 119.95,-18.989 179.913,-28.573c-59.912,20.45 -119.961,40.485 -179.884,60.883c-0.046,-10.768 0.011,-21.542 -0.029,-32.31Z" style="fill:#fff100;fill-rule:nonzero;"/><path d="M417.312,89.709c10.354,-1.512 20.685,-3.179 31.04,-4.662c5.381,7.065 8.83,15.706 8.939,24.652c0.386,10.182 -2.644,20.628 -9.1,28.59c-3.605,4.496 -8.848,7.417 -14.344,8.94c-4.473,1.138 -9.038,2.041 -13.66,2.248c-14.592,0.052 -29.183,-0.08 -43.774,0.092c0.236,-17.903 0.184,-35.811 0.374,-53.72c13.539,-1.828 27.009,-4.162 40.525,-6.14Z" style="fill:#fff100;fill-rule:nonzero;"/><path d="M262.782,113.419c12.107,-1.972 24.261,-3.72 36.374,-5.686c0.018,48.338 0.035,96.677 -0.011,145.015c-25.969,4.847 -51.921,9.797 -77.889,14.655c-9.032,1.587 -18.001,3.57 -27.056,5.007c31.914,-28.147 63.827,-56.289 95.775,-84.397c-0.753,-1.27 -1.472,-2.558 -2.168,-3.852c-8.479,2.657 -16.965,5.295 -25.428,8.009c0.086,-19.26 0.086,-38.519 0.184,-57.784c0.431,-6.968 0.15,-13.976 0.219,-20.967Z" style="fill:#fff100;fill-rule:nonzero;"/><path d="M12.885,120.57c5.703,-1.994 11.377,-4.087 17.08,-6.088c0.046,50.23 0.058,100.466 0.138,150.696c-5.657,1.857 -11.366,3.559 -17.04,5.375c0,-49.994 -0.098,-99.988 -0.178,-149.983Z" style="fill:#fff100;fill-rule:nonzero;"/><path d="M107.015,157.014c23.6,20.582 47.172,41.198 70.766,61.786c-23.525,7.238 -46.942,14.856 -70.479,22.042c-0.074,-27.941 -0.195,-55.881 -0.287,-83.828Z" style="fill:#fff100;fill-rule:nonzero;"/><path d="M376.166,193.383c7.347,7.014 14.855,13.855 22.203,20.875c5.358,5.554 10.59,11.228 15.879,16.851c-12.78,2.259 -25.532,4.726 -38.278,7.18c-0.011,-14.97 0.155,-29.935 0.196,-44.906Z" style="fill:#fff100;fill-rule:nonzero;"/></svg>