<?xml version="1.0" encoding="UTF-8" standalone="no"?><!DOCTYPE svg PUBLIC "-//W3C//DTD SVG 1.1//EN" "http://www.w3.org/Graphics/SVG/1.1/DTD/svg11.dtd"><svg width="100%" height="100%" viewBox="0 0 1058 361" version="1.1" xmlns="http://www.w3.org/2000/svg" xmlns:xlink="http://www.w3.org/1999/xlink" xml:space="preserve" xmlns:serif="http://www.serif.com/" style="fill-rule:evenodd;clip-rule:evenodd;stroke-linejoin:round;stroke-miterlimit:1.41421;"><path d="M138.937,13.639c8.017,-9.21 20.505,-13.177 32.415,-13.605c10.425,-0.105 20.917,-0.067 31.245,1.56c7.522,1.253 15.382,4.215 19.965,10.643c4.237,6.232 7.005,13.312 9.66,20.325c2.355,6.622 4.83,13.327 5.46,20.377c0.165,3.128 0.015,6.803 -2.468,9.06c-2.01,1.883 -4.957,1.92 -7.537,1.935c-10.695,0 -21.39,0.015 -32.078,-0.142c5.573,1.762 7.223,7.792 9.098,12.637c5.497,16.665 11.01,33.338 16.507,50.003c-13.905,0.015 -27.81,-0.015 -41.715,0.022c-6.39,-19.365 -12.727,-38.737 -19.215,-58.072c-6.247,19.267 -12.727,38.467 -19.05,57.712c-13.897,0.015 -27.795,-0.03 -41.692,-0.06c9.667,-29.167 19.395,-58.305 29.047,-87.472c2.798,-8.52 4.523,-17.82 10.358,-24.923m42.157,-7.5c-6.247,18.533 -12.33,37.118 -18.532,55.658c7.687,0.33 15.39,0.082 23.085,0.15c3.195,-0.023 7.057,-0.075 9.165,-2.925c2.557,-3.465 1.357,-8.078 0.12,-11.828c-4.628,-13.672 -9.27,-27.352 -13.838,-41.055Z" style="fill:#d01947;fill-rule:nonzero;"/><path d="M220.139,86.734c30,0.165 59.993,0.39 89.985,0.585c8.025,0.09 16.148,-0.795 24.09,0.75c7.988,1.673 14.723,7.02 19.673,13.32c4.38,5.618 7.335,12.203 9.442,18.975c2.888,9.233 5.858,18.525 7.02,28.17c0.78,6.945 0.023,14.513 -4.252,20.288c-3.323,4.387 -7.47,8.077 -11.633,11.655c-6.202,5.092 -12.487,10.215 -19.59,14.01c-3.547,1.717 -7.807,3.592 -11.707,1.89c-3.48,-1.763 -4.17,-5.955 -5.378,-9.285c-2.857,-9.428 -6.3,-18.69 -8.76,-28.223c-0.397,2.333 -0.907,4.8 -2.557,6.608c-3.803,4.252 -8.61,7.41 -13.163,10.785c-11.977,8.835 -23.97,17.64 -35.94,26.49c-4.35,-13.23 -8.61,-26.498 -12.9,-39.743c16.358,-12.067 32.73,-24.112 49.095,-36.172c-20.227,-0.18 -40.462,-0.27 -60.69,-0.42c-4.207,-13.238 -8.505,-26.445 -12.735,-39.683m80.348,40.178c2.272,7.387 4.777,14.7 7.11,22.072c0.93,3.008 2.182,6.51 5.392,7.74c3.503,1.178 7.17,-0.48 10.005,-2.497c12.075,-8.91 24.06,-17.94 36.12,-26.873c-19.545,-0.172 -39.09,-0.36 -58.627,-0.442Z" style="fill:#d01947;fill-rule:nonzero;"/><path d="M30.539,100.392c6.308,-1.695 12.87,-2.175 19.365,-2.558c7.065,-0.3 14.198,-0.525 21.195,0.638c3.27,0.675 6.9,1.635 9.03,4.41c2.048,2.805 0.968,6.487 0,9.495c-3.285,9.982 -6.472,20.01 -9.907,29.947c3.405,-4.777 9.735,-4.515 14.947,-4.777c17.46,-0.113 34.913,-0.21 52.373,-0.27c-4.215,13.26 -8.535,26.49 -12.848,39.72c-20.31,0.09 -40.62,0.18 -60.93,0.307c16.238,12.098 32.58,24.053 48.848,36.105c-4.335,13.215 -8.663,26.43 -12.998,39.645c-24.48,-18.067 -48.93,-36.172 -73.41,-54.232c-6.315,-4.635 -13.237,-8.625 -18.51,-14.513c-5.962,-7.012 -8.032,-16.597 -7.65,-25.62c0.33,-9.307 3.765,-18.06 6.75,-26.76c2.633,-7.215 5.43,-14.49 9.795,-20.865c3.36,-4.897 8.115,-9.105 13.95,-10.672m-19.53,37.89c15.698,11.7 31.478,23.287 47.198,34.95c2.625,-8.145 5.362,-16.26 7.89,-24.435c0.915,-2.7 0.78,-6 -1.35,-8.108c-2.723,-2.647 -6.78,-2.91 -10.373,-2.865c-14.452,0.203 -28.912,0.278 -43.365,0.458Z" style="fill:#d01947;fill-rule:nonzero;"/><path d="M260.939,213.874c11.25,-8.16 22.493,-16.32 33.773,-24.435c5.647,17.693 11.197,35.415 16.822,53.115c4.688,14.573 9.015,29.273 14.093,43.718c1.905,5.767 3.72,11.797 3.045,17.94c-0.908,8.497 -5.153,16.342 -10.823,22.62c-5.595,6.292 -12.787,10.8 -19.62,15.607c-7.47,4.935 -15.187,10.043 -24.067,11.97c-4.635,0.93 -9.593,0.75 -13.973,-1.132c-8.43,-3.548 -16.065,-8.693 -23.505,-13.95c-5.085,-3.795 -10.567,-7.695 -13.5,-13.5c-1.702,-3.285 -0.457,-7.38 2.565,-9.405c8.948,-6.683 18,-13.223 27.158,-19.613c-6.923,0.78 -12.353,-4.252 -17.67,-7.837c-13.043,-9.428 -26.138,-18.788 -39.158,-28.253c11.235,-8.182 22.47,-16.357 33.705,-24.532c16.493,11.887 33,23.76 49.523,35.61c-6.098,-19.32 -12.218,-38.625 -18.368,-57.923m1.785,78.075c-2.407,1.763 -5.227,3.765 -5.707,6.945c-0.57,3.998 2.505,7.238 5.445,9.458c12.172,8.715 24.375,17.392 36.622,26.01c-5.91,-18.638 -11.775,-37.275 -17.715,-55.898c-6.307,4.365 -12.42,9.008 -18.645,13.485Z" style="fill:#d01947;fill-rule:nonzero;"/><path d="M106.109,270.379c5.31,-16.687 10.62,-33.382 15.938,-50.062c11.257,8.122 22.47,16.32 33.697,24.495c-6.135,19.432 -12.27,38.872 -18.562,58.252c16.5,-11.76 32.932,-23.617 49.387,-35.437c11.25,8.16 22.448,16.402 33.668,24.615c-24.72,17.782 -49.508,35.475 -74.25,53.235c-6.713,4.867 -12.99,10.642 -20.843,13.65c-9.382,3.225 -19.785,1.47 -28.635,-2.573c-7.635,-3.472 -14.092,-8.925 -20.752,-13.912c-6.863,-5.513 -13.965,-11.198 -18.458,-18.915c-2.34,-4.125 -3.705,-8.903 -3.285,-13.673c0.63,-8.115 2.775,-16.027 5.063,-23.805c1.815,-5.835 3.637,-11.797 7.005,-16.957c1.635,-2.43 3.915,-4.868 7.005,-5.175c3.105,-0.203 5.64,1.882 8.04,3.562c8.355,6.105 16.732,12.188 25.012,18.398c-3.57,-4.643 -1.432,-10.665 -0.03,-15.698m-8.767,27.885c-4.493,14.303 -8.925,28.635 -13.388,42.953c15.885,-11.385 31.793,-22.74 47.64,-34.17c-5.58,-4.178 -11.25,-8.228 -16.867,-12.353c-3.023,-2.092 -6.105,-5.167 -10.11,-4.552c-3.938,0.72 -6.09,4.65 -7.275,8.122Z" style="fill:#d01947;fill-rule:nonzero;"/><path d="M986.519,141.297c8.85,-9.48 21.645,-15.098 34.613,-15.188c7.935,-0.022 16.185,0.998 23.205,4.958c4.86,2.7 8.752,7.102 10.747,12.307c1.965,4.92 2.258,10.305 1.995,15.54c-8.505,0.015 -17.01,-0.007 -25.507,0.008c0.007,-3.18 -0.21,-6.638 -2.325,-9.195c-2.633,-3.27 -7.17,-4.155 -11.153,-3.893c-4.762,0.278 -9.075,3.105 -11.812,6.923c-3.99,5.46 -5.723,12.187 -6.728,18.78c-0.577,4.357 -0.952,9.015 0.81,13.162c1.238,2.978 4.058,5.093 7.185,5.76c4.628,1.05 9.863,0.563 13.755,-2.355c3.593,-2.58 5.663,-6.66 7.118,-10.732c8.625,0.007 17.257,0.007 25.89,0c-3.143,10.537 -9.788,20.175 -19.2,26.017c-12,7.613 -27.323,8.963 -40.868,5.243c-6.825,-1.973 -13.207,-6.083 -17.047,-12.15c-4.193,-6.51 -5.363,-14.52 -4.763,-22.118c0.87,-12.165 5.625,-24.187 14.085,-33.067Z" style="fill:#013660;fill-rule:nonzero;"/><path d="M428.152,128.232c12.907,0.015 25.815,0.007 38.722,0.007c7.538,0.06 15.27,0.338 22.433,2.91c4.612,1.583 8.842,5.153 9.877,10.095c1.155,5.963 -0.045,12.278 -2.662,17.708c-2.82,5.857 -8.348,10.125 -14.588,11.79c4.11,1.492 8.963,3.525 10.155,8.227c2.07,8.258 -1.657,16.44 -1.957,24.675c-0.233,1.403 1.072,2.07 2.025,2.768c-0.15,0.705 -0.293,1.41 -0.428,2.122c-9.135,0 -18.262,0.015 -27.397,-0.007c-0.18,-5.475 0.75,-10.89 1.657,-16.26c0.338,-2.693 0.795,-5.655 -0.517,-8.168c-1.245,-2.16 -3.84,-2.91 -6.15,-3.232c-4.538,-0.548 -9.12,-0.248 -13.68,-0.315c-1.673,9.33 -3.36,18.66 -5.055,27.99c-8.97,-0.008 -17.933,-0.008 -26.895,0c4.792,-26.775 9.652,-53.535 14.46,-80.31m20.662,34.657c4.988,-0.052 9.99,0.195 14.963,-0.24c3.09,-0.375 6.51,-1.305 8.385,-4.005c1.605,-2.49 2.152,-6.06 0.367,-8.602c-1.852,-2.37 -5.077,-2.963 -7.912,-3.015c-4.313,-0.053 -8.625,0.007 -12.93,-0.015c-0.968,5.287 -1.905,10.582 -2.873,15.877Z" style="fill:#013660;fill-rule:nonzero;"/><path d="M518.429,128.239c22.305,0 44.61,-0.007 66.908,0c-1.118,6.263 -2.258,12.518 -3.398,18.78c-13.327,-0.007 -26.647,-0.007 -39.967,0c-0.675,3.795 -1.388,7.59 -2.063,11.393c11.288,0.022 22.568,0.015 33.855,0.007c-1.14,6.255 -2.28,12.51 -3.39,18.765c-11.28,0 -22.552,-0.007 -33.825,0c-0.742,4.185 -1.522,8.363 -2.257,12.548c13.852,0.015 27.705,0.007 41.565,0c-1.155,6.262 -2.25,12.54 -3.398,18.802c-22.83,-0.007 -45.66,0 -68.49,0c4.838,-26.76 9.645,-53.527 14.46,-80.295Z" style="fill:#013660;fill-rule:nonzero;"/><path d="M598.492,128.239c13.387,0.008 26.775,-0.007 40.17,0.008c7.732,0.105 15.945,1.125 22.417,5.715c4.8,3.33 7.515,9.127 7.56,14.917c0.09,10.298 -4.162,21.023 -12.63,27.218c-7.747,5.737 -17.662,7.447 -27.097,7.447c-4.5,0.008 -8.993,-0.015 -13.485,0.015c-1.47,8.333 -2.993,16.65 -4.478,24.975c-8.977,-0.007 -17.955,0 -26.932,0.008c4.822,-26.768 9.637,-53.535 14.475,-80.303m20.332,36.533c5.25,-0.173 10.59,0.502 15.78,-0.548c5.13,-1.065 8.573,-6.51 7.853,-11.595c-0.525,-2.685 -3.173,-4.2 -5.61,-4.837c-4.853,-1.23 -9.893,-0.645 -14.835,-0.773c-1.08,5.918 -2.1,11.843 -3.188,17.753Z" style="fill:#013660;fill-rule:nonzero;"/><path d="M682.184,128.247c8.97,-0.023 17.94,0.007 26.91,-0.015c-2.392,13.357 -4.8,26.707 -7.2,40.065c-0.735,4.77 -2.092,9.495 -2.025,14.355c-0.022,3.157 1.74,6.442 4.875,7.432c6.008,2.003 13.868,0.885 17.528,-4.792c2.512,-3.72 3.165,-8.265 3.93,-12.585c2.662,-14.828 5.332,-29.648 8.01,-44.475c8.977,0.015 17.962,0.007 26.947,0c-2.175,11.91 -4.297,23.827 -6.457,35.737c-1.47,7.868 -2.453,15.953 -5.685,23.355c-2.723,6.45 -7.095,12.323 -12.998,16.178c-7.695,5.092 -17.085,6.757 -26.152,7.057c-8.55,0.158 -17.52,-0.195 -25.313,-4.117c-5.07,-2.49 -8.932,-7.2 -10.402,-12.653c-2.438,-8.55 -0.675,-17.49 0.915,-26.025c2.37,-13.17 4.747,-26.347 7.117,-39.517Z" style="fill:#013660;fill-rule:nonzero;"/><path d="M777.247,128.239c11.535,0 23.07,0 34.605,0c7.695,-0.03 15.577,-0.105 22.995,2.235c3.802,1.215 7.59,3.308 9.682,6.848c2.205,3.712 2.13,8.317 1.148,12.405c-1.733,6.997 -7.133,12.51 -13.245,16.02c3.525,1.417 7.042,3.54 8.73,7.11c2.925,5.895 1.612,12.915 -0.893,18.72c-2.932,6.712 -9.097,11.527 -15.922,13.852c-9.503,3.398 -19.74,3.158 -29.685,3.105c-10.62,0 -21.248,-0.007 -31.868,0.008c4.83,-26.768 9.645,-53.535 14.453,-80.303m23.55,18.765c-0.788,4.455 -1.613,8.903 -2.385,13.358c5.302,-0.278 10.77,0.66 15.952,-0.788c3.983,-1.14 6.765,-5.632 5.46,-9.667c-0.945,-2.19 -3.6,-2.655 -5.707,-2.805c-4.44,-0.218 -8.88,-0.03 -13.32,-0.098m-5.01,27.953c-0.908,4.927 -1.815,9.847 -2.663,14.782c4.253,-0.022 8.505,0.038 12.758,-0.015c2.775,-0.097 5.692,-0.352 8.152,-1.777c3.03,-1.71 4.388,-5.655 3.6,-8.955c-0.742,-2.4 -3.405,-3.278 -5.64,-3.615c-5.37,-0.735 -10.807,-0.308 -16.207,-0.42Z" style="fill:#013660;fill-rule:nonzero;"/><path d="M866.317,128.239c8.97,0.008 17.94,-0.007 26.917,0.008c-3.712,20.49 -7.38,40.995 -11.1,61.485c12.308,0.015 24.608,-0.008 36.915,0.015c-1.132,6.262 -2.272,12.525 -3.397,18.795c-21.263,-0.015 -42.533,-0.008 -63.803,0c4.808,-26.775 9.645,-53.535 14.468,-80.303Z" style="fill:#013660;fill-rule:nonzero;"/><path d="M942.254,128.232c8.978,0.007 17.955,0.007 26.933,0.007c-4.853,26.768 -9.638,53.543 -14.475,80.303c-8.978,-0.023 -17.955,-0.008 -26.933,-0.008c4.86,-26.76 9.653,-53.535 14.475,-80.302Z" style="fill:#013660;fill-rule:nonzero;"/><path d="M571.252,233.067c5.272,-3.45 11.835,-4.215 17.992,-3.743c4.455,0.353 9.233,2.063 11.745,5.985c1.973,2.918 2.07,6.593 1.74,9.99c-3.397,-0.007 -6.795,-0.022 -10.185,0.03c-0.045,-2.565 -0.705,-5.61 -3.45,-6.54c-4.342,-1.59 -9.757,-1.387 -13.522,1.493c-2.43,1.8 -3.503,6.615 -0.06,7.92c5.91,2.032 12.187,2.887 18.067,5.04c3.21,1.17 6.248,3.772 6.57,7.365c0.57,6.787 -3.142,13.665 -8.977,17.122c-6.51,3.885 -14.513,4.635 -21.878,3.33c-3.967,-0.757 -8.107,-2.617 -10.14,-6.292c-1.74,-2.963 -1.567,-6.525 -1.14,-9.803c3.375,0 6.758,0 10.14,0c0.075,2.055 0.03,4.463 1.778,5.91c3,2.513 7.267,2.265 10.935,1.905c3.6,-0.375 7.725,-2.25 8.482,-6.172c0.75,-2.205 -1.08,-4.148 -3.06,-4.763c-5.64,-2.062 -11.745,-2.602 -17.325,-4.86c-2.917,-1.117 -5.527,-3.562 -5.932,-6.78c-0.855,-6.667 2.617,-13.53 8.22,-17.137Z" style="fill:#013660;fill-rule:nonzero;"/><path d="M780.434,235.984c6.63,-5.887 16.163,-8.122 24.758,-6.075c4.455,1.028 8.61,3.938 10.47,8.205c1.32,2.693 1.387,5.745 1.32,8.685c-3.548,0.03 -7.088,0 -10.628,0.038c-0.397,-2.64 -0.915,-5.738 -3.465,-7.178c-4.777,-2.61 -11.062,-1.47 -15.075,2.07c-4.657,3.998 -6.765,10.118 -7.74,16.005c-0.555,4.095 -0.607,8.843 2.288,12.143c3.03,3.24 8.122,3.232 12.037,1.8c3.893,-1.395 6.57,-4.815 8.31,-8.43c3.54,-0.008 7.088,-0.03 10.635,0.015c-3.232,7.845 -9.495,14.812 -17.835,17.205c-6.562,1.852 -14.235,1.89 -20.085,-1.995c-5.272,-3.548 -7.14,-10.313 -6.712,-16.373c0.585,-9.682 4.275,-19.612 11.722,-26.115Z" style="fill:#013660;fill-rule:nonzero;"/><path d="M871.694,241.692c2.685,-7.125 9.998,-11.49 17.348,-12.218c6.03,-0.637 13.005,-0.517 17.752,3.803c3.338,2.992 3.975,7.777 3.443,12.015c-3.405,0.015 -6.803,-0.015 -10.2,0.03c-0.21,-1.988 -0.218,-4.32 -1.98,-5.64c-2.498,-1.905 -5.873,-2.01 -8.873,-1.74c-3.352,0.345 -7.23,1.957 -8.152,5.527c-0.75,1.928 0.225,4.35 2.31,4.883c5.677,1.792 11.595,2.767 17.235,4.687c3.18,1.11 6.367,3.413 6.99,6.938c0.757,5.332 -1.418,10.875 -5.085,14.73c-5.385,5.407 -13.425,7.252 -20.843,6.9c-5.04,-0.263 -10.672,-1.328 -14.04,-5.438c-2.602,-3.112 -2.647,-7.387 -2.1,-11.197c3.383,0 6.765,0 10.163,-0.008c-0.158,2.61 0.442,5.693 3.112,6.848c4.155,1.807 9.083,1.447 13.313,0.037c3.105,-1.057 5.962,-4.747 4.417,-8.025c-2.182,-2.677 -5.992,-2.835 -9.075,-3.787c-4.867,-1.35 -10.29,-1.815 -14.332,-5.108c-3.75,-3.322 -3.023,-9.022 -1.403,-13.237Z" style="fill:#013660;fill-rule:nonzero;"/><path d="M615.464,230.517c12.48,0.015 24.96,-0.008 37.44,0.007c-0.637,2.94 -1.275,5.88 -1.905,8.82c-9,-0.015 -17.992,0 -26.992,-0.007c-0.773,3.472 -1.523,6.952 -2.288,10.432c8.273,0.015 16.545,-0.007 24.825,0.008c-0.645,2.947 -1.282,5.902 -1.905,8.857c-8.272,0.023 -16.545,0 -24.817,0.015c-0.923,4.268 -1.853,8.535 -2.783,12.795c9.39,0.015 18.78,0.008 28.178,0.008c-0.645,2.955 -1.283,5.91 -1.898,8.872c-12.892,-0.015 -25.785,-0.007 -38.677,-0.007c3.6,-16.598 7.23,-33.195 10.822,-49.8Z" style="fill:#013660;fill-rule:nonzero;"/><path d="M662.714,230.494c8.228,0.008 16.448,0.015 24.675,-0.007c3.405,0 7.035,0.262 9.968,2.197c2.58,1.643 4.11,4.605 4.335,7.62c0.637,6.938 -3.915,13.913 -10.508,16.17c1.718,0.998 3.743,2.123 4.088,4.298c0.997,5.722 -2.025,11.16 -1.8,16.875c0.547,0.832 1.057,1.702 1.53,2.595c-4.133,0.15 -8.258,0.045 -12.375,0.075c-0.083,-4.013 0.652,-7.965 1.507,-11.865c0.285,-1.928 0.915,-4.133 -0.24,-5.888c-1.14,-1.35 -3.03,-1.53 -4.665,-1.65c-4.215,-0.165 -8.43,-0.022 -12.645,-0.075c-1.41,6.495 -2.82,12.99 -4.23,19.485c-3.487,-0.015 -6.975,-0.007 -10.462,0c3.607,-16.612 7.26,-33.21 10.822,-49.83m8.595,8.655c-0.96,4.403 -1.912,8.798 -2.872,13.2c4.32,0.06 8.647,0.12 12.975,0.045c2.722,-0.037 5.76,-0.682 7.485,-2.992c1.38,-1.913 2.145,-4.425 1.695,-6.765c-0.45,-2.138 -2.64,-3.308 -4.665,-3.398c-4.868,-0.24 -9.75,-0.037 -14.618,-0.09Z" style="fill:#013660;fill-rule:nonzero;"/><path d="M706.312,230.517c3.802,0 7.62,-0.008 11.43,0c0.945,12.622 1.8,25.245 2.775,37.867c6.405,-12.637 12.862,-25.252 19.312,-37.867c3.698,0 7.395,0.007 11.1,0c-9.36,16.62 -18.75,33.225 -28.132,49.83c-3.398,-0.008 -6.788,0 -10.178,0.007c-2.115,-16.612 -4.222,-33.225 -6.307,-49.837Z" style="fill:#013660;fill-rule:nonzero;"/><path d="M756.757,230.487c3.555,0.022 7.11,0.007 10.68,0.007c-3.6,16.613 -7.223,33.218 -10.815,49.83c-3.57,-0.007 -7.125,0 -10.688,-0.007c3.593,-16.613 7.2,-33.225 10.823,-49.83Z" style="fill:#013660;fill-rule:nonzero;"/><path d="M828.457,230.517c12.48,0.007 24.96,0 37.447,0.007c-0.63,2.94 -1.29,5.873 -1.92,8.82c-8.992,-0.007 -17.977,0 -26.962,-0.007c-0.788,3.472 -1.523,6.952 -2.288,10.432c8.265,0.008 16.538,0 24.81,0c-0.652,2.963 -1.297,5.918 -1.942,8.88c-8.273,0 -16.545,-0.015 -24.81,0.008c-0.923,4.267 -1.853,8.527 -2.775,12.795c9.397,0 18.795,0.007 28.2,0c-0.645,2.947 -1.29,5.902 -1.905,8.865c-12.885,0 -25.778,0 -38.663,0c3.6,-16.598 7.208,-33.195 10.808,-49.8Z" style="fill:#013660;fill-rule:nonzero;"/></svg>