<?xml version="1.0" encoding="UTF-8" standalone="no"?><!DOCTYPE svg PUBLIC "-//W3C//DTD SVG 1.1//EN" "http://www.w3.org/Graphics/SVG/1.1/DTD/svg11.dtd"><svg width="100%" height="100%" viewBox="0 0 1058 361" version="1.1" xmlns="http://www.w3.org/2000/svg" xmlns:xlink="http://www.w3.org/1999/xlink" xml:space="preserve" xmlns:serif="http://www.serif.com/" style="fill-rule:evenodd;clip-rule:evenodd;stroke-linejoin:round;stroke-miterlimit:1.41421;"><g><path d="M460.778,13.678c36.339,-15.093 77.638,-17.778 115.663,-7.644c30.42,7.997 58.684,24.187 80.813,46.551c26.206,25.716 43.906,59.802 50.335,95.906c-7.507,0.078 -15.014,0.039 -22.541,0.059c-7.017,-33.89 -25.422,-65.309 -51.706,-87.87c-22.58,-19.561 -50.766,-32.596 -80.343,-36.849c-39.476,-5.998 -81.068,3.861 -113.664,26.892c-39.045,26.971 -64.486,72.248 -67.407,119.603c38.496,-36.202 76.541,-72.875 115.154,-108.94c21.913,21.482 43.964,42.808 65.838,64.329c5.096,-4.586 10.173,-9.193 15.191,-13.838c-1.333,-0.02 -3.999,-0.078 -5.332,-0.098c0,-8.487 0,-16.974 0,-25.461c-6.801,0 -13.622,0 -20.423,-0.02c8.271,-17.562 16.209,-35.3 24.736,-52.765c7.232,16.21 14.053,32.577 21.286,48.786c4.998,-11.74 9.859,-23.54 14.936,-35.242c7.095,15.936 14.23,31.871 21.325,47.806c1.705,-4.037 3.391,-8.056 5.155,-12.054c7.605,16.464 15.132,32.968 22.619,49.492c-5.704,0.058 -11.388,0.058 -17.092,0.039c-0.313,7.37 0.49,50.487 -1.823,22.148c23.992,22.874 47.885,45.866 71.915,68.701c-10.525,42.945 -37.241,81.577 -73.835,106.392c-30.381,20.855 -67.329,31.89 -104.158,31.165c-48.786,-0.255 -97.004,-21.718 -129.835,-57.822c10.722,-0.078 21.443,-0.039 32.165,-0.039c24.324,19.757 54.451,32.38 85.714,35.124c39.534,3.881 80.244,-8.193 111.488,-32.674c24.775,-19.091 43.356,-45.787 53.353,-75.365c-33.38,-32.497 -66.936,-64.838 -100.591,-97.042c-8.291,7.84 -16.366,15.915 -24.794,23.599c-22.855,-21.365 -45.258,-43.2 -68.113,-64.565c-44.14,42.945 -88.438,85.773 -132.99,128.306c-7.174,-33.399 -5.37,-68.818 6.292,-101.002c16.739,-47.257 54.313,-86.576 100.669,-105.608m112.292,72.64c0,7.115 0,14.21 0,21.306c1.862,-1.843 3.704,-3.685 5.566,-5.528c7.135,6.704 14.152,13.525 21.247,20.267c0.177,-6.958 0.138,-13.916 0.138,-20.855c-6.567,0 -13.133,-0.019 -19.699,0.04c2.117,-5.077 4.253,-10.154 6.429,-15.191c-4.567,-0.039 -9.134,-0.039 -13.681,-0.039m35.751,15.19c-0.098,7.997 -0.364,16.167 -0.433,25.07c-2.675,-0.047 -3.655,0.005 -4.545,-0.02c1.881,1.607 3.743,3.234 5.586,4.881c4.194,-9.958 8.271,-19.954 12.446,-29.931c-4.351,0 -8.702,-0.019 -13.054,0m1.235,30.401c5.469,5.606 11.231,10.917 16.955,16.268c-0.04,-5.429 -0.04,-10.858 -0.04,-16.288c-5.645,0 -11.27,0 -16.915,0.02Z" style="fill-rule:nonzero;"/><path d="M456.642,140.259c3.254,-5.43 6.743,-12.545 13.936,-13.074c10.467,-0.47 20.953,-0.137 31.439,-0.196c6.821,-0.274 13.113,3.94 17.19,9.114c3.94,5.822 1.588,13.368 -1.391,19.091c-2.196,-0.96 -4.391,-1.901 -6.586,-2.842c-1.803,7.939 3.547,14.387 6.938,20.973c-2.92,1.058 -5.841,2.117 -8.722,3.293c0.686,5.096 1,10.212 1.451,15.308c-3.352,0.098 -6.704,0.235 -10.036,0.431c6.37,8.037 15.014,14.779 17.543,25.246c-10.291,-6.566 -20.228,-14.23 -32.165,-17.562c-9.193,-3.058 -18.973,-2 -28.401,-1.118c1.666,-5.076 6.605,-6.977 10.8,-9.447c-0.392,-0.764 -1.176,-2.274 -1.568,-3.038c-4.136,-2.744 -5.704,-7.194 -5.116,-12.055c-2.764,1.98 -7.037,2.784 -8.213,6.351c-2.705,9.212 -3.41,20.248 -11.192,26.892c-3.45,2.607 -7.134,-1.725 -8.212,-4.802c-3.078,-9.291 -0.49,-19.169 0.764,-28.558c2.254,-13.446 7.448,-28.97 21.541,-34.007Z" style="fill-rule:nonzero;"/><path d="M414.934,249.677c3.781,0 6.948,-0.772 9.5,-2.313c2.554,-1.542 3.83,-4.498 3.83,-8.871c0,-4.345 -1.493,-7.315 -4.478,-8.908c-2.988,-1.592 -6.792,-2.388 -11.416,-2.388c-1.133,0 -1.848,0 -2.15,0c-0.302,0 -0.765,-0.011 -1.392,-0.037l0,19.332c0,1.341 0.363,2.205 1.084,2.597c0.723,0.392 2.397,0.588 5.022,0.588Zm-20.736,1.402c2.988,-0.177 4.92,-0.663 5.798,-1.459c0.88,-0.795 1.319,-2.648 1.319,-5.554l0,-34.533c0,-2.856 -0.439,-4.694 -1.319,-5.515c-0.878,-0.822 -2.81,-1.31 -5.798,-1.461l0,-1.44l20.736,0c5.925,0 10.627,0.997 14.106,2.995c3.482,1.995 5.222,5.433 5.222,10.31c0,3.665 -1.217,6.444 -3.65,8.34c-1.372,1.088 -3.432,1.983 -6.178,2.691c3.397,0.86 6.3,2.293 8.707,4.302c2.409,2.011 3.612,4.822 3.612,8.436c0,6.065 -2.673,10.234 -8.018,12.509c-2.819,1.188 -6.286,1.782 -10.404,1.782l-24.133,0l0,-1.403Zm21.675,-26.99c2.481,-0.051 4.541,-0.467 6.178,-1.251c3.13,-1.517 4.696,-4.234 4.696,-8.15c0,-4.626 -1.805,-7.746 -5.419,-9.363c-1.998,-0.884 -5.034,-1.327 -9.103,-1.327c-1.541,0 -2.493,0.139 -2.854,0.418c-0.36,0.276 -0.543,1.034 -0.543,2.273l0,17.513l7.045,-0.113Z" style="fill-rule:nonzero;"/><path d="M448.073,237.06c0,4.946 1.064,8.601 3.189,10.967c2.124,2.366 4.735,3.548 7.832,3.548c3.028,0 5.618,-1.153 7.768,-3.456c2.152,-2.305 3.226,-5.99 3.226,-11.059c0,-5.127 -1.088,-8.832 -3.263,-11.113c-2.176,-2.282 -4.754,-3.422 -7.731,-3.422c-3.079,0 -5.686,1.183 -7.821,3.547c-2.132,2.366 -3.2,6.029 -3.2,10.988Zm-5.824,0c0,-5.019 1.725,-9.047 5.171,-12.078c3.163,-2.771 7.054,-4.157 11.674,-4.157c4.636,0 8.534,1.394 11.698,4.181c3.43,3.015 5.145,7.035 5.145,12.054c0,5.099 -1.774,9.156 -5.322,12.172c-3.179,2.695 -7.021,4.042 -11.521,4.042c-4.82,0 -8.82,-1.494 -11.999,-4.479c-3.231,-3.046 -4.846,-6.958 -4.846,-11.735Z" style="fill-rule:nonzero;"/><path d="M485.2,237.06c0,4.946 1.062,8.601 3.189,10.967c2.125,2.366 4.736,3.548 7.831,3.548c3.03,0 5.619,-1.153 7.769,-3.456c2.15,-2.305 3.227,-5.99 3.227,-11.059c0,-5.127 -1.088,-8.832 -3.264,-11.113c-2.176,-2.282 -4.753,-3.422 -7.732,-3.422c-3.08,0 -5.685,1.183 -7.819,3.547c-2.135,2.366 -3.201,6.029 -3.201,10.988Zm-5.823,0c0,-5.019 1.723,-9.047 5.17,-12.078c3.164,-2.771 7.055,-4.157 11.673,-4.157c4.635,0 8.536,1.394 11.699,4.181c3.43,3.015 5.145,7.035 5.145,12.054c0,5.099 -1.773,9.156 -5.321,12.172c-3.179,2.695 -7.021,4.042 -11.523,4.042c-4.82,0 -8.819,-1.494 -11.998,-4.479c-3.23,-3.046 -4.845,-6.958 -4.845,-11.735Z" style="fill-rule:nonzero;"/><path d="M515.55,251.759c2.124,-0.2 3.489,-0.639 4.092,-1.321c0.602,-0.682 0.904,-2.262 0.904,-4.742l0,-20.737l-0.704,-0.757c-0.752,-0.811 -1.393,-1.313 -1.921,-1.505c-0.527,-0.192 -1.317,-0.302 -2.371,-0.333l0,-0.872l8.81,0l19.807,22.642l0,-15.729c0,-2.588 -0.418,-4.273 -1.255,-5.053c-0.553,-0.506 -1.774,-0.835 -3.665,-0.988l0,-0.872l12.074,0l0,0.872c-1.958,0.184 -3.264,0.621 -3.916,1.309c-0.653,0.69 -0.978,2.266 -0.978,4.732l0,24.753l-0.88,0l-22.743,-25.788l0,18.326c0,2.572 0.41,4.248 1.231,5.028c0.535,0.506 1.731,0.851 3.589,1.035l0,0.849l-12.074,0l0,-0.849Z" style="fill-rule:nonzero;"/><path d="M552.677,251.759c1.892,-0.184 3.117,-0.494 3.677,-0.931c0.561,-0.435 0.841,-1.543 0.841,-3.319l0,-20.919c0,-1.668 -0.276,-2.76 -0.829,-3.274c-0.551,-0.511 -1.782,-0.829 -3.689,-0.952l0,-0.872l27.312,0l0.176,6.752l-1.305,0c-0.435,-2.084 -1.088,-3.43 -1.958,-4.042c-0.871,-0.613 -2.813,-0.919 -5.826,-0.919l-6.977,0c-0.753,0 -1.218,0.11 -1.394,0.333c-0.175,0.222 -0.263,0.639 -0.263,1.251l0,10.494l7.907,0c2.192,0 3.589,-0.298 4.193,-0.894c0.601,-0.598 1.088,-1.807 1.456,-3.63l1.204,0l0,10.886l-1.204,0c-0.386,-1.822 -0.88,-3.028 -1.482,-3.616c-0.601,-0.59 -1.991,-0.886 -4.167,-0.886l-7.907,0l0,11.643c0,0.935 0.322,1.486 0.967,1.654c0.642,0.169 2.571,0.253 5.786,0.253c3.481,0 6.048,-0.349 7.707,-1.045c1.656,-0.697 3.146,-2.385 4.467,-5.064l1.43,0l-2.334,7.946l-27.788,0l0,-0.849Z" style="fill-rule:nonzero;"/><path d="M427.588,277.734c1.382,-0.112 2.27,-0.363 2.662,-0.749c0.392,-0.388 0.588,-1.286 0.588,-2.695l0,-11.78l-0.459,-0.429c-0.488,-0.463 -0.905,-0.747 -1.248,-0.855c-0.343,-0.11 -0.857,-0.172 -1.543,-0.19l0,-0.496l5.731,0l12.882,12.864l0,-8.936c0,-1.47 -0.273,-2.427 -0.816,-2.872c-0.358,-0.286 -1.154,-0.472 -2.383,-0.56l0,-0.496l7.852,0l0,0.496c-1.272,0.104 -2.123,0.353 -2.546,0.745c-0.425,0.39 -0.637,1.286 -0.637,2.687l0,14.061l-0.573,0l-14.792,-14.649l0,10.41c0,1.462 0.266,2.415 0.802,2.858c0.346,0.286 1.125,0.482 2.334,0.586l0,0.484l-7.854,0l0,-0.484Z" style="fill-rule:nonzero;"/><path d="M452.544,272.163c0,-1.731 0.689,-3.193 2.065,-4.388c1.378,-1.196 3.148,-1.794 5.316,-1.794c2.154,0 3.94,0.565 5.355,1.696c1.415,1.131 2.123,2.634 2.123,4.514c0,1.73 -0.686,3.234 -2.058,4.514c-1.372,1.278 -3.146,1.917 -5.322,1.917c-2.091,0 -3.859,-0.614 -5.308,-1.839c-1.446,-1.227 -2.171,-2.766 -2.171,-4.62Zm6.922,-5.4c-0.858,0 -1.605,0.226 -2.236,0.678c-1.088,0.792 -1.633,2.158 -1.633,4.097c0,1.548 0.439,2.991 1.316,4.332c0.876,1.338 2.091,2.009 3.647,2.009c1.219,0 2.158,-0.449 2.817,-1.345c0.658,-0.896 0.988,-2.07 0.988,-3.522c0,-1.505 -0.418,-2.923 -1.257,-4.253c-0.839,-1.331 -2.052,-1.996 -3.642,-1.996Z" style="fill-rule:nonzero;"/><path d="M468.896,277.787c1.002,-0.069 1.664,-0.212 1.992,-0.424c0.327,-0.213 0.49,-0.668 0.49,-1.364l0,-5.882c0,-0.863 -0.1,-1.478 -0.302,-1.847c-0.202,-0.37 -0.568,-0.554 -1.102,-0.554c-0.109,0 -0.254,0.01 -0.433,0.033c-0.18,0.022 -0.368,0.049 -0.564,0.084l0,-0.431c0.621,-0.174 1.258,-0.353 1.911,-0.535c0.652,-0.182 1.105,-0.312 1.354,-0.39c0.545,-0.167 1.106,-0.353 1.682,-0.563c0.076,0 0.123,0.022 0.139,0.067c0.018,0.043 0.026,0.133 0.026,0.273l0,2.14c0.695,-0.774 1.368,-1.378 2.016,-1.813c0.647,-0.435 1.32,-0.653 2.015,-0.653c0.557,0 1.008,0.133 1.357,0.398c0.347,0.265 0.521,0.598 0.521,0.998c0,0.356 -0.133,0.656 -0.4,0.899c-0.266,0.245 -0.601,0.367 -1.003,0.367c-0.414,0 -0.831,-0.153 -1.249,-0.457c-0.419,-0.304 -0.749,-0.456 -0.988,-0.456c-0.382,0 -0.848,0.245 -1.405,0.737c-0.555,0.492 -0.833,0.997 -0.833,1.519l0,5.884c0,0.748 0.219,1.268 0.655,1.558c0.435,0.292 1.158,0.429 2.171,0.412l0,0.431l-8.05,0l0,-0.431Z" style="fill-rule:nonzero;"/><path d="M488.726,266.189l0,0.939l-3.332,0l-0.031,7.515c0,0.66 0.07,1.16 0.212,1.499c0.26,0.602 0.772,0.902 1.534,0.902c0.392,0 0.731,-0.075 1.021,-0.222c0.289,-0.149 0.618,-0.384 0.986,-0.705l0.426,0.288l-0.359,0.39c-0.566,0.609 -1.164,1.041 -1.797,1.291c-0.632,0.253 -1.241,0.379 -1.827,0.379c-1.286,0 -2.156,-0.457 -2.613,-1.37c-0.251,-0.496 -0.376,-1.182 -0.376,-2.06l0,-7.907l-1.78,0c-0.055,-0.026 -0.094,-0.051 -0.122,-0.079c-0.027,-0.025 -0.041,-0.06 -0.041,-0.104c0,-0.086 0.024,-0.154 0.073,-0.201c0.049,-0.047 0.204,-0.159 0.466,-0.334c0.751,-0.496 1.292,-0.897 1.625,-1.205c0.331,-0.31 1.112,-1.125 2.343,-2.446c0.141,0 0.225,0.008 0.252,0.025c0.028,0.018 0.042,0.083 0.042,0.196l0,3.209l3.298,0Z" style="fill-rule:nonzero;"/><path d="M490.138,277.851c0.891,-0.094 1.477,-0.27 1.754,-0.527c0.278,-0.257 0.417,-0.864 0.417,-1.821l0,-12.523c0,-0.488 -0.078,-0.846 -0.237,-1.076c-0.157,-0.231 -0.541,-0.347 -1.15,-0.347c-0.12,0 -0.238,0.008 -0.351,0.02c-0.116,0.014 -0.243,0.029 -0.384,0.047l0,-0.471c0.478,-0.113 1.07,-0.25 1.771,-0.411c0.702,-0.161 1.188,-0.276 1.461,-0.345l1.568,-0.392l0.033,0.092l0,8.011c0.686,-0.627 1.294,-1.088 1.829,-1.384c0.956,-0.521 1.991,-0.782 3.101,-0.782c1.764,0 2.967,0.59 3.608,1.774c0.349,0.625 0.523,1.448 0.523,2.466l0,5.321c0,0.923 0.134,1.523 0.4,1.801c0.267,0.279 0.814,0.461 1.641,0.547l0,0.367l-7.07,0l0,-0.367c0.947,-0.104 1.556,-0.282 1.829,-0.535c0.272,-0.251 0.407,-0.856 0.407,-1.813l0,-5.282c0,-0.845 -0.176,-1.527 -0.529,-2.049c-0.355,-0.521 -1.021,-0.784 -2.001,-0.784c-0.849,0 -1.67,0.245 -2.466,0.732c-0.794,0.488 -1.192,0.805 -1.192,0.952l0,6.431c0,0.974 0.142,1.584 0.426,1.827c0.282,0.243 0.886,0.417 1.813,0.521l0,0.367l-7.201,0l0,-0.367Z" style="fill-rule:nonzero;"/><path d="M527.967,260.226c1.209,0 2.45,0.145 3.724,0.432c1.272,0.288 1.985,0.431 2.138,0.431c0.316,0 0.616,-0.071 0.898,-0.21c0.282,-0.139 0.478,-0.357 0.588,-0.653l0.702,0l0.309,6.002l-0.766,0c-0.447,-1.192 -1.029,-2.152 -1.746,-2.883c-1.372,-1.374 -3.217,-2.06 -5.536,-2.06c-2.34,0 -4.253,0.739 -5.739,2.217c-1.485,1.478 -2.228,3.514 -2.228,6.105c0,2.384 0.78,4.285 2.342,5.708c1.562,1.421 3.54,2.132 5.935,2.132c1.731,0 3.326,-0.331 4.785,-0.991c0.837,-0.375 1.758,-0.939 2.757,-1.696l0.622,0.496c-0.741,0.747 -1.66,1.404 -2.76,1.97c-1.872,0.957 -3.903,1.435 -6.09,1.435c-3.591,0 -6.443,-0.918 -8.556,-2.752c-1.948,-1.698 -2.922,-3.814 -2.922,-6.355c0,-2.599 1.029,-4.782 3.085,-6.548c2.168,-1.853 4.986,-2.78 8.458,-2.78Z" style="fill-rule:nonzero;"/><path d="M547.814,270.989c-1.252,0.331 -2.287,0.696 -3.102,1.098c-1.568,0.772 -2.353,1.652 -2.353,2.634c0,0.792 0.328,1.374 0.981,1.748c0.425,0.243 0.897,0.365 1.421,0.365c0.717,0 1.407,-0.161 2.065,-0.482c0.659,-0.322 0.988,-0.731 0.988,-1.227l0,-4.136Zm-8.359,4.632c0,-1.261 0.788,-2.313 2.365,-3.156c1.002,-0.523 2.999,-1.231 5.994,-2.127l0,-1.109c0,-0.888 -0.109,-1.505 -0.327,-1.852c-0.37,-0.582 -1.137,-0.875 -2.303,-0.875c-0.555,0 -1.082,0.114 -1.584,0.34c-0.5,0.235 -0.751,0.556 -0.751,0.964c0,0.106 0.028,0.282 0.083,0.529c0.055,0.247 0.08,0.406 0.08,0.476c0,0.487 -0.2,0.826 -0.604,1.018c-0.227,0.113 -0.499,0.17 -0.815,0.17c-0.49,0 -0.866,-0.129 -1.127,-0.386c-0.261,-0.257 -0.392,-0.541 -0.392,-0.854c0,-0.608 0.47,-1.245 1.413,-1.912c0.941,-0.664 2.321,-0.997 4.138,-0.997c2.113,0 3.544,0.549 4.294,1.644c0.404,0.6 0.604,1.474 0.604,2.623l0,5.229c0,0.506 0.045,0.853 0.131,1.045c0.142,0.339 0.436,0.51 0.882,0.51c0.251,0 0.457,-0.032 0.62,-0.092c0.165,-0.061 0.447,-0.21 0.849,-0.443l0,0.678c-0.347,0.339 -0.724,0.617 -1.125,0.835c-0.61,0.329 -1.231,0.496 -1.863,0.496c-0.74,0 -1.276,-0.192 -1.607,-0.575c-0.333,-0.382 -0.515,-0.839 -0.547,-1.37c-0.829,0.575 -1.536,1 -2.122,1.278c-0.992,0.471 -1.933,0.706 -2.827,0.706c-0.935,0 -1.746,-0.265 -2.432,-0.79c-0.686,-0.527 -1.027,-1.194 -1.027,-2.003Z" style="fill-rule:nonzero;"/><path d="M553.551,277.787c1.002,-0.069 1.666,-0.212 1.994,-0.424c0.325,-0.213 0.49,-0.668 0.49,-1.364l0,-5.882c0,-0.863 -0.102,-1.478 -0.304,-1.847c-0.2,-0.37 -0.568,-0.554 -1.102,-0.554c-0.107,0 -0.252,0.01 -0.433,0.033c-0.178,0.022 -0.366,0.049 -0.562,0.084l0,-0.431c0.621,-0.174 1.256,-0.353 1.911,-0.535c0.653,-0.182 1.103,-0.312 1.354,-0.39c0.545,-0.167 1.106,-0.353 1.682,-0.563c0.076,0 0.123,0.022 0.139,0.067c0.016,0.043 0.024,0.133 0.024,0.273l0,2.14c0.697,-0.774 1.37,-1.378 2.017,-1.813c0.648,-0.435 1.319,-0.653 2.016,-0.653c0.555,0 1.008,0.133 1.355,0.398c0.349,0.265 0.523,0.598 0.523,0.998c0,0.356 -0.133,0.656 -0.4,0.899c-0.266,0.245 -0.601,0.367 -1.005,0.367c-0.414,0 -0.829,-0.153 -1.249,-0.457c-0.419,-0.304 -0.748,-0.456 -0.988,-0.456c-0.38,0 -0.848,0.245 -1.403,0.737c-0.555,0.492 -0.833,0.997 -0.833,1.519l0,5.884c0,0.748 0.218,1.268 0.653,1.558c0.435,0.292 1.16,0.429 2.171,0.412l0,0.431l-8.05,0l0,-0.431Z" style="fill-rule:nonzero;"/><path d="M565.723,272.163c0,-1.731 0.69,-3.193 2.066,-4.388c1.378,-1.196 3.148,-1.794 5.316,-1.794c2.154,0 3.94,0.565 5.355,1.696c1.415,1.131 2.123,2.634 2.123,4.514c0,1.73 -0.686,3.234 -2.058,4.514c-1.372,1.278 -3.146,1.917 -5.324,1.917c-2.089,0 -3.857,-0.614 -5.306,-1.839c-1.446,-1.227 -2.172,-2.766 -2.172,-4.62Zm6.923,-5.4c-0.858,0 -1.605,0.226 -2.236,0.678c-1.088,0.792 -1.633,2.158 -1.633,4.097c0,1.548 0.439,2.991 1.315,4.332c0.877,1.338 2.092,2.009 3.648,2.009c1.219,0 2.158,-0.449 2.817,-1.345c0.658,-0.896 0.988,-2.07 0.988,-3.522c0,-1.505 -0.42,-2.923 -1.257,-4.253c-0.839,-1.331 -2.052,-1.996 -3.642,-1.996Z" style="fill-rule:nonzero;"/><path d="M582.615,277.851c1.012,-0.078 1.698,-0.241 2.056,-0.488c0.359,-0.249 0.539,-0.733 0.539,-1.454l0,-12.746c0,-0.575 -0.058,-0.971 -0.18,-1.188c-0.218,-0.365 -0.659,-0.547 -1.321,-0.547c-0.153,0 -0.32,0.012 -0.498,0.039c-0.18,0.026 -0.406,0.065 -0.678,0.118l0,-0.432c1.47,-0.313 3.238,-0.731 5.306,-1.252c0.076,0 0.123,0.025 0.139,0.078c0.016,0.053 0.025,0.165 0.025,0.339l0,15.642c0,0.756 0.163,1.246 0.489,1.468c0.327,0.221 1.001,0.362 2.024,0.423l0,0.367l-7.901,0l0,-0.367Z" style="fill-rule:nonzero;"/><path d="M594.297,261.375c0,-0.374 0.163,-0.696 0.49,-0.964c0.326,-0.271 0.729,-0.406 1.208,-0.406c0.468,0 0.868,0.133 1.199,0.398c0.333,0.266 0.498,0.59 0.498,0.972c0,0.374 -0.165,0.694 -0.498,0.958c-0.331,0.267 -0.731,0.398 -1.199,0.398c-0.479,0 -0.882,-0.131 -1.208,-0.398c-0.327,-0.264 -0.49,-0.584 -0.49,-0.958Zm-2.091,16.476c1.166,-0.086 1.899,-0.245 2.205,-0.476c0.304,-0.229 0.457,-0.855 0.457,-1.872l0,-6.221c0,-0.567 -0.049,-0.959 -0.147,-1.174c-0.163,-0.357 -0.506,-0.535 -1.029,-0.535c-0.12,0 -0.236,0.008 -0.351,0.025c-0.114,0.018 -0.443,0.086 -0.988,0.208l0,-0.404l0.703,-0.182c1.904,-0.496 3.233,-0.87 3.983,-1.121c0.306,-0.106 0.502,-0.157 0.588,-0.157c0.022,0.061 0.034,0.125 0.034,0.196l0,9.365c0,0.992 0.149,1.613 0.449,1.866c0.297,0.253 0.976,0.414 2.032,0.482l0,0.367l-7.936,0l0,-0.367Z" style="fill-rule:nonzero;"/><path d="M601.783,277.851c0.772,-0.078 1.313,-0.231 1.625,-0.462c0.309,-0.23 0.464,-0.745 0.464,-1.547l0,-6.613c0,-0.557 -0.065,-0.949 -0.196,-1.174c-0.206,-0.331 -0.631,-0.496 -1.274,-0.496c-0.098,0 -0.198,0.004 -0.302,0.014c-0.102,0.008 -0.231,0.021 -0.382,0.039l0,-0.457c0.445,-0.106 1.501,-0.374 3.167,-0.809l1.535,-0.404c0.075,0 0.122,0.021 0.137,0.065c0.018,0.043 0.026,0.103 0.026,0.182l0,1.919c1.001,-0.749 1.786,-1.262 2.35,-1.541c0.851,-0.425 1.731,-0.639 2.646,-0.639c0.741,0 1.415,0.171 2.025,0.51c1.176,0.66 1.762,1.838 1.762,3.534l0,6.094c0,0.625 0.159,1.078 0.474,1.356c0.316,0.278 0.843,0.421 1.584,0.429l0,0.367l-6.972,0l0,-0.367c0.796,-0.086 1.351,-0.262 1.666,-0.527c0.316,-0.267 0.472,-0.841 0.472,-1.729l0,-5.57c0,-0.749 -0.174,-1.368 -0.521,-1.86c-0.349,-0.49 -0.992,-0.737 -1.927,-0.737c-0.643,0 -1.295,0.174 -1.96,0.523c-0.37,0.2 -0.848,0.529 -1.436,0.992l0,7.305c0,0.625 0.174,1.045 0.523,1.258c0.347,0.214 0.898,0.33 1.648,0.345l0,0.367l-7.134,0l0,-0.367Z" style="fill-rule:nonzero;"/><path d="M627.816,270.989c-1.252,0.331 -2.285,0.696 -3.103,1.098c-1.566,0.772 -2.35,1.652 -2.35,2.634c0,0.792 0.326,1.374 0.98,1.748c0.424,0.243 0.898,0.365 1.419,0.365c0.72,0 1.408,-0.161 2.066,-0.482c0.659,-0.322 0.988,-0.731 0.988,-1.227l0,-4.136Zm-8.359,4.632c0,-1.261 0.789,-2.313 2.367,-3.156c1.002,-0.523 2.999,-1.231 5.992,-2.127l0,-1.109c0,-0.888 -0.11,-1.505 -0.327,-1.852c-0.369,-0.582 -1.137,-0.875 -2.301,-0.875c-0.555,0 -1.084,0.114 -1.584,0.34c-0.502,0.235 -0.751,0.556 -0.751,0.964c0,0.106 0.028,0.282 0.081,0.529c0.055,0.247 0.082,0.406 0.082,0.476c0,0.487 -0.202,0.826 -0.604,1.018c-0.229,0.113 -0.501,0.17 -0.817,0.17c-0.49,0 -0.864,-0.129 -1.127,-0.386c-0.261,-0.257 -0.39,-0.541 -0.39,-0.854c0,-0.608 0.47,-1.245 1.411,-1.912c0.941,-0.664 2.321,-0.997 4.14,-0.997c2.111,0 3.542,0.549 4.294,1.644c0.402,0.6 0.604,1.474 0.604,2.623l0,5.229c0,0.506 0.043,0.853 0.129,1.045c0.143,0.339 0.437,0.51 0.882,0.51c0.251,0 0.459,-0.032 0.622,-0.092c0.162,-0.061 0.445,-0.21 0.848,-0.443l0,0.678c-0.348,0.339 -0.723,0.617 -1.127,0.835c-0.609,0.329 -1.229,0.496 -1.86,0.496c-0.741,0 -1.278,-0.192 -1.609,-0.575c-0.331,-0.382 -0.513,-0.839 -0.547,-1.37c-0.827,0.575 -1.534,1 -2.123,1.278c-0.989,0.471 -1.932,0.706 -2.824,0.706c-0.937,0 -1.746,-0.265 -2.432,-0.79c-0.686,-0.527 -1.029,-1.194 -1.029,-2.003Z" style="fill-rule:nonzero;"/></g></svg>