<?xml version="1.0" encoding="UTF-8" standalone="no"?><!DOCTYPE svg PUBLIC "-//W3C//DTD SVG 1.1//EN" "http://www.w3.org/Graphics/SVG/1.1/DTD/svg11.dtd"><svg width="100%" height="100%" viewBox="0 0 1058 361" version="1.1" xmlns="http://www.w3.org/2000/svg" xmlns:xlink="http://www.w3.org/1999/xlink" xml:space="preserve" xmlns:serif="http://www.serif.com/" style="fill-rule:evenodd;clip-rule:evenodd;stroke-linejoin:round;stroke-miterlimit:1.41421;"><path d="M715.949,77.271l0,-39.889l-25.403,0l0,-37.382l-34.611,0l0,37.382l-31.881,0l0,-22.297l-194.168,0l0,22.297l-31.881,0l0,-37.382l-34.611,0l0,37.382l-19.554,0l0,11.699l19.554,0l0,164.79l-25.403,0l0,44.798l9.996,0l0,102.331l357.965,0l0,-45.773l0,-22.484l0,-34.074l9.996,0l0,-44.798l-25.403,0l0,-164.79l13.704,0l0,39.889l27.76,0l0,0l0,-11.699l-16.06,0Zm-48.315,-65.572l11.213,0l0,202.172l-11.213,0l0,-202.172Zm-62.737,15.085l7.459,0l0,32.897l-7.459,0l0,-32.897Zm-24.026,0l12.327,0l0,32.897l-12.327,0l0,-32.897Zm-24.025,0l12.327,0l0,32.897l-12.327,0l0,-32.897Zm-24.026,0l12.326,0l0,32.897l-12.326,0l0,-32.897Zm-23.036,107.24c2.061,-7.56 8.983,-13.135 17.187,-13.135c8.204,0 15.126,5.575 17.188,13.135l-34.375,0Zm38.736,11.699l-6.363,36.58l-30.373,0l-6.363,-36.58l43.099,0Zm-39.725,-118.939l12.327,0l0,32.897l-12.327,0l0,-32.897Zm-24.027,0l12.327,0l0,32.897l-12.327,0l0,-32.897Zm-24.026,0l12.327,0l0,32.897l-12.327,0l0,-32.897Zm-19.157,0l7.458,0l0,32.897l-7.458,0l0,-32.897Zm-43.58,22.297l31.881,0l0,22.298l91.234,0l0,38.395c-11.977,2.418 -21.347,12.109 -23.29,24.25l-6.319,0l10.431,59.978l50.053,0l10.432,-59.978l-6.319,0c-1.943,-12.14 -11.313,-21.831 -23.29,-24.25l0,-38.395l91.236,0l0,-22.298l31.881,0l0,164.79l-257.93,0l0,-164.79Zm-22.912,-37.382l11.212,0l0,202.172l-11.212,0l0,-202.172Zm42.147,337.602l-57.554,0l0,-22.375l57.554,0l0,22.375Zm0,-68.257l-57.554,0l0,-22.375l57.554,0l0,22.375Zm-34.683,11.772l0,22.376l-22.871,0l0,-22.376l22.871,0Zm11.756,22.375l0,-22.375l57.555,0l0,22.375l-57.555,0Zm34.627,-34.147l0,-22.375l57.554,0l0,22.375l-57.554,0Zm57.554,68.257l-57.554,0l0,-22.375l57.554,0l0,22.375Zm-22.928,-34.11l0,-22.375l57.555,0l0,22.375l-57.555,0Zm34.627,-34.147l0,-22.375l57.554,0l0,22.375l-57.554,0Zm57.554,68.257l-57.554,0l0,-22.375l57.554,0l0,22.375Zm-22.926,-34.11l0,-22.375l57.553,0l0,22.375l-57.553,0Zm34.625,-34.147l0,-22.375l57.554,0l0,22.375l-57.554,0Zm57.554,68.257l-57.554,0l0,-22.375l57.554,0l0,22.375Zm-22.927,-34.11l0,-22.375l57.555,0l0,22.375l-57.555,0Zm92.181,34.11l-57.555,0l0,-22.375l57.555,0l0,22.375Zm-22.927,-34.11l0,-22.375l22.871,0l0,22.375l-22.871,0Zm22.927,-34.147l-57.555,0l0,-22.375l57.555,0l0,22.375Zm-3.708,-55.474l13.705,0l0,21.4l-67.551,0l-11.699,0l-57.555,0l-11.698,0l-57.554,0l-11.699,0l-57.555,0l-11.699,0l-67.551,0l0,-21.4l340.856,0Z" style="fill-rule:nonzero;"/></svg>