<?xml version="1.0" encoding="UTF-8" standalone="no"?><!DOCTYPE svg PUBLIC "-//W3C//DTD SVG 1.1//EN" "http://www.w3.org/Graphics/SVG/1.1/DTD/svg11.dtd"><svg width="100%" height="100%" viewBox="0 0 123 123" version="1.1" xmlns="http://www.w3.org/2000/svg" xmlns:xlink="http://www.w3.org/1999/xlink" xml:space="preserve" xmlns:serif="http://www.serif.com/" style="fill-rule:evenodd;clip-rule:evenodd;stroke-miterlimit:1.41421;"><g><g><clipPath id="_clip1"><path d="M119.507,61.694c0,32.121 -26.041,58.16 -58.16,58.16c-32.12,0 -58.159,-26.039 -58.159,-58.16c0,-32.119 26.039,-58.158 58.159,-58.158c32.119,0 58.16,26.039 58.16,58.158Z"/></clipPath><g clip-path="url(#_clip1)"><path d="M105.286,61.718c0,24.271 -19.675,43.945 -43.942,43.945c-24.27,0 -43.943,-19.674 -43.943,-43.945c0,-24.267 19.673,-43.939 43.943,-43.939c24.267,0 43.942,19.672 43.942,43.939Z" style="fill:#fff;fill-rule:nonzero;"/><path d="M105.286,61.718c0,24.271 -19.675,43.945 -43.942,43.945c-24.27,0 -43.943,-19.674 -43.943,-43.945c0,-24.267 19.673,-43.939 43.943,-43.939c24.267,0 43.942,19.672 43.942,43.939Z" style="fill:none;stroke:#265e7c;stroke-width:1.54px;"/><path d="M13.64,50.761c0,0 0.545,-2.635 3.91,-3.182c0.909,0.092 1.454,1.819 2.273,1.91c0.818,0.091 1.363,-2.091 2.909,-1.818c1.545,0.272 2.818,2.182 4.092,2.092c1.482,-0.108 3.452,-2.11 5.363,-1.729c1.82,0.363 1.82,0.363 4.002,0.546c2.181,0.182 9.273,-1.637 14.819,-1.091c5.546,0.545 8.273,1.819 9.82,1.636c1.545,-0.181 3.455,-2 5.092,-1.636c1.636,0.364 4.365,1.273 5.818,1.365c1.457,0.09 14.547,-2.547 18.457,-1.092c5.818,0.818 13.093,7.182 13.093,7.182l0,4.396l-88.648,0l-1,-8.579Z" style="fill:#dbe4e7;fill-rule:nonzero;"/><path d="M45.371,53.126c0,0 8.275,-0.455 10.365,-1.364c2.091,-0.909 12.639,1.637 14.366,0.818c1.728,-0.818 1.636,-1 3.093,-1.272c1.452,-0.273 12.636,0.908 14.637,1.455c2,0.545 5.001,1.636 7.819,1.091c1.364,-0.273 4.274,-0.909 6.364,-0.909c2.091,0 5.91,2.454 5.91,2.454l1.03,3.941l-63.765,0l0.181,-6.214Z" style="fill:#adc9da;fill-rule:nonzero;"/><path d="M14.185,54.489c0,0 3.455,-1.544 6.001,-0.908c7.364,0.908 8.728,0.181 11.911,-1.728c2.092,-0.818 5.455,2.092 7.637,1.546c2.182,-0.545 2.545,-0.819 4.091,-1.091c5.269,-0.576 19.65,6.084 31.368,3.952c11.717,-2.131 48.202,3.462 48.202,3.462l-8.521,30.894l-100.234,-29.762l-0.455,-6.365Z" style="fill:#5e85a5;fill-rule:nonzero;"/><path d="M12.075,62.917c0,0 9.854,-5.326 20.24,-5.858c10.386,-0.532 13.849,9.589 21.839,10.121c7.988,0.532 13.316,-3.197 22.104,-2.93c16.777,3.462 41.012,15.979 41.012,15.979l-13.849,21.573l-30.625,19.706l-42.079,-13.582l-18.642,-45.009Z" style="fill:#265e7c;fill-rule:nonzero;"/><path d="M105.286,61.32c0,24.268 -19.675,43.944 -43.942,43.944c-24.27,0 -43.943,-19.676 -43.943,-43.944c0,-24.268 19.673,-43.942 43.943,-43.942c24.267,0 43.942,19.674 43.942,43.942Z" style="fill:none;stroke:#265e7c;stroke-width:0.31px;"/><path d="M61.537,3.485l-0.004,0l-0.004,0l-0.025,0c-7.853,0 -15.479,1.541 -22.666,4.58c-6.935,2.932 -13.161,7.126 -18.504,12.466c-5.343,5.34 -9.54,11.563 -12.476,18.496c-3.043,7.186 -4.589,14.811 -4.593,22.663c-0.005,7.856 1.533,15.486 4.57,22.678c2.93,6.939 7.124,13.168 12.465,18.515c5.34,5.346 11.565,9.547 18.5,12.485c7.188,3.045 14.816,4.591 22.671,4.597l0.032,0c7.852,0 15.478,-1.541 22.666,-4.58c6.935,-2.933 13.16,-7.127 18.504,-12.467c5.343,-5.34 9.541,-11.563 12.477,-18.496c3.044,-7.186 4.59,-14.812 4.595,-22.665c0.003,-7.857 -1.534,-15.487 -4.572,-22.678c-2.93,-6.938 -7.124,-13.167 -12.464,-18.513c-5.341,-5.347 -11.565,-9.548 -18.5,-12.486c-7.189,-3.045 -14.817,-4.591 -22.672,-4.595Zm-0.033,15.681c0.008,0 0.016,0 0.025,0c23.504,0.013 42.546,19.078 42.535,42.581c-0.015,23.497 -19.068,42.536 -42.561,42.536c-0.009,0 -0.014,0 -0.022,0c-23.505,-0.014 -42.549,-19.077 -42.535,-42.584c0.014,-23.494 19.063,-42.532 42.558,-42.533Z" style="fill:#265e7c;fill-rule:nonzero;"/><path d="M24.951,113.236l7.923,0l0,-5.19l-2.007,0l5.764,-4.534l5.236,4.345l-2.195,0l0,5.288l6.085,-0.057l0,-13.384l8.12,0l0,12.417l2.541,0l0,-18.317l8.026,0l0,16.382l2.965,0l0,-10.08l6.186,-6.185l2.782,2.786l0,-2.736l1.891,0l0.001,4.625l1.507,1.51l0,6.964l6.243,0l0,-7.551l-3.116,0l7.554,-7.931l7.741,7.742l-3.303,0l0,7.861l8.843,0" style="fill:none;stroke:#fff;stroke-width:0.63px;"/><rect x="46.893" y="100.743" width="2.265" height="2.266" style="fill:none;stroke:#fff;stroke-width:0.46px;"/><rect x="57.929" y="95.031" width="1.888" height="3.542" style="fill:none;stroke:#fff;stroke-width:0.5px;"/><rect x="61.057" y="95.031" width="1.888" height="3.542" style="fill:none;stroke:#fff;stroke-width:0.5px;"/><rect x="57.929" y="99.925" width="1.888" height="3.544" style="fill:none;stroke:#fff;stroke-width:0.5px;"/><rect x="61.057" y="99.925" width="1.888" height="3.544" style="fill:none;stroke:#fff;stroke-width:0.5px;"/><rect x="57.929" y="104.857" width="1.888" height="3.545" style="fill:none;stroke:#fff;stroke-width:0.5px;"/><rect x="61.057" y="104.857" width="1.888" height="3.545" style="fill:none;stroke:#fff;stroke-width:0.5px;"/><rect x="50.384" y="100.743" width="2.267" height="2.266" style="fill:none;stroke:#fff;stroke-width:0.46px;"/><rect x="46.893" y="104.376" width="2.265" height="2.268" style="fill:none;stroke:#fff;stroke-width:0.46px;"/><rect x="50.384" y="104.376" width="2.267" height="2.268" style="fill:none;stroke:#fff;stroke-width:0.46px;"/><rect x="46.893" y="108.071" width="2.265" height="2.267" style="fill:none;stroke:#fff;stroke-width:0.46px;"/><rect x="50.384" y="108.071" width="2.267" height="2.267" style="fill:none;stroke:#fff;stroke-width:0.46px;"/><rect x="89.192" y="101.878" width="3.116" height="5.381" style="fill:none;stroke:#fff;stroke-width:0.46px;"/><rect x="35.382" y="109.697" width="1.862" height="3.662" style="fill:none;stroke:#fff;stroke-width:0.3px;"/><path d="M19.84,36.446c-0.289,-0.175 -0.568,-0.218 -0.837,-0.131c-0.269,0.088 -0.586,0.342 -0.954,0.761l2.074,1.256c0.201,-0.521 0.279,-0.919 0.236,-1.196c-0.044,-0.278 -0.216,-0.506 -0.519,-0.69Zm-3.416,-2.066c-0.694,-0.42 -1.366,-0.256 -2.013,0.495l2.509,1.518c0.364,-0.922 0.199,-1.593 -0.496,-2.013Zm5.003,-0.23c0.328,0.199 0.575,0.445 0.74,0.738c0.165,0.294 0.252,0.625 0.261,0.995c0.01,0.371 -0.059,0.773 -0.203,1.209c-0.145,0.435 -0.362,0.89 -0.65,1.366l-1.733,2.866l-7.952,-4.811l1.734,-2.865c0.268,-0.444 0.568,-0.819 0.898,-1.125c0.33,-0.305 0.672,-0.533 1.027,-0.684c0.354,-0.15 0.714,-0.215 1.081,-0.196c0.366,0.02 0.716,0.131 1.05,0.333c0.921,0.557 1.28,1.429 1.08,2.617c0.967,-0.785 1.856,-0.933 2.667,-0.443Z" style="fill:#fff;fill-rule:nonzero;"/><path d="M19.84,36.446c-0.289,-0.175 -0.568,-0.218 -0.837,-0.131c-0.269,0.088 -0.586,0.342 -0.954,0.761l2.074,1.256c0.201,-0.521 0.279,-0.919 0.236,-1.196c-0.044,-0.278 -0.216,-0.506 -0.519,-0.69Zm-3.416,-2.066c-0.694,-0.42 -1.366,-0.256 -2.013,0.495l2.509,1.518c0.364,-0.922 0.199,-1.593 -0.496,-2.013Zm5.003,-0.23c0.328,0.199 0.575,0.445 0.74,0.738c0.165,0.294 0.252,0.625 0.261,0.995c0.01,0.371 -0.059,0.773 -0.203,1.209c-0.145,0.435 -0.362,0.89 -0.65,1.366l-1.733,2.866l-7.952,-4.811l1.734,-2.865c0.268,-0.444 0.568,-0.819 0.898,-1.125c0.33,-0.305 0.672,-0.533 1.027,-0.684c0.354,-0.15 0.714,-0.215 1.081,-0.196c0.366,0.02 0.716,0.131 1.05,0.333c0.921,0.557 1.28,1.429 1.08,2.617c0.967,-0.785 1.856,-0.933 2.667,-0.443Z" style="fill:none;stroke:#231f20;stroke-width:0.43px;"/><path d="M21.157,28.592c-0.122,-0.1 -0.26,-0.143 -0.413,-0.128c-0.153,0.015 -0.28,0.084 -0.38,0.206c-0.101,0.122 -0.144,0.26 -0.129,0.414c0.016,0.152 0.084,0.28 0.206,0.379l3.528,2.901c0.117,0.096 0.253,0.138 0.409,0.125c0.156,-0.013 0.285,-0.08 0.385,-0.202c0.095,-0.115 0.136,-0.253 0.12,-0.412c-0.015,-0.159 -0.081,-0.286 -0.197,-0.381l-3.529,-2.902Zm4.029,0.393c0.296,0.243 0.528,0.532 0.697,0.865c0.169,0.334 0.271,0.68 0.306,1.04c0.035,0.36 0.002,0.72 -0.099,1.079c-0.101,0.36 -0.273,0.688 -0.517,0.984c-0.248,0.303 -0.538,0.539 -0.868,0.71c-0.331,0.171 -0.676,0.274 -1.036,0.31c-0.36,0.035 -0.718,0 -1.076,-0.104c-0.357,-0.103 -0.686,-0.281 -0.988,-0.529l-1.673,-1.375c-0.296,-0.244 -0.529,-0.532 -0.698,-0.865c-0.168,-0.333 -0.27,-0.68 -0.305,-1.041c-0.036,-0.359 -0.003,-0.719 0.099,-1.078c0.101,-0.36 0.273,-0.688 0.516,-0.985c0.244,-0.295 0.532,-0.527 0.862,-0.693c0.332,-0.166 0.679,-0.266 1.045,-0.302c0.365,-0.036 0.726,-0.004 1.083,0.095c0.356,0.099 0.683,0.27 0.979,0.514l1.673,1.375Z" style="fill:#fff;fill-rule:nonzero;"/><path d="M21.157,28.592c-0.122,-0.1 -0.26,-0.143 -0.413,-0.128c-0.153,0.015 -0.28,0.084 -0.38,0.206c-0.101,0.122 -0.144,0.26 -0.129,0.414c0.016,0.152 0.084,0.28 0.206,0.379l3.528,2.901c0.117,0.096 0.253,0.138 0.409,0.125c0.156,-0.013 0.285,-0.08 0.385,-0.202c0.095,-0.115 0.136,-0.253 0.12,-0.412c-0.015,-0.159 -0.081,-0.286 -0.197,-0.381l-3.529,-2.902Zm4.029,0.393c0.296,0.243 0.528,0.532 0.697,0.865c0.169,0.334 0.271,0.68 0.306,1.04c0.035,0.36 0.002,0.72 -0.099,1.079c-0.101,0.36 -0.273,0.688 -0.517,0.984c-0.248,0.303 -0.538,0.539 -0.868,0.71c-0.331,0.171 -0.676,0.274 -1.036,0.31c-0.36,0.035 -0.718,0 -1.076,-0.104c-0.357,-0.103 -0.686,-0.281 -0.988,-0.529l-1.673,-1.375c-0.296,-0.244 -0.529,-0.532 -0.698,-0.865c-0.168,-0.333 -0.27,-0.68 -0.305,-1.041c-0.036,-0.359 -0.003,-0.719 0.099,-1.078c0.101,-0.36 0.273,-0.688 0.516,-0.985c0.244,-0.295 0.532,-0.527 0.862,-0.693c0.332,-0.166 0.679,-0.266 1.045,-0.302c0.365,-0.036 0.726,-0.004 1.083,0.095c0.356,0.099 0.683,0.27 0.979,0.514l1.673,1.375Z" style="fill:none;stroke:#231f20;stroke-width:0.43px;"/><path d="M25.893,23.648c-0.108,-0.114 -0.239,-0.175 -0.393,-0.18c-0.154,-0.005 -0.289,0.046 -0.404,0.155c-0.115,0.107 -0.175,0.238 -0.18,0.392c-0.005,0.155 0.046,0.289 0.154,0.404l3.122,3.334c0.103,0.111 0.233,0.169 0.389,0.177c0.157,0.008 0.293,-0.042 0.408,-0.15c0.11,-0.103 0.167,-0.234 0.173,-0.394c0.005,-0.159 -0.044,-0.294 -0.147,-0.403l-3.122,-3.335Zm3.944,0.912c0.262,0.279 0.455,0.596 0.579,0.948c0.125,0.353 0.18,0.71 0.169,1.071c-0.012,0.361 -0.092,0.714 -0.238,1.057c-0.148,0.344 -0.361,0.647 -0.641,0.909c-0.285,0.268 -0.603,0.464 -0.953,0.592c-0.35,0.126 -0.705,0.184 -1.067,0.172c-0.361,-0.012 -0.712,-0.093 -1.053,-0.242c-0.341,-0.15 -0.645,-0.367 -0.912,-0.652l-1.481,-1.581c-0.261,-0.28 -0.455,-0.596 -0.579,-0.949c-0.124,-0.352 -0.18,-0.709 -0.169,-1.071c0.013,-0.361 0.092,-0.713 0.239,-1.057c0.147,-0.344 0.361,-0.646 0.64,-0.909c0.28,-0.262 0.595,-0.453 0.945,-0.575c0.349,-0.122 0.708,-0.176 1.074,-0.164c0.367,0.011 0.721,0.09 1.062,0.234c0.341,0.144 0.642,0.356 0.905,0.636l1.48,1.581Z" style="fill:#fff;fill-rule:nonzero;"/><path d="M25.893,23.648c-0.108,-0.114 -0.239,-0.175 -0.393,-0.18c-0.154,-0.005 -0.289,0.046 -0.404,0.155c-0.115,0.107 -0.175,0.238 -0.18,0.392c-0.005,0.155 0.046,0.289 0.154,0.404l3.122,3.334c0.103,0.111 0.233,0.169 0.389,0.177c0.157,0.008 0.293,-0.042 0.408,-0.15c0.11,-0.103 0.167,-0.234 0.173,-0.394c0.005,-0.159 -0.044,-0.294 -0.147,-0.403l-3.122,-3.335Zm3.944,0.912c0.262,0.279 0.455,0.596 0.579,0.948c0.125,0.353 0.18,0.71 0.169,1.071c-0.012,0.361 -0.092,0.714 -0.238,1.057c-0.148,0.344 -0.361,0.647 -0.641,0.909c-0.285,0.268 -0.603,0.464 -0.953,0.592c-0.35,0.126 -0.705,0.184 -1.067,0.172c-0.361,-0.012 -0.712,-0.093 -1.053,-0.242c-0.341,-0.15 -0.645,-0.367 -0.912,-0.652l-1.481,-1.581c-0.261,-0.28 -0.455,-0.596 -0.579,-0.949c-0.124,-0.352 -0.18,-0.709 -0.169,-1.071c0.013,-0.361 0.092,-0.713 0.239,-1.057c0.147,-0.344 0.361,-0.646 0.64,-0.909c0.28,-0.262 0.595,-0.453 0.945,-0.575c0.349,-0.122 0.708,-0.176 1.074,-0.164c0.367,0.011 0.721,0.09 1.062,0.234c0.341,0.144 0.642,0.356 0.905,0.636l1.48,1.581Z" style="fill:none;stroke:#231f20;stroke-width:0.43px;"/><path d="M34.775,24.312l-3.551,-4.948c-0.092,-0.128 -0.214,-0.204 -0.366,-0.229c-0.152,-0.026 -0.293,0.008 -0.421,0.101c-0.128,0.091 -0.203,0.212 -0.225,0.362c-0.022,0.15 0.013,0.289 0.105,0.418l3.551,4.947l-1.842,1.322l-4.498,-6.267l1.842,-1.322l0.243,0.339c0.137,-0.441 0.395,-0.797 0.774,-1.069c0.232,-0.166 0.487,-0.28 0.763,-0.339c0.277,-0.06 0.551,-0.067 0.824,-0.023c0.273,0.045 0.53,0.139 0.77,0.281c0.241,0.141 0.445,0.329 0.611,0.561l3.262,4.544l-1.842,1.322Z" style="fill:#fff;fill-rule:nonzero;"/><path d="M34.775,24.312l-3.551,-4.948c-0.092,-0.128 -0.214,-0.204 -0.366,-0.229c-0.152,-0.026 -0.293,0.008 -0.421,0.101c-0.128,0.091 -0.203,0.212 -0.225,0.362c-0.022,0.15 0.013,0.289 0.105,0.418l3.551,4.947l-1.842,1.322l-4.498,-6.267l1.842,-1.322l0.243,0.339c0.137,-0.441 0.395,-0.797 0.774,-1.069c0.232,-0.166 0.487,-0.28 0.763,-0.339c0.277,-0.06 0.551,-0.067 0.824,-0.023c0.273,0.045 0.53,0.139 0.77,0.281c0.241,0.141 0.445,0.329 0.611,0.561l3.262,4.544l-1.842,1.322Z" style="fill:none;stroke:#231f20;stroke-width:0.43px;"/><path d="M37.328,22.563l-1.256,-2.373l-0.369,0.196l-0.58,-1.097l0.369,-0.195l-1.772,-3.349l5.073,-2.686l0.496,0.937l-3.08,1.631l1.277,2.412l0.906,-0.48l0.581,1.096l-0.907,0.481l0.76,1.435l3.08,-1.63l0.496,0.937l-5.074,2.685Z" style="fill:#fff;fill-rule:nonzero;"/><path d="M37.328,22.563l-1.256,-2.373l-0.369,0.196l-0.58,-1.097l0.369,-0.195l-1.772,-3.349l5.073,-2.686l0.496,0.937l-3.08,1.631l1.277,2.412l0.906,-0.48l0.581,1.096l-0.907,0.481l0.76,1.435l3.08,-1.63l0.496,0.937l-5.074,2.685Z" style="fill:none;stroke:#231f20;stroke-width:0.43px;"/><path d="M49.542,17.452l-0.897,-3.11l-1.474,0.425l0.897,3.11l-2.612,0.753l-0.896,-3.11l-0.488,0.141l-0.413,-1.431l0.488,-0.141l-1.265,-4.389l2.611,-0.753l1.266,4.389l1.474,-0.424l-1.266,-4.389l2.612,-0.754l2.574,8.93l-2.611,0.753Z" style="fill:#fff;fill-rule:nonzero;"/><path d="M49.542,17.452l-0.897,-3.11l-1.474,0.425l0.897,3.11l-2.612,0.753l-0.896,-3.11l-0.488,0.141l-0.413,-1.431l0.488,-0.141l-1.265,-4.389l2.611,-0.753l1.266,4.389l1.474,-0.424l-1.266,-4.389l2.612,-0.754l2.574,8.93l-2.611,0.753Z" style="fill:none;stroke:#231f20;stroke-width:0.43px;"/><path d="M52.63,16.741l-1.291,-7.605l2.212,-0.376l1.292,7.606l-2.213,0.375Z" style="fill:#fff;fill-rule:nonzero;"/><path d="M52.63,16.741l-1.291,-7.605l2.212,-0.376l1.292,7.606l-2.213,0.375Z" style="fill:none;stroke:#231f20;stroke-width:0.43px;"/><path d="M59.974,15.878l-0.285,-0.476c-0.477,0.367 -0.997,0.572 -1.56,0.615c-0.39,0.029 -0.761,-0.016 -1.112,-0.137c-0.353,-0.12 -0.666,-0.299 -0.94,-0.534c-0.274,-0.236 -0.497,-0.518 -0.669,-0.849c-0.172,-0.33 -0.273,-0.69 -0.302,-1.08l-0.157,-2.069c-0.028,-0.383 0.019,-0.751 0.144,-1.103c0.124,-0.352 0.304,-0.665 0.54,-0.939c0.235,-0.274 0.518,-0.5 0.847,-0.675c0.331,-0.175 0.687,-0.278 1.069,-0.307c0.375,-0.028 0.735,0.016 1.079,0.134c0.344,0.117 0.653,0.29 0.927,0.518c0.274,0.228 0.5,0.502 0.679,0.82c0.178,0.318 0.289,0.664 0.332,1.037l-2.249,0.171l-0.083,-1.103c-0.013,-0.157 -0.077,-0.286 -0.194,-0.386c-0.117,-0.101 -0.254,-0.145 -0.412,-0.134c-0.156,0.012 -0.286,0.076 -0.386,0.194c-0.1,0.116 -0.145,0.254 -0.133,0.411l0.336,4.453c0.012,0.158 0.076,0.287 0.193,0.388c0.117,0.1 0.254,0.144 0.412,0.133c0.157,-0.012 0.286,-0.076 0.387,-0.194c0.1,-0.117 0.145,-0.254 0.133,-0.411l-0.166,-2.193l2.249,-0.17l0.288,3.812l-0.967,0.074Z" style="fill:#fff;fill-rule:nonzero;"/><path d="M59.974,15.878l-0.285,-0.476c-0.477,0.367 -0.997,0.572 -1.56,0.615c-0.39,0.029 -0.761,-0.016 -1.112,-0.137c-0.353,-0.12 -0.666,-0.299 -0.94,-0.534c-0.274,-0.236 -0.497,-0.518 -0.669,-0.849c-0.172,-0.33 -0.273,-0.69 -0.302,-1.08l-0.157,-2.069c-0.028,-0.383 0.019,-0.751 0.144,-1.103c0.124,-0.352 0.304,-0.665 0.54,-0.939c0.235,-0.274 0.518,-0.5 0.847,-0.675c0.331,-0.175 0.687,-0.278 1.069,-0.307c0.375,-0.028 0.735,0.016 1.079,0.134c0.344,0.117 0.653,0.29 0.927,0.518c0.274,0.228 0.5,0.502 0.679,0.82c0.178,0.318 0.289,0.664 0.332,1.037l-2.249,0.171l-0.083,-1.103c-0.013,-0.157 -0.077,-0.286 -0.194,-0.386c-0.117,-0.101 -0.254,-0.145 -0.412,-0.134c-0.156,0.012 -0.286,0.076 -0.386,0.194c-0.1,0.116 -0.145,0.254 -0.133,0.411l0.336,4.453c0.012,0.158 0.076,0.287 0.193,0.388c0.117,0.1 0.254,0.144 0.412,0.133c0.157,-0.012 0.286,-0.076 0.387,-0.194c0.1,-0.117 0.145,-0.254 0.133,-0.411l-0.166,-2.193l2.249,-0.17l0.288,3.812l-0.967,0.074Z" style="fill:none;stroke:#231f20;stroke-width:0.43px;"/><path d="M65.3,16.015l0.16,-2.679l-1.272,-0.076l-0.16,2.679l-2.251,-0.134l0.159,-2.679l-0.417,-0.025l0.075,-1.239l0.416,0.025l0.225,-3.783l2.252,0.134l-0.225,3.783l1.272,0.076l0.225,-3.783l2.252,0.134l-0.459,7.701l-2.252,-0.134Z" style="fill:#fff;fill-rule:nonzero;"/><path d="M65.3,16.015l0.16,-2.679l-1.272,-0.076l-0.16,2.679l-2.251,-0.134l0.159,-2.679l-0.417,-0.025l0.075,-1.239l0.416,0.025l0.225,-3.783l2.252,0.134l-0.225,3.783l1.272,0.076l0.225,-3.783l2.252,0.134l-0.459,7.701l-2.252,-0.134Z" style="fill:none;stroke:#231f20;stroke-width:0.43px;"/><path d="M77.112,16.289c-0.283,0.336 -0.613,0.609 -0.987,0.817c-0.374,0.208 -0.78,0.343 -1.216,0.406c-0.437,0.063 -0.873,0.037 -1.309,-0.079c-0.451,-0.119 -0.851,-0.318 -1.201,-0.598c-0.349,-0.28 -0.634,-0.608 -0.853,-0.985c-0.219,-0.377 -0.363,-0.787 -0.433,-1.229c-0.069,-0.442 -0.044,-0.889 0.076,-1.339l0.641,-2.42c0.118,-0.443 0.317,-0.842 0.597,-1.196c0.281,-0.353 0.609,-0.639 0.987,-0.858c0.377,-0.219 0.786,-0.363 1.229,-0.433c0.442,-0.069 0.888,-0.044 1.339,0.075c0.436,0.116 0.828,0.31 1.176,0.581c0.348,0.271 0.632,0.592 0.854,0.961c0.221,0.37 0.371,0.77 0.452,1.199c0.08,0.431 0.07,0.865 -0.031,1.305l-2.628,-0.697l0.342,-1.287c0.048,-0.181 0.023,-0.353 -0.073,-0.514c-0.098,-0.163 -0.237,-0.268 -0.419,-0.315c-0.181,-0.049 -0.351,-0.026 -0.508,0.069c-0.157,0.094 -0.26,0.232 -0.308,0.414l-1.382,5.211c-0.048,0.182 -0.027,0.353 0.062,0.512c0.09,0.16 0.226,0.264 0.407,0.313c0.182,0.047 0.355,0.025 0.52,-0.067c0.164,-0.092 0.271,-0.229 0.319,-0.411l0.341,-1.286l2.628,0.696c-0.131,0.432 -0.338,0.817 -0.622,1.155Z" style="fill:#fff;fill-rule:nonzero;"/><path d="M77.112,16.289c-0.283,0.336 -0.613,0.609 -0.987,0.817c-0.374,0.208 -0.78,0.343 -1.216,0.406c-0.437,0.063 -0.873,0.037 -1.309,-0.079c-0.451,-0.119 -0.851,-0.318 -1.201,-0.598c-0.349,-0.28 -0.634,-0.608 -0.853,-0.985c-0.219,-0.377 -0.363,-0.787 -0.433,-1.229c-0.069,-0.442 -0.044,-0.889 0.076,-1.339l0.641,-2.42c0.118,-0.443 0.317,-0.842 0.597,-1.196c0.281,-0.353 0.609,-0.639 0.987,-0.858c0.377,-0.219 0.786,-0.363 1.229,-0.433c0.442,-0.069 0.888,-0.044 1.339,0.075c0.436,0.116 0.828,0.31 1.176,0.581c0.348,0.271 0.632,0.592 0.854,0.961c0.221,0.37 0.371,0.77 0.452,1.199c0.08,0.431 0.07,0.865 -0.031,1.305l-2.628,-0.697l0.342,-1.287c0.048,-0.181 0.023,-0.353 -0.073,-0.514c-0.098,-0.163 -0.237,-0.268 -0.419,-0.315c-0.181,-0.049 -0.351,-0.026 -0.508,0.069c-0.157,0.094 -0.26,0.232 -0.308,0.414l-1.382,5.211c-0.048,0.182 -0.027,0.353 0.062,0.512c0.09,0.16 0.226,0.264 0.407,0.313c0.182,0.047 0.355,0.025 0.52,-0.067c0.164,-0.092 0.271,-0.229 0.319,-0.411l0.341,-1.286l2.628,0.696c-0.131,0.432 -0.338,0.817 -0.622,1.155Z" style="fill:none;stroke:#231f20;stroke-width:0.43px;"/><path d="M82.758,14.194c0.061,-0.146 0.063,-0.289 0.005,-0.433c-0.057,-0.142 -0.158,-0.245 -0.304,-0.306c-0.145,-0.062 -0.29,-0.064 -0.433,-0.007c-0.142,0.059 -0.244,0.16 -0.306,0.306l-1.786,4.204c-0.059,0.138 -0.06,0.28 -0.003,0.427c0.056,0.147 0.157,0.251 0.302,0.312c0.138,0.059 0.281,0.059 0.43,-0.002c0.147,-0.059 0.251,-0.158 0.309,-0.296l1.786,-4.205Zm0.763,3.976c-0.15,0.352 -0.362,0.657 -0.634,0.913c-0.272,0.256 -0.576,0.452 -0.911,0.587c-0.335,0.136 -0.69,0.206 -1.064,0.21c-0.373,0.005 -0.736,-0.068 -1.089,-0.217c-0.36,-0.153 -0.669,-0.364 -0.926,-0.632c-0.258,-0.27 -0.454,-0.572 -0.59,-0.906c-0.135,-0.336 -0.203,-0.689 -0.204,-1.061c-0.002,-0.373 0.074,-0.739 0.227,-1.099l0.846,-1.993c0.15,-0.353 0.361,-0.657 0.633,-0.914c0.272,-0.256 0.576,-0.451 0.912,-0.587c0.335,-0.135 0.689,-0.205 1.063,-0.21c0.373,-0.005 0.737,0.068 1.089,0.218c0.353,0.15 0.656,0.36 0.909,0.631c0.253,0.271 0.448,0.576 0.585,0.916c0.137,0.34 0.209,0.695 0.216,1.065c0.005,0.371 -0.067,0.732 -0.216,1.085l-0.846,1.994Z" style="fill:#fff;fill-rule:nonzero;"/><path d="M82.758,14.194c0.061,-0.146 0.063,-0.289 0.005,-0.433c-0.057,-0.142 -0.158,-0.245 -0.304,-0.306c-0.145,-0.062 -0.29,-0.064 -0.433,-0.007c-0.142,0.059 -0.244,0.16 -0.306,0.306l-1.786,4.204c-0.059,0.138 -0.06,0.28 -0.003,0.427c0.056,0.147 0.157,0.251 0.302,0.312c0.138,0.059 0.281,0.059 0.43,-0.002c0.147,-0.059 0.251,-0.158 0.309,-0.296l1.786,-4.205Zm0.763,3.976c-0.15,0.352 -0.362,0.657 -0.634,0.913c-0.272,0.256 -0.576,0.452 -0.911,0.587c-0.335,0.136 -0.69,0.206 -1.064,0.21c-0.373,0.005 -0.736,-0.068 -1.089,-0.217c-0.36,-0.153 -0.669,-0.364 -0.926,-0.632c-0.258,-0.27 -0.454,-0.572 -0.59,-0.906c-0.135,-0.336 -0.203,-0.689 -0.204,-1.061c-0.002,-0.373 0.074,-0.739 0.227,-1.099l0.846,-1.993c0.15,-0.353 0.361,-0.657 0.633,-0.914c0.272,-0.256 0.576,-0.451 0.912,-0.587c0.335,-0.135 0.689,-0.205 1.063,-0.21c0.373,-0.005 0.737,0.068 1.089,0.218c0.353,0.15 0.656,0.36 0.909,0.631c0.253,0.271 0.448,0.576 0.585,0.916c0.137,0.34 0.209,0.695 0.216,1.065c0.005,0.371 -0.067,0.732 -0.216,1.085l-0.846,1.994Z" style="fill:none;stroke:#231f20;stroke-width:0.43px;"/><path d="M88.319,22.194c-0.304,0.219 -0.63,0.374 -0.98,0.464c-0.35,0.091 -0.711,0.115 -1.081,0.071c-0.371,-0.044 -0.723,-0.162 -1.053,-0.357c-0.337,-0.198 -0.616,-0.447 -0.837,-0.746c-0.22,-0.301 -0.376,-0.625 -0.467,-0.975c-0.091,-0.35 -0.113,-0.709 -0.066,-1.079c0.047,-0.369 0.169,-0.722 0.368,-1.059l2.525,-4.298l1.954,1.149l-3.137,5.338c-0.076,0.13 -0.097,0.269 -0.063,0.42c0.033,0.151 0.118,0.266 0.254,0.345c0.137,0.081 0.279,0.102 0.428,0.063c0.149,-0.039 0.264,-0.126 0.344,-0.262l3.137,-5.339l1.945,1.143l-2.526,4.298c-0.194,0.33 -0.443,0.605 -0.745,0.824Z" style="fill:#fff;fill-rule:nonzero;"/><path d="M88.319,22.194c-0.304,0.219 -0.63,0.374 -0.98,0.464c-0.35,0.091 -0.711,0.115 -1.081,0.071c-0.371,-0.044 -0.723,-0.162 -1.053,-0.357c-0.337,-0.198 -0.616,-0.447 -0.837,-0.746c-0.22,-0.301 -0.376,-0.625 -0.467,-0.975c-0.091,-0.35 -0.113,-0.709 -0.066,-1.079c0.047,-0.369 0.169,-0.722 0.368,-1.059l2.525,-4.298l1.954,1.149l-3.137,5.338c-0.076,0.13 -0.097,0.269 -0.063,0.42c0.033,0.151 0.118,0.266 0.254,0.345c0.137,0.081 0.279,0.102 0.428,0.063c0.149,-0.039 0.264,-0.126 0.344,-0.262l3.137,-5.339l1.945,1.143l-2.526,4.298c-0.194,0.33 -0.443,0.605 -0.745,0.824Z" style="fill:none;stroke:#231f20;stroke-width:0.43px;"/><path d="M90.709,26.044l3.741,-4.805c0.097,-0.125 0.136,-0.263 0.117,-0.417c-0.019,-0.152 -0.09,-0.278 -0.215,-0.375c-0.124,-0.096 -0.262,-0.134 -0.412,-0.113c-0.15,0.022 -0.274,0.094 -0.371,0.219l-3.742,4.805l-1.788,-1.393l4.739,-6.086l1.789,1.393l-0.256,0.329c0.461,0.007 0.876,0.153 1.244,0.44c0.225,0.176 0.406,0.387 0.541,0.636c0.136,0.248 0.22,0.51 0.255,0.784c0.033,0.274 0.016,0.547 -0.051,0.818c-0.069,0.271 -0.191,0.519 -0.366,0.745l-3.437,4.413l-1.788,-1.393Z" style="fill:#fff;fill-rule:nonzero;"/><path d="M90.709,26.044l3.741,-4.805c0.097,-0.125 0.136,-0.263 0.117,-0.417c-0.019,-0.152 -0.09,-0.278 -0.215,-0.375c-0.124,-0.096 -0.262,-0.134 -0.412,-0.113c-0.15,0.022 -0.274,0.094 -0.371,0.219l-3.742,4.805l-1.788,-1.393l4.739,-6.086l1.789,1.393l-0.256,0.329c0.461,0.007 0.876,0.153 1.244,0.44c0.225,0.176 0.406,0.387 0.541,0.636c0.136,0.248 0.22,0.51 0.255,0.784c0.033,0.274 0.016,0.547 -0.051,0.818c-0.069,0.271 -0.191,0.519 -0.366,0.745l-3.437,4.413l-1.788,-1.393Z" style="fill:none;stroke:#231f20;stroke-width:0.43px;"/><path d="M100.482,26.025l-4.758,4.652l-1.585,-1.62l4.758,-4.653l-1.325,-1.355l0.758,-0.74l4.226,4.322l-0.757,0.741l-1.317,-1.347Z" style="fill:#fff;fill-rule:nonzero;"/><path d="M100.482,26.025l-4.758,4.652l-1.585,-1.62l4.758,-4.653l-1.325,-1.355l0.758,-0.74l4.226,4.322l-0.757,0.741l-1.317,-1.347Z" style="fill:none;stroke:#231f20;stroke-width:0.43px;"/><path d="M103.765,32.347c0.28,-0.204 0.461,-0.478 0.544,-0.823c0.083,-0.345 0.05,-0.677 -0.099,-0.997l-2.314,1.691c0.259,0.239 0.566,0.372 0.92,0.397c0.354,0.026 0.669,-0.063 0.949,-0.268Zm-4.204,3.059l1.247,-0.912c0.273,-0.199 0.428,-0.452 0.465,-0.759c0.038,-0.306 -0.046,-0.599 -0.25,-0.878l-2.168,1.584l-1.337,-1.83l2.167,-1.584l-0.213,-0.292l1.001,-0.732l0.214,0.292l3.059,-2.236l1.651,2.257c0.447,0.614 0.668,1.291 0.66,2.032c-0.011,0.8 -0.321,1.422 -0.927,1.866c-0.365,0.266 -0.767,0.407 -1.208,0.421c-0.441,0.016 -0.869,-0.077 -1.284,-0.276c0.004,0.592 -0.125,1.15 -0.386,1.671c-0.261,0.522 -0.628,0.955 -1.102,1.302l-0.119,0.086l-1.47,-2.012Z" style="fill:#fff;fill-rule:nonzero;"/><path d="M103.765,32.347c0.28,-0.204 0.461,-0.478 0.544,-0.823c0.083,-0.345 0.05,-0.677 -0.099,-0.997l-2.314,1.691c0.259,0.239 0.566,0.372 0.92,0.397c0.354,0.026 0.669,-0.063 0.949,-0.268Zm-4.204,3.059l1.247,-0.912c0.273,-0.199 0.428,-0.452 0.465,-0.759c0.038,-0.306 -0.046,-0.599 -0.25,-0.878l-2.168,1.584l-1.337,-1.83l2.167,-1.584l-0.213,-0.292l1.001,-0.732l0.214,0.292l3.059,-2.236l1.651,2.257c0.447,0.614 0.668,1.291 0.66,2.032c-0.011,0.8 -0.321,1.422 -0.927,1.866c-0.365,0.266 -0.767,0.407 -1.208,0.421c-0.441,0.016 -0.869,-0.077 -1.284,-0.276c0.004,0.592 -0.125,1.15 -0.386,1.671c-0.261,0.522 -0.628,0.955 -1.102,1.302l-0.119,0.086l-1.47,-2.012Z" style="fill:none;stroke:#231f20;stroke-width:0.43px;"/><path d="M107.793,40.535c-0.271,0.051 -0.542,0.066 -0.814,0.045c-0.271,-0.022 -0.535,-0.081 -0.792,-0.178c-0.256,-0.097 -0.491,-0.234 -0.704,-0.41l-2.388,1.276l-1.063,-1.99l2.388,-1.275c-0.021,-0.279 -0.004,-0.553 0.053,-0.822c0.057,-0.269 0.15,-0.521 0.28,-0.756c0.13,-0.236 0.292,-0.451 0.487,-0.644c0.195,-0.195 0.414,-0.357 0.661,-0.488l2.138,-1.142l1.063,1.989l-3.193,1.706c-0.139,0.075 -0.232,0.186 -0.276,0.333c-0.045,0.148 -0.03,0.291 0.044,0.43c0.075,0.14 0.186,0.232 0.334,0.276c0.147,0.045 0.29,0.031 0.43,-0.044l3.192,-1.707l1.064,1.991l-2.139,1.142c-0.239,0.128 -0.494,0.217 -0.765,0.268Z" style="fill:#fff;fill-rule:nonzero;"/><path d="M107.793,40.535c-0.271,0.051 -0.542,0.066 -0.814,0.045c-0.271,-0.022 -0.535,-0.081 -0.792,-0.178c-0.256,-0.097 -0.491,-0.234 -0.704,-0.41l-2.388,1.276l-1.063,-1.99l2.388,-1.275c-0.021,-0.279 -0.004,-0.553 0.053,-0.822c0.057,-0.269 0.15,-0.521 0.28,-0.756c0.13,-0.236 0.292,-0.451 0.487,-0.644c0.195,-0.195 0.414,-0.357 0.661,-0.488l2.138,-1.142l1.063,1.989l-3.193,1.706c-0.139,0.075 -0.232,0.186 -0.276,0.333c-0.045,0.148 -0.03,0.291 0.044,0.43c0.075,0.14 0.186,0.232 0.334,0.276c0.147,0.045 0.29,0.031 0.43,-0.044l3.192,-1.707l1.064,1.991l-2.139,1.142c-0.239,0.128 -0.494,0.217 -0.765,0.268Z" style="fill:none;stroke:#231f20;stroke-width:0.43px;"/></g></g><path d="M22.089,78.575c0.164,-0.062 0.325,-0.137 0.48,-0.228c0.305,-0.177 0.571,-0.399 0.79,-0.662c0.219,-0.265 0.396,-0.563 0.523,-0.884c0.127,-0.318 0.191,-0.655 0.191,-1.006c0,-0.343 -0.063,-0.669 -0.192,-1c-0.127,-0.326 -0.305,-0.624 -0.531,-0.888c-0.227,-0.266 -0.495,-0.495 -0.8,-0.683c-0.148,-0.092 -0.302,-0.169 -0.461,-0.231l0,5.582Zm1.961,9.825l0,-4.044c0,-0.337 -0.059,-0.648 -0.175,-0.924c-0.115,-0.272 -0.276,-0.501 -0.49,-0.697c-0.214,-0.196 -0.471,-0.353 -0.765,-0.467c-0.169,-0.064 -0.347,-0.109 -0.531,-0.137l0,6.269l-6.161,0l0,-6.3l-0.857,0l0,-3.745l0.857,0l0,-8.891l6.966,0c0.962,0 1.903,0.16 2.797,0.475c0.887,0.313 1.683,0.754 2.365,1.312c0.685,0.559 1.242,1.234 1.654,2.005c0.42,0.787 0.633,1.641 0.633,2.539c0,1.057 -0.312,2.069 -0.927,3.007c-0.496,0.757 -1.144,1.409 -1.933,1.944c0.955,0.776 1.719,1.716 2.274,2.802c0.651,1.268 0.981,2.639 0.981,4.076l0,0.776l-6.688,0Z" style="fill:#fff56c;fill-rule:nonzero;"/><path d="M22.512,77.883l0,-4.175c0.192,0.138 0.364,0.297 0.515,0.473c0.196,0.229 0.349,0.486 0.459,0.767c0.11,0.282 0.163,0.558 0.163,0.847c0,0.297 -0.054,0.581 -0.16,0.845c-0.112,0.285 -0.266,0.544 -0.457,0.776c-0.148,0.178 -0.323,0.334 -0.52,0.467Zm0.382,-8.843l-6.543,0l-0.847,0l0,8.892l-0.009,0l-0.848,0l0,4.592l0.857,0l0,6.3l7.008,0l0,-0.848l0,-5.295c0.222,0.091 0.422,0.215 0.588,0.367c0.167,0.153 0.293,0.334 0.386,0.551c0.093,0.221 0.141,0.477 0.141,0.757l0,4.468l7.534,0l0,-0.848l0,-0.352c0,-1.505 -0.345,-2.942 -1.027,-4.27c-0.499,-0.977 -1.16,-1.841 -1.97,-2.581c0.638,-0.499 1.176,-1.081 1.607,-1.739c0.661,-1.008 0.996,-2.098 0.996,-3.239c0,-0.968 -0.229,-1.889 -0.683,-2.739c-0.439,-0.82 -1.031,-1.538 -1.761,-2.133c-0.718,-0.589 -1.557,-1.054 -2.491,-1.384c-0.94,-0.331 -1.928,-0.499 -2.938,-0.499Zm-1.229,10.089c0.395,-0.072 0.767,-0.211 1.118,-0.416c0.351,-0.203 0.652,-0.457 0.901,-0.757c0.248,-0.299 0.447,-0.632 0.592,-1c0.146,-0.364 0.22,-0.753 0.22,-1.161c0,-0.397 -0.074,-0.78 -0.22,-1.154c-0.145,-0.374 -0.348,-0.71 -0.604,-1.009c-0.255,-0.3 -0.556,-0.557 -0.899,-0.769c-0.344,-0.212 -0.713,-0.356 -1.108,-0.429l0,6.695Zm1.229,-9.241c0.922,0 1.806,0.151 2.656,0.45c0.848,0.3 1.594,0.714 2.238,1.241c0.644,0.526 1.161,1.152 1.548,1.876c0.387,0.725 0.583,1.505 0.583,2.34c0,0.979 -0.286,1.904 -0.858,2.775c-0.57,0.871 -1.346,1.585 -2.326,2.141c1.142,0.805 2.024,1.815 2.645,3.03c0.623,1.214 0.934,2.508 0.934,3.883l0,0.352l-5.84,0l0,-3.62c0,-0.396 -0.07,-0.76 -0.208,-1.089c-0.14,-0.328 -0.338,-0.609 -0.594,-0.845c-0.255,-0.233 -0.556,-0.416 -0.899,-0.549c-0.344,-0.13 -0.713,-0.197 -1.108,-0.197l0,6.3l-5.314,0l0,-6.3l-0.856,0l0,-2.897l0.856,0l0,-8.891l6.543,0Z" style="fill:#231f20;fill-rule:nonzero;"/><path d="M32.018,88.4l0,-5.224l-0.811,0l0,-3.262l0.811,0l0,-7.377l12.022,0l0,2.913l-6.782,0l0,4.464l1.996,0l0,3.262l-1.996,0l0,2.313l6.782,0l0,2.911l-12.022,0Z" style="fill:#fff56c;fill-rule:nonzero;"/><path d="M44.464,72.113l-0.848,0l-11.174,0l-0.848,0l0,7.378l-0.811,0l0,4.109l0.811,0l0,5.224l12.87,0l0,-0.848l0,-2.063l0,-0.847l-0.848,0l-5.935,0l0,-1.466l1.996,0l0,-0.848l0,-2.414l0,-0.847l-0.847,0l-1.149,0l0,-3.618l6.783,0l0,-0.847l0,-2.066l0,-0.847Zm-0.848,0.847l0,2.066l-6.782,0l0,5.312l1.996,0l0,2.414l-1.996,0l0,3.161l6.782,0l0,2.063l-11.174,0l0,-5.224l-0.812,0l0,-2.414l0.812,0l0,-7.378l11.174,0Z" style="fill:#231f20;fill-rule:nonzero;"/><path d="M51.095,88.4l0,-12.276c0,-0.196 -0.062,-0.349 -0.193,-0.48c-0.134,-0.132 -0.287,-0.194 -0.481,-0.194c-0.192,0 -0.34,0.06 -0.464,0.189c-0.128,0.132 -0.188,0.286 -0.188,0.485l0,12.276l-5.261,0l0,-15.863l5.261,0l0,0.472c0.617,-0.314 1.291,-0.472 2.013,-0.472c0.607,0 1.199,0.123 1.759,0.364c0.554,0.242 1.045,0.575 1.46,0.991c0.416,0.417 0.749,0.903 0.989,1.444c0.242,0.55 0.365,1.14 0.365,1.753l0,11.311l-5.26,0Z" style="fill:#fff56c;fill-rule:nonzero;"/><path d="M51.782,72.113c-0.557,0 -1.088,0.086 -1.59,0.257l0,-0.257l-0.847,0l-4.413,0l-0.848,0l0,16.711l6.108,0l0,-0.848l0,-11.852c0,-0.1 0.025,-0.145 0.069,-0.19c0.034,-0.036 0.066,-0.061 0.16,-0.061c0.093,0 0.135,0.025 0.184,0.073c0.042,0.042 0.066,0.084 0.066,0.178l0,12.7l6.108,0l0,-0.848l0,-10.887c0,-0.673 -0.135,-1.32 -0.402,-1.924c-0.261,-0.59 -0.623,-1.118 -1.076,-1.573c-0.452,-0.453 -0.987,-0.816 -1.589,-1.079c-0.617,-0.266 -1.265,-0.4 -1.93,-0.4Zm0,0.847c0.556,0 1.086,0.112 1.591,0.331c0.505,0.22 0.947,0.519 1.328,0.9c0.38,0.381 0.681,0.819 0.901,1.317c0.22,0.498 0.329,1.025 0.329,1.581l0,10.887l-4.412,0l0,-11.852c0,-0.308 -0.106,-0.569 -0.318,-0.78c-0.214,-0.213 -0.472,-0.318 -0.78,-0.318c-0.307,0 -0.564,0.105 -0.769,0.318c-0.205,0.211 -0.307,0.472 -0.307,0.78l0,11.852l-4.413,0l0,-15.016l4.413,0l0,0.813c0.717,-0.54 1.529,-0.813 2.437,-0.813Z" style="fill:#231f20;fill-rule:nonzero;"/><path d="M60.513,88.4l0,-12.95l-3.689,0l0,-2.913l12.615,0l0,2.913l-3.668,0l0,12.95l-5.258,0Z" style="fill:#fff56c;fill-rule:nonzero;"/><path d="M69.862,72.113l-0.847,0l-11.767,0l-0.848,0l0,3.76l3.69,0l0,12.951l6.105,0l0,-0.848l0,-12.103l3.667,0l0,-0.847l0,-2.066l0,-0.847Zm-0.847,0.847l0,2.066l-3.667,0l0,12.95l-4.411,0l0,-12.95l-3.689,0l0,-2.066l11.767,0Z" style="fill:#231f20;fill-rule:nonzero;"/><path d="M77.306,79.914l0,-3.79c0,-0.195 -0.062,-0.347 -0.195,-0.479c-0.133,-0.134 -0.278,-0.195 -0.458,-0.195c-0.195,0 -0.346,0.061 -0.476,0.192c-0.136,0.134 -0.197,0.286 -0.197,0.482l0,3.79l1.326,0Zm0,8.486l0,-5.224l-1.326,0l0,5.224l-5.26,0l0,-5.224l-0.813,0l0,-3.262l0.813,0l0,-1.464c0,-1.602 0.588,-3.002 1.747,-4.163c1.161,-1.161 2.569,-1.75 4.186,-1.75c1.602,0 3.003,0.589 4.163,1.75c1.16,1.16 1.749,2.561 1.749,4.163l0,9.95l-5.259,0Z" style="fill:#fff56c;fill-rule:nonzero;"/><path d="M76.404,79.491l0,-3.367c0,-0.093 0.022,-0.132 0.066,-0.176c0.05,-0.05 0.092,-0.075 0.183,-0.075c0.059,0 0.098,0.011 0.155,0.068c0.049,0.049 0.074,0.091 0.074,0.183l0,3.367l-0.478,0Zm0.249,-7.378c-1.733,0 -3.243,0.63 -4.486,1.875c-1.241,1.243 -1.871,2.744 -1.871,4.462l0,1.041l-0.813,0l0,4.109l0.813,0l0,5.224l6.108,0l0,-0.848l0,-4.376l0.478,0l0,5.224l6.107,0l0,-0.848l0,-9.526c0,-1.719 -0.631,-3.221 -1.873,-4.463c-1.243,-1.244 -2.745,-1.874 -4.463,-1.874Zm-1.097,8.225l2.174,0l0,-4.214c0,-0.308 -0.108,-0.569 -0.321,-0.78c-0.21,-0.213 -0.463,-0.318 -0.756,-0.318c-0.306,0 -0.567,0.105 -0.777,0.318c-0.215,0.211 -0.32,0.472 -0.32,0.78l0,4.214Zm1.097,-7.378c1.493,0 2.78,0.542 3.863,1.627c1.084,1.083 1.625,2.369 1.625,3.863l0,9.526l-4.411,0l0,-5.224l-2.174,0l0,5.224l-4.412,0l0,-5.224l-0.813,0l0,-2.414l0.813,0l0,-1.888c0,-1.494 0.541,-2.78 1.623,-3.863c1.084,-1.085 2.378,-1.627 3.886,-1.627Z" style="fill:#231f20;fill-rule:nonzero;"/><path d="M83.036,88.4l0,-15.863l5.237,0l0,12.952l6.782,0l0,2.911l-12.019,0Z" style="fill:#fff56c;fill-rule:nonzero;"/><path d="M88.696,72.113l-0.847,0l-4.389,0l-0.848,0l0,16.711l12.867,0l0,-0.848l0,-2.063l0,-0.847l-0.847,0l-5.936,0l0,-12.106l0,-0.847Zm-0.847,0.847l0,12.953l6.783,0l0,2.063l-11.172,0l0,-15.016l4.389,0Z" style="fill:#231f20;fill-rule:nonzero;"/><path d="M95.526,88.4l0,-2.911l5.691,0c0.122,0 0.215,-0.039 0.304,-0.128c0.091,-0.091 0.129,-0.181 0.129,-0.305c0,-0.113 -0.03,-0.208 -0.095,-0.295l-4.954,-6.471c-0.481,-0.63 -0.724,-1.351 -0.724,-2.145c0,-0.491 0.096,-0.962 0.285,-1.399c0.193,-0.429 0.455,-0.81 0.781,-1.14c0.328,-0.327 0.71,-0.588 1.137,-0.779c0.438,-0.193 0.91,-0.29 1.403,-0.29l8.107,0l0,2.913l-5.694,0c-0.12,0 -0.213,0.039 -0.303,0.129c-0.088,0.086 -0.127,0.18 -0.127,0.303c0,0.148 0.047,0.219 0.087,0.264l0.022,0.026l4.941,6.477c0.233,0.332 0.413,0.666 0.543,1.005c0.135,0.361 0.203,0.743 0.203,1.141c0,0.48 -0.098,0.946 -0.29,1.387c-0.186,0.434 -0.45,0.822 -0.781,1.151c-0.327,0.329 -0.715,0.593 -1.151,0.781c-0.44,0.19 -0.913,0.286 -1.408,0.286l-8.106,0Z" style="fill:#fff56c;fill-rule:nonzero;"/><path d="M108.014,72.113l-0.848,0l-7.683,0c-0.553,0 -1.082,0.109 -1.572,0.325c-0.478,0.213 -0.902,0.504 -1.265,0.866c-0.366,0.37 -0.657,0.794 -0.868,1.263c-0.217,0.502 -0.325,1.029 -0.325,1.578c0,0.889 0.273,1.697 0.811,2.402l4.953,6.469c0.007,0.01 0.01,0.017 0.01,0.04c-0.001,0 -0.002,0.002 -0.003,0.003l-0.008,0.006l-5.267,0.001l-0.847,0l0,3.758l8.53,0c0.553,0 1.083,-0.108 1.576,-0.321c0.486,-0.21 0.919,-0.504 1.286,-0.874c0.365,-0.362 0.659,-0.795 0.869,-1.282c0.213,-0.49 0.322,-1.014 0.322,-1.552c0,-0.448 -0.076,-0.88 -0.228,-1.286c-0.145,-0.379 -0.341,-0.743 -0.584,-1.09l-0.01,-0.014l-0.01,-0.013l-4.941,-6.477l-0.02,-0.026l-0.002,-0.002c0,-0.002 0,-0.003 0,-0.005c0.003,-0.004 0.006,-0.006 0.008,-0.009l5.268,0l0.848,0l0,-0.847l0,-2.066l0,-0.847Zm-0.848,0.847l0,2.066l-5.27,0c-0.233,0 -0.433,0.084 -0.602,0.252c-0.169,0.168 -0.252,0.371 -0.252,0.604c0,0.22 0.065,0.401 0.196,0.548l4.941,6.476c0.205,0.293 0.366,0.592 0.484,0.899c0.115,0.309 0.175,0.638 0.175,0.99c0,0.423 -0.085,0.83 -0.255,1.218c-0.166,0.386 -0.397,0.729 -0.691,1.019c-0.29,0.293 -0.633,0.526 -1.02,0.693c-0.389,0.168 -0.8,0.251 -1.24,0.251l-7.683,0l0,-2.063l5.268,0c0.233,0 0.436,-0.085 0.604,-0.252c0.169,-0.169 0.253,-0.369 0.253,-0.605c0,-0.205 -0.059,-0.386 -0.178,-0.547l-4.959,-6.477c-0.424,-0.555 -0.636,-1.185 -0.636,-1.887c0,-0.439 0.085,-0.849 0.25,-1.23c0.17,-0.379 0.401,-0.715 0.694,-1.011c0.291,-0.291 0.629,-0.521 1.008,-0.69c0.382,-0.169 0.791,-0.254 1.23,-0.254l7.683,0Z" style="fill:#231f20;fill-rule:nonzero;"/></g></svg>