<?xml version="1.0" encoding="utf-8"?>
<!-- Generator: Adobe Illustrator 16.0.0, SVG Export Plug-In . SVG Version: 6.00 Build 0)  -->
<!DOCTYPE svg PUBLIC "-//W3C//DTD SVG 1.1//EN" "http://www.w3.org/Graphics/SVG/1.1/DTD/svg11.dtd">
<svg version="1.1" id="Layer_1" xmlns="http://www.w3.org/2000/svg" xmlns:xlink="http://www.w3.org/1999/xlink" x="0px" y="0px"
	 width="1000.996px" height="260.324px" viewBox="0 0 1000.996 260.324" enable-background="new 0 0 1000.996 260.324"
	 xml:space="preserve">
<g>
	<polygon fill="#00609C" points="583.779,241.324 578.046,241.324 578.046,238.382 592.715,238.382 592.715,241.324 586.98,241.324 
		586.98,256.456 583.779,256.456 	"/>
	<polygon fill="#00609C" points="595.805,238.382 599.32,238.382 604.766,252.272 610.184,238.382 613.616,238.382 606.105,256.582 
		603.32,256.582 	"/>
	<rect x="633.566" y="232.312" fill="#00609C" width="1.33" height="28.013"/>
	<rect x="654.979" y="238.377" fill="#00609C" width="3.174" height="18.079"/>
	<polygon fill="#00609C" points="664.275,238.382 667.219,238.382 676.9,250.875 676.9,238.382 680.021,238.382 680.021,256.451 
		677.362,256.451 667.402,243.596 667.402,256.451 664.275,256.451 	"/>
	<polygon fill="#00609C" points="690.396,241.324 684.662,241.324 684.662,238.382 699.331,238.382 699.331,241.324 
		693.598,241.324 693.598,256.456 690.396,256.456 	"/>
	<polygon fill="#00609C" points="703.972,238.382 717.373,238.382 717.373,241.22 707.146,241.22 707.146,245.918 716.212,245.918 
		716.212,248.756 707.146,248.756 707.146,253.613 717.505,253.613 717.505,256.451 703.972,256.451 	"/>
	<path fill="#00609C" d="M722.556,238.382h8.058c2.27,0,4.052,0.667,5.213,1.803c0.957,0.987,1.498,2.328,1.498,3.905v0.047
		c0,2.969-1.781,4.751-4.314,5.471l4.882,6.849h-3.747l-4.436-6.302h-0.053h-3.921v6.302h-3.18V238.382z M730.381,247.338
		c2.271,0,3.717-1.184,3.717-3.018v-0.058c0-1.935-1.393-2.99-3.748-2.99h-4.614v6.065H730.381z"/>
	<polygon fill="#00609C" points="742.506,238.382 745.449,238.382 755.131,250.875 755.131,238.382 758.258,238.382 
		758.258,256.451 755.604,256.451 745.633,243.596 745.633,256.451 742.506,256.451 	"/>
	<polygon fill="#00609C" points="764.191,238.382 777.588,238.382 777.588,241.22 767.365,241.22 767.365,245.918 776.426,245.918 
		776.426,248.756 767.365,248.756 767.365,253.613 777.719,253.613 777.719,256.451 764.191,256.451 	"/>
	<polygon fill="#00609C" points="787.217,241.324 781.482,241.324 781.482,238.382 796.146,238.382 796.146,241.324 
		790.417,241.324 790.417,256.456 787.217,256.456 	"/>
	<rect x="815.14" y="232.312" fill="#00609C" width="1.325" height="28.013"/>
	<polygon fill="#00609C" points="834.828,238.382 838.338,238.382 843.789,252.272 849.207,238.382 852.639,238.382 
		845.129,256.582 842.338,256.582 	"/>
	<path fill="#00609C" d="M856.223,247.469v-0.053c0-5.088,3.927-9.344,9.482-9.344c5.545,0,9.423,4.209,9.423,9.297v0.047
		c0,5.088-3.931,9.345-9.481,9.345C860.097,256.761,856.223,252.557,856.223,247.469 M871.796,247.469v-0.053
		c0-3.511-2.56-6.428-6.149-6.428s-6.091,2.865-6.091,6.381v0.047c0,3.512,2.56,6.428,6.149,6.428S871.796,250.979,871.796,247.469"
		/>
	<rect x="880.436" y="238.377" fill="#00609C" width="3.176" height="18.074"/>
	<path fill="#00609C" d="M888.93,247.469v-0.053c0-5.135,3.847-9.344,9.323-9.344c3.327,0,5.34,1.16,7.074,2.811l-2.044,2.35
		c-1.44-1.34-2.991-2.244-5.062-2.244c-3.458,0-5.96,2.844-5.96,6.381v0.047c0,3.543,2.502,6.428,5.96,6.428
		c2.218,0,3.647-0.904,5.192-2.35l2.039,2.066c-1.887,1.965-3.952,3.2-7.332,3.2C892.85,256.761,888.93,252.656,888.93,247.469"/>
	<polygon fill="#00609C" points="910.068,238.382 923.47,238.382 923.47,241.22 913.242,241.22 913.242,245.918 922.303,245.918 
		922.303,248.756 913.242,248.756 913.242,253.613 923.596,253.613 923.596,256.451 910.068,256.451 	"/>
	<polygon fill="#00609C" points="933.949,111.736 933.949,213.506 1000.996,162.637 	"/>
	<path fill="#939598" d="M165.033,244.058c0,4.305-1.539,7.994-4.614,11.069c-3.074,3.068-6.769,4.613-11.073,4.613h-15.684V144.873
		c0-21.522,6.302-36.217,18.91-44.059c12.613-7.842,26.3-11.762,41.063-11.762c7.684,0,15.452,1.461,23.304,4.383
		c7.837,2.928,14.064,7.147,18.674,12.688c9.229,11.988,13.838,27.377,13.838,46.134c0,19.372-4.609,35.056-13.838,47.049
		c-9.219,11.694-21.065,17.533-35.523,17.533c-11.536,0-18.573-1.304-24.675-3.438c-30.299-10.595-11.5-6.601-10.381-7.925V244.058z
		 M217.622,153.639c0-11.998-2.313-21.222-6.922-27.682c-4.609-6.453-11.226-9.686-19.835-9.686c-8.304,0-14.769,3.232-19.377,9.686
		c-4.311,5.845-6.455,15.074-6.455,27.682c0,11.694,2.303,20.455,6.922,26.295c4.604,6.459,11.221,9.686,19.83,9.686
		c7.999,0,14.306-3.227,18.915-9.686S217.622,164.707,217.622,153.639"/>
	<path fill="#939598" d="M845.943,213.506H814.12v-71.965v-6.459c0-7.379-2.239-12.756-6.696-16.146
		c-4.461-3.379-9.455-5.071-14.994-5.071c-5.534,0-10.459,1.692-14.763,5.071c-4.305,3.391-6.454,8.768-6.454,16.146v78.424h-32.297
		v-71.965c0-20.908,5.456-34.898,16.377-41.978c10.916-7.069,22.988-10.916,36.212-11.53c7.074,0,13.996,0.767,20.76,2.301
		c6.765,1.546,12.919,4.615,18.458,9.229c4.615-3.994,10.07-6.837,16.377-8.535c6.301-1.692,12.834-2.69,19.604-2.995
		c13.533,0,28.334,0.614,44.236,10.605c11.348,7.127,12.283,13.302,12.283,13.302v101.565h-18.227
		c-4.619,0-8.383-1.449-11.305-4.383c-2.922-2.916-4.384-6.686-4.384-11.299v-62.742c0-7.379-2.233-12.756-6.69-16.146
		c-4.462-3.379-9.455-5.071-14.994-5.071c-5.529,0-10.537,1.692-14.989,5.071c-4.468,3.391-6.69,8.768-6.69,16.146v6.459V213.506z"
		/>
	<path fill="#939598" d="M712.076,91.049c-4.583,0-8.341,1.535-11.248,4.589c-2.911,3.063-4.356,6.737-4.356,11.021v62.422
		c0,7.348-2.218,12.703-6.659,16.066c-4.44,3.375-9.407,5.051-14.915,5.051c-5.509,0-10.406-1.676-14.69-5.051
		c-4.283-3.363-6.428-8.719-6.428-16.066V91.049h-32.133v71.604c0,21.112,5.435,35.045,16.299,41.772
		c10.857,6.737,22.877,10.396,36.037,11.017c13.46,0,25.848-3.364,37.174-10.097c11.32-6.728,16.986-20.96,16.986-42.692V91.049
		H712.076z M575.844,213.149v-62.89c0-9.182,2.134-15.908,6.428-20.197c4.283-4.278,10.853-6.428,19.74-6.428h10.553V91.049h-2.301
		h-2.292c-8.263,0-16.288,1.072-24.093,3.212c-7.805,2.144-14.621,5.508-20.428,10.097c-6.134,4.897-10.943,11.404-14.464,19.508
		c-3.521,8.115-5.271,18.133-5.271,30.068v59.216H575.844z M523.387,181.473v-57.785l18.773,0.058l0.047-32.239h-18.82V70.852
		c0-4.283-1.535-7.957-4.588-11.016c-3.064-3.059-6.591-4.594-10.559-4.594h-16.524v134.955c0,14.075,5.887,21.57,17.67,22.484
		c0,0,13.081,0.672,13.99,0.678L523.387,181.473z M441.361,186.556c-3.668,2.144-8.767,2.265-13.965,2.265
		c-7.967,0-13.927-2.449-17.906-7.348c-5.502-5.813-8.262-15.756-8.262-29.836c0-14.074,2.76-24.171,8.262-30.293
		c4.284-4.284,9.797-6.428,16.529-6.428c7.348,0,13.003,2.144,16.986,6.428c1.52,1.534,3.049,3.826,4.589,6.885h32.128
		c-2.455-8.872-5.971-17.07-11.931-23.414c-10.29-10.948-24.329-16.52-42.692-16.52c-17.438,0-31.061,5.666-40.846,16.981
		c-9.498,11.021-14.232,26.32-14.232,45.903c0,20.508,4.887,36.264,14.684,47.274c9.791,11.331,23.414,16.987,40.857,16.987
		c14.38,0,26.311-3.517,35.802-10.56c9.481-6.722,15.903-16.523,19.278-29.374l-30.273,0.095
		C449.229,179.008,447.311,183.512,441.361,186.556 M292.389,121.344c4.284-4.284,9.797-6.428,16.529-6.428
		c7.338,0,13.003,2.144,16.981,6.428c3.669,3.979,5.808,10.096,6.423,18.357h-46.818
		C285.809,131.754,288.105,125.632,292.389,121.344 M331.681,182.781c-1.892,1.824-3.915,3.148-4.872,3.653
		c-3.752,1.991-11.315,2.386-16.514,2.386c-7.967,0-13.933-2.449-17.906-7.348c-4.283-4.588-6.58-11.631-6.885-21.117h79.408
		c0.305-0.609,0.457-1.671,0.457-3.205v-1.834v-3.223c0-20.197-4.898-35.949-14.684-47.279
		c-10.097-11.017-24.329-16.52-42.692-16.52c-17.438,0-31.056,5.666-40.853,16.981c-9.486,11.021-14.227,26.32-14.227,45.903
		c0,20.508,4.893,36.264,14.689,47.274c9.791,11.331,23.414,16.987,40.848,16.987c14.39,0,26.32-3.517,35.807-10.56
		c9.48-6.722,15.908-16.523,19.277-29.374l-27.592-0.025C334.119,180.322,332.438,182.025,331.681,182.781 M18.358,203.51
		c10.396,8.877,26.005,13.309,46.817,13.309c20.197,0,35.802-4.279,46.817-12.851c11.021-9.183,16.529-22.037,16.529-38.556
		c0-7.647-1.498-14.7-5.051-21.123c-3.253-5.875-8.771-11.415-15.452-14.758c-4.23-2.117-6.811-3.043-12.024-4.635
		c-3.284-1.016-5.792-1.818-9.476-2.865c-4.189-1.146-8.252-2.328-14.459-4.078c-2.617-0.662-7.315-1.803-12.523-3.169
		c-17.749-3.974-25.574-9.97-25.574-18.228c0-6.122,2.296-10.857,6.885-14.232c3.979-3.363,10.559-5.045,19.74-5.045
		c9.476,0,16.986,1.986,22.488,5.965c2.76,2.145,4.894,4.746,6.428,7.805c3.054,6.428,2.36,9.566,2.36,9.566l31.15,0.073
		c-0.615-15.3-6.128-27.698-16.524-37.185c-10.096-8.561-24.485-12.85-43.154-12.85c-19.887,0-35.039,4.131-45.44,12.393
		C7.489,71.613,2.292,83.402,2.292,98.392c0,8.571,1.692,15.521,4.593,21.117c3.054,5.902,6.849,11.095,12.851,14.685
		c5.024,3.012,16.439,7.621,31.214,10.564l2.07,0.473l2.749,0.667c27.534,6.123,41.109,13.665,41.078,24.097
		c-0.016,6.434-2.444,11.338-7.343,14.695c-4.482,3.064-12.093,5.046-21.574,5.046c-10.716,0-19.125-2.134-25.248-6.428
		c-5.818-3.669-9.334-10.097-10.554-19.278H0C0.915,181.473,7.032,194.633,18.358,203.51"/>
	<path fill-rule="evenodd" clip-rule="evenodd" fill="#00609C" d="M228.686,18.637c-5.997,0-11.053,2.008-14.969,5.791V0h-8.935
		v71.677h8.935V41.988c0-8.567,6.018-14.785,14.312-14.785c8.089,0,12.919,5.25,12.919,14.038v30.436h8.939V40.4
		C249.887,27.383,241.367,18.637,228.686,18.637"/>
	<path fill-rule="evenodd" clip-rule="evenodd" fill="#00609C" d="M262.904,55.227c0-5.582,5.035-8.908,13.477-8.908
		c5.744,0,10.338,0.836,13.938,1.688v3.674c0,7.1-6.79,12.45-15.804,12.45c-5.771,0-11.61-2.995-11.61-8.72V55.227z M277.032,19.01
		c-7.505,0-13.208,2.176-17.79,4.31l-1.914,0.884l3.4,8.125l2.108-1.072c4.782-2.444,9.208-3.584,13.917-3.584
		c5.986,0,13.081,2.055,13.443,11.614c-3.573-0.81-7.794-1.445-13.538-1.445c-13.959,0-22.973,6.933-22.973,17.665v0.184
		c0,11.11,10.585,17.102,20.555,17.102c7.411,0,12.562-2.748,15.988-5.682v4.563h8.845V39.838
		C299.074,26.799,290.839,19.01,277.032,19.01"/>
	<path fill-rule="evenodd" clip-rule="evenodd" fill="#00609C" d="M313.181,27.84v-8.084h-8.935v51.916h8.935v-21.67
		c0-14.91,9.25-21.584,18.416-21.584h2.649v-9.393h-2.098C324.938,19.025,318.016,22.063,313.181,27.84"/>
	<path fill-rule="evenodd" clip-rule="evenodd" fill="#00609C" d="M359.436,63.852c-5.061,0-7.315-2.171-7.315-7.043V28.418h16.681
		v-9.393H352.12V4.567h-8.94v14.458h-6.033v9.393h6.033v28.858c0,9.397,5.939,15.236,15.51,15.236c3.17,0,5.84-0.578,8.65-1.882
		l1.272-0.583v-9.066l-3.08,1.382C363.115,63.451,361.459,63.852,359.436,63.852"/>
	<path fill-rule="evenodd" clip-rule="evenodd" fill="#00609C" d="M392.777,27.203c9.156,0,13.449,6.906,14.605,14.091h-29.578
		C379.365,33.016,385.342,27.203,392.777,27.203 M392.962,18.637c-13.875,0-24.743,11.857-24.743,26.982v0.189
		c0,15.383,10.957,26.977,25.489,26.977c10.916,0,17.103-5.155,21.271-9.644l1.523-1.646l-6.438-5.676l-1.451,1.551
		c-4.31,4.609-8.987,6.759-14.721,6.759c-6.833,0-14.464-4.515-16.167-14.364h39.023l0.104-1.924l0.105-1.938v-0.185
		C416.959,29.773,407.094,18.637,392.962,18.637"/>
	<path fill-rule="evenodd" clip-rule="evenodd" fill="#00609C" d="M449.602,19.01c-7.252-0.283-14.137,3.054-18.967,8.835v-8.083
		h-8.936v51.91h8.936v-21.67c0-14.91,9.25-21.59,18.416-21.59h2.654V19.1L449.602,19.01z"/>
	<path fill-rule="evenodd" clip-rule="evenodd" fill="#00609C" d="M193.846,58.154c-4.741,3.936-9.413,5.691-15.152,5.691
		c-12.787,0-22.81-11.856-22.81-26.992c0-15.284,9.807-26.811,22.81-26.811c5.497,0,9.991,1.63,14.563,5.271l1.524,1.215
		l6.601-6.596l-1.823-1.535c-3.737-3.153-9.965-7.342-20.776-7.342c-18.269,0-32.044,15.467-32.044,35.99
		c0,20.408,13.665,35.791,31.781,35.791c11.043,0,17.476-4.688,21.37-8.214l1.692-1.54l-6.202-6.207L193.846,58.154z"/>
</g>
</svg>
