<?xml version="1.0" encoding="UTF-8" standalone="no"?><!DOCTYPE svg PUBLIC "-//W3C//DTD SVG 1.1//EN" "http://www.w3.org/Graphics/SVG/1.1/DTD/svg11.dtd"><svg width="100%" height="100%" viewBox="0 0 240 102" version="1.1" xmlns="http://www.w3.org/2000/svg" xmlns:xlink="http://www.w3.org/1999/xlink" xml:space="preserve" xmlns:serif="http://www.serif.com/" style="fill-rule:evenodd;clip-rule:evenodd;stroke-miterlimit:1.41421;"><g><clipPath id="_clip1"><path d="M97.137,50.736c0,26.414 -21.415,47.828 -47.829,47.828c-26.414,0 -47.828,-21.414 -47.828,-47.828c0,-26.415 21.414,-47.828 47.828,-47.828c26.414,0 47.829,21.413 47.829,47.828Z"/></clipPath><g clip-path="url(#_clip1)"><path d="M85.442,50.755c0,19.959 -16.179,36.139 -36.137,36.139c-19.958,0 -36.136,-16.18 -36.136,-36.139c0,-19.957 16.178,-36.134 36.136,-36.134c19.958,0 36.137,16.177 36.137,36.134Z" style="fill:#fff;fill-rule:nonzero;"/><path d="M85.442,50.755c0,19.959 -16.179,36.139 -36.137,36.139c-19.958,0 -36.136,-16.18 -36.136,-36.139c0,-19.957 16.178,-36.134 36.136,-36.134c19.958,0 36.137,16.177 36.137,36.134Z" style="fill:none;stroke:#265e7c;stroke-width:1.26px;"/><path d="M10.076,41.744c0,0 0.448,-2.166 3.215,-2.617c0.748,0.077 1.196,1.497 1.869,1.571c0.673,0.075 1.121,-1.72 2.392,-1.494c1.271,0.223 2.318,1.794 3.365,1.72c1.22,-0.089 2.84,-1.736 4.411,-1.422c1.497,0.299 1.497,0.299 3.291,0.449c1.794,0.149 7.626,-1.347 12.187,-0.898c4.561,0.449 6.803,1.496 8.075,1.346c1.271,-0.149 2.842,-1.645 4.188,-1.346c1.346,0.3 3.589,1.047 4.785,1.123c1.197,0.074 11.962,-2.095 15.178,-0.898c4.785,0.673 10.767,5.906 10.767,5.906l0,3.615l-72.901,0l-0.822,-7.055Z" style="fill:#dbe4e7;fill-rule:nonzero;"/><path d="M36.17,43.689c0,0 6.805,-0.374 8.524,-1.121c1.72,-0.748 10.394,1.346 11.814,0.672c1.421,-0.672 1.346,-0.822 2.543,-1.046c1.195,-0.224 10.392,0.747 12.038,1.196c1.645,0.449 4.112,1.346 6.43,0.898c1.121,-0.224 3.515,-0.748 5.233,-0.748c1.72,0 4.861,2.018 4.861,2.018l0.847,3.241l-52.438,0l0.148,-5.11Z" style="fill:#adc9da;fill-rule:nonzero;"/><path d="M10.524,44.81c0,0 2.841,-1.27 4.934,-0.746c6.057,0.746 7.178,0.148 9.796,-1.422c1.72,-0.672 4.486,1.72 6.281,1.272c1.794,-0.449 2.093,-0.674 3.364,-0.897c4.333,-0.474 16.159,5.002 25.796,3.249c9.635,-1.752 39.64,2.848 39.64,2.848l-7.008,25.406l-82.429,-24.476l-0.374,-5.234Z" style="fill:#5e85a5;fill-rule:nonzero;"/><path d="M8.789,51.741c0,0 8.103,-4.38 16.644,-4.818c8.541,-0.437 11.389,7.886 17.96,8.324c6.569,0.437 10.95,-2.629 18.178,-2.409c13.796,2.846 33.727,13.14 33.727,13.14l-11.389,17.741l-25.186,16.205l-34.604,-11.169l-15.33,-37.014Z" style="fill:#265e7c;fill-rule:nonzero;"/><path d="M85.442,50.428c0,19.957 -16.179,36.138 -36.137,36.138c-19.958,0 -36.136,-16.181 -36.136,-36.138c0,-19.958 16.178,-36.137 36.136,-36.137c19.958,0 36.137,16.179 36.137,36.137Z" style="fill:none;stroke:#265e7c;stroke-width:0.25px;"/><path d="M49.464,2.866l-0.003,0l-0.003,0l-0.021,0c-6.457,0 -12.729,1.268 -18.64,3.767c-5.703,2.411 -10.822,5.86 -15.216,10.251c-4.394,4.391 -7.846,9.509 -10.261,15.21c-2.502,5.91 -3.773,12.18 -3.777,18.638c-0.004,6.46 1.261,12.735 3.758,18.65c2.41,5.706 5.859,10.829 10.251,15.226c4.392,4.396 9.511,7.851 15.214,10.267c5.912,2.504 12.184,3.776 18.644,3.78l0.027,0c6.457,0 12.728,-1.267 18.639,-3.766c5.703,-2.412 10.823,-5.861 15.217,-10.252c4.394,-4.392 7.847,-9.51 10.262,-15.211c2.503,-5.91 3.774,-12.181 3.778,-18.639c0.003,-6.461 -1.262,-12.736 -3.76,-18.65c-2.41,-5.705 -5.858,-10.828 -10.25,-15.225c-4.392,-4.396 -9.511,-7.851 -15.214,-10.267c-5.912,-2.504 -12.185,-3.775 -18.645,-3.779Zm-0.027,12.896c0.007,0 0.014,0 0.021,0c19.329,0.01 34.989,15.688 34.979,35.017c-0.012,19.323 -15.68,34.98 -35,34.98c-0.007,0 -0.012,0 -0.018,0c-19.33,-0.012 -34.992,-15.688 -34.98,-35.02c0.011,-19.32 15.677,-34.977 34.998,-34.977Z" style="fill:#265e7c;fill-rule:nonzero;"/><path d="M19.378,93.122l6.515,0l0,-4.268l-1.651,0l4.741,-3.729l4.305,3.573l-1.804,0l0,4.348l5.003,-0.046l0,-11.006l6.678,0l0,10.211l2.09,0l0,-15.064l6.6,0l0,13.472l2.439,0l0,-8.289l5.086,-5.086l2.288,2.29l0,-2.249l1.555,0l0.001,3.803l1.24,1.242l0,5.727l5.134,0l0,-6.21l-2.563,0l6.212,-6.522l6.367,6.367l-2.716,0l0,6.464l7.272,0" style="fill:none;stroke:#fff;stroke-width:0.52px;"/><rect x="37.422" y="82.848" width="1.862" height="1.864" style="fill:none;stroke:#fff;stroke-width:0.38px;"/><rect x="46.498" y="78.151" width="1.552" height="2.913" style="fill:none;stroke:#fff;stroke-width:0.41px;"/><rect x="49.07" y="78.151" width="1.552" height="2.913" style="fill:none;stroke:#fff;stroke-width:0.41px;"/><rect x="46.498" y="82.175" width="1.552" height="2.914" style="fill:none;stroke:#fff;stroke-width:0.41px;"/><rect x="49.07" y="82.175" width="1.552" height="2.914" style="fill:none;stroke:#fff;stroke-width:0.41px;"/><rect x="46.498" y="86.231" width="1.552" height="2.915" style="fill:none;stroke:#fff;stroke-width:0.41px;"/><rect x="49.07" y="86.231" width="1.552" height="2.915" style="fill:none;stroke:#fff;stroke-width:0.41px;"/><rect x="40.292" y="82.848" width="1.864" height="1.864" style="fill:none;stroke:#fff;stroke-width:0.38px;"/><rect x="37.422" y="85.835" width="1.862" height="1.865" style="fill:none;stroke:#fff;stroke-width:0.38px;"/><rect x="40.292" y="85.835" width="1.864" height="1.865" style="fill:none;stroke:#fff;stroke-width:0.38px;"/><rect x="37.422" y="88.874" width="1.862" height="1.864" style="fill:none;stroke:#fff;stroke-width:0.38px;"/><rect x="40.292" y="88.874" width="1.864" height="1.864" style="fill:none;stroke:#fff;stroke-width:0.38px;"/><rect x="72.207" y="83.781" width="2.563" height="4.426" style="fill:none;stroke:#fff;stroke-width:0.38px;"/><rect x="27.955" y="90.212" width="1.531" height="3.012" style="fill:none;stroke:#fff;stroke-width:0.25px;"/><path d="M15.174,29.972c-0.238,-0.144 -0.467,-0.18 -0.688,-0.107c-0.221,0.072 -0.482,0.28 -0.785,0.625l1.706,1.033c0.165,-0.428 0.229,-0.756 0.194,-0.984c-0.036,-0.228 -0.178,-0.416 -0.427,-0.567Zm-2.809,-1.699c-0.571,-0.346 -1.123,-0.21 -1.656,0.407l2.064,1.248c0.299,-0.758 0.164,-1.31 -0.408,-1.655Zm4.114,-0.189c0.27,0.164 0.473,0.366 0.609,0.607c0.136,0.241 0.208,0.514 0.215,0.818c0.007,0.305 -0.049,0.636 -0.168,0.994c-0.119,0.358 -0.297,0.733 -0.534,1.124l-1.425,2.357l-6.54,-3.957l1.426,-2.356c0.221,-0.365 0.467,-0.674 0.739,-0.925c0.271,-0.251 0.552,-0.439 0.844,-0.562c0.292,-0.124 0.588,-0.178 0.889,-0.162c0.301,0.017 0.589,0.108 0.864,0.274c0.757,0.458 1.053,1.175 0.888,2.152c0.795,-0.646 1.527,-0.767 2.193,-0.364Z" style="fill:#fff;fill-rule:nonzero;"/><path d="M15.174,29.972c-0.238,-0.144 -0.467,-0.18 -0.688,-0.107c-0.221,0.072 -0.482,0.28 -0.785,0.625l1.706,1.033c0.165,-0.428 0.229,-0.756 0.194,-0.984c-0.036,-0.228 -0.178,-0.416 -0.427,-0.567Zm-2.809,-1.699c-0.571,-0.346 -1.123,-0.21 -1.656,0.407l2.064,1.248c0.299,-0.758 0.164,-1.31 -0.408,-1.655Zm4.114,-0.189c0.27,0.164 0.473,0.366 0.609,0.607c0.136,0.241 0.208,0.514 0.215,0.818c0.007,0.305 -0.049,0.636 -0.168,0.994c-0.119,0.358 -0.297,0.733 -0.534,1.124l-1.425,2.357l-6.54,-3.957l1.426,-2.356c0.221,-0.365 0.467,-0.674 0.739,-0.925c0.271,-0.251 0.552,-0.439 0.844,-0.562c0.292,-0.124 0.588,-0.178 0.889,-0.162c0.301,0.017 0.589,0.108 0.864,0.274c0.757,0.458 1.053,1.175 0.888,2.152c0.795,-0.646 1.527,-0.767 2.193,-0.364Z" style="fill:none;stroke:#231f20;stroke-width:0.35px;"/><path d="M16.257,23.513c-0.1,-0.082 -0.213,-0.117 -0.339,-0.105c-0.127,0.012 -0.231,0.069 -0.313,0.169c-0.083,0.101 -0.118,0.214 -0.106,0.34c0.013,0.126 0.069,0.231 0.17,0.313l2.901,2.385c0.096,0.079 0.208,0.113 0.336,0.103c0.128,-0.01 0.234,-0.066 0.317,-0.166c0.078,-0.095 0.111,-0.209 0.098,-0.339c-0.012,-0.131 -0.066,-0.235 -0.162,-0.314l-2.902,-2.386Zm3.314,0.323c0.243,0.2 0.434,0.438 0.573,0.712c0.139,0.274 0.223,0.559 0.252,0.855c0.028,0.296 0.001,0.592 -0.082,0.888c-0.083,0.295 -0.225,0.565 -0.425,0.809c-0.204,0.248 -0.442,0.443 -0.714,0.584c-0.272,0.14 -0.556,0.225 -0.852,0.254c-0.296,0.029 -0.591,0 -0.885,-0.085c-0.293,-0.085 -0.564,-0.231 -0.813,-0.435l-1.375,-1.131c-0.244,-0.2 -0.435,-0.437 -0.574,-0.712c-0.138,-0.273 -0.222,-0.559 -0.251,-0.855c-0.029,-0.295 -0.002,-0.591 0.081,-0.887c0.083,-0.296 0.225,-0.566 0.425,-0.81c0.201,-0.243 0.437,-0.433 0.709,-0.569c0.273,-0.137 0.558,-0.219 0.859,-0.249c0.3,-0.029 0.597,-0.004 0.89,0.078c0.294,0.081 0.562,0.222 0.806,0.422l1.376,1.131Z" style="fill:#fff;fill-rule:nonzero;"/><path d="M16.257,23.513c-0.1,-0.082 -0.213,-0.117 -0.339,-0.105c-0.127,0.012 -0.231,0.069 -0.313,0.169c-0.083,0.101 -0.118,0.214 -0.106,0.34c0.013,0.126 0.069,0.231 0.17,0.313l2.901,2.385c0.096,0.079 0.208,0.113 0.336,0.103c0.128,-0.01 0.234,-0.066 0.317,-0.166c0.078,-0.095 0.111,-0.209 0.098,-0.339c-0.012,-0.131 -0.066,-0.235 -0.162,-0.314l-2.902,-2.386Zm3.314,0.323c0.243,0.2 0.434,0.438 0.573,0.712c0.139,0.274 0.223,0.559 0.252,0.855c0.028,0.296 0.001,0.592 -0.082,0.888c-0.083,0.295 -0.225,0.565 -0.425,0.809c-0.204,0.248 -0.442,0.443 -0.714,0.584c-0.272,0.14 -0.556,0.225 -0.852,0.254c-0.296,0.029 -0.591,0 -0.885,-0.085c-0.293,-0.085 -0.564,-0.231 -0.813,-0.435l-1.375,-1.131c-0.244,-0.2 -0.435,-0.437 -0.574,-0.712c-0.138,-0.273 -0.222,-0.559 -0.251,-0.855c-0.029,-0.295 -0.002,-0.591 0.081,-0.887c0.083,-0.296 0.225,-0.566 0.425,-0.81c0.201,-0.243 0.437,-0.433 0.709,-0.569c0.273,-0.137 0.558,-0.219 0.859,-0.249c0.3,-0.029 0.597,-0.004 0.89,0.078c0.294,0.081 0.562,0.222 0.806,0.422l1.376,1.131Z" style="fill:none;stroke:#231f20;stroke-width:0.35px;"/><path d="M20.152,19.448c-0.089,-0.095 -0.197,-0.144 -0.323,-0.149c-0.127,-0.004 -0.238,0.038 -0.332,0.128c-0.095,0.088 -0.145,0.196 -0.149,0.323c-0.004,0.127 0.038,0.237 0.127,0.331l2.568,2.742c0.084,0.091 0.191,0.139 0.32,0.146c0.129,0.006 0.24,-0.035 0.335,-0.124c0.09,-0.084 0.138,-0.192 0.142,-0.323c0.004,-0.131 -0.036,-0.242 -0.12,-0.332l-2.568,-2.742Zm3.243,0.75c0.216,0.229 0.375,0.489 0.477,0.779c0.102,0.29 0.148,0.584 0.139,0.88c-0.01,0.298 -0.076,0.588 -0.196,0.87c-0.122,0.283 -0.297,0.532 -0.527,0.748c-0.235,0.22 -0.496,0.381 -0.784,0.486c-0.288,0.104 -0.58,0.151 -0.877,0.142c-0.297,-0.01 -0.586,-0.076 -0.866,-0.2c-0.28,-0.122 -0.531,-0.301 -0.75,-0.535l-1.218,-1.3c-0.215,-0.231 -0.374,-0.491 -0.476,-0.781c-0.102,-0.289 -0.148,-0.583 -0.139,-0.88c0.01,-0.297 0.075,-0.587 0.196,-0.87c0.121,-0.283 0.297,-0.532 0.527,-0.747c0.23,-0.216 0.489,-0.373 0.776,-0.474c0.288,-0.1 0.583,-0.144 0.884,-0.135c0.302,0.01 0.592,0.075 0.873,0.193c0.28,0.119 0.528,0.293 0.744,0.524l1.217,1.3Z" style="fill:#fff;fill-rule:nonzero;"/><path d="M20.152,19.448c-0.089,-0.095 -0.197,-0.144 -0.323,-0.149c-0.127,-0.004 -0.238,0.038 -0.332,0.128c-0.095,0.088 -0.145,0.196 -0.149,0.323c-0.004,0.127 0.038,0.237 0.127,0.331l2.568,2.742c0.084,0.091 0.191,0.139 0.32,0.146c0.129,0.006 0.24,-0.035 0.335,-0.124c0.09,-0.084 0.138,-0.192 0.142,-0.323c0.004,-0.131 -0.036,-0.242 -0.12,-0.332l-2.568,-2.742Zm3.243,0.75c0.216,0.229 0.375,0.489 0.477,0.779c0.102,0.29 0.148,0.584 0.139,0.88c-0.01,0.298 -0.076,0.588 -0.196,0.87c-0.122,0.283 -0.297,0.532 -0.527,0.748c-0.235,0.22 -0.496,0.381 -0.784,0.486c-0.288,0.104 -0.58,0.151 -0.877,0.142c-0.297,-0.01 -0.586,-0.076 -0.866,-0.2c-0.28,-0.122 -0.531,-0.301 -0.75,-0.535l-1.218,-1.3c-0.215,-0.231 -0.374,-0.491 -0.476,-0.781c-0.102,-0.289 -0.148,-0.583 -0.139,-0.88c0.01,-0.297 0.075,-0.587 0.196,-0.87c0.121,-0.283 0.297,-0.532 0.527,-0.747c0.23,-0.216 0.489,-0.373 0.776,-0.474c0.288,-0.1 0.583,-0.144 0.884,-0.135c0.302,0.01 0.592,0.075 0.873,0.193c0.28,0.119 0.528,0.293 0.744,0.524l1.217,1.3Z" style="fill:none;stroke:#231f20;stroke-width:0.35px;"/><path d="M27.457,19.994l-2.921,-4.069c-0.076,-0.106 -0.176,-0.169 -0.301,-0.189c-0.125,-0.021 -0.241,0.007 -0.346,0.083c-0.105,0.075 -0.167,0.174 -0.186,0.298c-0.017,0.123 0.011,0.238 0.087,0.343l2.921,4.069l-1.515,1.087l-3.699,-5.154l1.514,-1.087l0.2,0.279c0.113,-0.363 0.325,-0.655 0.637,-0.879c0.191,-0.137 0.4,-0.231 0.627,-0.279c0.228,-0.05 0.454,-0.056 0.678,-0.019c0.224,0.037 0.435,0.114 0.633,0.231c0.198,0.116 0.366,0.271 0.502,0.461l2.683,3.738l-1.514,1.087Z" style="fill:#fff;fill-rule:nonzero;"/><path d="M27.457,19.994l-2.921,-4.069c-0.076,-0.106 -0.176,-0.169 -0.301,-0.189c-0.125,-0.021 -0.241,0.007 -0.346,0.083c-0.105,0.075 -0.167,0.174 -0.186,0.298c-0.017,0.123 0.011,0.238 0.087,0.343l2.921,4.069l-1.515,1.087l-3.699,-5.154l1.514,-1.087l0.2,0.279c0.113,-0.363 0.325,-0.655 0.637,-0.879c0.191,-0.137 0.4,-0.231 0.627,-0.279c0.228,-0.05 0.454,-0.056 0.678,-0.019c0.224,0.037 0.435,0.114 0.633,0.231c0.198,0.116 0.366,0.271 0.502,0.461l2.683,3.738l-1.514,1.087Z" style="fill:none;stroke:#231f20;stroke-width:0.35px;"/><path d="M29.556,18.555l-1.033,-1.951l-0.303,0.161l-0.477,-0.902l0.303,-0.161l-1.458,-2.754l4.173,-2.208l0.408,0.77l-2.533,1.341l1.05,1.984l0.745,-0.395l0.478,0.902l-0.746,0.395l0.624,1.18l2.534,-1.341l0.407,0.771l-4.172,2.208Z" style="fill:#fff;fill-rule:nonzero;"/><path d="M29.556,18.555l-1.033,-1.951l-0.303,0.161l-0.477,-0.902l0.303,-0.161l-1.458,-2.754l4.173,-2.208l0.408,0.77l-2.533,1.341l1.05,1.984l0.745,-0.395l0.478,0.902l-0.746,0.395l0.624,1.18l2.534,-1.341l0.407,0.771l-4.172,2.208Z" style="fill:none;stroke:#231f20;stroke-width:0.35px;"/><path d="M39.6,14.352l-0.737,-2.557l-1.212,0.349l0.737,2.558l-2.148,0.619l-0.737,-2.558l-0.401,0.116l-0.34,-1.177l0.402,-0.115l-1.041,-3.61l2.148,-0.619l1.04,3.609l1.212,-0.349l-1.04,-3.609l2.148,-0.62l2.117,7.344l-2.148,0.619Z" style="fill:#fff;fill-rule:nonzero;"/><path d="M39.6,14.352l-0.737,-2.557l-1.212,0.349l0.737,2.558l-2.148,0.619l-0.737,-2.558l-0.401,0.116l-0.34,-1.177l0.402,-0.115l-1.041,-3.61l2.148,-0.619l1.04,3.609l1.212,-0.349l-1.04,-3.609l2.148,-0.62l2.117,7.344l-2.148,0.619Z" style="fill:none;stroke:#231f20;stroke-width:0.35px;"/><path d="M42.14,13.767l-1.062,-6.254l1.819,-0.309l1.062,6.255l-1.819,0.308Z" style="fill:#fff;fill-rule:nonzero;"/><path d="M42.14,13.767l-1.062,-6.254l1.819,-0.309l1.062,6.255l-1.819,0.308Z" style="fill:none;stroke:#231f20;stroke-width:0.35px;"/><path d="M48.179,13.057l-0.234,-0.391c-0.393,0.302 -0.82,0.471 -1.283,0.506c-0.321,0.024 -0.626,-0.014 -0.915,-0.112c-0.29,-0.099 -0.547,-0.246 -0.773,-0.44c-0.225,-0.194 -0.408,-0.426 -0.55,-0.698c-0.142,-0.271 -0.224,-0.568 -0.248,-0.888l-0.129,-1.702c-0.024,-0.315 0.016,-0.617 0.118,-0.907c0.102,-0.289 0.25,-0.547 0.444,-0.772c0.194,-0.225 0.426,-0.411 0.697,-0.555c0.272,-0.144 0.564,-0.229 0.879,-0.253c0.308,-0.023 0.604,0.013 0.887,0.11c0.283,0.097 0.537,0.239 0.763,0.426c0.225,0.188 0.411,0.413 0.558,0.675c0.146,0.261 0.237,0.546 0.273,0.853l-1.849,0.14l-0.069,-0.907c-0.01,-0.129 -0.063,-0.235 -0.159,-0.317c-0.096,-0.083 -0.209,-0.12 -0.339,-0.11c-0.129,0.01 -0.235,0.062 -0.318,0.159c-0.082,0.096 -0.119,0.209 -0.109,0.338l0.276,3.663c0.01,0.129 0.063,0.235 0.159,0.318c0.096,0.083 0.209,0.119 0.339,0.109c0.129,-0.009 0.235,-0.062 0.318,-0.159c0.082,-0.096 0.119,-0.209 0.109,-0.338l-0.136,-1.804l1.85,-0.139l0.237,3.135l-0.796,0.06Z" style="fill:#fff;fill-rule:nonzero;"/><path d="M48.179,13.057l-0.234,-0.391c-0.393,0.302 -0.82,0.471 -1.283,0.506c-0.321,0.024 -0.626,-0.014 -0.915,-0.112c-0.29,-0.099 -0.547,-0.246 -0.773,-0.44c-0.225,-0.194 -0.408,-0.426 -0.55,-0.698c-0.142,-0.271 -0.224,-0.568 -0.248,-0.888l-0.129,-1.702c-0.024,-0.315 0.016,-0.617 0.118,-0.907c0.102,-0.289 0.25,-0.547 0.444,-0.772c0.194,-0.225 0.426,-0.411 0.697,-0.555c0.272,-0.144 0.564,-0.229 0.879,-0.253c0.308,-0.023 0.604,0.013 0.887,0.11c0.283,0.097 0.537,0.239 0.763,0.426c0.225,0.188 0.411,0.413 0.558,0.675c0.146,0.261 0.237,0.546 0.273,0.853l-1.849,0.14l-0.069,-0.907c-0.01,-0.129 -0.063,-0.235 -0.159,-0.317c-0.096,-0.083 -0.209,-0.12 -0.339,-0.11c-0.129,0.01 -0.235,0.062 -0.318,0.159c-0.082,0.096 -0.119,0.209 -0.109,0.338l0.276,3.663c0.01,0.129 0.063,0.235 0.159,0.318c0.096,0.083 0.209,0.119 0.339,0.109c0.129,-0.009 0.235,-0.062 0.318,-0.159c0.082,-0.096 0.119,-0.209 0.109,-0.338l-0.136,-1.804l1.85,-0.139l0.237,3.135l-0.796,0.06Z" style="fill:none;stroke:#231f20;stroke-width:0.35px;"/><path d="M52.559,13.17l0.132,-2.203l-1.046,-0.062l-0.132,2.203l-1.851,-0.11l0.131,-2.204l-0.343,-0.021l0.061,-1.018l0.343,0.02l0.185,-3.11l1.851,0.11l-0.185,3.111l1.047,0.062l0.185,-3.111l1.851,0.111l-0.377,6.332l-1.852,-0.11Z" style="fill:#fff;fill-rule:nonzero;"/><path d="M52.559,13.17l0.132,-2.203l-1.046,-0.062l-0.132,2.203l-1.851,-0.11l0.131,-2.204l-0.343,-0.021l0.061,-1.018l0.343,0.02l0.185,-3.11l1.851,0.11l-0.185,3.111l1.047,0.062l0.185,-3.111l1.851,0.111l-0.377,6.332l-1.852,-0.11Z" style="fill:none;stroke:#231f20;stroke-width:0.35px;"/><path d="M62.273,13.395c-0.233,0.277 -0.504,0.501 -0.812,0.672c-0.307,0.171 -0.641,0.283 -1,0.335c-0.359,0.051 -0.717,0.03 -1.076,-0.065c-0.371,-0.099 -0.7,-0.263 -0.988,-0.493c-0.287,-0.229 -0.521,-0.499 -0.702,-0.809c-0.18,-0.31 -0.298,-0.647 -0.355,-1.011c-0.057,-0.364 -0.036,-0.731 0.062,-1.102l0.527,-1.99c0.097,-0.364 0.261,-0.692 0.492,-0.983c0.23,-0.29 0.5,-0.525 0.811,-0.705c0.31,-0.181 0.646,-0.299 1.01,-0.357c0.364,-0.057 0.731,-0.036 1.102,0.062c0.358,0.095 0.681,0.255 0.967,0.478c0.286,0.223 0.52,0.486 0.702,0.79c0.182,0.304 0.306,0.633 0.372,0.986c0.066,0.354 0.057,0.711 -0.026,1.073l-2.161,-0.573l0.282,-1.058c0.039,-0.149 0.019,-0.29 -0.061,-0.423c-0.08,-0.134 -0.194,-0.22 -0.344,-0.259c-0.149,-0.04 -0.289,-0.021 -0.418,0.057c-0.129,0.077 -0.214,0.191 -0.254,0.34l-1.136,4.285c-0.04,0.15 -0.022,0.29 0.051,0.422c0.074,0.131 0.186,0.217 0.335,0.257c0.149,0.039 0.292,0.021 0.428,-0.055c0.135,-0.076 0.222,-0.189 0.262,-0.338l0.28,-1.058l2.161,0.573c-0.107,0.355 -0.277,0.672 -0.511,0.949Z" style="fill:#fff;fill-rule:nonzero;"/><path d="M62.273,13.395c-0.233,0.277 -0.504,0.501 -0.812,0.672c-0.307,0.171 -0.641,0.283 -1,0.335c-0.359,0.051 -0.717,0.03 -1.076,-0.065c-0.371,-0.099 -0.7,-0.263 -0.988,-0.493c-0.287,-0.229 -0.521,-0.499 -0.702,-0.809c-0.18,-0.31 -0.298,-0.647 -0.355,-1.011c-0.057,-0.364 -0.036,-0.731 0.062,-1.102l0.527,-1.99c0.097,-0.364 0.261,-0.692 0.492,-0.983c0.23,-0.29 0.5,-0.525 0.811,-0.705c0.31,-0.181 0.646,-0.299 1.01,-0.357c0.364,-0.057 0.731,-0.036 1.102,0.062c0.358,0.095 0.681,0.255 0.967,0.478c0.286,0.223 0.52,0.486 0.702,0.79c0.182,0.304 0.306,0.633 0.372,0.986c0.066,0.354 0.057,0.711 -0.026,1.073l-2.161,-0.573l0.282,-1.058c0.039,-0.149 0.019,-0.29 -0.061,-0.423c-0.08,-0.134 -0.194,-0.22 -0.344,-0.259c-0.149,-0.04 -0.289,-0.021 -0.418,0.057c-0.129,0.077 -0.214,0.191 -0.254,0.34l-1.136,4.285c-0.04,0.15 -0.022,0.29 0.051,0.422c0.074,0.131 0.186,0.217 0.335,0.257c0.149,0.039 0.292,0.021 0.428,-0.055c0.135,-0.076 0.222,-0.189 0.262,-0.338l0.28,-1.058l2.161,0.573c-0.107,0.355 -0.277,0.672 -0.511,0.949Z" style="fill:none;stroke:#231f20;stroke-width:0.35px;"/><path d="M66.916,11.673c0.05,-0.12 0.052,-0.238 0.004,-0.356c-0.047,-0.117 -0.13,-0.201 -0.25,-0.252c-0.12,-0.051 -0.238,-0.053 -0.356,-0.006c-0.117,0.048 -0.201,0.131 -0.252,0.252l-1.468,3.457c-0.049,0.114 -0.049,0.231 -0.003,0.351c0.046,0.121 0.129,0.207 0.249,0.257c0.113,0.048 0.231,0.048 0.353,-0.002c0.121,-0.048 0.206,-0.13 0.254,-0.243l1.469,-3.458Zm0.627,3.269c-0.123,0.29 -0.297,0.541 -0.521,0.751c-0.223,0.211 -0.473,0.372 -0.749,0.483c-0.276,0.112 -0.567,0.169 -0.875,0.173c-0.307,0.004 -0.605,-0.056 -0.896,-0.179c-0.296,-0.126 -0.55,-0.299 -0.761,-0.52c-0.212,-0.221 -0.374,-0.47 -0.485,-0.745c-0.112,-0.276 -0.167,-0.566 -0.168,-0.872c-0.002,-0.307 0.061,-0.608 0.186,-0.904l0.697,-1.639c0.123,-0.29 0.296,-0.54 0.52,-0.751c0.224,-0.211 0.473,-0.372 0.749,-0.483c0.276,-0.111 0.567,-0.169 0.875,-0.173c0.307,-0.004 0.606,0.056 0.896,0.179c0.29,0.124 0.539,0.296 0.747,0.519c0.208,0.223 0.368,0.474 0.481,0.753c0.113,0.28 0.172,0.572 0.178,0.877c0.004,0.304 -0.055,0.602 -0.178,0.892l-0.696,1.639Z" style="fill:#fff;fill-rule:nonzero;"/><path d="M66.916,11.673c0.05,-0.12 0.052,-0.238 0.004,-0.356c-0.047,-0.117 -0.13,-0.201 -0.25,-0.252c-0.12,-0.051 -0.238,-0.053 -0.356,-0.006c-0.117,0.048 -0.201,0.131 -0.252,0.252l-1.468,3.457c-0.049,0.114 -0.049,0.231 -0.003,0.351c0.046,0.121 0.129,0.207 0.249,0.257c0.113,0.048 0.231,0.048 0.353,-0.002c0.121,-0.048 0.206,-0.13 0.254,-0.243l1.469,-3.458Zm0.627,3.269c-0.123,0.29 -0.297,0.541 -0.521,0.751c-0.223,0.211 -0.473,0.372 -0.749,0.483c-0.276,0.112 -0.567,0.169 -0.875,0.173c-0.307,0.004 -0.605,-0.056 -0.896,-0.179c-0.296,-0.126 -0.55,-0.299 -0.761,-0.52c-0.212,-0.221 -0.374,-0.47 -0.485,-0.745c-0.112,-0.276 -0.167,-0.566 -0.168,-0.872c-0.002,-0.307 0.061,-0.608 0.186,-0.904l0.697,-1.639c0.123,-0.29 0.296,-0.54 0.52,-0.751c0.224,-0.211 0.473,-0.372 0.749,-0.483c0.276,-0.111 0.567,-0.169 0.875,-0.173c0.307,-0.004 0.606,0.056 0.896,0.179c0.29,0.124 0.539,0.296 0.747,0.519c0.208,0.223 0.368,0.474 0.481,0.753c0.113,0.28 0.172,0.572 0.178,0.877c0.004,0.304 -0.055,0.602 -0.178,0.892l-0.696,1.639Z" style="fill:none;stroke:#231f20;stroke-width:0.35px;"/><path d="M71.489,18.252c-0.249,0.179 -0.518,0.307 -0.806,0.381c-0.288,0.075 -0.584,0.095 -0.889,0.059c-0.305,-0.036 -0.594,-0.134 -0.866,-0.294c-0.277,-0.163 -0.506,-0.367 -0.688,-0.614c-0.181,-0.247 -0.309,-0.514 -0.384,-0.802c-0.075,-0.287 -0.093,-0.582 -0.054,-0.886c0.038,-0.304 0.139,-0.594 0.302,-0.872l2.077,-3.534l1.607,0.945l-2.58,4.39c-0.062,0.106 -0.08,0.221 -0.052,0.345c0.027,0.124 0.097,0.219 0.209,0.284c0.112,0.066 0.229,0.084 0.352,0.051c0.123,-0.031 0.217,-0.103 0.283,-0.215l2.579,-4.391l1.6,0.94l-2.077,3.535c-0.16,0.272 -0.364,0.498 -0.613,0.678Z" style="fill:#fff;fill-rule:nonzero;"/><path d="M71.489,18.252c-0.249,0.179 -0.518,0.307 -0.806,0.381c-0.288,0.075 -0.584,0.095 -0.889,0.059c-0.305,-0.036 -0.594,-0.134 -0.866,-0.294c-0.277,-0.163 -0.506,-0.367 -0.688,-0.614c-0.181,-0.247 -0.309,-0.514 -0.384,-0.802c-0.075,-0.287 -0.093,-0.582 -0.054,-0.886c0.038,-0.304 0.139,-0.594 0.302,-0.872l2.077,-3.534l1.607,0.945l-2.58,4.39c-0.062,0.106 -0.08,0.221 -0.052,0.345c0.027,0.124 0.097,0.219 0.209,0.284c0.112,0.066 0.229,0.084 0.352,0.051c0.123,-0.031 0.217,-0.103 0.283,-0.215l2.579,-4.391l1.6,0.94l-2.077,3.535c-0.16,0.272 -0.364,0.498 -0.613,0.678Z" style="fill:none;stroke:#231f20;stroke-width:0.35px;"/><path d="M73.454,21.418l3.077,-3.952c0.08,-0.103 0.112,-0.216 0.097,-0.342c-0.016,-0.126 -0.075,-0.229 -0.178,-0.309c-0.102,-0.079 -0.215,-0.11 -0.338,-0.093c-0.124,0.018 -0.226,0.078 -0.305,0.18l-3.078,3.952l-1.47,-1.146l3.897,-5.005l1.472,1.146l-0.211,0.27c0.379,0.006 0.72,0.126 1.023,0.362c0.185,0.144 0.333,0.319 0.445,0.523c0.111,0.204 0.181,0.419 0.209,0.644c0.028,0.227 0.014,0.45 -0.042,0.674c-0.056,0.222 -0.156,0.426 -0.301,0.612l-2.826,3.63l-1.471,-1.146Z" style="fill:#fff;fill-rule:nonzero;"/><path d="M73.454,21.418l3.077,-3.952c0.08,-0.103 0.112,-0.216 0.097,-0.342c-0.016,-0.126 -0.075,-0.229 -0.178,-0.309c-0.102,-0.079 -0.215,-0.11 -0.338,-0.093c-0.124,0.018 -0.226,0.078 -0.305,0.18l-3.078,3.952l-1.47,-1.146l3.897,-5.005l1.472,1.146l-0.211,0.27c0.379,0.006 0.72,0.126 1.023,0.362c0.185,0.144 0.333,0.319 0.445,0.523c0.111,0.204 0.181,0.419 0.209,0.644c0.028,0.227 0.014,0.45 -0.042,0.674c-0.056,0.222 -0.156,0.426 -0.301,0.612l-2.826,3.63l-1.471,-1.146Z" style="fill:none;stroke:#231f20;stroke-width:0.35px;"/><path d="M81.492,21.402l-3.913,3.826l-1.303,-1.333l3.912,-3.826l-1.089,-1.114l0.623,-0.609l3.476,3.555l-0.623,0.609l-1.083,-1.108Z" style="fill:#fff;fill-rule:nonzero;"/><path d="M81.492,21.402l-3.913,3.826l-1.303,-1.333l3.912,-3.826l-1.089,-1.114l0.623,-0.609l3.476,3.555l-0.623,0.609l-1.083,-1.108Z" style="fill:none;stroke:#231f20;stroke-width:0.35px;"/><path d="M84.192,26.601c0.229,-0.167 0.379,-0.393 0.447,-0.677c0.068,-0.283 0.041,-0.556 -0.082,-0.819l-1.902,1.39c0.213,0.197 0.465,0.306 0.756,0.327c0.291,0.021 0.551,-0.053 0.781,-0.221Zm-3.458,2.516l1.026,-0.75c0.225,-0.164 0.352,-0.372 0.382,-0.624c0.031,-0.252 -0.038,-0.493 -0.206,-0.723l-1.782,1.303l-1.1,-1.505l1.782,-1.302l-0.175,-0.24l0.823,-0.603l0.176,0.24l2.516,-1.838l1.357,1.856c0.368,0.505 0.55,1.062 0.543,1.671c-0.009,0.658 -0.263,1.17 -0.762,1.534c-0.3,0.219 -0.631,0.335 -0.994,0.347c-0.362,0.013 -0.714,-0.063 -1.056,-0.227c0.004,0.487 -0.102,0.945 -0.317,1.374c-0.214,0.429 -0.517,0.786 -0.906,1.071l-0.097,0.07l-1.21,-1.654Z" style="fill:#fff;fill-rule:nonzero;"/><path d="M84.192,26.601c0.229,-0.167 0.379,-0.393 0.447,-0.677c0.068,-0.283 0.041,-0.556 -0.082,-0.819l-1.902,1.39c0.213,0.197 0.465,0.306 0.756,0.327c0.291,0.021 0.551,-0.053 0.781,-0.221Zm-3.458,2.516l1.026,-0.75c0.225,-0.164 0.352,-0.372 0.382,-0.624c0.031,-0.252 -0.038,-0.493 -0.206,-0.723l-1.782,1.303l-1.1,-1.505l1.782,-1.302l-0.175,-0.24l0.823,-0.603l0.176,0.24l2.516,-1.838l1.357,1.856c0.368,0.505 0.55,1.062 0.543,1.671c-0.009,0.658 -0.263,1.17 -0.762,1.534c-0.3,0.219 -0.631,0.335 -0.994,0.347c-0.362,0.013 -0.714,-0.063 -1.056,-0.227c0.004,0.487 -0.102,0.945 -0.317,1.374c-0.214,0.429 -0.517,0.786 -0.906,1.071l-0.097,0.07l-1.21,-1.654Z" style="fill:none;stroke:#231f20;stroke-width:0.35px;"/><path d="M87.504,33.335c-0.223,0.042 -0.446,0.054 -0.669,0.036c-0.223,-0.017 -0.44,-0.066 -0.651,-0.145c-0.211,-0.08 -0.405,-0.193 -0.58,-0.338l-1.963,1.049l-0.874,-1.636l1.963,-1.049c-0.017,-0.229 -0.003,-0.454 0.044,-0.676c0.046,-0.221 0.123,-0.428 0.23,-0.622c0.107,-0.193 0.24,-0.37 0.401,-0.529c0.16,-0.16 0.34,-0.293 0.543,-0.401l1.758,-0.94l0.874,1.636l-2.625,1.404c-0.115,0.061 -0.191,0.152 -0.227,0.274c-0.037,0.121 -0.025,0.239 0.036,0.353c0.061,0.115 0.153,0.19 0.274,0.227c0.121,0.037 0.239,0.025 0.354,-0.036l2.625,-1.404l0.875,1.637l-1.759,0.939c-0.196,0.105 -0.406,0.179 -0.629,0.221Z" style="fill:#fff;fill-rule:nonzero;"/><path d="M87.504,33.335c-0.223,0.042 -0.446,0.054 -0.669,0.036c-0.223,-0.017 -0.44,-0.066 -0.651,-0.145c-0.211,-0.08 -0.405,-0.193 -0.58,-0.338l-1.963,1.049l-0.874,-1.636l1.963,-1.049c-0.017,-0.229 -0.003,-0.454 0.044,-0.676c0.046,-0.221 0.123,-0.428 0.23,-0.622c0.107,-0.193 0.24,-0.37 0.401,-0.529c0.16,-0.16 0.34,-0.293 0.543,-0.401l1.758,-0.94l0.874,1.636l-2.625,1.404c-0.115,0.061 -0.191,0.152 -0.227,0.274c-0.037,0.121 -0.025,0.239 0.036,0.353c0.061,0.115 0.153,0.19 0.274,0.227c0.121,0.037 0.239,0.025 0.354,-0.036l2.625,-1.404l0.875,1.637l-1.759,0.939c-0.196,0.105 -0.406,0.179 -0.629,0.221Z" style="fill:none;stroke:#231f20;stroke-width:0.35px;"/></g></g><path d="M18.165,64.617c0.136,-0.05 0.268,-0.112 0.395,-0.187c0.251,-0.145 0.469,-0.328 0.65,-0.544c0.18,-0.218 0.325,-0.464 0.429,-0.727c0.105,-0.261 0.158,-0.539 0.158,-0.828c0,-0.281 -0.052,-0.55 -0.158,-0.822c-0.105,-0.268 -0.251,-0.513 -0.437,-0.73c-0.186,-0.219 -0.407,-0.408 -0.657,-0.562c-0.123,-0.075 -0.249,-0.139 -0.38,-0.19l0,4.59Zm1.613,8.08l0,-3.325c0,-0.277 -0.048,-0.533 -0.144,-0.76c-0.095,-0.224 -0.227,-0.412 -0.403,-0.574c-0.176,-0.16 -0.387,-0.29 -0.629,-0.383c-0.139,-0.053 -0.285,-0.09 -0.437,-0.113l0,5.155l-5.067,0l0,-5.18l-0.704,0l0,-3.08l0.704,0l0,-7.312l5.729,0c0.791,0 1.565,0.131 2.3,0.39c0.73,0.258 1.384,0.621 1.945,1.08c0.564,0.46 1.022,1.014 1.36,1.648c0.346,0.647 0.521,1.35 0.521,2.088c0,0.87 -0.256,1.702 -0.762,2.473c-0.408,0.623 -0.941,1.159 -1.59,1.599c0.785,0.638 1.414,1.411 1.871,2.304c0.534,1.043 0.806,2.171 0.806,3.353l0,0.637l-5.5,0Z" style="fill:#fff56c;fill-rule:nonzero;"/><path d="M18.513,64.049l0,-3.434c0.158,0.113 0.299,0.244 0.423,0.389c0.161,0.188 0.288,0.4 0.378,0.631c0.09,0.231 0.134,0.459 0.134,0.696c0,0.245 -0.044,0.478 -0.131,0.695c-0.093,0.235 -0.219,0.448 -0.377,0.638c-0.121,0.146 -0.265,0.275 -0.427,0.385Zm0.314,-7.272l-5.38,0l-0.697,0l0,7.311l-0.007,0l-0.697,0l0,3.777l0.704,0l0,5.181l5.763,0l0,-0.697l0,-4.355c0.183,0.075 0.347,0.177 0.484,0.302c0.137,0.126 0.241,0.275 0.317,0.453c0.076,0.182 0.116,0.393 0.116,0.623l0,3.674l6.196,0l0,-0.697l0,-0.289c0,-1.238 -0.284,-2.42 -0.845,-3.512c-0.41,-0.804 -0.954,-1.514 -1.62,-2.123c0.525,-0.41 0.967,-0.889 1.321,-1.43c0.544,-0.829 0.82,-1.725 0.82,-2.664c0,-0.796 -0.189,-1.553 -0.562,-2.252c-0.361,-0.675 -0.848,-1.265 -1.448,-1.755c-0.591,-0.483 -1.281,-0.866 -2.049,-1.138c-0.772,-0.272 -1.585,-0.409 -2.416,-0.409Zm-1.011,8.296c0.326,-0.059 0.631,-0.173 0.92,-0.342c0.289,-0.167 0.536,-0.376 0.741,-0.622c0.204,-0.246 0.367,-0.52 0.487,-0.823c0.12,-0.299 0.181,-0.619 0.181,-0.955c0,-0.326 -0.061,-0.641 -0.181,-0.948c-0.12,-0.308 -0.286,-0.585 -0.497,-0.831c-0.209,-0.246 -0.457,-0.457 -0.739,-0.632c-0.283,-0.174 -0.586,-0.293 -0.912,-0.353l0,5.506Zm1.011,-7.599c0.758,0 1.486,0.124 2.184,0.37c0.698,0.246 1.311,0.587 1.841,1.021c0.53,0.432 0.954,0.946 1.273,1.542c0.318,0.596 0.48,1.238 0.48,1.924c0,0.805 -0.236,1.566 -0.706,2.282c-0.469,0.717 -1.107,1.304 -1.913,1.761c0.939,0.663 1.664,1.493 2.175,2.492c0.512,0.998 0.768,2.062 0.768,3.194l0,0.289l-4.802,0l0,-2.977c0,-0.326 -0.058,-0.625 -0.171,-0.896c-0.115,-0.27 -0.278,-0.501 -0.489,-0.694c-0.209,-0.192 -0.457,-0.343 -0.739,-0.453c-0.283,-0.106 -0.586,-0.161 -0.912,-0.161l0,5.181l-4.369,0l0,-5.181l-0.704,0l0,-2.382l0.704,0l0,-7.312l5.38,0Z" style="fill:#231f20;fill-rule:nonzero;"/><path d="M26.331,72.697l0,-4.295l-0.668,0l0,-2.683l0.668,0l0,-6.067l9.886,0l0,2.396l-5.577,0l0,3.671l1.641,0l0,2.683l-1.641,0l0,1.902l5.577,0l0,2.393l-9.886,0Z" style="fill:#fff56c;fill-rule:nonzero;"/><path d="M36.566,59.303l-0.697,0l-9.19,0l-0.697,0l0,6.068l-0.667,0l0,3.379l0.667,0l0,4.296l10.584,0l0,-0.697l0,-1.697l0,-0.697l-0.697,0l-4.881,0l0,-1.205l1.641,0l0,-0.697l0,-1.986l0,-0.696l-0.697,0l-0.944,0l0,-2.975l5.578,0l0,-0.697l0,-1.699l0,-0.697Zm-0.697,0.697l0,1.699l-5.578,0l0,4.368l1.641,0l0,1.986l-1.641,0l0,2.599l5.578,0l0,1.697l-9.19,0l0,-4.296l-0.667,0l0,-1.986l0.667,0l0,-6.067l9.19,0Z" style="fill:#231f20;fill-rule:nonzero;"/><path d="M42.019,72.697l0,-10.095c0,-0.162 -0.051,-0.287 -0.159,-0.395c-0.11,-0.109 -0.236,-0.159 -0.395,-0.159c-0.158,0 -0.28,0.049 -0.382,0.155c-0.106,0.109 -0.155,0.235 -0.155,0.399l0,10.095l-4.326,0l0,-13.045l4.326,0l0,0.389c0.508,-0.259 1.062,-0.389 1.656,-0.389c0.499,0 0.986,0.101 1.447,0.3c0.455,0.199 0.859,0.472 1.2,0.814c0.342,0.343 0.616,0.743 0.813,1.188c0.199,0.452 0.301,0.937 0.301,1.441l0,9.302l-4.326,0Z" style="fill:#fff56c;fill-rule:nonzero;"/><path d="M42.584,59.303c-0.458,0 -0.895,0.071 -1.307,0.212l0,-0.212l-0.697,0l-3.629,0l-0.697,0l0,13.743l5.023,0l0,-0.697l0,-9.747c0,-0.082 0.02,-0.12 0.056,-0.156c0.028,-0.03 0.054,-0.05 0.132,-0.05c0.076,0 0.111,0.02 0.151,0.06c0.034,0.034 0.054,0.069 0.054,0.146l0,10.444l5.023,0l0,-0.697l0,-8.954c0,-0.552 -0.111,-1.085 -0.33,-1.581c-0.215,-0.486 -0.513,-0.92 -0.885,-1.294c-0.372,-0.373 -0.812,-0.672 -1.307,-0.887c-0.507,-0.219 -1.04,-0.33 -1.587,-0.33Zm0,0.697c0.457,0 0.893,0.092 1.309,0.272c0.414,0.181 0.778,0.427 1.091,0.74c0.313,0.314 0.56,0.674 0.741,1.083c0.181,0.41 0.271,0.843 0.271,1.3l0,8.954l-3.629,0l0,-9.747c0,-0.254 -0.087,-0.468 -0.261,-0.642c-0.176,-0.174 -0.388,-0.261 -0.641,-0.261c-0.253,0 -0.464,0.087 -0.633,0.261c-0.168,0.174 -0.252,0.388 -0.252,0.642l0,9.747l-3.629,0l0,-12.349l3.629,0l0,0.669c0.589,-0.445 1.257,-0.669 2.004,-0.669Z" style="fill:#231f20;fill-rule:nonzero;"/><path d="M49.764,72.697l0,-10.649l-3.034,0l0,-2.396l10.375,0l0,2.396l-3.017,0l0,10.649l-4.324,0Z" style="fill:#fff56c;fill-rule:nonzero;"/><path d="M57.453,59.303l-0.697,0l-9.677,0l-0.697,0l0,3.093l3.034,0l0,10.65l5.021,0l0,-0.697l0,-9.953l3.016,0l0,-0.697l0,-1.699l0,-0.697Zm-0.697,0.697l0,1.699l-3.016,0l0,10.65l-3.627,0l0,-10.65l-3.034,0l0,-1.699l9.677,0Z" style="fill:#231f20;fill-rule:nonzero;"/><path d="M63.574,65.719l0,-3.117c0,-0.16 -0.051,-0.286 -0.16,-0.394c-0.11,-0.11 -0.229,-0.16 -0.377,-0.16c-0.16,0 -0.285,0.05 -0.391,0.157c-0.112,0.111 -0.163,0.235 -0.163,0.397l0,3.117l1.091,0Zm0,6.978l0,-4.295l-1.091,0l0,4.295l-4.325,0l0,-4.295l-0.669,0l0,-2.683l0.669,0l0,-1.204c0,-1.317 0.484,-2.469 1.437,-3.423c0.954,-0.956 2.112,-1.44 3.442,-1.44c1.318,0 2.47,0.484 3.424,1.44c0.954,0.953 1.438,2.105 1.438,3.423l0,8.182l-4.325,0Z" style="fill:#fff56c;fill-rule:nonzero;"/><path d="M62.832,65.371l0,-2.769c0,-0.077 0.018,-0.109 0.055,-0.145c0.04,-0.041 0.075,-0.061 0.15,-0.061c0.048,0 0.08,0.008 0.127,0.056c0.041,0.04 0.061,0.075 0.061,0.15l0,2.769l-0.393,0Zm0.205,-6.068c-1.425,0 -2.667,0.519 -3.689,1.542c-1.021,1.022 -1.539,2.257 -1.539,3.67l0,0.856l-0.668,0l0,3.379l0.668,0l0,4.296l5.023,0l0,-0.697l0,-3.599l0.393,0l0,4.296l5.022,0l0,-0.697l0,-7.834c0,-1.414 -0.518,-2.649 -1.54,-3.67c-1.022,-1.023 -2.257,-1.542 -3.67,-1.542Zm-0.902,6.764l1.788,0l0,-3.465c0,-0.254 -0.089,-0.468 -0.264,-0.642c-0.173,-0.174 -0.381,-0.261 -0.622,-0.261c-0.251,0 -0.467,0.087 -0.639,0.261c-0.176,0.174 -0.263,0.388 -0.263,0.642l0,3.465Zm0.902,-6.067c1.228,0 2.286,0.446 3.177,1.338c0.892,0.89 1.336,1.948 1.336,3.177l0,7.834l-3.627,0l0,-4.296l-1.788,0l0,4.296l-3.628,0l0,-4.296l-0.669,0l0,-1.986l0.669,0l0,-1.552c0,-1.229 0.445,-2.287 1.334,-3.177c0.891,-0.892 1.955,-1.338 3.196,-1.338Z" style="fill:#231f20;fill-rule:nonzero;"/><path d="M68.286,72.697l0,-13.045l4.307,0l0,10.652l5.577,0l0,2.393l-9.884,0Z" style="fill:#fff56c;fill-rule:nonzero;"/><path d="M72.941,59.303l-0.697,0l-3.609,0l-0.698,0l0,13.743l10.582,0l0,-0.697l0,-1.697l0,-0.697l-0.697,0l-4.881,0l0,-9.955l0,-0.697Zm-0.697,0.697l0,10.652l5.578,0l0,1.697l-9.187,0l0,-12.349l3.609,0Z" style="fill:#231f20;fill-rule:nonzero;"/><path d="M78.557,72.697l0,-2.393l4.681,0c0.1,0 0.176,-0.033 0.25,-0.106c0.074,-0.074 0.106,-0.149 0.106,-0.25c0,-0.094 -0.025,-0.171 -0.078,-0.243l-4.074,-5.322c-0.396,-0.517 -0.596,-1.111 -0.596,-1.764c0,-0.404 0.079,-0.791 0.234,-1.15c0.159,-0.353 0.375,-0.667 0.643,-0.938c0.27,-0.268 0.584,-0.483 0.935,-0.641c0.36,-0.158 0.748,-0.238 1.154,-0.238l6.667,0l0,2.396l-4.683,0c-0.098,0 -0.175,0.032 -0.249,0.106c-0.072,0.071 -0.104,0.148 -0.104,0.249c0,0.122 0.038,0.18 0.071,0.217l0.018,0.022l4.064,5.326c0.191,0.273 0.339,0.547 0.446,0.826c0.111,0.297 0.167,0.612 0.167,0.938c0,0.395 -0.081,0.779 -0.239,1.141c-0.153,0.357 -0.369,0.677 -0.642,0.947c-0.269,0.271 -0.588,0.487 -0.946,0.642c-0.362,0.156 -0.751,0.235 -1.158,0.235l-6.667,0Z" style="fill:#fff56c;fill-rule:nonzero;"/><path d="M88.827,59.303l-0.697,0l-6.318,0c-0.455,0 -0.89,0.09 -1.293,0.268c-0.393,0.175 -0.742,0.414 -1.04,0.712c-0.301,0.304 -0.541,0.652 -0.714,1.039c-0.179,0.412 -0.267,0.846 -0.267,1.297c0,0.731 0.224,1.396 0.666,1.975l4.074,5.321c0.005,0.008 0.008,0.013 0.008,0.032c-0.001,0.001 -0.002,0.002 -0.003,0.002l-0.006,0.006l-4.331,0l-0.697,0l0,3.091l7.015,0c0.455,0 0.89,-0.089 1.295,-0.264c0.4,-0.172 0.756,-0.414 1.058,-0.719c0.301,-0.297 0.542,-0.653 0.715,-1.054c0.175,-0.403 0.265,-0.834 0.265,-1.277c0,-0.367 -0.063,-0.723 -0.188,-1.057c-0.119,-0.311 -0.28,-0.611 -0.48,-0.896l-0.008,-0.011l-0.009,-0.011l-4.063,-5.327l-0.016,-0.022l-0.002,-0.001c0,-0.001 0,-0.003 0,-0.004c0.003,-0.003 0.005,-0.005 0.007,-0.007l4.332,0l0.697,0l0,-0.697l0,-1.699l0,-0.697Zm-0.697,0.697l0,1.699l-4.334,0c-0.192,0 -0.356,0.069 -0.495,0.207c-0.139,0.138 -0.207,0.305 -0.207,0.497c0,0.181 0.053,0.33 0.161,0.45l4.063,5.326c0.169,0.241 0.301,0.487 0.398,0.74c0.095,0.253 0.144,0.524 0.144,0.813c0,0.348 -0.07,0.683 -0.209,1.002c-0.137,0.318 -0.327,0.6 -0.569,0.838c-0.238,0.241 -0.52,0.433 -0.839,0.57c-0.319,0.138 -0.658,0.207 -1.019,0.207l-6.318,0l0,-1.697l4.332,0c0.192,0 0.358,-0.07 0.496,-0.207c0.139,-0.139 0.209,-0.303 0.209,-0.497c0,-0.169 -0.049,-0.318 -0.147,-0.45l-4.078,-5.327c-0.348,-0.456 -0.523,-0.974 -0.523,-1.552c0,-0.361 0.07,-0.698 0.205,-1.011c0.14,-0.312 0.33,-0.589 0.571,-0.832c0.24,-0.239 0.518,-0.428 0.829,-0.567c0.314,-0.139 0.651,-0.209 1.012,-0.209l6.318,0Z" style="fill:#231f20;fill-rule:nonzero;"/><g transform="matrix(1.26316,0,0,1.26316,9.51295,-0.380516)"><path d="M87.272,19.753c0,-0.816 0.641,-1.458 1.458,-1.458l7.583,0l-0.875,-2.917l-6.708,0c-2.421,0 -4.375,1.954 -4.375,4.375l0,2.042c0,4.958 9.042,5.104 9.042,8.167l0,1.458c0,0.817 -0.642,1.458 -1.459,1.458l-7.583,0l0.875,2.917l6.708,0c2.421,0 4.375,-1.954 4.375,-4.375l0,-2.042c0,-4.666 -9.041,-5.104 -9.041,-8.166l0,-1.459Z" style="fill:#fff;fill-rule:nonzero;"/><path d="M103.022,32.878c-0.817,0 -1.459,-0.641 -1.459,-1.458l0,-16.042l-2.916,0l0,16.042c0,2.421 1.954,4.375 4.375,4.375l2.916,0c2.421,0 4.375,-1.954 4.375,-4.375l0,-16.042l-2.916,0l0,16.042c0,0.817 -0.642,1.458 -1.459,1.458l-2.916,0Z" style="fill:#fff;fill-rule:nonzero;"/><path d="M120.522,27.045c2.42,0 4.375,-1.954 4.375,-4.375l0,-2.917c0,-2.421 -1.955,-4.375 -4.375,-4.375l-7.292,0l0,20.417l2.917,0l0,-8.75l4.375,0Zm1.458,-4.375c0,0.817 -0.642,1.458 -1.458,1.458l-4.375,0l0,-5.833l4.375,0c0.816,0 1.458,0.642 1.458,1.458l0,2.917Z" style="fill:#fff;fill-rule:nonzero;"/><path d="M134.813,27.045c2.421,0 4.375,-1.954 4.375,-4.375l0,-2.917c0,-2.421 -1.954,-4.375 -4.375,-4.375l-7.291,0l0,20.417l2.916,0l0,-8.75l4.375,0Zm1.459,-4.375c0,0.817 -0.642,1.458 -1.459,1.458l-4.375,0l0,-5.833l4.375,0c0.817,0 1.459,0.642 1.459,1.458l0,2.917Z" style="fill:#fff;fill-rule:nonzero;"/><path d="M148.813,35.795c2.421,0 4.375,-1.954 4.375,-4.375l0,-11.667c0,-2.421 -1.954,-4.375 -4.375,-4.375l-2.916,0c-2.421,0 -4.375,1.954 -4.375,4.375l0,11.667c0,2.421 1.954,4.375 4.375,4.375l2.916,0Zm-2.916,-2.917c-0.817,0 -1.459,-0.641 -1.459,-1.458l0,-11.667c0,-0.816 0.642,-1.458 1.459,-1.458l2.916,0c0.817,0 1.459,0.642 1.459,1.458l0,11.667c0,0.817 -0.642,1.458 -1.459,1.458l-2.916,0Z" style="fill:#fff;fill-rule:nonzero;"/><path d="M161.647,27.045c1.166,0 2.916,3.5 2.916,5.833l0,2.917l2.917,0l0,-2.917c0,-3.179 -1.313,-5.337 -2.158,-6.416c1.283,-0.759 2.158,-2.188 2.158,-3.792l0,-2.917c0,-2.421 -1.954,-4.375 -4.375,-4.375l-7.292,0l0,20.417l2.917,0l0,-8.75l2.917,0Zm2.916,-4.375c0,0.817 -0.641,1.458 -1.458,1.458l-4.375,0l0,-5.833l4.375,0c0.817,0 1.458,0.642 1.458,1.458l0,2.917Z" style="fill:#fff;fill-rule:nonzero;"/><path d="M169.23,18.295l4.375,0l0,17.5l2.917,0l0,-17.5l4.375,0l0,-2.917l-11.667,0l0,2.917Z" style="fill:#fff;fill-rule:nonzero;"/><path d="M99.522,56.212c2.42,0 4.375,-1.955 4.375,-4.375l0,-2.917c0,-2.421 -1.955,-4.375 -4.375,-4.375l-7.292,0l0,20.417l2.917,0l0,-8.75l4.375,0Zm1.458,-4.375c0,0.816 -0.642,1.458 -1.458,1.458l-4.375,0l0,-5.833l4.375,0c0.816,0 1.458,0.641 1.458,1.458l0,2.917Z" style="fill:#fff;fill-rule:nonzero;"/><path d="M113.522,64.962c2.42,0 4.375,-1.955 4.375,-4.375l0,-11.667c0,-2.421 -1.955,-4.375 -4.375,-4.375l-2.917,0c-2.421,0 -4.375,1.954 -4.375,4.375l0,11.667c0,2.42 1.954,4.375 4.375,4.375l2.917,0Zm-2.917,-2.917c-0.817,0 -1.458,-0.642 -1.458,-1.458l0,-11.667c0,-0.817 0.641,-1.458 1.458,-1.458l2.917,0c0.816,0 1.458,0.641 1.458,1.458l0,11.667c0,0.816 -0.642,1.458 -1.458,1.458l-2.917,0Z" style="fill:#fff;fill-rule:nonzero;"/><path d="M126.355,56.212c1.167,0 2.917,3.5 2.917,5.833l0,2.917l2.916,0l0,-2.917c0,-3.179 -1.312,-5.338 -2.158,-6.417c1.283,-0.758 2.158,-2.187 2.158,-3.791l0,-2.917c0,-2.421 -1.954,-4.375 -4.375,-4.375l-7.291,0l0,20.417l2.916,0l0,-8.75l2.917,0Zm2.917,-4.375c0,0.816 -0.642,1.458 -1.459,1.458l-4.375,0l0,-5.833l4.375,0c0.817,0 1.459,0.641 1.459,1.458l0,2.917Z" style="fill:#fff;fill-rule:nonzero;"/><path d="M133.938,47.462l4.375,0l0,17.5l2.917,0l0,-17.5l4.375,0l0,-2.917l-11.667,0l0,2.917Z" style="fill:#fff;fill-rule:nonzero;"/><path d="M154.647,47.462c0.816,0 1.458,0.641 1.458,1.458l0,4.375l-5.833,0l0,-4.375c0,-0.817 0.641,-1.458 1.458,-1.458l2.917,0Zm-2.917,-2.917c-2.421,0 -4.375,1.954 -4.375,4.375l0,16.042l2.917,0l0,-8.75l5.833,0l0,8.75l2.917,0l0,-16.042c0,-2.421 -1.955,-4.375 -4.375,-4.375l-2.917,0Z" style="fill:#fff;fill-rule:nonzero;"/><path d="M161.938,64.962l11.667,0l0,-2.917l-8.75,0l0,-17.5l-2.917,0l0,20.417Z" style="fill:#fff;fill-rule:nonzero;"/></g><rect x="105.715" y="0.694" width="3.425" height="98.554" style="fill:#fff;"/></svg>